<svg width="23" height="18" viewBox="0 0 23 18" fill="none" xmlns="http://www.w3.org/2000/svg">
<path d="M2.26421 0.623047C1.0875 0.623047 0.132812 1.57773 0.132812 2.75444C0.132812 3.42494 0.448081 4.05548 0.985371 4.45956L10.6477 11.7063C11.1539 12.0837 11.8466 12.0837 12.3528 11.7063L22.0151 4.45956C22.5524 4.05548 22.8677 3.42494 22.8677 2.75444C22.8677 1.57773 21.913 0.623047 20.7363 0.623047H2.26421ZM0.132812 5.5963V14.8324C0.132812 16.3998 1.40721 17.6742 2.97467 17.6742H20.0258C21.5933 17.6742 22.8677 16.3998 22.8677 14.8324V5.5963L13.2054 12.8431C12.193 13.6024 10.8076 13.6024 9.79514 12.8431L0.132812 5.5963Z" fill="white"/>
</svg>
