<svg width="21" height="21" viewBox="0 0 21 21" fill="none" xmlns="http://www.w3.org/2000/svg">
<path d="M6.94112 1.11021C6.64035 0.383683 5.84742 -0.00301883 5.08964 0.204003L1.65229 1.14146C0.972635 1.32895 0.5 1.94611 0.5 2.64921C0.5 12.3128 8.33559 20.1484 17.9992 20.1484C18.7023 20.1484 19.3195 19.6758 19.507 18.9961L20.4444 15.5588C20.6515 14.801 20.2648 14.0081 19.5382 13.7073L15.7884 12.1449C15.1517 11.8793 14.4134 12.0629 13.9799 12.598L12.4018 14.5237C9.65194 13.223 7.42548 10.9965 6.12475 8.24662L8.05045 6.67247C8.58558 6.23499 8.76917 5.50065 8.50355 4.86395L6.94112 1.11412V1.11021Z" fill="white"/>
</svg>
