<svg xmlns="http://www.w3.org/2000/svg" fill="none" viewBox="0 0 380 220">
  <path fill="#177C1B" d="M77.77 171.39c.62.38.62 1 0 1.37a2.9 2.9 0 0 1-2.5 0c-.62-.37-.62-1 0-1.37a2.9 2.9 0 0 1 2.5 0Zm-7.61-1.99c.96 0 1.74-.46 1.74-1 0-.56-.78-1-1.74-1-.97 0-1.75.44-1.75 1 0 .54.78 1 1.75 1Zm-11.49-1.63c.63.37.63 1 0 1.37-.62.38-1.74.38-2.5 0-.62-.37-.62-1 0-1.37a2.9 2.9 0 0 1 2.5 0Zm6.37-3.75c.62.38.62 1 0 1.38-.63.37-1.75.37-2.5 0-.62-.38-.62-1 0-1.38a2.9 2.9 0 0 1 2.5 0ZM44.7 169.4c.96 0 1.74-.46 1.74-1 0-.56-.78-1-1.74-1-.97 0-1.75.44-1.75 1 0 .54.78 1 1.75 1Zm6.36-3.63c.97 0 1.75-.45 1.75-1s-.78-1-1.75-1c-.96 0-1.75.45-1.75 1s.79 1 1.75 1Zm6.37-3.75c.96 0 1.74-.45 1.74-1s-.78-1-1.74-1c-.97 0-1.75.45-1.75 1s.78 1 1.75 1Zm-24.34 5.75c.62.37.62 1 0 1.37-.62.38-1.75.38-2.5 0-.62-.37-.62-1 0-1.37a2.9 2.9 0 0 1 2.5 0Zm6.49-3.75c.62.38.62 1 0 1.38-.62.37-1.75.37-2.5 0-.62-.38-.62-1 0-1.38a2.9 2.9 0 0 1 2.5 0Zm6.36-3.62c.63.37.63 1 0 1.37a2.9 2.9 0 0 1-2.5 0c-.62-.37-.62-1 0-1.37.76-.5 1.76-.5 2.5 0Zm6.36-3.75c.63.38.63 1 0 1.38a2.9 2.9 0 0 1-2.49 0c-.62-.38-.62-1 0-1.38a2.91 2.91 0 0 1 2.5 0Zm-26.82 8.99c.96 0 1.74-.44 1.74-1 0-.55-.78-1-1.74-1-.97 0-1.75.45-1.75 1 0 .56.78 1 1.75 1Zm7.61-5.37c.62.38.62 1 0 1.38a2.9 2.9 0 0 1-2.5 0c-.62-.38-.62-1 0-1.38a2.91 2.91 0 0 1 2.5 0Zm6.36-3.62c.63.38.63 1 0 1.38a2.9 2.9 0 0 1-2.5 0c-.62-.38-.62-1 0-1.38a2.9 2.9 0 0 1 2.5 0Zm6.37-3.75c.62.38.62 1 0 1.38a2.9 2.9 0 0 1-2.5 0c-.62-.38-.62-1 0-1.38a2.9 2.9 0 0 1 2.5 0Zm-25.46 7.37c.62.38.62 1 0 1.38a2.9 2.9 0 0 1-2.5 0c-.62-.38-.62-1 0-1.38a2.92 2.92 0 0 1 2.5 0Zm6.37-3.62c.62.38.62 1 0 1.38a2.9 2.9 0 0 1-2.5 0c-.63-.38-.63-1 0-1.38a2.9 2.9 0 0 1 2.5 0Zm5.11-2c.97 0 1.75-.44 1.75-1 0-.55-.78-1-1.75-1-.96 0-1.75.45-1.75 1 0 .56.79 1 1.75 1Zm6.36-3.75c.97 0 1.75-.44 1.75-1 0-.55-.78-1-1.74-1-.97 0-1.75.45-1.75 1 0 .56.78 1 1.75 1Zm-25.45 7.38c.96 0 1.74-.45 1.74-1 0-.56-.78-1-1.74-1-.97 0-1.75.44-1.75 1 0 .55.78 1 1.75 1Zm7.61-5.38c.62.38.62 1 0 1.38a2.9 2.9 0 0 1-2.5 0c-.62-.38-.62-1 0-1.38a2.91 2.91 0 0 1 2.5 0Zm6.37-3.62c.62.38.62 1 0 1.38-.63.37-1.75.37-2.5 0-.63-.38-.63-1 0-1.38a2.91 2.91 0 0 1 2.5 0Zm6.36-3.75c.62.38.62 1 0 1.38-.62.37-1.75.37-2.5 0-.62-.38-.62-1 0-1.38a2.91 2.91 0 0 1 2.5 0Zm-20.34 5.37c.96 0 1.74-.44 1.74-1 0-.55-.78-1-1.74-1-.97 0-1.75.45-1.75 1 0 .56.78 1 1.75 1Zm6.36-3.62c.97 0 1.75-.44 1.75-1 0-.55-.78-1-1.75-1-.96 0-1.75.45-1.75 1 0 .56.79 1 1.75 1Zm6.37-3.74c.96 0 1.74-.45 1.74-1s-.78-1-1.74-1c-.97 0-1.75.45-1.75 1s.78 1 1.75 1Zm58.78 24.23c.62.37.62 1 0 1.37-.63.38-1.75.38-2.5 0-.62-.37-.62-1 0-1.37a2.91 2.91 0 0 1 2.5 0Zm5.12-2c.96 0 1.74-.45 1.74-1s-.78-1-1.74-1c-.97 0-1.75.45-1.75 1s.78 1 1.75 1Zm6.36-3.75c.97 0 1.75-.45 1.75-1s-.78-1-1.75-1c-.96 0-1.75.45-1.75 1s.79 1 1.75 1Zm6.36-3.62c.97 0 1.75-.45 1.75-1s-.78-1-1.74-1c-.97 0-1.75.45-1.75 1s.78 1 1.75 1Zm6.5-3.75c.96 0 1.74-.44 1.74-1 0-.55-.78-1-1.75-1-.96 0-1.74.45-1.74 1 0 .56.78 1 1.75 1Zm7.6-5.37c.63.38.63 1 0 1.38-.62.37-1.74.37-2.49 0-.62-.38-.62-1 0-1.38a2.9 2.9 0 0 1 2.5 0Zm6.37-2.25c-.62.38-1.74.38-2.5 0-.62-.37-.62-1 0-1.37a2.9 2.9 0 0 1 2.5 0c.63.37.63 1 0 1.37ZM75.4 164.02a2.9 2.9 0 0 1 2.5 0c.62.38.62 1 0 1.38-.63.37-1.75.37-2.5 0-.63-.25-.63-.88 0-1.38Zm8.86-3.62c.62.37.62 1 0 1.37a2.9 2.9 0 0 1-2.5 0c-.62-.37-.62-1 0-1.37a2.92 2.92 0 0 1 2.5 0Zm6.36-3.75c.63.38.63 1 0 1.38a2.9 2.9 0 0 1-2.5 0c-.62-.38-.62-1 0-1.38a2.9 2.9 0 0 1 2.5 0Zm5.12-2c.97 0 1.75-.44 1.75-1 0-.55-.78-1-1.75-1-.96 0-1.75.45-1.75 1 0 .56.79 1 1.75 1Zm6.36-3.62c.97 0 1.75-.45 1.75-1s-.78-1-1.74-1c-.97 0-1.75.45-1.75 1s.78 1 1.75 1Zm6.5-3.75c.96 0 1.74-.44 1.74-1 0-.55-.78-1-1.75-1-.96 0-1.74.45-1.74 1 0 .56.78 1 1.75 1Zm6.36-3.62c.96 0 1.75-.45 1.75-1s-.79-1-1.75-1c-.97 0-1.75.45-1.75 1s.78 1 1.75 1Zm6.36-3.75c.97 0 1.75-.44 1.75-1 0-.55-.78-1-1.75-1-.96 0-1.74.45-1.74 1 0 .56.78 1 1.74 1ZM69.03 160.4a2.91 2.91 0 0 1 2.5 0c.62.37.62 1 0 1.37a2.9 2.9 0 0 1-2.5 0c-.62-.37-.62-1 0-1.37Zm8.87-3.75c.62.38.62 1 0 1.38a2.9 2.9 0 0 1-2.5 0c-.63-.38-.63-1 0-1.38a2.91 2.91 0 0 1 2.5 0Zm5.11-2c.97 0 1.75-.44 1.75-1 0-.55-.78-1-1.75-1-.96 0-1.75.45-1.75 1 0 .56.79 1 1.75 1Zm7.61-5.37c.63.38.63 1 0 1.38-.62.37-1.74.37-2.5 0-.62-.38-.62-1 0-1.38a2.9 2.9 0 0 1 2.5 0Zm6.37-3.62c.62.37.62 1 0 1.37-.63.38-1.75.38-2.5 0-.62-.37-.62-1 0-1.37a2.9 2.9 0 0 1 2.5 0Zm6.36-3.75c.63.38.63 1 0 1.38a2.9 2.9 0 0 1-2.5 0c-.62-.38-.62-1 0-1.38a2.9 2.9 0 0 1 2.5 0Zm6.37-3.62c.62.38.62 1 0 1.37a2.9 2.9 0 0 1-2.5 0c-.62-.37-.62-1 0-1.37a2.9 2.9 0 0 1 2.5 0Zm6.48-3.75c.63.38.63 1 0 1.38a2.9 2.9 0 0 1-2.49 0c-.62-.38-.62-1 0-1.38a2.9 2.9 0 0 1 2.5 0Zm6.37-3.62c.63.38.63 1 0 1.38-.62.37-1.74.37-2.5 0-.62-.38-.62-1 0-1.38a2.91 2.91 0 0 1 2.5 0Zm5.12-2c.96 0 1.75-.44 1.75-1 0-.55-.79-1-1.75-1-.97 0-1.75.45-1.75 1s.78 1 1.75 1Zm6.36-3.75c.97 0 1.75-.44 1.75-1 0-.55-.78-1-1.75-1-.96 0-1.74.45-1.74 1 0 .56.78 1 1.74 1Zm6.37-3.62c.96 0 1.75-.44 1.75-1 0-.55-.79-1-1.75-1-.97 0-1.75.45-1.75 1 0 .56.78 1 1.75 1Zm6.36-3.75c.97 0 1.75-.44 1.75-1 0-.55-.78-1-1.75-1-.96 0-1.74.45-1.74 1 0 .56.78 1 1.74 1Zm6.49-3.62c.97 0 1.75-.44 1.75-1 0-.55-.78-1-1.75-1-.96 0-1.74.45-1.74 1 0 .56.78 1 1.74 1Zm-90.6 42.47a2.9 2.9 0 0 1 2.5 0c.62.38.62 1 0 1.38a2.9 2.9 0 0 1-2.5 0c-.63-.25-.75-1 0-1.38Zm8.86-3.62c.62.37.62 1 0 1.37a2.9 2.9 0 0 1-2.5 0c-.62-.37-.62-1 0-1.37a2.9 2.9 0 0 1 2.5 0Zm6.37-3.75c.62.38.62 1 0 1.38-.63.37-1.75.37-2.5 0-.63-.38-.63-1 0-1.38a2.91 2.91 0 0 1 2.5 0Zm6.36-3.62c.62.37.62 1 0 1.37-.63.38-1.75.38-2.5 0-.62-.37-.62-1 0-1.37a2.91 2.91 0 0 1 2.5 0Zm5.12-2c.96 0 1.74-.45 1.74-1s-.78-1-1.74-1c-.97 0-1.75.45-1.75 1s.78 1 1.75 1Zm6.36-3.75c.97 0 1.75-.44 1.75-1 0-.55-.78-1-1.75-1-.96 0-1.75.45-1.75 1 0 .56.79 1 1.75 1Zm6.36-3.61c.97 0 1.75-.46 1.75-1 0-.56-.78-1-1.74-1-.97 0-1.75.44-1.75 1 0 .54.78 1 1.75 1Zm6.5-3.76c.96 0 1.74-.44 1.74-1 0-.55-.78-1-1.75-1-.96 0-1.74.45-1.74 1 0 .56.78 1 1.75 1Zm6.36-3.62c.96 0 1.75-.44 1.75-1 0-.55-.79-1-1.75-1-.97 0-1.75.45-1.75 1s.78 1 1.75 1Zm7.61-5.37c.63.38.63 1 0 1.38a2.9 2.9 0 0 1-2.5 0c-.62-.38-.62-1 0-1.38a2.92 2.92 0 0 1 2.5 0Zm6.37-3.75c.62.38.62 1 0 1.38a2.9 2.9 0 0 1-2.5 0c-.62-.38-.62-1 0-1.38a2.92 2.92 0 0 1 2.5 0Zm6.36-3.62c.63.38.63 1 0 1.38a2.9 2.9 0 0 1-2.5 0c-.62-.38-.62-1 0-1.38.75-.5 1.88-.5 2.5 0Zm5.12-2c.96 0 1.75-.44 1.75-1 0-.55-.79-1-1.75-1-.97 0-1.75.45-1.75 1 0 .56.78 1 1.75 1Zm6.36-3.74c.97 0 1.75-.45 1.75-1s-.78-1-1.75-1c-.96 0-1.74.45-1.74 1s.78 1 1.74 1Zm6.49-3.63c.97 0 1.75-.44 1.75-1 0-.55-.78-1-1.75-1-.96 0-1.74.45-1.74 1 0 .56.78 1 1.74 1ZM56.3 153.03a2.9 2.9 0 0 1 2.5 0c.62.37.62 1 0 1.37a2.9 2.9 0 0 1-2.5 0c-.75-.37-.75-1 0-1.37Zm7.62-2c.96 0 1.74-.45 1.74-1s-.78-1-1.74-1c-.97 0-1.75.45-1.75 1s.78 1 1.75 1Zm6.36-3.75c.97 0 1.75-.44 1.75-1 0-.55-.78-1-1.75-1-.96 0-1.75.45-1.75 1 0 .56.79 1 1.75 1Zm6.37-3.62c.96 0 1.74-.45 1.74-1s-.78-1-1.74-1c-.97 0-1.75.45-1.75 1s.78 1 1.75 1Zm7.61-5.37c.62.38.62 1 0 1.37a2.9 2.9 0 0 1-2.5 0c-.62-.37-.62-1 0-1.37a2.91 2.91 0 0 1 2.5 0Zm6.36-3.75c.63.38.63 1 0 1.38a2.9 2.9 0 0 1-2.5 0c-.62-.38-.62-1 0-1.38a2.9 2.9 0 0 1 2.5 0Zm6.37-3.62c.62.38.62 1 0 1.38-.63.37-1.75.37-2.5 0-.62-.38-.62-1 0-1.38a2.9 2.9 0 0 1 2.5 0Zm5.11-2c.97 0 1.75-.44 1.75-1 0-.55-.78-1-1.74-1-.97 0-1.75.45-1.75 1s.78 1 1.75 1Zm6.5-3.75c.96 0 1.74-.44 1.74-1 0-.55-.78-1-1.75-1-.96 0-1.74.45-1.74 1 0 .56.78 1 1.75 1Zm6.36-3.62c.96 0 1.75-.44 1.75-1 0-.55-.79-1-1.75-1-.97 0-1.75.45-1.75 1 0 .56.78 1 1.75 1Zm6.36-3.75c.97 0 1.75-.44 1.75-1 0-.55-.78-1-1.75-1-.96 0-1.74.45-1.74 1 0 .56.78 1 1.74 1Zm7.62-5.36c.62.37.62 1 0 1.37a2.9 2.9 0 0 1-2.5 0c-.62-.38-.62-1 0-1.38a2.91 2.91 0 0 1 2.5 0Zm6.36-3.63c.63.38.63 1 0 1.38-.62.37-1.75.37-2.5 0-.62-.38-.62-1 0-1.38.75-.5 1.88-.5 2.5 0Zm5.12-2c.96 0 1.75-.44 1.75-1 0-.55-.79-1-1.75-1-.97 0-1.75.45-1.75 1 0 .56.78 1 1.75 1Zm7.61-5.37c.63.38.63 1 0 1.38a2.9 2.9 0 0 1-2.5 0c-.62-.38-.62-1 0-1.38.75-.5 1.88-.5 2.5 0Zm-96.97 49.59c.97 0 1.75-.45 1.75-1s-.78-1-1.75-1c-.96 0-1.75.45-1.75 1s.79 1 1.75 1Zm6.37-3.75c.96 0 1.74-.44 1.74-1 0-.55-.78-1-1.74-1-.97 0-1.75.45-1.75 1 0 .56.78 1 1.75 1Zm6.37-3.62c.96 0 1.74-.45 1.74-1s-.78-1-1.75-1c-.96 0-1.75.45-1.75 1s.79 1 1.75 1Zm6.36-3.75c.96 0 1.74-.44 1.74-1 0-.55-.78-1-1.74-1-.97 0-1.75.45-1.75 1 0 .56.78 1 1.75 1Zm7.61-5.37c.62.38.62 1 0 1.38a2.9 2.9 0 0 1-2.5 0c-.62-.38-.62-1 0-1.38a2.9 2.9 0 0 1 2.5 0Zm6.36-3.74c.63.37.63 1 0 1.37a2.9 2.9 0 0 1-2.5 0c-.62-.38-.62-1 0-1.37a2.9 2.9 0 0 1 2.5 0Zm6.49-3.63c.63.38.63 1 0 1.38-.62.37-1.74.37-2.5 0-.62-.38-.62-1 0-1.38a2.9 2.9 0 0 1 2.5 0Zm5.12-2c.97 0 1.75-.44 1.75-1 0-.55-.78-1-1.75-1-.96 0-1.75.45-1.75 1 0 .56.79 1 1.75 1Zm6.36-3.74c.97 0 1.75-.45 1.75-1s-.78-1-1.74-1c-.97 0-1.75.45-1.75 1s.78 1 1.75 1Zm6.37-3.63c.97 0 1.75-.44 1.75-1 0-.55-.78-1-1.75-1s-1.75.45-1.75 1c0 .56.78 1 1.75 1Zm6.36-3.74c.97 0 1.75-.45 1.75-1s-.78-1-1.75-1c-.96 0-1.74.45-1.74 1s.78 1 1.74 1Zm6.37-3.62c.97 0 1.75-.45 1.75-1s-.78-1-1.75-1-1.75.45-1.75 1 .78 1 1.75 1Zm7.61-5.37c.63.37.63 1 0 1.37-.62.37-1.75.37-2.5 0-.62-.38-.62-1 0-1.37a2.9 2.9 0 0 1 2.5 0Zm6.37-3.75c.62.37.62 1 0 1.37a2.9 2.9 0 0 1-2.5 0c-.62-.37-.62-1 0-1.37a2.92 2.92 0 0 1 2.5 0Zm6.49-3.62c.62.37.62 1 0 1.37a2.9 2.9 0 0 1-2.5 0c-.62-.37-.62-1 0-1.37a2.9 2.9 0 0 1 2.5 0Zm-98.22 47.83a2.9 2.9 0 0 1 2.5 0c.62.38.62 1 0 1.38-.63.37-1.75.37-2.5 0-.63-.25-.63-.88 0-1.38Zm8.85-3.62c.63.38.63 1 0 1.38a2.9 2.9 0 0 1-2.49 0c-.62-.38-.62-1 0-1.38a2.91 2.91 0 0 1 2.5 0Zm5.13-2c.96 0 1.74-.44 1.74-1 0-.55-.78-1-1.74-1-.97 0-1.75.45-1.75 1 0 .56.78 1 1.75 1Zm7.61-5.37c.62.38.62 1 0 1.38a2.9 2.9 0 0 1-2.5 0c-.62-.38-.62-1 0-1.38a2.9 2.9 0 0 1 2.5 0Zm5.12-2c.96 0 1.74-.44 1.74-1 0-.55-.78-1-1.74-1-.97 0-1.75.45-1.75 1 0 .56.78 1 1.75 1Zm7.61-5.37c.62.38.62 1 0 1.38-.63.37-1.75.37-2.5 0-.62-.38-.62-1 0-1.38a2.9 2.9 0 0 1 2.5 0Zm3.99-3.74a2.9 2.9 0 0 1 2.5 0c.62.37.62 1 0 1.37-.63.38-1.75.38-2.5 0-.75-.25-.75-1 0-1.37.63-.38-.75.37 0 0Zm7.62-2c.96 0 1.74-.45 1.74-1s-.78-1-1.74-1c-.97 0-1.75.45-1.75 1s.78 1 1.75 1Zm6.36-3.63c.97 0 1.75-.44 1.75-1 0-.55-.78-1-1.75-1-.96 0-1.75.45-1.75 1 0 .56.79 1 1.75 1Zm7.61-5.36c.63.37.63 1 0 1.37a2.9 2.9 0 0 1-2.5 0c-.62-.38-.62-1 0-1.38a2.91 2.91 0 0 1 2.5 0Zm6.37-3.75c.62.37.62 1 0 1.37-.63.38-1.75.38-2.5 0-.62-.37-.62-1 0-1.37a2.9 2.9 0 0 1 2.5 0Zm6.36-3.62c.63.37.63 1 0 1.37-.62.37-1.75.37-2.5 0-.62-.38-.62-1 0-1.37a2.9 2.9 0 0 1 2.5 0Zm6.37-3.75c.62.37.62 1 0 1.37a2.9 2.9 0 0 1-2.5 0c-.62-.37-.62-1 0-1.37a2.91 2.91 0 0 1 2.5 0Zm5.24-2c.96 0 1.75-.45 1.75-1s-.79-1-1.75-1c-.97 0-1.75.45-1.75 1s.78 1 1.75 1Zm-90.61 42.59a2.9 2.9 0 0 1 2.5 0c.62.38.62 1 0 1.38a2.9 2.9 0 0 1-2.5 0c-.62-.38-.62-1 0-1.38Zm7.62-2c.96 0 1.74-.44 1.74-1 0-.55-.78-1-1.74-1-.97 0-1.75.45-1.75 1 0 .56.78 1 1.75 1Zm6.36-3.61c.97 0 1.75-.46 1.75-1 0-.56-.78-1-1.75-1-.96 0-1.75.44-1.75 1 0 .54.79 1 1.75 1Zm6.37-3.76c.96 0 1.74-.44 1.74-1 0-.55-.78-1-1.74-1-.97 0-1.75.45-1.75 1 0 .56.78 1 1.75 1Zm-26.71 5.62a2.91 2.91 0 0 1 2.5 0c.62.38.62 1 0 1.38a2.9 2.9 0 0 1-2.5 0c-.75-.25-.75-.88 0-1.38Zm8.86-3.62c.62.38.62 1 0 1.38a2.9 2.9 0 0 1-2.5 0c-.62-.38-.62-1 0-1.38a2.9 2.9 0 0 1 2.5 0ZM159.89 191c.96 0 1.75-.45 1.75-1s-.79-1-1.75-1c-.97 0-1.75.45-1.75 1s.78 1 1.75 1Zm6.36-3.62c.97 0 1.75-.45 1.75-1s-.78-1-1.75-1c-.96 0-1.74.45-1.74 1s.78 1 1.74 1Zm-17.85 2c.63.37.63 1 0 1.37a2.9 2.9 0 0 1-2.49 0c-.62-.38-.62-1 0-1.37.62-.5 1.75-.5 2.5 0Zm6.37-3.75c.63.37.63 1 0 1.37a2.9 2.9 0 0 1-2.5 0c-.62-.37-.62-1 0-1.37a2.9 2.9 0 0 1 2.5 0Zm5.12-2c.96 0 1.75-.45 1.75-1s-.79-1-1.75-1c-.97 0-1.75.45-1.75 1s.78 1 1.75 1Zm6.36-3.63c.97 0 1.75-.44 1.75-1 0-.54-.78-.99-1.75-.99-.96 0-1.74.45-1.74 1s.78 1 1.74 1Zm-25.45 7.38c.96 0 1.74-.45 1.74-1s-.78-1-1.75-1c-.96 0-1.74.45-1.74 1s.78 1 1.74 1Zm6.36-3.75c.96 0 1.75-.45 1.75-1s-.79-1-1.75-1c-.97 0-1.75.45-1.75 1s.78 1 1.75 1Zm7.61-5.37c.63.37.63 1 0 1.37-.62.38-1.75.38-2.5 0-.74-.37-.62-1 0-1.37a2.91 2.91 0 0 1 2.5 0Zm6.37-3.62c.62.37.62 1 0 1.37a2.9 2.9 0 0 1-2.5 0c-.62-.37-.62-1 0-1.37.75-.5 1.75-.5 2.5 0ZM135.55 182c.63.38.63 1 0 1.38a2.9 2.9 0 0 1-2.5 0c-.62-.37-.62-1 0-1.37.75-.5 1.88-.5 2.5 0Zm6.37-3.74c.62.37.62 1 0 1.37-.63.38-1.75.38-2.5 0-.62-.37-.62-1 0-1.37a2.9 2.9 0 0 1 2.5 0Zm6.48-3.62c.63.37.63 1 0 1.37a2.9 2.9 0 0 1-2.49 0c-.62-.37-.62-1 0-1.37.62-.5 1.75-.5 2.5 0Zm6.37-2.38a2.9 2.9 0 0 1-2.5 0c-.62-.37-.62-1 0-1.37.75-.37 3.13 1 2.5 1.37ZM127.94 180c.96 0 1.75-.44 1.75-1 0-.54-.79-.99-1.75-.99-.97 0-1.75.45-1.75 1s.78 1 1.75 1Zm6.49-3.74c.96 0 1.75-.45 1.75-1s-.79-1-1.75-1c-.97 0-1.75.45-1.75 1s.78 1 1.75 1Zm6.37-3.62c.96 0 1.74-.45 1.74-1s-.78-1-1.75-1c-.96 0-1.74.45-1.74 1s.78 1 1.74 1Zm7.6-4a2.9 2.9 0 0 1-2.49 0c-.62-.37-.62-1 0-1.37.62-.5 3.12 1 2.5 1.37Zm-26.83 7.62c.97 0 1.75-.45 1.75-1s-.78-1-1.75-1c-.96 0-1.74.45-1.74 1s.78 1 1.74 1Zm6.37-3.75c.96 0 1.75-.44 1.75-1 0-.55-.79-1-1.75-1-.97 0-1.75.45-1.75 1 0 .56.78 1 1.75 1Zm6.36-3.61c.97 0 1.75-.46 1.75-1 0-.56-.78-1-1.75-1-.96 0-1.74.44-1.74 1 0 .54.78 1 1.74 1Zm7.62-4a2.9 2.9 0 0 1-2.5 0c-.62-.38-.62-1 0-1.38.75-.37 3.12 1 2.5 1.38Zm-25.46 5.99c.62.38.62 1 0 1.37a2.9 2.9 0 0 1-2.5 0c-.62-.37-.62-1 0-1.37a2.91 2.91 0 0 1 2.5 0Zm5.11-1.99c.97 0 1.75-.46 1.75-1 0-.56-.78-1-1.75-1-.96 0-1.74.44-1.74 1 0 .54.78 1 1.74 1Zm6.37-3.75c.96 0 1.75-.45 1.75-1 0-.56-.79-1-1.75-1-.97 0-1.75.44-1.75 1 0 .55.78 1 1.75 1Zm6.36-3.63c.97 0 1.75-.45 1.75-1s-.78-1-1.75-1c-.96 0-1.74.45-1.74 1s.78 1 1.74 1Zm-30.7 9.37c.63.38.63 1 0 1.37a2.9 2.9 0 0 1-2.5 0c-.62-.37-.62-1 0-1.37a2.92 2.92 0 0 1 2.5 0Zm5.24-1.99c.97 0 1.75-.46 1.75-1 0-.56-.78-1-1.75-1-.96 0-1.74.44-1.74 1 0 .54.78 1 1.74 1Zm7.62-5.38c.62.38.62 1 0 1.38a2.9 2.9 0 0 1-2.5 0c-.62-.38-.62-1 0-1.38a2.9 2.9 0 0 1 2.5 0Zm5.11-2c.97 0 1.75-.45 1.75-1s-.78-1-1.75-1c-.96 0-1.74.45-1.74 1s.78 1 1.74 1Zm7.62-5.37c.62.38.62 1 0 1.38-.63.37-1.75.37-2.5 0-.62-.38-.62-1 0-1.38.75-.5 1.75-.5 2.5 0Zm-40.81 14.74a2.91 2.91 0 0 1 2.5 0c.62.38.62 1 0 1.37a2.9 2.9 0 0 1-2.5 0c-.63-.37-.63-1 0-1.37Zm8.86-3.75c.62.38.62 1 0 1.38a2.9 2.9 0 0 1-2.5 0c-.62-.38-.62-1 0-1.38a2.91 2.91 0 0 1 2.5 0Zm6.36-3.62c.63.38.63 1 0 1.38a2.9 2.9 0 0 1-2.5 0c-.62-.38-.62-1 0-1.38a2.9 2.9 0 0 1 2.5 0Zm6.37-3.75c.62.38.62 1 0 1.38-.63.37-1.75.37-2.5 0-.62-.38-.62-1 0-1.38a2.9 2.9 0 0 1 2.5 0Zm5.23-1.99c.97 0 1.76-.45 1.76-1 0-.56-.79-1-1.75-1-.97 0-1.75.44-1.75 1 0 .55.78 1 1.75 1Zm6.37-3.63c.97 0 1.75-.44 1.75-1 0-.55-.78-1-1.75-1-.96 0-1.74.45-1.74 1 0 .56.78 1 1.74 1Z"/>
  <path fill="#F6A01D" d="M91.62 95.07V43.74l29.2 16.98v51.34l-29.2-16.99Zm0-51.33 26.7-15.37 29.21 17-26.7 15.35-29.2-16.98Z"/>
  <path fill="#FDEDCC" d="m92 50.98 26.33-15.11 29.2 16.86-26.95 14.74L92 50.98Z"/>
  <path fill="#177C1B" d="M118.33 27 90.37 43.11v52.71l30.45 17.61 27.96-16.1V44.6L118.33 27Zm1.25 82.94-26.71-15.5V46l26.7 15.48v48.47ZM94.12 43.86l24.2-13.99 26.84 15.5-24.33 13.86-26.71-15.37Z"/>
  <path fill="#F6A01D" d="M53.3 116.43V85.96l29.21 16.86v30.6l-29.2-16.99Zm0-30.47 26.72-15.37 29.32 16.86-26.7 15.37L53.3 85.96Z"/>
  <path fill="#FDEDCC" d="m53.8 93.07 26.22-15.1 29.32 16.98-26.95 14.61L53.8 93.07Z"/>
  <path fill="#177C1B" d="M80.14 69.1 52.06 85.2v31.98l30.45 17.61 27.96-16.11V86.7L80.14 69.1Zm1.25 62.2-26.83-15.5V88.09l26.83 15.49v27.72ZM55.8 85.95l24.22-14 26.83 15.5-24.21 13.98L55.8 85.96Z"/>
  <path fill="#F6A01D" d="M14.74 138.29v-13.61l29.2 16.86v13.61l-29.2-16.86Z"/>
  <path fill="#F6A01D" d="m14.74 124.68 26.84-15.37 29.2 16.86-26.7 15.37-29.34-16.86Z"/>
  <path fill="#FDEDCC" d="m15.24 131.8 26.34-15.12 29.2 16.99-26.96 14.61-28.58-16.49Z"/>
  <path fill="#177C1B" d="m41.58 107.81-27.96 16.12v14.98l30.45 17.62 27.96-16.12v-14.98L41.58 107.8Zm1.24 45.22L16 137.54V126.8l26.83 15.49v10.74Zm-25.58-28.35 24.34-14 26.83 15.5-24.34 13.98-26.83-15.48Z"/>
  <path fill="#F6A01D" d="m130.68 133.54.13-9.11h-4l-.12-.13-3.37 9.5h-1.37l-3.37 4.61-14.98 6-20.96 2-15.23-2.5-14.1-11.99c.12-.38.12-.75.25-1.12l-4.12-7.75-.13.13H45.2l-.13 10.36v1.63c.5 5.87 4.62 11.61 12.23 16.24 16.6 9.86 43.68 10.24 60.53.87 7.74-4.37 11.98-10 12.73-15.86v-.25c.12-1.25.12-1.63.12-2.63Z"/>
  <path fill="#177C1B" d="M88.63 160.27c-11.49 0-23.1-2.62-31.83-7.87-7.74-4.62-12.23-10.61-12.73-17.1v-.76l.13-12.49 4.61.13.75-.88 1 1.25 4.37 8.12-.25.5c0 .13-.12.25-.12.38l13.22 11.24 14.73 2.5 20.6-2 14.6-5.75 3.61-4.87h1.13l3.74-10.74 1.13 1.25 4.61.12-.12 10.24c.12 1 .12 1.5 0 2.75v.25c-.75 6.5-5.5 12.37-13.36 16.74-8.23 4.62-19.1 7-29.82 7ZM46.32 124.3l-.13 10.12v.62c.5 5.75 4.62 11.12 11.74 15.37 16.22 9.74 42.93 10.11 59.4.87 7.11-4 11.48-9.37 12.1-14.99v-2.75l.13-7.99h-2.25l-3.24 9.5h-1.62l-3.25 4.36-15.6 6.13-21.09 2-15.72-2.63-14.86-12.49.13-.63c0-.25.12-.5.12-.87l-3.37-6.5-2.5-.12Z"/>
  <path fill="#177C1B" d="M48.44 124.3c1.62 2.25 3.5 4.75 5 6.87 1-4.25 4.36-8.24 9.98-11.5 13.72-7.61 35.69-7.36 49.17.76 5.49 3.25 8.73 7.37 9.73 11.61l4.62-7.36c-.5-.63-1-1.13-1.5-1.75 1 .5 1.75.75 2 .87-1.37-1.37-12.23-16.99-12.23-16.99L90.5 100.7l-23.09 3-15.1 12.24-1 4.75-1.62.62c-1.5 1.13-.25 1.75-1.25 3Z"/>
  <path fill="#177C1B" d="m121.82 135.04-.62-2.75c-.87-4.12-4.12-7.86-9.11-10.86-13.1-7.87-34.7-8.12-48.05-.75-5.24 2.87-8.49 6.62-9.48 10.74l-.63 2.37-1.37-1.87c-1.62-2.12-3.37-4.75-5-7l-.5-.62.5-.62c.26-.25.26-.38.26-.75a3 3 0 0 1 1.12-2.5l.37-.25 1.13-.38 1-4.5 15.6-12.6 23.58-3.13 25.46 6.37.25.38c4.12 5.99 11.11 15.86 12.1 16.86l.76.75-.63.87-6.74 10.24Zm-34.57-21.86c9.36 0 18.85 2.13 25.96 6.37 4.62 2.75 7.87 6.13 9.49 9.87l3-4.62a8.23 8.23 0 0 0-.88-1l-4-4.12 3 1.37a429.64 429.64 0 0 1-9.23-13.11l-24.22-6-22.59 2.88-14.35 11.74-1.12 5-2 .74c-.25.25-.25.25-.12.63 0 .37 0 .87-.25 1.37 1.12 1.5 2.24 3 3.24 4.5 1.63-3.88 5-7.25 9.86-10 6.62-3.74 15.48-5.62 24.21-5.62Z"/>
  <path fill="#F6A01D" d="m124.32 157.9 6.49-11.24-7.49-4.87s-.12 0-.12-.13c-.88-.5-2-.37-3.25.25-2.5 1.38-4.62 5-4.74 7.87 0 1.25.37 2.25 1 2.75.12.12.25.12.37.25l7.74 5.12Zm-3.02-27.68c.16-10.7-14.75-19.58-33.29-19.85-18.54-.27-33.7 8.18-33.85 18.88-.15 10.69 14.75 19.57 33.3 19.84 18.53.27 33.69-8.18 33.84-18.87Z"/>
  <path fill="#FDEDCC" d="M58.05 105.69c-16.85 9.37-17.1 25.1-.5 34.97 16.6 9.87 43.68 10.25 60.53.88s17.1-25.1.5-34.98c-16.6-9.99-43.68-10.36-60.53-.87Zm54.29 32.47c-13.73 7.62-35.7 7.38-49.17-.74-13.48-8.12-13.23-20.74.37-28.36 13.73-7.62 35.7-7.37 49.17.75 13.48 8.12 13.36 20.74-.37 28.35Z"/>
  <path fill="#177C1B" d="M88.75 149.4c-11.48 0-23.09-2.62-31.82-7.86-8.36-5-12.98-11.62-12.86-18.74.13-7 4.87-13.49 13.36-18.23 17.1-9.62 44.8-9.12 61.65.87 8.36 5 12.98 11.62 12.85 18.74-.12 7-4.87 13.49-13.35 18.23-8.24 4.75-18.97 7-29.83 7Zm-1.5-49.46c-10.36 0-20.71 2.25-28.7 6.62-7.74 4.38-12.1 10.12-12.23 16.37-.13 6.12 4.12 12.11 11.73 16.73 16.22 9.75 42.93 10.12 59.4.88 7.74-4.37 12.11-10.12 12.24-16.36.12-6.12-4.12-12.12-11.73-16.74-8.37-4.87-19.6-7.5-30.7-7.5Zm1.38 44.84c-9.36 0-18.85-2.12-25.96-6.37-6.87-4.12-10.61-9.49-10.49-15.36.13-5.74 4-11.11 10.99-14.99 13.97-7.87 36.44-7.5 50.17.75 6.86 4.13 10.6 9.5 10.48 15.37-.12 5.74-4 11.11-10.98 14.98-6.62 3.75-15.35 5.63-24.21 5.63ZM87.5 104.7c-8.36 0-16.72 1.75-23.21 5.37-6.24 3.5-9.73 8.12-9.73 13.12-.13 5 3.24 9.61 9.36 13.36 13.1 7.87 34.69 8.12 48.04.75 6.24-3.5 9.74-8.12 9.86-13.11.13-5-3.24-9.62-9.36-13.37-6.98-4.12-16.1-6.12-24.96-6.12Z"/>
  <path fill="#FDEDCC" d="M88.5 122.68c4.62 2.74 4.62 7.12-.12 9.74-4.75 2.62-12.36 2.5-16.98-.25-4.61-2.75-4.61-7.12.13-9.74 4.74-2.63 12.35-2.5 16.97.25Z"/>
  <path fill="#177C1B" d="M80.14 129.8c-3.37 0-6.74-.75-9.36-2.38-2.62-1.5-4-3.62-4-6 0-2.24 1.5-4.36 4.12-5.86 5.12-2.88 13.1-2.75 18.1.25 2.62 1.5 4 3.62 4 6 0 2.24-1.5 4.36-4.12 5.86a18.08 18.08 0 0 1-8.74 2.13Zm-.37-13.87c-2.75 0-5.5.63-7.62 1.75-1.87 1.13-3 2.5-3 3.87 0 1.38 1 2.88 2.88 4 4.24 2.5 11.35 2.62 15.85.13 1.87-1.13 3-2.5 3-3.88 0-1.37-1-2.87-2.88-4-2.24-1.24-5.24-1.87-8.23-1.87Z"/>
  <path fill="#FDEDCC" d="m116.7 145.28 7.37 4.63 5.62-3.88-7.87-4.87-5.11 4.13Z"/>
  <path fill="#177C1B" d="m124.7 159.52-8.62-5.62c-.12-.12-.37-.25-.5-.37-1-.75-1.5-2.13-1.5-3.75 0-3.37 2.38-7.24 5.25-8.87 1.62-.87 3.12-1 4.37-.25l.24.13 8.37 5.5-7.62 13.23Zm-2.88-16.98c-.37 0-.87.12-1.37.5-2.25 1.25-4.12 4.37-4.12 6.87 0 .87.25 1.5.63 1.87l.25.13 6.61 4.37 5.37-9.25-6.62-4.24c-.12-.13-.37-.25-.75-.25Z"/>
  <path fill="#F6A01D" d="M130.8 146.66c-.86-.38-1.86-.38-3.11.37-2.5 1.38-4.62 5-4.74 7.87 0 1.5.5 2.5 1.37 3l7.74 8.5 9.98-15.74-11.23-4Z"/>
  <path fill="#FDEDCC" d="m124.7 149.9 9.48 5.13 6.61-5-11.6-3.75-4.5 3.63Z"/>
  <path fill="#177C1B" d="m132.3 168.14-8.73-9.36c-1.12-.63-1.75-2-1.75-3.88 0-3.37 2.38-7.24 5.25-8.87 1.5-.87 2.99-1 4.24-.37l12.35 4.5-11.35 17.98Zm-2.61-20.6c-.38 0-.88.12-1.5.5-2.25 1.24-4.12 4.36-4.12 6.86 0 1 .25 1.75.75 2l6.99 7.75 8.48-13.5-10.1-3.5c-.13 0-.38-.12-.5-.12Z"/>
  <path fill="#F6A01D" d="M149.16 157.9c-.13-.13-.25-.13-.5-.25l-5.75-6.5c-1.24-.74-2.87-.74-4.86.38-3.75 2.12-6.87 7.25-6.87 11.5 0 1.99.63 3.49 1.75 4.24l.75.37 7.86 2.38.5.25 8.74 4.37 6.36-11.24-7.98-5.5Z"/>
  <path fill="#FDEDCC" d="m134.18 155.03 16.72 11.11 5-3.74-13.98-11.62-6.62 2.75-1.12 1.5Z"/>
  <path fill="#177C1B" d="m151.28 176.14-18.1-7.5c-.25-.12-.5-.25-.87-.5-1.5-1-2.25-2.87-2.25-5.24.13-4.75 3.37-10.25 7.49-12.5 2.24-1.24 4.37-1.37 5.99-.24l15.22 12.74-7.48 13.24Zm-10.24-24.36c-.75 0-1.5.25-2.37.75-3.37 1.87-6.24 6.74-6.24 10.5 0 1.62.38 2.74 1.25 3.24.12.12.25.12.5.25l16.35 6.62 5.36-9.37-13.47-11.62c-.5-.25-.88-.37-1.38-.37Z"/>
  <path fill="#F6A01D" d="m164.63 168.27-7.36-4.75-.13-.12c-.87-.5-2-.38-3.24.25-2.5 1.37-4.62 5-4.75 7.86 0 1.63.63 2.75 1.5 3.13l7.5 4.87 6.48-11.24Z"/>
  <path fill="#FDEDCC" d="m151.28 166.4 7.86 5.24 4.37-4.25-7.74-4.37-4.5 3.37Z"/>
  <path fill="#177C1B" d="m158.02 180.63-7.74-5.12c-1.25-.5-2.12-2.12-2.12-4.12 0-3.37 2.37-7.24 5.24-8.87 1.62-.87 3.12-1 4.37-.25l.25.13 8.23 5.37-8.23 12.86Zm-2-16.36c-.38 0-.88.13-1.37.5-2.25 1.25-4.12 4.37-4.12 6.87 0 1 .25 1.75.87 2l6.62 4.37 5.11-9.37-6.36-4.24c-.25-.13-.5-.13-.75-.13Z"/>
  <path fill="#177C1B" d="M165.63 167.4c-1.25-.76-2.75-.63-4.37.24-2.87 1.63-5.24 5.5-5.24 8.87 0 1.88.62 3.25 1.87 4a3 3 0 0 0 1.87.5 5.2 5.2 0 0 0 2.62-.75c2.87-1.63 5.25-5.5 5.25-8.87-.13-1.87-.88-3.25-2-4Z"/>
</svg>
