<svg xmlns="http://www.w3.org/2000/svg" fill="none" viewBox="0 0 380 220">
  <path fill="#177C1B" d="M62.39 142.96c.64.32.64.97 0 1.29-.65.32-1.61.32-2.26 0-.64-.32-.64-.97 0-1.29a2.78 2.78 0 0 1 2.26 0Zm-6.12-3.22c.65.32.65.97 0 1.29-.64.32-1.6.32-2.25 0-.64-.32-.64-.97 0-1.29a2.76 2.76 0 0 1 2.25 0Zm-7.07-1.94c.89 0 1.6-.42 1.6-.96 0-.53-.71-.96-1.6-.96-.89 0-1.6.43-1.6.96 0 .54.71.97 1.6.97Zm-5.8-3.54c.9 0 1.62-.43 1.62-.96 0-.54-.72-.97-1.61-.97-.89 0-1.6.43-1.6.97 0 .53.71.96 1.6.96Zm-6.1-3.22c.89 0 1.6-.43 1.6-.96 0-.54-.71-.97-1.6-.97-.89 0-1.61.43-1.61.97 0 .53.72.96 1.6.96Zm-4.83-5.14c.65.31.65.96 0 1.28-.64.32-1.6.32-2.25 0-.64-.32-.64-.97 0-1.29a2.76 2.76 0 0 1 2.25 0Zm-7.07-1.94c.89 0 1.6-.43 1.6-.97 0-.53-.71-.96-1.6-.96-.89 0-1.61.43-1.61.96 0 .54.72.97 1.6.97Zm-4.5-4.83c.64.32.64.97 0 1.29-.65.32-1.61.32-2.26 0-.64-.33-.64-.97 0-1.3.32-.31 1.61-.31 2.25 0Zm129.61 76.65c.9 0 1.61-.43 1.61-.97 0-.53-.72-.96-1.6-.96-.9 0-1.61.43-1.61.96 0 .54.72.97 1.6.97Zm-4.82-5.15c.64.32.64.96 0 1.28-.64.33-1.6.33-2.25 0-.65-.32-.65-.96 0-1.28.64-.33 1.6-.33 2.25 0Zm-7.08-1.93c.9 0 1.61-.44 1.61-.97 0-.54-.72-.97-1.6-.97-.9 0-1.61.43-1.61.97 0 .53.72.96 1.6.96Zm-4.82-4.84c.64.32.64.97 0 1.3-.64.31-1.6.31-2.25 0-.64-.33-.64-.97 0-1.3.64-.64 1.6-.64 2.25 0Zm-7.08-1.93c.9 0 1.61-.43 1.61-.97 0-.53-.72-.96-1.6-.96-.9 0-1.61.43-1.61.96 0 .54.72.97 1.6.97Zm-5.79-3.54c.9 0 1.61-.43 1.61-.97 0-.53-.72-.96-1.6-.96-.9 0-1.61.43-1.61.96 0 .54.72.97 1.6.97Zm-4.82-4.83c.64.32.64.96 0 1.28-.64.33-1.6.33-2.25 0-.64-.32-.64-.96 0-1.28.64-.65 1.6-.65 2.25 0Zm-7.08-1.93c.9 0 1.61-.44 1.61-.97s-.72-.97-1.6-.97c-.9 0-1.61.44-1.61.97s.72.97 1.6.97Zm-4.82-5.16c.64.32.64.97 0 1.29-.64.32-1.6.32-2.25 0-.65-.32-.65-.97 0-1.29.64-.32 1.6-.32 2.25 0Zm-7.08-1.61c.9 0 1.61-.43 1.61-.97 0-.53-.72-.96-1.6-.96-.9 0-1.62.43-1.62.97 0 .53.72.96 1.61.96Zm-4.82-5.16c.64.33.64.97 0 1.3-.64.32-1.61.32-2.25 0-.65-.33-.65-.97 0-1.3.64-.31 1.6-.31 2.25 0Zm-6.11-3.53c.64.32.64.96 0 1.28-.65.33-1.61.33-2.25 0-.65-.32-.65-.96 0-1.28.64-.33 1.6-.33 2.25 0Zm-7.08-1.61c.89 0 1.6-.44 1.6-.97s-.71-.97-1.6-.97c-.89 0-1.6.44-1.6.97s.71.97 1.6.97Zm-4.82-5.16c.64.32.64.97 0 1.3-.65.31-1.61.31-2.25 0-.65-.33-.65-.97 0-1.3.64-.32 1.6-.32 2.25 0Zm-5.79-3.54c.64.32.64.97 0 1.29-.65.32-1.61.32-2.25 0-.65-.32-.65-.97 0-1.3.64-.31 1.6-.31 2.25 0Zm-.32-6.12c.64.32.64.97 0 1.29-.65.32-1.61.32-2.26 0-.64-.32-.64-.97 0-1.29a1.57 1.57 0 0 1 2.26 0ZM73 137.8c.89 0 1.6-.42 1.6-.96 0-.53-.71-.96-1.6-.96-.89 0-1.6.43-1.6.96 0 .54.71.97 1.6.97Zm6.11-3.54c.89 0 1.6-.43 1.6-.96 0-.54-.71-.97-1.6-.97-.89 0-1.6.43-1.6.97 0 .53.71.96 1.6.96Zm5.79-3.22c.89 0 1.6-.43 1.6-.96 0-.54-.71-.97-1.6-.97-.89 0-1.6.43-1.6.97 0 .53.71.96 1.6.96Zm5.79-3.54c.89 0 1.6-.43 1.6-.97 0-.53-.71-.96-1.6-.96-.89 0-1.6.43-1.6.97 0 .53.71.96 1.6.96Zm6.11-3.54c.89 0 1.6-.43 1.6-.97 0-.53-.71-.96-1.6-.96-.89 0-1.6.43-1.6.96 0 .54.71.97 1.6.97Zm7.08-4.83c.64.32.64.97 0 1.29-.65.32-1.61.32-2.25 0-.65-.33-.65-.97 0-1.3.64-.31 1.6-.31 2.25 0Zm5.79-3.54c.64.32.64.96 0 1.28-.65.33-1.61.33-2.25 0-.65-.32-.65-.96 0-1.28.64-.33 1.6-.33 2.25 0Zm4.83-1.94c.88 0 1.6-.43 1.6-.96 0-.54-.72-.97-1.6-.97-.9 0-1.62.43-1.62.97 0 .53.72.96 1.61.96Zm6.1-3.22c.9 0 1.61-.43 1.61-.96 0-.54-.72-.97-1.6-.97-.9 0-1.62.43-1.62.97 0 .53.72.96 1.61.96Zm5.8-3.54c.88 0 1.6-.43 1.6-.97 0-.53-.72-.96-1.6-.96-.9 0-1.62.43-1.62.96 0 .54.72.97 1.61.97Zm6.1-3.54c.9 0 1.61-.44 1.61-.97s-.72-.97-1.6-.97c-.9 0-1.61.44-1.61.97s.72.97 1.6.97ZM61.1 137.8c.89 0 1.6-.42 1.6-.96 0-.53-.71-.96-1.6-.96-.89 0-1.6.43-1.6.96 0 .54.71.97 1.6.97Zm7.08-5.14c.64.32.64.96 0 1.28-.65.32-1.61.32-2.26 0-.64-.32-.64-.96 0-1.28a2.7 2.7 0 0 1 2.26 0Zm6.11-3.23c.64.33.64.97 0 1.3-.65.31-1.61.31-2.25 0-.65-.33-.65-.97 0-1.3.64-.32 1.6-.32 2.25 0Zm5.79-3.53c.64.31.64.96 0 1.28-.65.32-1.61.32-2.26 0-.64-.32-.64-.97 0-1.29a2.78 2.78 0 0 1 2.26 0Zm4.82-1.94c.89 0 1.6-.43 1.6-.97 0-.53-.71-.96-1.6-.96-.89 0-1.6.43-1.6.96 0 .54.71.97 1.6.97Zm5.79-3.22c.89 0 1.6-.43 1.6-.97 0-.53-.71-.96-1.6-.96-.89 0-1.6.43-1.6.96 0 .54.71.97 1.6.97Zm6.11-3.54c.89 0 1.6-.44 1.6-.97s-.71-.97-1.6-.97c-.89 0-1.6.44-1.6.97s.71.97 1.6.97Zm5.8-3.55c.88 0 1.6-.43 1.6-.96 0-.54-.72-.97-1.6-.97-.9 0-1.62.43-1.62.97 0 .53.72.96 1.61.96Zm7.07-4.83c.64.32.64.97 0 1.29-.65.32-1.61.32-2.25 0-.65-.32-.65-.97 0-1.29.64-.32 1.6-.32 2.25 0Zm4.83-1.93c.88 0 1.6-.43 1.6-.97 0-.53-.72-.96-1.6-.96-.9 0-1.62.43-1.62.96 0 .54.72.97 1.61.97Zm6.1-3.54c.9 0 1.61-.44 1.61-.97s-.72-.97-1.6-.97c-.9 0-1.62.44-1.62.97s.72.97 1.61.97Zm-65.29 30.91c.89 0 1.6-.43 1.6-.96 0-.54-.71-.97-1.6-.97-.89 0-1.6.43-1.6.97 0 .53.71.96 1.6.96Zm7.08-4.83c.64.33.64.97 0 1.3-.65.31-1.61.31-2.26 0-.64-.33-.64-.97 0-1.3a2.78 2.78 0 0 1 2.26 0Zm4.82-1.93c.89 0 1.6-.43 1.6-.97 0-.53-.71-.96-1.6-.96-.89 0-1.6.43-1.6.97 0 .53.71.96 1.6.96Zm5.79-3.54c.89 0 1.6-.43 1.6-.97 0-.53-.71-.96-1.6-.96-.89 0-1.6.43-1.6.96 0 .54.71.97 1.6.97Zm6.11-3.22c.89 0 1.6-.43 1.6-.97 0-.53-.71-.96-1.6-.96-.89 0-1.6.43-1.6.96 0 .54.71.97 1.6.97Zm5.79-3.54c.89 0 1.6-.44 1.6-.97s-.71-.97-1.6-.97c-.89 0-1.6.44-1.6.97s.71.97 1.6.97Zm5.79-3.55c.89 0 1.6-.43 1.6-.96 0-.54-.71-.97-1.6-.97-.89 0-1.6.43-1.6.97 0 .53.71.96 1.6.96Zm7.08-4.83c.64.32.64.97 0 1.29-.65.32-1.61.32-2.26 0-.64-.32-.64-.97 0-1.29.65-.32 1.93-.32 2.26 0Zm6.11-3.54c.64.32.64.97 0 1.29-.65.32-1.61.32-2.25 0-.65-.32-.65-.97 0-1.3.64-.31 1.6-.31 2.25 0Zm4.82-1.93c.89 0 1.61-.44 1.61-.97s-.72-.97-1.6-.97c-.9 0-1.62.44-1.62.97s.72.97 1.61.97Zm-59.5 27.69c.89 0 1.6-.43 1.6-.96 0-.54-.71-.97-1.6-.97-.89 0-1.6.43-1.6.97 0 .53.71.96 1.6.96Zm7.07-5.14c.65.31.65.96 0 1.28-.64.32-1.6.32-2.25 0-.64-.32-.64-.97 0-1.29a2.76 2.76 0 0 1 2.25 0Zm6.12-3.55c.64.32.64.97 0 1.29-.65.32-1.61.32-2.26 0-.64-.33-.64-.97 0-1.3a2.86 2.86 0 0 1 2.26 0Zm5.79-3.22c.64.32.64.97 0 1.29-.65.32-1.61.32-2.26 0-.64-.33-.64-.97 0-1.3a2.86 2.86 0 0 1 2.26 0ZM73 117.2c.89 0 1.6-.44 1.6-.97s-.71-.97-1.6-.97c-.89 0-1.6.44-1.6.97s.71.97 1.6.97Zm6.11-3.55c.89 0 1.6-.43 1.6-.96 0-.54-.71-.97-1.6-.97-.89 0-1.6.43-1.6.97 0 .53.71.96 1.6.96Zm5.79-3.22c.89 0 1.6-.43 1.6-.96 0-.54-.71-.97-1.6-.97-.89 0-1.6.43-1.6.97 0 .53.71.96 1.6.96Zm5.79-3.54c.89 0 1.6-.43 1.6-.97 0-.53-.71-.96-1.6-.96-.89 0-1.6.43-1.6.96 0 .54.71.97 1.6.97Zm6.11-3.54c.89 0 1.6-.44 1.6-.97s-.71-.97-1.6-.97c-.89 0-1.6.44-1.6.97s.71.97 1.6.97ZM43.4 127.5c.9 0 1.62-.43 1.62-.97 0-.53-.72-.96-1.61-.96-.89 0-1.6.43-1.6.97 0 .53.71.96 1.6.96Zm5.8-3.54c.89 0 1.6-.43 1.6-.97 0-.53-.71-.96-1.6-.96-.89 0-1.6.43-1.6.96 0 .54.71.97 1.6.97Zm6.11-3.22c.89 0 1.6-.43 1.6-.97 0-.53-.71-.96-1.6-.96-.89 0-1.6.43-1.6.96 0 .54.71.97 1.6.97Zm5.79-3.54c.89 0 1.6-.44 1.6-.97s-.71-.97-1.6-.97c-.89 0-1.6.44-1.6.97s.71.97 1.6.97Zm7.08-5.16c.64.32.64.97 0 1.3-.65.31-1.61.31-2.26 0-.64-.33-.64-.98 0-1.3a2.78 2.78 0 0 1 2.26 0Zm6.11-3.22c.64.32.64.97 0 1.29-.65.32-1.61.32-2.25 0-.65-.32-.65-.97 0-1.29.64-.32 1.6-.32 2.25 0Zm5.79-3.54c.64.32.64.97 0 1.29-.65.32-1.61.32-2.26 0-.64-.32-.64-.97 0-1.3a2.86 2.86 0 0 1 2.26 0Zm6.11-3.54c.64.32.64.96 0 1.29-.65.32-1.61.32-2.25 0-.65-.33-.65-.97 0-1.3.32-.32 1.6-.32 2.25 0ZM37.3 123.96c.89 0 1.6-.43 1.6-.97 0-.53-.71-.96-1.6-.96-.89 0-1.61.43-1.61.96 0 .54.72.97 1.6.97Zm6.1-3.22c.9 0 1.62-.43 1.62-.97 0-.53-.72-.96-1.61-.96-.89 0-1.6.43-1.6.96 0 .54.71.97 1.6.97Zm7.09-5.15c.64.32.64.96 0 1.28a2.7 2.7 0 0 1-2.26 0c-.64-.32-.64-.96 0-1.28a2.7 2.7 0 0 1 2.26 0Zm4.82-1.94c.89 0 1.6-.43 1.6-.96 0-.54-.71-.97-1.6-.97-.89 0-1.6.43-1.6.97 0 .53.71.96 1.6.96Zm5.79-3.22c.89 0 1.6-.43 1.6-.96 0-.54-.71-.97-1.6-.97-.89 0-1.6.43-1.6.97 0 .53.71.96 1.6.96Zm7.08-5.15c.64.32.64.97 0 1.29-.65.32-1.61.32-2.26 0-.64-.32-.64-.97 0-1.3a2.86 2.86 0 0 1 2.26 0Zm4.82-1.93c.89 0 1.6-.44 1.6-.97s-.71-.97-1.6-.97c-.89 0-1.6.44-1.6.97s.71.97 1.6.97Zm-41.5 17.39c.9 0 1.62-.43 1.62-.97 0-.53-.72-.96-1.61-.96-.89 0-1.6.43-1.6.96 0 .54.71.97 1.6.97Zm7.08-5.15c.65.32.65.96 0 1.28-.64.33-1.6.33-2.25 0-.64-.32-.64-.96 0-1.28a2.68 2.68 0 0 1 2.25 0Zm5.79-3.55c.65.32.65.97 0 1.3-.64.31-1.6.31-2.25 0-.64-.33-.64-.98 0-1.3a2.76 2.76 0 0 1 2.25 0Zm6.12-3.22c.64.32.64.97 0 1.29-.65.32-1.61.32-2.26 0-.64-.32-.64-.97 0-1.29a2.78 2.78 0 0 1 2.26 0Zm5.78-3.54c.65.32.65.97 0 1.29-.64.32-1.6.32-2.25 0-.64-.32-.64-.97 0-1.3a2.84 2.84 0 0 1 2.25 0Zm4.83-1.93c.89 0 1.6-.44 1.6-.97s-.71-.97-1.6-.97c-.89 0-1.6.44-1.6.97s.71.97 1.6.97ZM25.4 117.2c.89 0 1.6-.44 1.6-.97s-.71-.97-1.6-.97c-.89 0-1.61.44-1.61.97s.72.97 1.6.97Zm6.1-3.55c.9 0 1.62-.43 1.62-.96 0-.54-.72-.97-1.61-.97-.89 0-1.6.43-1.6.97 0 .53.71.96 1.6.96Zm5.8-3.22c.89 0 1.6-.43 1.6-.96 0-.54-.71-.97-1.6-.97-.89 0-1.61.43-1.61.97 0 .53.72.96 1.6.96Zm7.07-5.15c.65.32.65.97 0 1.29-.64.32-1.6.32-2.25 0-.64-.32-.64-.97 0-1.3a2.84 2.84 0 0 1 2.25 0Zm4.83-1.93c.89 0 1.6-.44 1.6-.97s-.71-.97-1.6-.97c-.89 0-1.6.44-1.6.97s.71.97 1.6.97Zm-29.6 10.3c.9 0 1.62-.43 1.62-.96 0-.54-.72-.97-1.61-.97-.89 0-1.61.43-1.61.97 0 .53.72.96 1.6.96Zm5.8-3.22c.89 0 1.6-.43 1.6-.96 0-.54-.71-.97-1.6-.97-.89 0-1.61.43-1.61.97 0 .53.72.96 1.6.96Zm7.07-5.15c.65.32.65.97 0 1.29-.64.32-1.6.32-2.25 0-.64-.32-.64-.97 0-1.3a2.84 2.84 0 0 1 2.25 0Zm141.85 90.5c.88 0 1.6-.43 1.6-.97 0-.53-.72-.96-1.6-.96-.9 0-1.61.43-1.61.96 0 .54.72.97 1.6.97Zm7.08-5.15c.63.32.63.96 0 1.28a2.7 2.7 0 0 1-2.26 0c-.64-.32-.64-.96 0-1.28.64-.33 1.6-.33 2.25 0Zm4.82-1.93c.88 0 1.6-.44 1.6-.97 0-.54-.72-.97-1.6-.97-.9 0-1.61.43-1.61.97 0 .53.72.96 1.6.96Zm5.78-3.23c.9 0 1.61-.43 1.61-.96 0-.54-.72-.97-1.6-.97-.9 0-1.61.43-1.61.97 0 .53.72.96 1.6.96Zm7.08-5.15c.64.32.64.97 0 1.29-.64.32-1.6.32-2.25 0-.64-.32-.64-.97 0-1.29.64-.32 1.6-.32 2.25 0Zm6.12-3.54c.64.32.64.96 0 1.29-.65.32-1.61.32-2.26 0-.64-.33-.64-.97 0-1.3.32-.31 1.61-.31 2.25 0Zm4.5-1.61c.88 0 1.6-.43 1.6-.97 0-.53-.72-.96-1.6-.96-.9 0-1.61.43-1.61.96 0 .54.72.97 1.6.97Zm6.1-3.54c.9 0 1.61-.44 1.61-.97s-.72-.97-1.6-.97c-.9 0-1.61.44-1.61.97s.72.97 1.6.97Zm7.08-5.16c.65.32.65.97 0 1.29-.64.32-1.6.32-2.25 0-.64-.32-.64-.97 0-1.29a2.76 2.76 0 0 1 2.25 0Zm4.82-1.61c.9 0 1.62-.43 1.62-.97 0-.53-.72-.96-1.61-.96-.9 0-1.61.43-1.61.97 0 .53.72.96 1.6.96Zm5.8-3.54c.88 0 1.6-.43 1.6-.97 0-.53-.72-.96-1.6-.96-.9 0-1.61.43-1.61.96 0 .54.72.97 1.6.97Zm6.1-3.54c.9 0 1.62-.44 1.62-.97s-.72-.97-1.61-.97c-.89 0-1.61.44-1.61.97s.72.97 1.6.97Zm-76.22 36.39c.64.32.64.97 0 1.29-.64.32-1.6.32-2.25 0-.64-.33-.64-.97 0-1.3.64-.63 1.6-.63 2.25 0Zm6.12-3.54c.63.32.63.96 0 1.28a2.7 2.7 0 0 1-2.26 0c-.64-.32-.64-.96 0-1.28.64-.33 1.6-.33 2.25 0Zm4.82-1.93c.88 0 1.6-.44 1.6-.97 0-.54-.72-.97-1.6-.97-.9 0-1.61.43-1.61.97 0 .53.72.96 1.6.96Zm5.78-3.23c.9 0 1.61-.43 1.61-.96 0-.54-.72-.97-1.6-.97-.9 0-1.61.43-1.61.97 0 .53.72.96 1.6.96Zm66.58-32.53c.65.33.65.97 0 1.3-.64.32-1.6.32-2.25 0-.64-.33-.64-.97 0-1.3a2.76 2.76 0 0 1 2.25 0Zm5.79-3.54c.65.32.65.97 0 1.3-.64.31-1.6.31-2.25 0-.64-.33-.64-.97 0-1.3a2.76 2.76 0 0 1 2.25 0Zm-65.29 30.92c.64.32.64.97 0 1.29-.64.32-1.6.32-2.25 0-.64-.32-.64-.97 0-1.29.64-.32 1.6-.32 2.25 0Zm4.82-1.93c.9 0 1.61-.43 1.61-.97 0-.53-.72-.96-1.6-.96-.9 0-1.61.43-1.61.96 0 .54.72.97 1.6.97Zm6.12-3.22c.88 0 1.6-.43 1.6-.97 0-.53-.72-.96-1.6-.96-.9 0-1.61.43-1.61.96 0 .54.72.97 1.6.97Zm5.78-3.54c.9 0 1.61-.44 1.61-.97s-.72-.97-1.6-.97c-.9 0-1.61.44-1.61.97s.72.97 1.6.97Zm7.08-5.16c.65.32.65.97 0 1.29-.64.32-1.6.32-2.25 0-.64-.32-.64-.97 0-1.29.64-.32 1.6-.32 2.25 0Zm5.79-3.22c.64.32.64.97 0 1.29-.64.32-1.6.32-2.25 0-.64-.32-.64-.97 0-1.29.64-.32 1.6-.32 2.25 0Zm6.11-3.55c.65.33.65.97 0 1.3-.64.32-1.6.32-2.25 0-.64-.33-.64-.97 0-1.3a2.84 2.84 0 0 1 2.25 0Zm5.79-3.53c.65.32.65.96 0 1.28-.64.33-1.6.33-2.25 0-.64-.32-.64-.96 0-1.28.64-.33 1.6-.33 2.25 0Zm4.83-1.61c.88 0 1.6-.44 1.6-.97s-.72-.97-1.6-.97c-.9 0-1.61.44-1.61.97s.72.97 1.6.97Zm-77.2 37.68c.9 0 1.61-.44 1.61-.97s-.72-.97-1.6-.97c-.9 0-1.61.44-1.61.97s.72.97 1.6.97Zm6.11-3.54c.9 0 1.61-.44 1.61-.97 0-.54-.72-.97-1.6-.97-.9 0-1.61.43-1.61.97 0 .53.72.96 1.6.96Zm7.09-4.84c.63.32.63.97 0 1.3-.65.31-1.62.31-2.26 0-.64-.33-.64-.97 0-1.3.64-.64 1.6-.64 2.25 0Zm5.78-3.54c.64.32.64.97 0 1.29-.64.32-1.6.32-2.25 0-.64-.32-.64-.97 0-1.29.64-.32 1.6-.32 2.25 0Zm6.12-3.54c.63.32.63.96 0 1.29-.65.32-1.62.32-2.26 0-.64-.33-.64-.97 0-1.3.64-.31 1.6-.31 2.25 0Zm59.17-27.38c.65.32.65.97 0 1.3-.64.31-1.6.31-2.25 0-.64-.33-.64-.97 0-1.3a2.76 2.76 0 0 1 2.25 0Zm4.83-1.93c.89 0 1.6-.43 1.6-.97 0-.53-.71-.96-1.6-.96-.9 0-1.61.43-1.61.96 0 .54.72.97 1.6.97Zm-58.22 26.09c.64.32.64.96 0 1.28-.64.33-1.6.33-2.25 0-.64-.32-.64-.96 0-1.28.64-.65 1.6-.65 2.25 0Zm6.12-3.55c.64.33.64.97 0 1.3-.65.31-1.62.31-2.26 0-.64-.33-.64-.97 0-1.3.64-.32 1.6-.32 2.25 0Zm5.78-3.54c.64.32.64.97 0 1.29-.64.32-1.6.32-2.25 0-.64-.32-.64-.97 0-1.29.64-.32 1.6-.32 2.25 0Zm4.82-1.61c.9 0 1.61-.43 1.61-.97 0-.53-.72-.96-1.6-.96-.9 0-1.61.43-1.61.97 0 .53.72.96 1.6.96Zm5.8-3.54c.88 0 1.6-.43 1.6-.97 0-.53-.72-.96-1.6-.96-.9 0-1.61.43-1.61.96 0 .54.72.97 1.6.97Zm7.07-5.15c.64.32.64.96 0 1.28-.64.33-1.6.33-2.25 0-.64-.32-.64-.96 0-1.28.64-.33 1.6-.33 2.25 0Zm4.83-1.61c.89 0 1.6-.44 1.6-.97s-.71-.97-1.6-.97c-.9 0-1.61.44-1.61.97s.72.97 1.6.97Zm7.07-5.16c.65.32.65.97 0 1.3-.64.31-1.6.31-2.25 0-.64-.33-.64-.97 0-1.3.64-.32 1.6-.32 2.25 0Zm-76.87 37.68c.64.32.64.97 0 1.3-.64.31-1.6.31-2.25 0-.64-.33-.64-.97 0-1.3.32-.32 1.6-.32 2.25 0Zm5.8-3.22c.63.32.63.97 0 1.3-.65.31-1.62.31-2.26 0-.64-.33-.64-.97 0-1.3.64-.64 1.6-.64 2.25 0Zm5.78-3.54c.64.32.64.97 0 1.29-.64.32-1.6.32-2.25 0-.64-.32-.64-.97 0-1.29.64-.32 1.6-.32 2.25 0Zm4.82-1.93c.9 0 1.61-.43 1.61-.97 0-.53-.72-.96-1.6-.96-.9 0-1.61.43-1.61.96 0 .54.72.97 1.6.97Zm6.12-3.22c.88 0 1.6-.43 1.6-.97 0-.53-.72-.96-1.6-.96-.9 0-1.61.43-1.61.96 0 .54.72.97 1.6.97Zm7.08-5.16c.63.33.63.97 0 1.3-.65.31-1.62.31-2.26 0-.64-.33-.64-.97 0-1.3.64-.32 1.6-.32 2.25 0Zm52.1-22.54c.88 0 1.6-.43 1.6-.97 0-.53-.72-.96-1.6-.96-.9 0-1.61.43-1.61.96 0 .54.72.97 1.6.97Zm7.07-4.83c.65.32.65.97 0 1.29-.64.32-1.6.32-2.25 0-.64-.33-.64-.97 0-1.3a2.84 2.84 0 0 1 2.25 0Zm-54.35 25.44c.88 0 1.6-.43 1.6-.96 0-.54-.72-.97-1.6-.97-.9 0-1.61.43-1.61.97 0 .53.72.96 1.6.96Zm5.78-3.22c.9 0 1.61-.43 1.61-.97 0-.53-.72-.96-1.6-.96-.9 0-1.61.43-1.61.97 0 .53.72.96 1.6.96Zm6.12-3.54c.88 0 1.6-.43 1.6-.97 0-.53-.72-.96-1.6-.96-.9 0-1.61.43-1.61.96 0 .54.72.97 1.6.97Zm7.08-5.15c.64.32.64.96 0 1.28a2.7 2.7 0 0 1-2.26 0c-.64-.32-.64-.96 0-1.28.32-.33 1.61-.33 2.25 0Zm5.78-3.23c.65.33.65.97 0 1.3-.64.32-1.6.32-2.25 0-.64-.33-.64-.97 0-1.3.64-.32 1.6-.32 2.25 0Zm5.79-3.54c.64.32.64.97 0 1.3-.64.31-1.6.31-2.25 0-.64-.33-.64-.97 0-1.3.64-.32 1.6-.32 2.25 0Zm6.11-3.54c.65.32.65.97 0 1.29-.64.32-1.6.32-2.25 0-.64-.32-.64-.97 0-1.3a2.84 2.84 0 0 1 2.25 0Zm-78.16 39.61c.9 0 1.61-.43 1.61-.96 0-.54-.72-.97-1.6-.97-.9 0-1.61.43-1.61.97 0 .53.72.96 1.6.96Zm5.79-3.54c.9 0 1.61-.43 1.61-.97 0-.53-.72-.96-1.6-.96-.9 0-1.61.43-1.61.96 0 .54.72.97 1.6.97Zm5.79-3.54c.9 0 1.61-.43 1.61-.97 0-.53-.72-.96-1.6-.96-.9 0-1.61.43-1.61.96 0 .54.72.97 1.6.97Zm7.08-4.83c.64.32.64.96 0 1.28-.64.33-1.6.33-2.25 0-.64-.32-.64-.96 0-1.28.64-.65 1.6-.65 2.25 0Zm6.12-3.55c.63.33.63.97 0 1.3-.65.31-1.62.31-2.26 0-.64-.33-.64-.97 0-1.3.64-.32 1.6-.32 2.25 0Zm4.82-1.93c.88 0 1.6-.43 1.6-.96 0-.54-.72-.97-1.6-.97-.9 0-1.61.43-1.61.97 0 .53.72.96 1.6.96Zm5.78-3.22c.9 0 1.61-.43 1.61-.97 0-.53-.72-.96-1.6-.96-.9 0-1.61.43-1.61.97 0 .53.72.96 1.6.96Zm47.6-20.61c.9 0 1.62-.43 1.62-.97 0-.53-.72-.96-1.61-.96-.9 0-1.61.43-1.61.96 0 .54.72.97 1.6.97Zm7.08-5.15c.65.32.65.96 0 1.28-.64.33-1.6.33-2.25 0-.64-.32-.64-.96 0-1.28a2.68 2.68 0 0 1 2.25 0Zm-47.6 20.6c.64.33.64.97 0 1.3-.64.32-1.6.32-2.25 0-.64-.33-.64-.97 0-1.3.64-.31 1.6-.31 2.25 0Zm4.82-1.92c.9 0 1.61-.44 1.61-.97s-.72-.97-1.6-.97c-.9 0-1.61.44-1.61.97s.72.97 1.6.97Zm6.12-3.22c.88 0 1.6-.44 1.6-.97s-.72-.97-1.6-.97c-.9 0-1.61.44-1.61.97s.72.97 1.6.97Zm5.78-3.55c.9 0 1.61-.43 1.61-.96 0-.54-.72-.97-1.6-.97-.9 0-1.61.43-1.61.97 0 .53.72.96 1.6.96Zm7.08-5.15c.65.32.65.97 0 1.29-.64.32-1.6.32-2.25 0-.64-.32-.64-.97 0-1.3.64-.31 1.6-.31 2.25 0Zm4.82-1.61c.9 0 1.61-.43 1.61-.97 0-.53-.72-.96-1.6-.96-.9 0-1.61.43-1.61.96 0 .54.72.97 1.6.97Zm-76.22 36.07c.64.32.64.97 0 1.29-.64.32-1.6.32-2.25 0-.65-.32-.65-.97 0-1.29.64-.32 1.93-.32 2.25 0Zm6.11-3.54c.64.32.64.96 0 1.29-.64.32-1.6.32-2.25 0-.65-.33-.65-.97 0-1.3.64-.31 1.6-.31 2.25 0Zm5.79-3.22c.64.32.64.96 0 1.28-.64.33-1.6.33-2.25 0-.64-.32-.64-.96 0-1.28.64-.65 1.6-.65 2.25 0Zm6.12-3.55c.63.33.63.97 0 1.3-.65.31-1.62.31-2.26 0-.64-.33-.64-.97 0-1.3.64-.32 1.6-.32 2.25 0Zm5.78-3.54c.64.32.64.97 0 1.29-.64.32-1.6.32-2.25 0-.64-.32-.64-.97 0-1.29.64-.32 1.6-.32 2.25 0Zm6.12-3.22c.63.32.63.97 0 1.29-.65.32-1.62.32-2.26 0-.64-.32-.64-.97 0-1.29.64-.64 1.6-.64 2.25 0Zm4.82-1.93c.88 0 1.6-.43 1.6-.97 0-.53-.72-.96-1.6-.96-.9 0-1.61.43-1.61.96 0 .54.72.97 1.6.97Zm5.78-3.54c.9 0 1.61-.44 1.61-.97s-.72-.97-1.6-.97c-.9 0-1.61.44-1.61.97s.72.97 1.6.97Zm42.78-18.68c.65.32.65.96 0 1.28-.64.33-1.6.33-2.25 0-.64-.32-.64-.96 0-1.28a2.68 2.68 0 0 1 2.25 0Zm5.79-3.55c.65.32.65.97 0 1.3-.64.31-1.6.31-2.25 0-.64-.33-.64-.97 0-1.3.64-.32 1.6-.32 2.25 0Zm-42.45 19.01c.88 0 1.6-.44 1.6-.97s-.72-.97-1.6-.97c-.9 0-1.61.44-1.61.97s.72.97 1.6.97Zm5.78-3.55c.9 0 1.61-.43 1.61-.96 0-.54-.72-.97-1.6-.97-.9 0-1.61.43-1.61.97 0 .53.72.96 1.6.96Zm5.8-3.54c.88 0 1.6-.43 1.6-.97 0-.53-.72-.96-1.6-.96-.9 0-1.61.43-1.61.96 0 .54.72.97 1.6.97Zm7.07-4.83c.64.32.64.97 0 1.29-.64.32-1.6.32-2.25 0-.64-.33-.64-.97 0-1.3.64-.31 1.6-.31 2.25 0Zm6.11-3.54c.65.32.65.96 0 1.28-.64.33-1.6.33-2.25 0-.64-.32-.64-.96 0-1.28.64-.33 1.6-.33 2.25 0Zm-77.19 37.68c.64.32.64.96 0 1.29-.64.32-1.6.32-2.25 0-.64-.33-.64-.97 0-1.3.64-.31 1.6-.31 2.25 0Zm4.82-1.61c.9 0 1.61-.43 1.61-.97 0-.53-.72-.96-1.6-.96-.9 0-1.61.43-1.61.96 0 .54.72.97 1.6.97Zm5.79-3.54c.9 0 1.61-.44 1.61-.97s-.72-.97-1.6-.97c-.9 0-1.62.44-1.62.97s.72.97 1.61.97Zm7.08-5.16c.64.32.64.97 0 1.29-.64.32-1.6.32-2.25 0-.64-.32-.64-.97 0-1.29.64-.32 1.6-.32 2.25 0Zm6.12-3.22c.63.32.63.97 0 1.29-.65.32-1.62.32-2.26 0-.64-.32-.64-.97 0-1.29.64-.64 1.6-.64 2.25 0Zm4.81-1.93c.9 0 1.61-.43 1.61-.97 0-.53-.72-.96-1.6-.96-.9 0-1.61.43-1.61.96 0 .54.72.97 1.6.97Zm7.09-5.15c.63.32.63.96 0 1.28a2.7 2.7 0 0 1-2.26 0c-.64-.32-.64-.96 0-1.28.64-.33 1.6-.33 2.25 0Zm4.82-1.61c.88 0 1.6-.44 1.6-.97s-.72-.97-1.6-.97c-.9 0-1.61.44-1.61.97s.72.97 1.6.97Zm7.08-5.16c.63.32.63.97 0 1.3-.65.31-1.62.31-2.26 0-.64-.33-.64-.97 0-1.3.32-.32 1.6-.32 2.25 0Zm35.37-13.85c.64.32.64.97 0 1.3-.64.31-1.6.31-2.25 0-.64-.33-.64-.97 0-1.3.64-.32 1.6-.32 2.25 0Zm4.83-1.61c.89 0 1.6-.43 1.6-.96 0-.54-.71-.97-1.6-.97-.9 0-1.61.43-1.61.97 0 .53.72.96 1.6.96Zm-35.38 13.53c.88 0 1.6-.43 1.6-.97 0-.53-.72-.96-1.6-.96-.9 0-1.61.43-1.61.96 0 .54.72.97 1.6.97Zm6.75-4.83c.64.32.64.97 0 1.29-.64.32-1.6.32-2.25 0-.64-.33-.64-.97 0-1.3.64-.31 1.93-.31 2.25 0Zm6.11-3.54c.64.32.64.96 0 1.28-.64.33-1.6.33-2.25 0-.64-.32-.64-.96 0-1.28.64-.33 1.6-.33 2.25 0Zm4.82-1.94c.9 0 1.61-.43 1.61-.96 0-.54-.72-.97-1.6-.97-.9 0-1.61.43-1.61.97 0 .53.72.96 1.6.96Zm-77.19 38.01c.9 0 1.61-.43 1.61-.97 0-.53-.72-.96-1.6-.96-.9 0-1.61.43-1.61.96 0 .54.72.97 1.6.97Zm5.79-3.54c.9 0 1.61-.44 1.61-.97s-.72-.97-1.6-.97c-.9 0-1.61.44-1.61.97s.72.97 1.6.97Zm7.08-5.16c.64.32.64.97 0 1.29-.64.32-1.6.32-2.25 0-.65-.32-.65-.97 0-1.29.64-.32 1.93-.32 2.25 0Zm4.82-1.61c.9 0 1.61-.43 1.61-.97 0-.53-.72-.96-1.6-.96-.9 0-1.62.43-1.62.97 0 .53.72.96 1.61.96Zm6.11-3.54c.9 0 1.61-.43 1.61-.97 0-.53-.72-.96-1.6-.96-.9 0-1.61.43-1.61.96 0 .54.72.97 1.6.97Zm7.09-5.15c.63.32.63.96 0 1.28a2.7 2.7 0 0 1-2.26 0c-.64-.32-.64-.96 0-1.28.64-.33 1.6-.33 2.25 0Zm5.78-3.23c.64.33.64.97 0 1.3-.64.31-1.6.31-2.25 0-.64-.33-.64-.97 0-1.3.64-.64 1.6-.64 2.25 0Zm4.82-1.93c.9 0 1.61-.43 1.61-.96 0-.54-.72-.97-1.6-.97-.9 0-1.61.43-1.61.97 0 .53.72.96 1.6.96Zm6.12-3.54c.88 0 1.6-.43 1.6-.97 0-.53-.72-.96-1.6-.96-.9 0-1.61.43-1.61.96 0 .54.72.97 1.6.97Zm35.38-13.53c.88 0 1.6-.43 1.6-.96 0-.54-.72-.97-1.6-.97-.9 0-1.61.43-1.61.97 0 .53.72.96 1.6.96Zm6.1-3.54c.9 0 1.61-.43 1.61-.97 0-.53-.72-.96-1.6-.96-.9 0-1.61.43-1.61.96 0 .54.72.97 1.6.97Zm-35.7 13.85c.9 0 1.61-.43 1.61-.97 0-.53-.72-.96-1.6-.96-.9 0-1.61.43-1.61.96 0 .54.72.97 1.6.97Zm6.12-3.55c.88 0 1.6-.43 1.6-.96s-.72-.97-1.6-.97c-.9 0-1.61.44-1.61.97s.72.97 1.6.97Zm5.78-3.54c.9 0 1.61-.43 1.61-.96 0-.54-.72-.97-1.6-.97-.9 0-1.61.43-1.61.97 0 .53.72.96 1.6.96Zm7.08-4.83c.64.32.64.97 0 1.3-.64.31-1.6.31-2.25 0-.64-.33-.64-.98 0-1.3.64-.32 1.6-.32 2.25 0Zm-77.19 37.68c.64.33.64.97 0 1.3-.64.31-1.6.31-2.25 0-.65-.33-.65-.97 0-1.3.64-.32 1.6-.32 2.25 0Zm4.82-1.93c.9 0 1.61-.43 1.61-.96 0-.54-.72-.97-1.6-.97-.9 0-1.61.43-1.61.97 0 .53.72.96 1.6.96Zm5.79-3.22c.9 0 1.61-.43 1.61-.97 0-.53-.72-.96-1.6-.96-.9 0-1.61.43-1.61.97 0 .53.72.96 1.6.96Zm6.11-3.54c.9 0 1.61-.43 1.61-.97 0-.53-.72-.96-1.6-.96-.9 0-1.61.43-1.61.96 0 .54.72.97 1.6.97Zm7.08-5.15c.64.32.64.96 0 1.28-.64.33-1.6.33-2.25 0-.65-.32-.65-.96 0-1.28.64-.33 1.6-.33 2.25 0Zm4.82-1.61c.9 0 1.61-.44 1.61-.97s-.72-.97-1.6-.97c-.9 0-1.61.44-1.61.97s.72.97 1.6.97Zm5.79-3.55c.9 0 1.61-.43 1.61-.96 0-.54-.72-.97-1.6-.97-.9 0-1.61.43-1.61.97 0 .53.72.96 1.6.96Zm7.08-5.15c.64.32.64.97 0 1.29-.64.32-1.6.32-2.25 0-.64-.32-.64-.97 0-1.3.64-.31 1.6-.31 2.25 0Zm6.12-3.22c.63.32.63.97 0 1.29-.65.32-1.62.32-2.26 0-.64-.33-.64-.97 0-1.3.64-.31 1.6-.31 2.25 0Zm4.82-1.94c.88 0 1.6-.43 1.6-.96s-.72-.97-1.6-.97c-.9 0-1.61.44-1.61.97s.72.97 1.6.97Zm30.55-11.91c.64.32.64.97 0 1.29-.64.32-1.6.32-2.25 0-.64-.32-.64-.97 0-1.29.64-.32 1.6-.32 2.25 0Zm4.83-1.93c.88 0 1.6-.43 1.6-.97 0-.53-.72-.96-1.6-.96-.9 0-1.61.43-1.61.96 0 .54.72.97 1.6.97Zm-28.3 8.69c.63.32.63.97 0 1.3-.65.31-1.62.31-2.26 0-.64-.33-.64-.97 0-1.3.32-.32 1.6-.32 2.25 0Zm4.82-1.61c.88 0 1.6-.43 1.6-.96 0-.54-.72-.97-1.6-.97-.9 0-1.61.43-1.61.97 0 .53.72.96 1.6.96Zm5.78-3.54c.9 0 1.61-.43 1.61-.97 0-.53-.72-.96-1.6-.96-.9 0-1.61.43-1.61.96 0 .54.72.97 1.6.97Zm-75.9 36.07c.64.32.64.97 0 1.29-.64.32-1.6.32-2.25 0-.64-.32-.64-.97 0-1.29.64-.32 1.6-.32 2.25 0Zm4.82-1.61c.9 0 1.61-.43 1.61-.97 0-.53-.72-.96-1.6-.96-.9 0-1.61.43-1.61.97 0 .53.72.96 1.6.96Zm7.08-5.16c.64.33.64.97 0 1.3-.64.32-1.6.32-2.25 0-.64-.33-.64-.97 0-1.3.32-.31 1.6-.31 2.25 0Zm5.79-3.53c.64.32.64.96 0 1.28-.64.33-1.6.33-2.25 0-.64-.32-.64-.96 0-1.28.64-.33 1.6-.33 2.25 0Zm4.82-1.61c.9 0 1.61-.44 1.61-.97s-.72-.97-1.6-.97c-.9 0-1.61.44-1.61.97s.72.97 1.6.97Zm7.08-5.16c.64.32.64.97 0 1.3-.64.31-1.6.31-2.25 0-.65-.33-.65-.97 0-1.3.64-.32 1.6-.32 2.25 0Zm5.79-3.54c.64.32.64.97 0 1.29-.64.32-1.6.32-2.25 0-.64-.32-.64-.97 0-1.3.64-.31 1.6-.31 2.25 0Zm4.82-1.61c.9 0 1.61-.43 1.61-.97 0-.53-.72-.96-1.6-.96-.9 0-1.61.43-1.61.96 0 .54.72.97 1.6.97Zm6.11-3.55c.9 0 1.61-.43 1.61-.96s-.72-.97-1.6-.97c-.9 0-1.61.44-1.61.97s.72.97 1.6.97Zm7.09-5.15c.63.32.63.97 0 1.3-.65.31-1.62.31-2.26 0-.64-.33-.64-.97 0-1.3.64-.32 1.6-.32 2.25 0Zm5.78-3.22c.64.32.64.97 0 1.3-.64.31-1.6.31-2.25 0-.64-.33-.64-.98 0-1.3.64-.32 1.6-.32 2.25 0Zm22.52-5.47c.88 0 1.6-.43 1.6-.97 0-.53-.72-.96-1.6-.96-.9 0-1.61.43-1.61.96 0 .54.72.97 1.6.97Zm7.07-4.83c.64.32.64.96 0 1.28-.64.33-1.6.33-2.25 0-.64-.32-.64-.96 0-1.28.64-.33 1.6-.33 2.25 0Zm-24.77 8.37c.9 0 1.61-.43 1.61-.97 0-.53-.72-.96-1.6-.96-.9 0-1.61.43-1.61.96 0 .54.72.97 1.6.97Zm6.12-3.54c.88 0 1.6-.43 1.6-.97 0-.53-.72-.96-1.6-.96-.9 0-1.61.43-1.61.96 0 .54.72.97 1.6.97Zm-76.23 36.39c.64.32.64.97 0 1.29-.64.32-1.61.32-2.25 0-.65-.32-.65-.97 0-1.29.64-.64 1.6-.64 2.25 0Zm6.11-3.55c.64.33.64.97 0 1.3-.64.32-1.6.32-2.25 0-.64-.33-.64-.97 0-1.3.64-.31 1.6-.31 2.25 0Zm5.79-3.53c.64.32.64.96 0 1.28-.64.33-1.6.33-2.25 0-.65-.32-.65-.96 0-1.28.64-.33 1.6-.33 2.25 0Zm4.82-1.61c.9 0 1.61-.44 1.61-.97s-.72-.97-1.6-.97c-.9 0-1.61.44-1.61.97s.72.97 1.6.97Zm7.08-5.16c.64.32.64.97 0 1.3-.64.31-1.6.31-2.25 0-.64-.33-.64-.97 0-1.3.64-.32 1.6-.32 2.25 0Zm5.79-3.54c.64.32.64.97 0 1.29-.64.32-1.6.32-2.25 0-.65-.32-.65-.97 0-1.3.64-.31 1.93-.31 2.25 0Zm6.11-3.22c.64.32.64.97 0 1.29-.64.32-1.6.32-2.25 0-.65-.33-.65-.97 0-1.3.64-.31 1.6-.31 2.25 0Zm5.79-3.54c.64.32.64.96 0 1.28-.64.33-1.6.33-2.25 0-.64-.32-.64-.96 0-1.28.64-.33 1.6-.33 2.25 0Zm6.12-3.55c.63.32.63.97 0 1.3-.65.31-1.62.31-2.26 0-.64-.33-.64-.97 0-1.3.64-.32 1.6-.32 2.25 0Zm5.78-3.22c.64.32.64.97 0 1.3-.64.31-1.6.31-2.25 0-.64-.33-.64-.98 0-1.3.64-.32 1.6-.32 2.25 0Zm4.82-1.93c.9 0 1.61-.43 1.61-.97 0-.53-.72-.96-1.6-.96-.9 0-1.61.43-1.61.96 0 .54.72.97 1.6.97Zm6.12-3.54c.88 0 1.6-.43 1.6-.97 0-.53-.72-.96-1.6-.96-.9 0-1.61.43-1.61.96 0 .54.72.97 1.6.97Zm18.65-4.83c.64.32.64.96 0 1.28-.64.33-1.6.33-2.25 0-.64-.32-.64-.96 0-1.28.64-.33 1.93-.33 2.25 0Zm6.11-3.55c.64.33.64.97 0 1.3-.64.31-1.6.31-2.25 0-.64-.33-.64-.97 0-1.3.64-.32 1.6-.32 2.25 0Zm-18.98 5.16c.9 0 1.61-.44 1.61-.97s-.72-.97-1.6-.97c-.9 0-1.61.44-1.61.97s.72.97 1.6.97Zm-75.9 36.06c.64.33.64.97 0 1.3-.64.32-1.6.32-2.25 0-.65-.33-.65-.97 0-1.3.64-.31 1.6-.31 2.25 0Zm5.79-3.53c.64.32.64.96 0 1.28-.64.33-1.61.33-2.25 0-.65-.32-.65-.96 0-1.28.64-.33 1.6-.33 2.25 0Zm4.82-1.61c.9 0 1.61-.44 1.61-.97s-.72-.97-1.6-.97c-.9 0-1.61.44-1.61.97s.72.97 1.6.97Zm7.08-5.16c.64.32.64.97 0 1.3-.64.31-1.6.31-2.25 0-.65-.33-.65-.97 0-1.3.64-.32 1.6-.32 2.25 0Zm4.82-1.93c.9 0 1.61-.43 1.61-.97 0-.53-.72-.96-1.6-.96-.9 0-1.61.43-1.61.96 0 .54.72.97 1.6.97Zm5.79-3.22c.9 0 1.61-.43 1.61-.97 0-.53-.72-.96-1.6-.96-.9 0-1.61.43-1.61.96 0 .54.72.97 1.6.97Zm6.11-3.55c.9 0 1.61-.43 1.61-.96s-.72-.97-1.6-.97c-.9 0-1.61.44-1.61.97s.72.97 1.6.97Zm7.08-5.15c.64.32.64.97 0 1.3-.64.31-1.6.31-2.25 0-.65-.33-.65-.97 0-1.3.64-.32 1.6-.32 2.25 0Zm4.82-1.61c.9 0 1.61-.43 1.61-.96 0-.54-.72-.97-1.6-.97-.9 0-1.61.43-1.61.97 0 .53.72.96 1.6.96Zm5.79-3.54c.9 0 1.61-.43 1.61-.97 0-.53-.72-.96-1.6-.96-.9 0-1.61.43-1.61.96 0 .54.72.97 1.6.97Zm7.08-5.15c.64.32.64.96 0 1.29-.64.32-1.6.32-2.25 0-.64-.33-.64-.97 0-1.3.64-.31 1.6-.31 2.25 0Zm6.12-3.22c.63.32.63.96 0 1.28a2.7 2.7 0 0 1-2.26 0c-.64-.32-.64-.96 0-1.28.64-.33 1.6-.33 2.25 0Zm4.82-1.93c.88 0 1.6-.44 1.6-.97s-.72-.97-1.6-.97c-.9 0-1.61.44-1.61.97s.72.97 1.6.97Zm11.9 0c.88 0 1.6-.44 1.6-.97s-.72-.97-1.6-.97c-.9 0-1.61.44-1.61.97s.72.97 1.6.97Zm5.78-3.55c.9 0 1.61-.43 1.61-.97 0-.53-.72-.96-1.6-.96-.9 0-1.61.43-1.61.96 0 .54.72.97 1.6.97Zm-93.91 39.62c.64.32.64.96 0 1.28-.65.33-1.61.33-2.25 0-.65-.32-.65-.96 0-1.28.64-.33 1.6-.33 2.25 0Zm4.82-1.61c.89 0 1.61-.44 1.61-.97s-.72-.97-1.6-.97c-.9 0-1.62.44-1.62.97s.72.97 1.61.97Zm7.08-5.16c.64.32.64.97 0 1.3-.64.31-1.61.31-2.25 0-.65-.33-.65-.97 0-1.3.64-.32 1.6-.32 2.25 0Zm4.82-1.93c.9 0 1.61-.43 1.61-.97 0-.53-.72-.96-1.6-.96-.9 0-1.61.43-1.61.96 0 .54.72.97 1.6.97Zm6.11-3.22c.9 0 1.61-.43 1.61-.97 0-.53-.72-.96-1.6-.96-.9 0-1.61.43-1.61.96 0 .54.72.97 1.6.97Zm7.08-5.15c.64.32.64.96 0 1.28-.64.33-1.6.33-2.25 0-.64-.32-.64-.96 0-1.28.32-.33 1.6-.33 2.25 0Zm4.5-1.94c.9 0 1.61-.43 1.61-.96 0-.54-.72-.97-1.6-.97-.9 0-1.61.43-1.61.97 0 .53.72.96 1.6.96Zm7.08-4.83c.64.32.64.97 0 1.3-.64.31-1.6.31-2.25 0-.65-.33-.65-.98 0-1.3.64-.32 1.93-.32 2.25 0Zm6.11-3.54c.64.32.64.97 0 1.29-.64.32-1.6.32-2.25 0-.65-.32-.65-.97 0-1.29.64-.32 1.6-.32 2.25 0Zm5.79-3.54c.64.32.64.96 0 1.29-.64.32-1.6.32-2.25 0-.64-.33-.64-.97 0-1.3.64-.31 1.6-.31 2.25 0Zm4.82-1.61c.9 0 1.61-.44 1.61-.97s-.72-.97-1.6-.97c-.9 0-1.61.44-1.61.97s.72.97 1.6.97Zm6.11-3.54c.9 0 1.61-.44 1.61-.97s-.72-.97-1.6-.97c-.9 0-1.61.44-1.61.97s.72.97 1.6.97Zm7.09-5.16c.63.32.63.97 0 1.29-.65.32-1.62.32-2.26 0-.64-.32-.64-.97 0-1.29.64-.32 1.6-.32 2.25 0Zm4.82-1.61c.88 0 1.6-.43 1.6-.97 0-.53-.72-.96-1.6-.96-.9 0-1.61.43-1.61.96 0 .54.72.97 1.6.97Zm7.08 1.61c.63.32.63.97 0 1.29-.65.32-1.62.32-2.26 0-.64-.32-.64-.97 0-1.29.32-.32 1.6-.32 2.25 0Zm-89.1 37.68c.64.32.64.97 0 1.3-.64.31-1.61.31-2.25 0-.65-.33-.65-.97 0-1.3.64-.32 1.6-.32 2.25 0Zm5.79-3.22c.64.32.64.97 0 1.3-.65.31-1.61.31-2.25 0-.65-.33-.65-.97 0-1.3.64-.32 1.6-.32 2.25 0Zm4.82-1.93c.89 0 1.61-.43 1.61-.97 0-.53-.72-.96-1.6-.96-.9 0-1.62.43-1.62.96 0 .54.72.97 1.61.97Zm7.08-4.83c.64.32.64.97 0 1.29-.64.32-1.61.32-2.25 0-.65-.33-.65-.97 0-1.3.64-.64 1.6-.64 2.25 0Zm6.11-3.54c.64.32.64.96 0 1.28-.64.33-1.6.33-2.25 0-.64-.32-.64-.96 0-1.28.32-.33 1.6-.33 2.25 0Zm4.5-1.94c.9 0 1.61-.43 1.61-.96 0-.54-.72-.97-1.6-.97-.9 0-1.62.43-1.62.97 0 .53.72.96 1.61.96Zm6.11-3.22c.9 0 1.61-.43 1.61-.96 0-.54-.72-.97-1.6-.97-.9 0-1.61.43-1.61.97 0 .53.72.96 1.6.96Zm7.08-5.15c.64.32.64.97 0 1.29-.64.32-1.6.32-2.25 0-.64-.32-.64-.97 0-1.29.64-.32 1.6-.32 2.25 0Zm4.82-1.93c.9 0 1.61-.43 1.61-.97 0-.53-.72-.96-1.6-.96-.9 0-1.61.43-1.61.96 0 .54.72.97 1.6.97Zm5.79-3.22c.9 0 1.61-.44 1.61-.97s-.72-.97-1.6-.97c-.9 0-1.62.44-1.62.97s.72.97 1.61.97Zm7.08-5.16c.64.33.64.97 0 1.3-.64.31-1.6.31-2.25 0-.64-.33-.64-.97 0-1.3.64-.32 1.6-.32 2.25 0Zm4.82-1.93c.9 0 1.61-.43 1.61-.97 0-.53-.72-.96-1.6-.96-.9 0-1.61.43-1.61.96 0 .54.72.97 1.6.97Zm6.11-3.22c.9 0 1.61-.43 1.61-.97 0-.53-.72-.96-1.6-.96-.9 0-1.61.43-1.61.96 0 .54.72.97 1.6.97Zm5.79-3.54c.9 0 1.61-.43 1.61-.97 0-.53-.72-.96-1.6-.96-.9 0-1.61.43-1.61.96 0 .54.72.97 1.6.97Zm18.98 1.93c.64.32.64.97 0 1.29-.64.32-1.6.32-2.25 0-.64-.32-.64-.97 0-1.29.64-.32 1.6-.32 2.25 0ZM86.19 149.4c.64.32.64.97 0 1.3-.65.31-1.61.31-2.25 0-.65-.33-.65-.97 0-1.3.64-.32 1.6-.32 2.25 0Zm4.82-1.93c.89 0 1.61-.43 1.61-.97 0-.53-.72-.96-1.6-.96-.9 0-1.62.43-1.62.96 0 .54.72.97 1.61.97Zm7.08-4.83c.64.32.64.97 0 1.29-.65.32-1.61.32-2.25 0-.65-.33-.65-.97 0-1.3.64-.64 1.6-.64 2.25 0Zm6.11-3.54c.64.32.64.96 0 1.28-.64.33-1.6.33-2.25 0-.65-.32-.65-.96 0-1.28.64-.33 1.6-.33 2.25 0Zm4.82-1.94c.9 0 1.61-.43 1.61-.96 0-.54-.72-.97-1.6-.97-.9 0-1.61.43-1.61.97 0 .53.72.96 1.6.96Zm7.08-4.83c.64.32.64.97 0 1.3-.64.31-1.6.31-2.25 0-.64-.33-.64-.97 0-1.3.32-.64 1.6-.64 2.25 0Zm5.79-3.54c.64.32.64.97 0 1.29-.64.32-1.6.32-2.25 0-.65-.32-.65-.97 0-1.29.64-.32 1.6-.32 2.25 0Zm4.82-1.93c.9 0 1.61-.43 1.61-.97 0-.53-.72-.96-1.6-.96-.9 0-1.61.43-1.61.96 0 .54.72.97 1.6.97Zm5.79-3.22c.9 0 1.61-.44 1.61-.97s-.72-.97-1.6-.97c-.9 0-1.61.44-1.61.97s.72.97 1.6.97Zm7.08-5.16c.64.33.64.97 0 1.3-.64.31-1.6.31-2.25 0-.65-.33-.65-.97 0-1.3.64-.32 1.6-.32 2.25 0Zm6.11-3.54c.64.32.64.97 0 1.29-.64.32-1.6.32-2.25 0-.65-.32-.65-.97 0-1.29.64-.32 1.6-.32 2.25 0Zm4.82-1.61c.9 0 1.61-.43 1.61-.97 0-.53-.72-.96-1.6-.96-.9 0-1.61.43-1.61.96 0 .54.72.97 1.6.97Zm7.09-5.15c.63.32.63.96 0 1.29-.65.32-1.62.32-2.26 0-.64-.33-.64-.97 0-1.3.64-.31 1.6-.31 2.25 0Zm5.78-3.54c.64.32.64.96 0 1.28-.64.33-1.6.33-2.25 0-.64-.32-.64-.96 0-1.28.64-.33 1.6-.33 2.25 0Zm16.72 5.15c.9 0 1.61-.43 1.61-.97 0-.53-.72-.96-1.6-.96-.9 0-1.61.43-1.61.96 0 .54.72.97 1.6.97Zm-99.7 36.07c.64.32.64.97 0 1.29-.65.32-1.61.32-2.25 0-.65-.32-.65-.97 0-1.3.64-.31 1.6-.31 2.25 0Zm5.79-3.22c.64.32.64.97 0 1.29-.65.32-1.61.32-2.25 0-.65-.33-.65-.97 0-1.3.64-.64 1.6-.64 2.25 0Zm6.11-3.54c.64.32.64.96 0 1.28-.64.33-1.61.33-2.25 0-.65-.32-.65-.96 0-1.28.64-.33 1.6-.33 2.25 0Zm4.82-1.94c.9 0 1.61-.43 1.61-.96 0-.54-.72-.97-1.6-.97-.9 0-1.62.43-1.62.97 0 .53.72.96 1.61.96Zm7.08-4.83c.64.32.64.97 0 1.3-.64.31-1.6.31-2.25 0-.65-.33-.65-.97 0-1.3.64-.64 1.6-.64 2.25 0Zm5.79-3.54c.64.32.64.97 0 1.29-.64.32-1.61.32-2.25 0-.65-.32-.65-.97 0-1.29.64-.32 1.6-.32 2.25 0Zm6.11-3.54c.64.32.64.96 0 1.29-.64.32-1.6.32-2.25 0-.64-.33-.64-.97 0-1.3.32-.31 1.6-.31 2.25 0Zm5.79-3.22c.64.32.64.96 0 1.28-.64.33-1.6.33-2.25 0-.65-.32-.65-.96 0-1.28.64-.33 1.6-.33 2.25 0Zm5.79-3.55c.64.33.64.97 0 1.3-.65.31-1.61.31-2.25 0-.65-.33-.65-.97 0-1.3.64-.32 1.6-.32 2.25 0Zm4.82-1.93c.9 0 1.61-.43 1.61-.97 0-.53-.72-.96-1.6-.96-.9 0-1.61.43-1.61.96 0 .54.72.97 1.6.97Zm6.11-3.22c.9 0 1.61-.43 1.61-.97 0-.53-.72-.96-1.6-.96-.9 0-1.61.43-1.61.96 0 .54.72.97 1.6.97Zm36.67-8.69c.64.32.64.96 0 1.28-.64.33-1.6.33-2.25 0-.64-.32-.64-.96 0-1.28.64-.33 1.6-.33 2.25 0Zm-7.08-1.61c.9 0 1.61-.44 1.61-.97s-.72-.97-1.6-.97c-.9 0-1.61.44-1.61.97s.72.97 1.6.97Zm-22.51 5.15c.64.32.64.96 0 1.29-.64.32-1.6.32-2.25 0-.65-.33-.65-.97 0-1.3.64-.31 1.6-.31 2.25 0Zm4.82-1.93c.9 0 1.61-.44 1.61-.97s-.72-.97-1.6-.97c-.9 0-1.61.44-1.61.97s.72.97 1.6.97Zm-77.19 38c.89 0 1.61-.43 1.61-.97 0-.53-.72-.96-1.6-.96-.9 0-1.62.43-1.62.96 0 .54.72.97 1.61.97Zm7.08-5.15c.64.32.64.96 0 1.28-.65.33-1.61.33-2.25 0-.65-.32-.65-.96 0-1.28.64-.33 1.6-.33 2.25 0Zm5.79-3.55c.64.32.64.97 0 1.3-.65.31-1.61.31-2.25 0-.65-.33-.65-.97 0-1.3.64-.32 1.6-.32 2.25 0Zm6.11-3.22c.64.32.64.97 0 1.3-.64.31-1.61.31-2.25 0-.65-.33-.65-.97 0-1.3.64-.64 1.6-.64 2.25 0Zm5.79-3.54c.64.32.64.97 0 1.29-.65.32-1.61.32-2.25 0-.65-.32-.65-.97 0-1.29.64-.32 1.6-.32 2.25 0Zm4.82-1.93c.89 0 1.61-.43 1.61-.97 0-.53-.72-.96-1.6-.96-.9 0-1.62.43-1.62.96 0 .54.72.97 1.61.97Zm7.08-4.83c.64.32.64.96 0 1.28-.64.33-1.61.33-2.25 0-.65-.32-.65-.96 0-1.28.64-.33 1.6-.33 2.25 0Zm4.82-1.93c.9 0 1.61-.44 1.61-.97s-.72-.97-1.6-.97c-.9 0-1.61.44-1.61.97s.72.97 1.6.97Zm5.79-3.55c.9 0 1.61-.43 1.61-.97 0-.53-.72-.96-1.6-.96-.9 0-1.62.43-1.62.96 0 .54.72.97 1.61.97Zm35.7-13.52c.9 0 1.61-.44 1.61-.97s-.72-.97-1.6-.97c-.9 0-1.61.44-1.61.97s.72.97 1.6.97Zm6.11-3.55c.9 0 1.61-.43 1.61-.96 0-.54-.72-.97-1.6-.97-.9 0-1.61.43-1.61.97 0 .53.72.96 1.6.96Zm-35.7 13.85c.9 0 1.61-.43 1.61-.97 0-.53-.72-.96-1.6-.96-.9 0-1.61.43-1.61.96 0 .54.72.97 1.6.97Zm7.08-5.15c.64.32.64.96 0 1.29-.64.32-1.6.32-2.25 0-.64-.33-.64-.97 0-1.3.64-.31 1.6-.31 2.25 0Zm5.79-3.54c.64.32.64.96 0 1.28-.64.33-1.6.33-2.25 0-.65-.32-.65-.96 0-1.28.64-.33 1.6-.33 2.25 0Zm6.11-3.22c.64.32.64.96 0 1.28-.64.33-1.6.33-2.25 0-.65-.32-.65-.96 0-1.28.64-.33 1.6-.33 2.25 0Zm112.89 44.76c.65.32.65.97 0 1.29-.64.32-1.6.32-2.25 0-.64-.32-.64-.97 0-1.29.32-.64 1.61-.64 2.25 0Zm5.79-3.54c.65.32.65.97 0 1.29-.64.32-1.6.32-2.25 0-.64-.33-.64-.97 0-1.3a2.84 2.84 0 0 1 2.25 0Zm4.83-1.94c.89 0 1.6-.43 1.6-.96s-.71-.97-1.6-.97c-.89 0-1.6.44-1.6.97s.71.97 1.6.97Zm7.07-4.82c.65.32.65.96 0 1.28-.64.33-1.6.33-2.25 0-.64-.32-.64-.96 0-1.28a1.54 1.54 0 0 1 2.25 0Zm5.79-3.55c.65.32.65.97 0 1.3-.64.31-1.6.31-2.25 0-.64-.33-.64-.98 0-1.3a2.76 2.76 0 0 1 2.25 0Zm6.12-3.54c.64.32.64.97 0 1.29-.65.32-1.61.32-2.26 0-.64-.32-.64-.97 0-1.29a2.76 2.76 0 0 1 2.25 0Zm4.82-1.61c.89 0 1.6-.43 1.6-.97 0-.53-.71-.96-1.6-.96-.89 0-1.6.43-1.6.96 0 .54.71.97 1.6.97Zm7.08-5.15c.64.32.64.96 0 1.28-.65.33-1.61.33-2.25 0-.65-.32-.65-.96 0-1.28.64-.33 1.6-.33 2.25 0Zm5.79-3.55c.64.33.64.97 0 1.3-.65.31-1.61.31-2.26 0-.64-.33-.64-.97 0-1.3a2.78 2.78 0 0 1 2.26 0Zm4.82-1.61c.89 0 1.6-.43 1.6-.96 0-.54-.71-.97-1.6-.97-.89 0-1.6.43-1.6.97 0 .53.71.96 1.6.96Zm6.11-3.54c.89 0 1.6-.43 1.6-.97 0-.53-.71-.96-1.6-.96-.89 0-1.6.43-1.6.96 0 .54.71.97 1.6.97Zm5.8-3.54c.88 0 1.6-.43 1.6-.97 0-.53-.72-.96-1.6-.96-.9 0-1.62.43-1.62.96 0 .54.72.97 1.61.97Zm5.78-3.22c.89 0 1.6-.43 1.6-.97 0-.53-.71-.96-1.6-.96-.89 0-1.6.43-1.6.96 0 .54.71.97 1.6.97Zm-78.16 36.07a2.76 2.76 0 0 1 2.25 0c.65.32.65.97 0 1.29-.64.32-1.6.32-2.25 0-.64-.33-.64-.97 0-1.3Zm7.08-1.94c.89 0 1.6-.43 1.6-.96s-.71-.97-1.6-.97c-.89 0-1.61.44-1.61.97s.72.97 1.6.97Zm7.07-4.82c.65.32.65.96 0 1.28-.64.33-1.6.33-2.25 0-.64-.32-.64-.96 0-1.28a1.54 1.54 0 0 1 2.25 0Zm5.79-3.55c.65.32.65.97 0 1.3-.64.31-1.6.31-2.25 0-.64-.33-.64-.98 0-1.3.65-.32 1.93-.32 2.25 0Zm4.83-1.93c.89 0 1.6-.43 1.6-.97 0-.53-.71-.96-1.6-.96-.89 0-1.61.43-1.61.96 0 .54.72.97 1.6.97Zm6.11-3.22c.89 0 1.6-.43 1.6-.97 0-.53-.71-.96-1.6-.96-.89 0-1.6.43-1.6.96 0 .54.71.97 1.6.97Zm5.79-3.54c.89 0 1.6-.44 1.6-.97s-.71-.97-1.6-.97c-.89 0-1.6.44-1.6.97s.71.97 1.6.97Zm6.11-3.54c.89 0 1.6-.44 1.6-.97s-.71-.97-1.6-.97c-.89 0-1.6.44-1.6.97s.71.97 1.6.97Zm7.08-4.84c.64.32.64.97 0 1.3-.65.31-1.61.31-2.25 0-.65-.33-.65-.98 0-1.3.64-.32 1.6-.32 2.25 0Zm5.79-3.54c.64.32.64.97 0 1.29-.65.32-1.61.32-2.26 0-.64-.32-.64-.97 0-1.29a2.78 2.78 0 0 1 2.26 0Zm6.11-3.54c.64.32.64.96 0 1.29-.65.32-1.61.32-2.25 0-.65-.33-.65-.97 0-1.3.64-.31 1.6-.31 2.25 0Zm4.82-1.61c.89 0 1.6-.43 1.6-.97 0-.53-.71-.96-1.6-.96-.89 0-1.6.43-1.6.96 0 .54.71.97 1.6.97Zm5.8-3.54c.88 0 1.6-.44 1.6-.97s-.72-.97-1.6-.97c-.9 0-1.62.44-1.62.97s.72.97 1.61.97Zm5.78-3.55c.89 0 1.6-.43 1.6-.96 0-.54-.71-.97-1.6-.97-.89 0-1.6.43-1.6.97 0 .53.71.96 1.6.96Zm-83.95 39.62a2.68 2.68 0 0 1 2.25 0c.65.32.65.96 0 1.28-.64.33-1.6.33-2.25 0-.64-.32-.64-.96 0-1.28Zm7.07-1.61c.9 0 1.62-.44 1.62-.97s-.72-.97-1.61-.97c-.89 0-1.6.44-1.6.97s.71.97 1.6.97Zm5.8-3.55c.89 0 1.6-.43 1.6-.96 0-.54-.71-.97-1.6-.97-.89 0-1.61.43-1.61.97 0 .53.72.96 1.6.96Zm6.1-3.54c.9 0 1.62-.43 1.62-.97 0-.53-.72-.96-1.61-.96-.89 0-1.6.43-1.6.96 0 .54.71.97 1.6.97Zm6.76-4.83c.65.32.65.97 0 1.29-.64.32-1.6.32-2.25 0-.64-.32-.64-.97 0-1.29.65-.32 1.93-.32 2.25 0Zm4.83-1.93c.89 0 1.6-.44 1.6-.97s-.71-.97-1.6-.97c-.89 0-1.61.44-1.61.97s.72.97 1.6.97Zm6.11-3.54c.89 0 1.6-.44 1.6-.97s-.71-.97-1.6-.97c-.89 0-1.6.44-1.6.97s.71.97 1.6.97Zm5.79-3.23c.89 0 1.6-.43 1.6-.96 0-.54-.71-.97-1.6-.97-.89 0-1.6.43-1.6.97 0 .53.71.96 1.6.96Zm6.11-3.54c.89 0 1.6-.43 1.6-.97 0-.53-.71-.96-1.6-.96-.89 0-1.6.43-1.6.96 0 .54.71.97 1.6.97Zm7.08-5.15c.64.32.64.96 0 1.29-.65.32-1.61.32-2.25 0-.65-.33-.65-.97 0-1.3.64-.31 1.6-.31 2.25 0Zm4.82-1.61c.89 0 1.6-.43 1.6-.97 0-.53-.71-.96-1.6-.96-.89 0-1.6.43-1.6.96 0 .54.71.97 1.6.97Zm5.79-3.54c.89 0 1.6-.44 1.6-.97s-.71-.97-1.6-.97c-.89 0-1.6.44-1.6.97s.71.97 1.6.97Zm6.11-3.55c.89 0 1.6-.43 1.6-.96 0-.54-.71-.97-1.6-.97-.89 0-1.6.43-1.6.97 0 .53.71.96 1.6.96Zm7.08-4.83c.64.32.64.97 0 1.29-.65.32-1.61.32-2.25 0-.65-.32-.65-.97 0-1.29.32-.32 1.6-.32 2.25 0Zm-85.56 41.23a2.68 2.68 0 0 1 2.25 0c.65.32.65.96 0 1.28-.64.33-1.6.33-2.25 0-.64-.32-.64-.96 0-1.28Zm7.08-1.94c.89 0 1.6-.43 1.6-.96 0-.54-.71-.97-1.6-.97-.9 0-1.61.43-1.61.97 0 .53.72.96 1.6.96Zm6.1-3.54c.9 0 1.62-.43 1.62-.97 0-.53-.72-.96-1.61-.96-.89 0-1.6.43-1.6.96 0 .54.71.97 1.6.97Zm7.08-4.83c.65.32.65.97 0 1.29-.64.32-1.6.32-2.25 0-.64-.32-.64-.97 0-1.29.32-.32 1.61-.32 2.25 0Zm5.79-3.54c.65.32.65.96 0 1.28-.64.33-1.6.33-2.25 0-.64-.32-.64-.96 0-1.28a2.68 2.68 0 0 1 2.25 0Zm4.83-1.93c.89 0 1.6-.44 1.6-.97s-.71-.97-1.6-.97c-.89 0-1.6.44-1.6.97s.71.97 1.6.97Zm5.79-3.23c.89 0 1.6-.43 1.6-.96 0-.54-.71-.97-1.6-.97-.89 0-1.61.43-1.61.97 0 .53.72.96 1.6.96Zm7.07-5.15c.65.32.65.97 0 1.29-.64.32-1.6.32-2.25 0-.64-.32-.64-.97 0-1.29a2.76 2.76 0 0 1 2.25 0Zm6.12-3.54c.64.32.64.96 0 1.29-.65.32-1.61.32-2.26 0-.64-.33-.64-.97 0-1.3a2.84 2.84 0 0 1 2.25 0Zm5.78-3.22c.65.32.65.96 0 1.29-.64.32-1.6.32-2.25 0-.64-.33-.64-.97 0-1.3a2.84 2.84 0 0 1 2.25 0Zm6.12-3.54c.64.32.64.96 0 1.28-.65.33-1.61.33-2.25 0-.65-.32-.65-.96 0-1.28.64-.33 1.6-.33 2.25 0Zm5.79-3.55c.64.32.64.97 0 1.29-.65.32-1.61.32-2.26 0-.64-.32-.64-.97 0-1.29a2.78 2.78 0 0 1 2.26 0Zm4.82-1.61c.89 0 1.6-.43 1.6-.96 0-.54-.71-.97-1.6-.97-.89 0-1.6.43-1.6.97 0 .53.71.96 1.6.96Zm6.11-3.54c.89 0 1.6-.43 1.6-.97 0-.53-.71-.96-1.6-.96-.89 0-1.6.43-1.6.96 0 .54.71.97 1.6.97Zm-84.27 39.61a2.76 2.76 0 0 1 2.25 0c.65.32.65.97 0 1.3-.64.31-1.6.31-2.25 0-.64-.33-.64-.98 0-1.3Zm7.07-1.93c.9 0 1.62-.43 1.62-.97 0-.53-.72-.96-1.61-.96-.89 0-1.61.43-1.61.96 0 .54.72.97 1.6.97Zm7.08-4.83c.65.32.65.97 0 1.29-.64.32-1.6.32-2.25 0-.64-.32-.64-.97 0-1.29a2.76 2.76 0 0 1 2.25 0Zm4.82-1.93c.9 0 1.62-.44 1.62-.97s-.72-.97-1.61-.97c-.89 0-1.6.44-1.6.97s.71.97 1.6.97Zm7.08-5.16c.65.33.65.97 0 1.3-.64.31-1.6.31-2.25 0-.64-.33-.64-.97 0-1.3.32-.32 1.61-.32 2.25 0Zm5.79-3.22c.65.32.65.97 0 1.3-.64.31-1.6.31-2.25 0-.64-.33-.64-.98 0-1.3a2.76 2.76 0 0 1 2.25 0Zm5.79-3.54c.65.32.65.97 0 1.29-.64.32-1.6.32-2.25 0-.64-.32-.64-.97 0-1.29.65-.32 1.93-.32 2.25 0Zm4.83-1.93c.89 0 1.6-.43 1.6-.97 0-.53-.71-.96-1.6-.96-.89 0-1.61.43-1.61.96 0 .54.72.97 1.6.97Zm6.11-3.22c.89 0 1.6-.43 1.6-.97 0-.53-.71-.96-1.6-.96-.89 0-1.6.43-1.6.96 0 .54.71.97 1.6.97Zm5.79-3.54c.89 0 1.6-.44 1.6-.97s-.71-.97-1.6-.97c-.89 0-1.6.44-1.6.97s.71.97 1.6.97Zm6.11-3.55c.89 0 1.6-.43 1.6-.96 0-.54-.71-.97-1.6-.97-.89 0-1.6.43-1.6.97 0 .53.71.96 1.6.96Zm5.79-3.22c.89 0 1.6-.43 1.6-.96 0-.54-.71-.97-1.6-.97-.89 0-1.6.43-1.6.97 0 .53.71.96 1.6.96Zm7.08-5.16c.64.33.64.97 0 1.3-.65.32-1.61.32-2.26 0-.64-.33-.64-.97 0-1.3a2.86 2.86 0 0 1 2.26 0Zm6.11-3.21c.64.32.64.96 0 1.29-.65.32-1.61.32-2.25 0-.65-.33-.65-.97 0-1.3.64-.64 1.6-.64 2.25 0Zm-85.56 40.9c.64-.32 1.6-.32 2.25 0 .65.32.65.97 0 1.29-.64.32-1.6.32-2.25 0-.64-.32-.64-.97 0-1.29Zm7.08-1.61c.88 0 1.6-.43 1.6-.97 0-.53-.72-.96-1.6-.96-.9 0-1.61.43-1.61.96 0 .54.72.97 1.6.97Zm6.1-3.54c.9 0 1.62-.44 1.62-.97s-.72-.97-1.61-.97c-.89 0-1.61.44-1.61.97s.72.97 1.6.97Zm7.08-5.16c.65.33.65.97 0 1.3-.64.31-1.6.31-2.25 0-.64-.33-.64-.97 0-1.3a2.76 2.76 0 0 1 2.25 0Zm4.51-1.61c.88 0 1.6-.43 1.6-.96 0-.54-.72-.97-1.6-.97-.9 0-1.61.43-1.61.97 0 .53.72.96 1.6.96Zm6.11-3.54c.89 0 1.6-.43 1.6-.97 0-.53-.71-.96-1.6-.96-.89 0-1.61.43-1.61.96 0 .54.72.97 1.6.97Zm7.07-5.15c.65.32.65.96 0 1.29-.64.32-1.6.32-2.25 0-.64-.33-.64-.97 0-1.3a2.84 2.84 0 0 1 2.25 0Zm4.83-1.61c.89 0 1.6-.43 1.6-.97 0-.53-.71-.96-1.6-.96-.89 0-1.6.43-1.6.96 0 .54.71.97 1.6.97Zm7.07-5.15c.65.32.65.96 0 1.28-.64.33-1.6.33-2.25 0-.64-.32-.64-.96 0-1.28a2.68 2.68 0 0 1 2.25 0Zm5.79-3.55c.65.32.65.97 0 1.29-.64.32-1.6.32-2.25 0-.64-.32-.64-.97 0-1.29a2.76 2.76 0 0 1 2.25 0Zm6.12-3.22c.64.32.64.97 0 1.29-.65.32-1.61.32-2.26 0-.64-.32-.64-.97 0-1.29a2.76 2.76 0 0 1 2.25 0Zm5.78-3.55c.65.33.65.97 0 1.3-.64.32-1.6.32-2.25 0-.64-.33-.64-.97 0-1.3a2.84 2.84 0 0 1 2.25 0Zm6.12-3.53c.64.32.64.96 0 1.28-.65.33-1.61.33-2.25 0-.65-.32-.65-.96 0-1.28.32-.33 1.6-.33 2.25 0Zm-79.45 38a2.76 2.76 0 0 1 2.25 0c.65.32.65.97 0 1.29-.64.32-1.6.32-2.25 0-.64-.32-.64-.97 0-1.29Zm8.04-3.54c.65.32.65.96 0 1.28-.64.33-1.6.33-2.25 0-.64-.32-.64-.96 0-1.28.64-.33 1.6-.33 2.25 0Zm4.83-1.93c.88 0 1.6-.44 1.6-.97s-.72-.97-1.6-.97c-.9 0-1.61.44-1.61.97s.72.97 1.6.97Zm6.1-3.23c.9 0 1.62-.43 1.62-.96 0-.54-.72-.97-1.61-.97-.89 0-1.61.43-1.61.97 0 .53.72.96 1.6.96Zm5.8-3.54c.89 0 1.6-.43 1.6-.97 0-.53-.71-.96-1.6-.96-.9 0-1.61.43-1.61.96 0 .54.72.97 1.6.97Zm7.07-5.15c.65.32.65.96 0 1.29-.64.32-1.6.32-2.25 0-.64-.33-.64-.97 0-1.3a2.84 2.84 0 0 1 2.25 0Zm4.83-1.61c.89 0 1.6-.43 1.6-.97 0-.53-.71-.96-1.6-.96-.89 0-1.61.43-1.61.96 0 .54.72.97 1.6.97Zm7.07-5.15c.65.32.65.96 0 1.28-.64.33-1.6.33-2.25 0-.64-.32-.64-.96 0-1.28a2.68 2.68 0 0 1 2.25 0Zm5.79-3.55c.65.32.65.97 0 1.29-.64.32-1.6.32-2.25 0-.64-.32-.64-.97 0-1.29a2.76 2.76 0 0 1 2.25 0Zm6.11-3.22c.65.32.65.97 0 1.29-.64.32-1.6.32-2.25 0-.64-.32-.64-.97 0-1.29a2.76 2.76 0 0 1 2.25 0Zm5.79-3.55c.65.33.65.97 0 1.3-.64.32-1.6.32-2.25 0-.64-.33-.64-.97 0-1.3a2.84 2.84 0 0 1 2.25 0Zm4.83-1.92c.89 0 1.6-.44 1.6-.97s-.71-.97-1.6-.97c-.89 0-1.6.44-1.6.97s.71.97 1.6.97Zm7.07-3.55c-.64.33-1.6.33-2.25 0-.64-.32-.64-.96 0-1.28.65-.33 2.9.96 2.25 1.28Zm-79.44 36.4c.64-.33 1.6-.33 2.25 0 .64.32.64.96 0 1.28-.64.33-1.6.33-2.25 0-.64-.32-.64-.96 0-1.28Zm7.08-1.93c.89 0 1.6-.44 1.6-.97s-.71-.97-1.6-.97c-.9 0-1.61.44-1.61.97s.72.97 1.6.97Zm7.07-4.84c.65.32.65.97 0 1.3-.64.31-1.6.31-2.25 0-.64-.33-.64-.98 0-1.3.64-.64 1.6-.64 2.25 0Zm4.83-1.93c.88 0 1.6-.43 1.6-.97 0-.53-.72-.96-1.6-.96-.9 0-1.61.43-1.61.96 0 .54.72.97 1.6.97Zm7.07-5.15c.65.32.65.96 0 1.29-.64.32-1.6.32-2.25 0-.64-.33-.64-.97 0-1.3a2.84 2.84 0 0 1 2.25 0Zm4.83-1.61c.89 0 1.6-.43 1.6-.97 0-.53-.71-.96-1.6-.96-.9 0-1.61.43-1.61.96 0 .54.72.97 1.6.97Zm7.07-5.15c.65.32.65.96 0 1.28-.64.33-1.6.33-2.25 0-.64-.32-.64-.96 0-1.28a2.68 2.68 0 0 1 2.25 0Zm5.79-3.55c.65.32.65.97 0 1.29-.64.32-1.6.32-2.25 0-.64-.32-.64-.97 0-1.29a2.76 2.76 0 0 1 2.25 0Zm4.83-1.61c.89 0 1.6-.43 1.6-.96 0-.54-.71-.97-1.6-.97-.89 0-1.61.43-1.61.97 0 .53.72.96 1.6.96Zm7.07-5.16c.65.33.65.97 0 1.3-.64.32-1.6.32-2.25 0-.64-.33-.64-.97 0-1.3a2.84 2.84 0 0 1 2.25 0Zm4.83-1.92c.89 0 1.6-.44 1.6-.97s-.71-.97-1.6-.97c-.89 0-1.61.44-1.61.97s.72.97 1.6.97Zm7.07-4.83c.65.32.65.96 0 1.28-.64.33-1.6.33-2.25 0-.64-.32-.64-.96 0-1.28a2.68 2.68 0 0 1 2.25 0Zm-73.33 34.13c.64-.32 1.6-.32 2.25 0 .65.33.65.97 0 1.3-.64.31-1.6.31-2.25 0-.64-.33-.64-.97 0-1.3Zm7.07-1.61c.9 0 1.61-.43 1.61-.96 0-.54-.72-.97-1.6-.97-.9 0-1.61.43-1.61.97 0 .53.72.96 1.6.96Zm7.08-5.15c.65.32.65.97 0 1.29-.64.32-1.6.32-2.25 0-.64-.32-.64-.97 0-1.29a2.76 2.76 0 0 1 2.25 0Zm4.82-1.93c.9 0 1.62-.43 1.62-.97 0-.53-.72-.96-1.61-.96-.9 0-1.61.43-1.61.96 0 .54.72.97 1.6.97Zm5.8-3.22c.88 0 1.6-.43 1.6-.97 0-.53-.72-.96-1.6-.96-.9 0-1.61.43-1.61.96 0 .54.72.97 1.6.97Zm7.07-5.15c.65.32.65.96 0 1.28-.64.33-1.6.33-2.25 0-.64-.32-.64-.96 0-1.28a2.68 2.68 0 0 1 2.25 0Zm6.11-3.55c.65.32.65.97 0 1.29-.64.32-1.6.32-2.25 0-.64-.32-.64-.97 0-1.29.32-.32 1.61-.32 2.25 0Zm4.51-1.61c.88 0 1.6-.43 1.6-.96 0-.54-.72-.97-1.6-.97-.9 0-1.61.43-1.61.97 0 .53.72.96 1.6.96Zm7.07-5.16c.65.33.65.97 0 1.3-.64.32-1.6.32-2.25 0-.64-.33-.64-.97 0-1.3a2.84 2.84 0 0 1 2.25 0Zm6.11-3.53c.65.32.65.96 0 1.28-.64.33-1.6.33-2.25 0-.64-.32-.64-.96 0-1.28a2.68 2.68 0 0 1 2.25 0Zm4.83-1.61c.89 0 1.6-.44 1.6-.97s-.71-.97-1.6-.97c-.89 0-1.6.44-1.6.97s.71.97 1.6.97Zm-66.58 29.3c.64-.32 1.6-.32 2.25 0 .64.32.64.97 0 1.3-.64.31-1.6.31-2.25 0-.64-.33-.64-.98 0-1.3Zm8.36-3.54c.65.32.65.97 0 1.29-.64.32-1.6.32-2.25 0-.64-.32-.64-.97 0-1.29.64-.32 1.6-.32 2.25 0Zm5.79-3.54c.64.32.64.96 0 1.29-.64.32-1.6.32-2.25 0-.64-.33-.64-.97 0-1.3.64-.31 1.6-.31 2.25 0Zm6.11-3.22c.65.32.65.96 0 1.29-.64.32-1.6.32-2.25 0-.64-.33-.64-.97 0-1.3a2.84 2.84 0 0 1 2.25 0Zm5.79-3.54c.65.32.65.96 0 1.28-.64.33-1.6.33-2.25 0-.64-.32-.64-.96 0-1.28.64-.33 1.6-.33 2.25 0Zm4.83-1.94c.88 0 1.6-.43 1.6-.96 0-.54-.72-.97-1.6-.97-.9 0-1.61.43-1.61.97 0 .53.72.96 1.6.96Zm6.1-3.22c.9 0 1.62-.43 1.62-.96 0-.54-.72-.97-1.61-.97-.89 0-1.61.43-1.61.97 0 .53.72.96 1.6.96Zm7.08-5.16c.65.33.65.97 0 1.3-.64.32-1.6.32-2.25 0-.64-.33-.64-.97 0-1.3.32-.31 1.61-.31 2.25 0Zm5.79-3.53c.65.32.65.96 0 1.28-.64.33-1.6.33-2.25 0-.64-.32-.64-.96 0-1.28a2.68 2.68 0 0 1 2.25 0Zm4.83-1.61c.89 0 1.6-.44 1.6-.97s-.71-.97-1.6-.97c-.89 0-1.61.44-1.61.97s.72.97 1.6.97Zm-60.47 25.76c.64-.32 1.6-.32 2.25 0 .64.32.64.97 0 1.29-.64.32-1.6.32-2.25 0-.64-.32-.64-.97 0-1.29Zm7.07-1.93c.9 0 1.61-.43 1.61-.97 0-.53-.72-.96-1.6-.96-.9 0-1.61.43-1.61.96 0 .54.72.97 1.6.97Zm7.08-4.83c.65.32.65.96 0 1.29-.64.32-1.6.32-2.25 0-.64-.33-.64-.97 0-1.3.64-.31 1.6-.31 2.25 0Zm5.79-3.54c.64.32.64.96 0 1.28-.64.33-1.6.33-2.25 0-.64-.32-.64-.96 0-1.28.64-.33 1.6-.33 2.25 0Zm6.11-3.55c.65.32.65.97 0 1.29-.64.32-1.6.32-2.25 0-.64-.32-.64-.97 0-1.29a2.76 2.76 0 0 1 2.25 0Zm4.82-1.61c.9 0 1.62-.43 1.62-.96 0-.54-.72-.97-1.61-.97-.9 0-1.61.43-1.61.97 0 .53.72.96 1.6.96Zm7.08-5.16c.65.33.65.97 0 1.3-.64.32-1.6.32-2.25 0-.64-.33-.64-.97 0-1.3a2.84 2.84 0 0 1 2.25 0Zm5.79-3.53c.65.32.65.96 0 1.28-.64.33-1.6.33-2.25 0-.64-.32-.64-.96 0-1.28a2.68 2.68 0 0 1 2.25 0Zm6.11-3.22c.65.32.65.96 0 1.28-.64.33-1.6.33-2.25 0-.64-.32-.64-.96 0-1.28.32-.33 1.61-.33 2.25 0Zm-55.96 23.83c.64-.32 1.6-.32 2.25 0 .64.32.64.96 0 1.29-.64.32-1.6.32-2.25 0a.98.98 0 0 1 0-1.3Zm8.36-3.22c.64.32.64.96 0 1.29-.64.32-1.6.32-2.25 0-.64-.33-.64-.97 0-1.3.64-.31 1.6-.31 2.25 0Zm5.79-3.54c.64.32.64.96 0 1.28-.64.33-1.6.33-2.25 0-.64-.32-.64-.96 0-1.28.64-.33 1.6-.33 2.25 0Zm6.11-3.55c.65.32.65.97 0 1.29-.64.32-1.6.32-2.25 0-.64-.32-.64-.97 0-1.29.64-.32 1.6-.32 2.25 0Zm4.82-1.61c.9 0 1.61-.43 1.61-.96 0-.54-.72-.97-1.6-.97-.9 0-1.61.43-1.61.97 0 .53.72.96 1.6.96Zm7.08-5.16c.65.33.65.97 0 1.3-.64.32-1.6.32-2.25 0-.64-.33-.64-.97 0-1.3a2.84 2.84 0 0 1 2.25 0Zm4.82-1.92c.9 0 1.62-.44 1.62-.97s-.72-.97-1.61-.97c-.9 0-1.61.44-1.61.97s.72.97 1.6.97Zm5.8-3.22c.88 0 1.6-.44 1.6-.97s-.72-.97-1.6-.97c-.9 0-1.61.44-1.61.97s.72.97 1.6.97Zm-48.57 19c.64-.32 1.6-.32 2.25 0 .64.32.64.96 0 1.29-.64.32-1.6.32-2.25 0-.64-.33-.64-.97 0-1.3Zm7.07-1.93c.9 0 1.61-.44 1.61-.97s-.72-.97-1.6-.97c-.9 0-1.61.44-1.61.97s.72.97 1.6.97Zm5.8-3.55c.88 0 1.6-.43 1.6-.96 0-.54-.72-.97-1.6-.97-.9 0-1.61.43-1.61.97 0 .53.72.96 1.6.96Zm6.1-3.22c.9 0 1.61-.43 1.61-.96 0-.54-.72-.97-1.6-.97-.9 0-1.61.43-1.61.97 0 .53.72.96 1.6.96Zm7.08-5.16c.65.33.65.97 0 1.3-.64.32-1.6.32-2.25 0-.64-.33-.64-.97 0-1.3.64-.31 1.6-.31 2.25 0Zm3.54-3.53c.64-.33 1.6-.33 2.25 0 .64.32.64.96 0 1.28-.64.33-1.6.33-2.25 0-.64-.32-.64-.64 0-1.28.64-.33-.64.64 0 0Zm-35.7 13.85c.64-.33 1.6-.33 2.25 0 .64.32.64.96 0 1.28-.64.33-1.6.33-2.25 0-.64-.32-.64-.96 0-1.28Zm8.36-3.55c.64.32.64.97 0 1.29-.64.32-1.6.32-2.25 0-.64-.32-.64-.97 0-1.29.64-.32 1.6-.32 2.25 0Zm5.79-3.22c.64.32.64.97 0 1.29-.64.32-1.6.32-2.25 0-.64-.32-.64-.97 0-1.29.64-.64 1.6-.64 2.25 0Zm4.83-1.93c.88 0 1.6-.43 1.6-.97 0-.53-.72-.96-1.6-.96-.9 0-1.61.43-1.61.96 0 .54.72.97 1.6.97Zm-24.77 5.15c.64-.32 1.6-.32 2.25 0 .64.32.64.97 0 1.29-.64.32-1.6.32-2.25 0-.64-.32-.64-.97 0-1.29Zm8.04-3.22c.64.32.64.97 0 1.29-.64.32-1.6.32-2.25 0-.64-.32-.64-.97 0-1.29.64-.64 1.93-.64 2.25 0ZM334.5 199c.88 0 1.6-.43 1.6-.97 0-.53-.72-.96-1.6-.96-.9 0-1.62.43-1.62.96 0 .54.72.97 1.61.97Zm-11.9 0c.88 0 1.6-.43 1.6-.97 0-.53-.72-.96-1.6-.96-.9 0-1.62.43-1.62.96 0 .54.72.97 1.61.97Zm6.1-3.54c.89 0 1.61-.44 1.61-.97s-.72-.97-1.6-.97c-.9 0-1.62.44-1.62.97s.72.97 1.61.97Zm-10.93-1.61c.64.32.64.96 0 1.28-.65.33-1.61.33-2.25 0-.65-.32-.65-.96 0-1.28.64-.32 1.6-.32 2.25 0Zm6.11-3.55c.64.33.64.97 0 1.3-.65.31-1.61.31-2.25 0-.65-.33-.65-.97 0-1.3.64-.32 1.6-.32 2.25 0Zm-13.19 1.94c.89 0 1.6-.44 1.6-.97s-.71-.97-1.6-.97c-.89 0-1.6.44-1.6.97s.71.97 1.6.97Zm6.11-3.54c.89 0 1.6-.44 1.6-.97 0-.54-.71-.97-1.6-.97-.89 0-1.6.43-1.6.97 0 .53.71.96 1.6.96Zm-11.9 0c.89 0 1.6-.44 1.6-.97 0-.54-.71-.97-1.6-.97-.89 0-1.6.43-1.6.97 0 .53.71.96 1.6.96Zm7.08-5.16c.64.32.64.97 0 1.29-.65.32-1.61.32-2.25 0-.65-.32-.65-.97 0-1.29.64-.32 1.6-.32 2.25 0Zm-13.19 1.61c.89 0 1.6-.43 1.6-.97 0-.53-.71-.96-1.6-.96-.89 0-1.6.43-1.6.97 0 .53.71.96 1.6.96Zm6.11-3.22c.89 0 1.6-.43 1.6-.97 0-.53-.71-.96-1.6-.96-.89 0-1.6.43-1.6.96 0 .54.71.97 1.6.97Zm-10.61-1.61c.64.32.64.97 0 1.29-.65.32-1.61.32-2.25 0-.65-.32-.65-.97 0-1.29.32-.64 1.6-.64 2.25 0Zm5.79-3.54c.64.32.64.96 0 1.29-.65.32-1.61.32-2.25 0-.65-.33-.65-.97 0-1.3.64-.31 1.6-.31 2.25 0Zm-11.9 0c.64.32.64.96 0 1.29-.65.32-1.61.32-2.26 0-.64-.33-.64-.97 0-1.3a2.84 2.84 0 0 1 2.25 0Zm4.82-1.94c.89 0 1.6-.43 1.6-.96s-.71-.97-1.6-.97c-.89 0-1.6.44-1.6.97s.71.97 1.6.97Zm-11.9 0c.89 0 1.6-.43 1.6-.96s-.71-.97-1.6-.97c-.89 0-1.6.44-1.6.97s.71.97 1.6.97Zm7.08-4.83c.64.33.64.97 0 1.3-.65.31-1.61.31-2.26 0-.64-.33-.64-.97 0-1.3a1.56 1.56 0 0 1 2.25 0Zm-12.87 1.62c.89 0 1.6-.44 1.6-.97s-.71-.97-1.6-.97c-.89 0-1.6.44-1.6.97s.71.97 1.6.97Zm7.08-5.16c.64.32.64.97 0 1.29-.65.32-1.61.32-2.26 0-.64-.32-.64-.97 0-1.29a2.78 2.78 0 0 1 2.26 0Zm-13.19 1.61c.89 0 1.6-.43 1.6-.96 0-.54-.71-.97-1.6-.97-.89 0-1.6.43-1.6.97 0 .53.71.96 1.6.96Zm7.07-5.15c.65.32.65.97 0 1.29-.64.32-1.6.32-2.25 0-.64-.32-.64-.97 0-1.3a2.84 2.84 0 0 1 2.25 0Zm-11.9 0c.65.32.65.97 0 1.29-.64.32-1.6.32-2.25 0-.64-.32-.64-.97 0-1.3a2.84 2.84 0 0 1 2.25 0Zm6.12-3.23c.64.33.64.98 0 1.3-.65.32-1.61.32-2.26 0-.64-.32-.64-.97 0-1.3a1.56 1.56 0 0 1 2.25 0Zm-13.19 1.62c.89 0 1.6-.43 1.6-.97 0-.53-.71-.96-1.6-.96-.89 0-1.61.43-1.61.96 0 .54.72.97 1.6.97Zm6.1-3.54c.9 0 1.62-.44 1.62-.97s-.72-.97-1.61-.97c-.89 0-1.6.44-1.6.97s.71.97 1.6.97Zm-77.18 37.68c.88 0 1.6-.44 1.6-.97s-.72-.97-1.6-.97c-.9 0-1.61.44-1.61.97s.72.97 1.6.97Zm7.08-5.16c.64.33.64.97 0 1.3-.65.31-1.62.31-2.26 0-.64-.33-.64-.97 0-1.3.64-.32 1.6-.32 2.25 0Zm5.78-3.22c.64.32.64.97 0 1.3-.64.31-1.6.31-2.25 0-.64-.33-.64-.97 0-1.3.64-.32 1.6-.32 2.25 0Zm6.12-3.54c.64.32.64.97 0 1.29-.65.32-1.61.32-2.26 0-.64-.32-.64-.97 0-1.29a2.76 2.76 0 0 1 2.25 0Zm4.82-1.94c.89 0 1.6-.42 1.6-.96 0-.53-.71-.96-1.6-.96-.9 0-1.61.43-1.61.96 0 .54.72.97 1.6.97Zm7.08-4.82c.64.32.64.96 0 1.29-.65.32-1.61.32-2.26 0-.64-.33-.64-.97 0-1.3a2.84 2.84 0 0 1 2.25 0Zm4.82-1.94c.89 0 1.6-.43 1.6-.96s-.71-.97-1.6-.97c-.89 0-1.61.44-1.61.97s.72.97 1.6.97Zm5.78-3.54c.9 0 1.62-.43 1.62-.96 0-.54-.72-.97-1.61-.97-.9 0-1.61.43-1.61.97 0 .53.72.96 1.6.96Zm7.08-4.83c.65.32.65.97 0 1.29-.64.32-1.6.32-2.25 0-.64-.32-.64-.97 0-1.29a2.76 2.76 0 0 1 2.25 0Zm5.79-3.54c.65.32.65.97 0 1.29-.64.32-1.6.32-2.25 0-.64-.32-.64-.97 0-1.3a2.84 2.84 0 0 1 2.25 0Zm4.83-1.61c.89 0 1.6-.43 1.6-.97 0-.53-.71-.96-1.6-.96-.9 0-1.61.43-1.61.96 0 .54.72.97 1.6.97Zm7.07-5.15c.65.32.65.96 0 1.28-.64.33-1.6.33-2.25 0-.64-.32-.64-.96 0-1.28a2.68 2.68 0 0 1 2.25 0Zm6.11-3.55c.65.32.65.97 0 1.3-.64.31-1.6.31-2.25 0-.64-.33-.64-.97 0-1.3a2.76 2.76 0 0 1 2.25 0Zm80.74 41.23c.64-.32 1.6-.32 2.25 0 .64.32.64.96 0 1.28-.65.33-1.61.33-2.25 0-.65-.32-.65-.64 0-1.28Zm8.36-3.22c.64.32.64.96 0 1.28-.64.33-1.61.33-2.25 0-.65-.32-.65-.96 0-1.28.64-.33 1.6-.33 2.25 0Zm-14.15 0c.64-.33 1.6-.33 2.25 0 .64.32.64.96 0 1.28-.65.33-1.61.33-2.25 0-.65-.32-.65-.96 0-1.28Zm7.07-1.93c.9 0 1.61-.44 1.61-.97 0-.54-.72-.97-1.6-.97-.9 0-1.62.43-1.62.97 0 .53.72.96 1.61.96Zm5.8-3.55c.88 0 1.6-.43 1.6-.97 0-.53-.72-.96-1.6-.96-.9 0-1.62.43-1.62.97 0 .53.72.96 1.61.96Zm-18.98 1.93c.64-.32 1.6-.32 2.25 0 .64.32.64.97 0 1.3-.65.31-1.61.31-2.25 0-.65-.33-.65-.97 0-1.3Zm8.36-3.54c.64.32.64.97 0 1.29-.65.32-1.61.32-2.25 0-.65-.32-.65-.97 0-1.29.64-.32 1.6-.32 2.25 0Zm4.82-1.61c.9 0 1.61-.43 1.61-.97 0-.53-.72-.96-1.6-.96-.9 0-1.62.43-1.62.96 0 .54.72.97 1.61.97Zm-18.97 1.61c.64-.32 1.6-.32 2.25 0 .64.32.64.97 0 1.29-.65.32-1.61.32-2.25 0-.65-.32-.65-.97 0-1.29Zm8.04-3.22c.64.32.64.97 0 1.29-.65.32-1.61.32-2.25 0-.65-.32-.65-.97 0-1.29.64-.32 1.6-.32 2.25 0Zm6.11-3.54c.64.32.64.96 0 1.29-.65.32-1.61.32-2.25 0-.65-.33-.65-.97 0-1.3.64-.31 1.6-.31 2.25 0Zm-20.27 3.54a2.78 2.78 0 0 1 2.26 0c.64.32.64.97 0 1.29-.65.32-1.61.32-2.25 0-.65-.32-.65-.97 0-1.29Zm8.37-3.54c.64.32.64.96 0 1.29-.65.32-1.61.32-2.25 0-.65-.33-.65-.97 0-1.3.64-.31 1.6-.31 2.25 0Zm5.79-3.54c.64.32.64.96 0 1.28-.65.32-1.61.32-2.25 0-.65-.32-.65-.96 0-1.28.64-.33 1.6-.33 2.25 0Zm-19.94 3.54c.64-.32 1.6-.32 2.25 0 .64.32.64.96 0 1.29-.65.32-1.61.32-2.25 0-.65-.33-.65-.97 0-1.3Zm7.07-1.94c.89 0 1.6-.43 1.6-.96s-.71-.97-1.6-.97c-.89 0-1.6.44-1.6.97s.71.97 1.6.97Zm-13.19-1.6a2.68 2.68 0 0 1 2.25 0c.65.32.65.96 0 1.28-.64.32-1.6.32-2.25 0a.98.98 0 0 1 0-1.28Zm7.08-1.61c.89 0 1.6-.44 1.6-.97s-.71-.97-1.6-.97c-.89 0-1.6.44-1.6.97s.71.97 1.6.97Zm-12.87-1.62a2.78 2.78 0 0 1 2.26 0c.64.33.64.97 0 1.3-.65.31-1.61.31-2.25 0-.65-.33-.65-.97 0-1.3Zm8.37-3.54c.64.32.64.97 0 1.29-.65.32-1.61.32-2.25 0-.65-.32-.65-.97 0-1.29.32-.32 1.6-.32 2.25 0Zm-14.15 0c.64-.32 1.6-.32 2.25 0 .64.32.64.97 0 1.29-.65.32-1.61.32-2.25 0-.65-.32-.65-.97 0-1.29Zm7.07-1.93c.89 0 1.6-.43 1.6-.97 0-.53-.71-.96-1.6-.96-.89 0-1.6.43-1.6.96 0 .54.71.97 1.6.97Zm7.08-3.54c-.65.32-1.61.32-2.25 0-.65-.33-.65-.97 0-1.3.64-.31 2.57.97 2.25 1.3Zm-20.27 1.93a2.76 2.76 0 0 1 2.25 0c.65.32.65.97 0 1.29-.64.32-1.6.32-2.25 0-.64-.32-.64-.65 0-1.3Zm8.37-3.23c.64.33.64.97 0 1.3-.65.32-1.61.32-2.25 0-.65-.33-.65-.97 0-1.3.64-.31 1.6-.31 2.25 0Zm5.79-2.25c-.65.33-1.61.33-2.25 0-.65-.32-.65-.96 0-1.28.64-.33 2.89.96 2.25 1.28Zm-19.95 2.25a2.86 2.86 0 0 1 2.26 0c.64.33.64.97 0 1.3-.65.32-1.61.32-2.26 0-.64-.33-.64-.97 0-1.3Zm8.05-3.53c.64.32.64.96 0 1.28a2.7 2.7 0 0 1-2.26 0c-.64-.32-.64-.96 0-1.28a2.68 2.68 0 0 1 2.25 0Zm5.78-2.26c-.64.32-1.6.32-2.25 0-.64-.32-.64-.97 0-1.29.65-.32 2.9.97 2.25 1.3Zm-19.94 2.26a2.68 2.68 0 0 1 2.25 0c.65.32.65.96 0 1.28-.64.33-1.6.33-2.25 0-.64-.32-.64-.96 0-1.28Zm8.37-3.55c.64.32.64.97 0 1.3-.65.31-1.61.31-2.26 0-.64-.33-.64-.97 0-1.3.33-.32 1.61-.32 2.26 0Zm-14.16 0a2.76 2.76 0 0 1 2.25 0c.65.32.65.97 0 1.3-.64.31-1.6.31-2.25 0-.64-.33-.64-.97 0-1.3Zm8.04-3.22c.65.32.65.97 0 1.3-.64.31-1.6.31-2.25 0-.64-.33-.64-.97 0-1.3a2.76 2.76 0 0 1 2.25 0Zm-14.15 0a2.76 2.76 0 0 1 2.25 0c.65.32.65.97 0 1.3-.64.31-1.6.31-2.25 0-.64-.33-.64-.97 0-1.3Zm7.08-1.93c.89 0 1.6-.43 1.6-.97 0-.53-.71-.96-1.6-.96-.89 0-1.6.43-1.6.96 0 .54.71.97 1.6.97Zm7.07-5.15c.65.32.65.96 0 1.28-.64.33-1.6.33-2.25 0-.64-.32-.64-.96 0-1.28a2.68 2.68 0 0 1 2.25 0Z"/>
  <path fill="#F6A01D" d="M180.75 181.29 54.67 115.26l145.06-92.75L325.8 88.85 180.75 181.3Z"/>
  <path fill="#FDEDCC" d="M180.75 181.6 321.3 91.76l-114.5-59.9-140.55 89.53 114.5 60.23Z"/>
  <path fill="#177C1B" d="m180.75 181.93-127.7-66.67 146.35-93.4.32.33L327.1 88.85l-146.34 93.08Zm-124.8-66.99 124.8 65.38 143.77-91.47-124.8-65.37-143.77 91.46Z"/>
  <path fill="#F6A01D" d="M140.54 176.46 22.5 105.28l155.68-86.64 118.04 71.18-155.68 86.64Z"/>
  <path fill="#FDEDCC" d="m140.54 176.13 148.6-82.45-110.96-66.66-148.6 82.45 110.96 66.66Z"/>
  <path fill="#177C1B" d="m140.54 177.1-.32-.32-119-71.82L178.18 18l.32.32 119 71.82-156.96 86.96ZM23.8 105.28l116.75 70.2 154.39-85.66-116.75-70.21L23.8 105.28Z"/>
  <path fill="#F6A01D" d="M155.98 179.03 35.37 109.47l152.78-88.25L308.44 90.8l-152.46 88.24Z"/>
  <path fill="#FDEDCC" d="m43.73 110.75 112.25 65.06L300.4 92.07 188.15 27.34 43.73 110.75Z"/>
  <path fill="#177C1B" d="m155.98 180-.32-.32-121.58-70.21.97-.65 153.1-88.24h.32l121.58 70.2-.97.65L155.98 180ZM36.66 109.47l119 68.92 151.5-87.6-119.01-68.93-151.5 87.6Z"/>
  <path fill="#F6A01D" d="m184.29 74.04 35.06-8.05a27.46 27.46 0 0 0-8.37-7.41c-14.8-8.37-38.6-8.37-53.39 0-14.8 8.7-14.8 22.54 0 30.92 14.8 8.7 38.92 8.7 53.71 0 1.61-.97 3.22-1.93 4.5-3.22l-31.5-12.24Z"/>
  <path fill="#177C1B" d="M184.29 91.75c-9.97 0-19.62-2.25-27.02-6.44-7.4-4.19-11.58-9.98-11.58-16.1 0-6.12 4.18-11.92 11.58-16.1 15.12-8.7 39.24-8.7 54.36 0a29.1 29.1 0 0 1 8.68 7.4l.64.97-34.09 8.05 30.23 11.92-.96.64c-1.29 1.29-2.9 2.25-4.5 3.22-7.4 4.19-17.37 6.44-27.34 6.44Zm0-43.8c-9.65 0-19.3 2.26-26.38 6.44-7.07 3.87-10.61 9.34-10.61 14.82 0 5.47 3.86 10.95 10.61 14.81 14.48 8.38 38.28 8.38 53.07 0 1.29-.64 2.25-1.6 3.54-2.25l-32.16-12.88 36.34-8.38a27.84 27.84 0 0 0-7.4-6.12c-7.72-4.5-17.36-6.44-27.01-6.44Z"/>
  <path fill="#F6A01D" d="m196.5 75 31.2 12.24c7.4-6.12 8.7-13.85 3.87-20.6L196.5 75Z"/>
  <path fill="#177C1B" d="m228.03 83.06-33.77-13.53 37.63-8.7.32.33c4.82 7.08 3.54 15.46-4.18 21.9Zm-29.27-13.2 28.95 11.26c6.43-5.8 7.72-12.56 3.86-19l-32.81 7.73Z"/>
  <path fill="#F6A01D" d="m202.3 138.45-88.13-50.89c-1.6-.96-1.6-2.57.32-3.86l4.18-2.25c1.93-.97 4.83-1.3 6.44-.33l87.8 50.89c1.61.97 1.61 2.58-.32 3.87l-4.18 2.25c-1.6.97-4.5 1.29-6.11.32Z"/>
  <path fill="#177C1B" d="M205.2 134.59c-1.3 0-2.26-.33-3.22-.65l-87.81-50.88c-.97-.65-1.6-1.3-1.6-2.26 0-.96.64-1.93 1.92-2.9l4.18-2.25a8.57 8.57 0 0 1 7.4-.32l87.8 50.88c.97.65 1.62 1.3 1.62 2.26 0 .96-.65 1.93-1.93 2.9l-4.19 2.25a9.92 9.92 0 0 1-4.18.97Zm-82.35-58.62a6.4 6.4 0 0 0-3.53.97l-3.86 2.25c-.65.32-1.29.97-1.29 1.61 0 .65.32.97.64.97l87.81 50.88c1.6.97 4.18.65 5.79-.32l4.18-2.25c.64-.32 1.29-.97 1.29-1.61 0-.65-.32-.97-.65-.97l-87.8-50.88a6.05 6.05 0 0 0-2.58-.65Z"/>
  <path fill="#F6A01D" d="m185.57 147.8-87.8-50.9c-1.61-.96-1.61-2.57.32-3.86l4.18-2.25c1.93-.97 4.82-1.3 6.43-.33l87.8 50.89c1.62.97 1.62 2.58-.31 3.86l-4.18 2.26c-1.93 1.29-4.83 1.29-6.44.32Z"/>
  <path fill="#177C1B" d="M188.47 143.93a9.5 9.5 0 0 1-3.22-.65L97.45 92.4c-.97-.65-1.61-1.3-1.61-2.26 0-.96.64-1.93 1.93-2.9l4.18-2.25a8.57 8.57 0 0 1 7.4-.32l87.8 50.88c.97.65 1.61 1.3 1.61 2.26 0 .96-.64 1.93-1.93 2.9l-4.18 2.25a8.9 8.9 0 0 1-4.18.97Zm-2.25-1.94c1.6.97 4.18.65 5.79-.32l4.18-2.25c.64-.32 1.28-.97 1.28-1.61 0-.65-.32-.97-.64-.97L108.7 85.95c-1.6-.96-4.18-.64-5.79.33l-4.18 2.25c-.64.32-1.29.97-1.29 1.61 0 .65.33.97.65.97l88.13 50.88Z"/>
  <path fill="#F6A01D" d="m169.17 157.13-87.8-50.56c-1.62-.97-1.62-2.58.31-3.87l4.19-2.25c1.93-.97 4.82-1.3 6.43-.33l87.8 50.9c1.61.96 1.61 2.57-.32 3.86l-4.18 1.93c-1.93 1.29-4.82 1.29-6.43.32Z"/>
  <path fill="#177C1B" d="M172.06 153.59a9.5 9.5 0 0 1-3.21-.65l-87.8-51.2c-.97-.65-1.62-1.3-1.62-2.26 0-.97.65-1.93 1.93-2.9l4.18-2.25a8.57 8.57 0 0 1 7.4-.32l87.8 50.88c.97.65 1.62 1.3 1.62 2.26 0 .96-.65 1.93-1.93 2.9l-4.18 2.25c-1.3.64-2.58 1.29-4.19 1.29ZM89.73 94.97a6.4 6.4 0 0 0-3.54.97l-3.86 2.25c-.65.33-1.29.97-1.29 1.61 0 .65.32.97.64.97l87.81 50.89c1.6.96 4.18.64 5.8-.33l4.17-2.25c.64-.32 1.29-.97 1.29-1.61 0-.65-.32-.97-.65-.97L92.3 95.3c-.64-.33-1.61-.33-2.57-.33Z"/>
  <path fill="#F6A01D" d="m152.44 166.47-87.8-50.56c-1.61-.97-1.61-2.58.32-3.87l4.18-2.25c1.93-.97 4.82-1.3 6.43-.33l87.81 50.9c1.6.96 1.6 2.57-.32 3.86l-4.18 2.25c-1.61.97-4.83.97-6.44 0Z"/>
  <path fill="#177C1B" d="M155.66 162.93a9.34 9.34 0 0 1-3.22-.65l-87.8-50.88c-.97-.65-1.61-1.3-1.61-2.26 0-.96.64-1.93 1.93-2.9l4.18-2.25a8.57 8.57 0 0 1 7.4-.32l87.8 50.88c.97.65 1.61 1.3 1.61 2.26 0 .97-.64 1.93-1.93 2.9l-4.5 1.93c-.96.97-2.57 1.29-3.86 1.29Zm-2.57-1.94c1.6.97 4.18.65 5.79-.32l4.18-2.25c.64-.32 1.28-.97 1.28-1.61 0-.65-.32-.97-.64-.97l-88.13-50.88c-1.6-.97-4.18-.65-5.79.32l-4.18 2.25c-.64.33-1.28.97-1.28 1.61 0 .65.32.97.64.97L153.09 161Z"/>
  <path fill="#FDEDCC" d="m193.94 140.7-29.6-17.06c-3.21-1.94-2.89-5.16.97-7.41l26.05-15.14c3.86-2.25 9.65-2.57 12.87-.64l29.59 17.07c3.22 1.93 2.9 5.15-.97 7.4l-26.05 15.46c-3.86 2.26-9.65 2.26-12.86.33Z"/>
  <path fill="#F6A01D" d="m193.3 148.76-29.6-17.07c-3.21-1.93-2.9-5.15.97-7.4l26.05-15.15c3.86-2.25 9.65-2.57 12.87-.64l29.59 17.07c3.21 1.93 2.89 5.15-.97 7.4l-26.05 15.14c-3.86 2.26-9.65 2.58-12.87.65Z"/>
  <path fill="#177C1B" d="M199.4 142.96c-2.25 0-4.5-.32-6.1-1.29l-29.28-17.39c-1.6-.97-2.57-2.25-2.57-3.86 0-1.94 1.29-3.55 3.54-4.84l26.05-15.13c3.86-2.26 9.97-2.58 13.51-.65l29.59 17.07c1.6.97 2.57 2.26 2.57 3.87 0 1.93-1.28 3.54-3.53 4.83l-26.06 15.14a16.5 16.5 0 0 1-7.72 2.25Zm-5.14-2.58c3.21 1.94 8.68 1.61 12.22-.64l26.05-15.14c1.93-.96 2.9-2.25 2.9-3.54 0-.97-.65-1.93-1.93-2.58l-29.6-17.07c-3.21-1.93-8.68-1.6-12.22.65l-26.05 15.13c-1.93.65-2.9 2.26-2.9 3.23 0 .96.65 1.93 1.94 2.57l29.59 17.4Z"/>
  <path fill="#FDEDCC" d="m245.08 112.04-22.84-13.2c-2.9-1.61-2.57-4.51.97-6.44l25.73-14.82c3.21-1.93 8.36-2.25 11.25-.32l22.84 13.2c2.9 1.61 2.57 4.51-.97 6.45l-25.73 14.81c-3.21 1.93-8.36 1.93-11.25.32Z"/>
  <path fill="#F6A01D" d="m246.04 118.48-22.83-13.2c-2.9-1.61-2.58-4.5.96-6.44l25.73-14.82c3.22-1.93 8.36-2.25 11.26-.32l22.83 13.2c2.9 1.62 2.58 4.52-.96 6.45l-25.73 14.81c-3.22 1.94-8.36 2.26-11.26.32Z"/>
  <path fill="#177C1B" d="M249.9 113.97c-1.93 0-3.86-.32-5.15-1.28l-22.83-13.2c-1.61-.97-2.25-1.94-2.25-3.55 0-1.61 1.28-3.22 3.21-4.19l25.73-14.81c3.54-1.93 8.69-2.26 11.9-.32l22.84 13.2c1.6.97 2.25 1.93 2.25 3.54s-1.28 3.22-3.21 4.19l-25.74 14.81c-1.92.97-4.5 1.61-6.75 1.61Zm-4.5-2.57c2.57 1.6 7.4 1.29 10.61-.32l25.73-14.82c1.61-.96 2.25-1.93 2.25-3.22 0-.97-.64-1.6-1.6-2.25l-22.84-13.2c-2.57-1.62-7.4-1.3-10.61.31L223.2 92.72c-1.61.97-2.26 1.93-2.26 3.22 0 .97.65 1.61 1.61 2.25l22.84 13.2Z"/>
  <path fill="#FDEDCC" d="m86.83 128.15-27.98-16.1c-2.58-1.62-2.25-4.2.64-5.8l16.08-9.34c2.9-1.61 7.4-1.94 9.97-.33l27.99 16.1c2.57 1.62 2.25 4.2-.65 5.8l-16.08 9.34c-2.9 1.61-7.4 1.94-9.97.33Z"/>
  <path fill="#F6A01D" d="m86.83 133.94-27.98-16.1c-2.58-1.61-2.25-4.19.64-5.8l16.08-9.34c2.9-1.6 7.4-1.93 9.97-.32l27.99 16.1c2.57 1.61 2.25 4.19-.65 5.8l-16.08 9.34c-2.9 1.61-7.4 1.61-9.97.32Z"/>
  <path fill="#177C1B" d="M91.33 129.76c-1.6 0-3.53-.33-4.82-.97l-27.98-16.1a3.54 3.54 0 0 1-1.93-3.22c0-1.3.96-2.9 2.9-3.87l16.07-9.34c3.22-1.93 8.04-1.93 10.62-.32l27.98 16.1a3.54 3.54 0 0 1 1.93 3.22c0 1.3-.96 2.9-2.9 3.87l-16.08 9.34c-1.6.96-3.86 1.29-5.79 1.29Zm-4.18-2.26c2.25 1.29 6.43 1.29 9.33-.32l16.08-9.34c1.29-.65 2.25-1.61 2.25-2.58 0-.96-.64-1.6-1.28-1.93l-27.99-16.1c-2.25-1.3-6.43-1.3-9.32.32l-16.09 9.34c-1.28.64-2.25 1.61-2.25 2.58 0 .96.65 1.6 1.29 1.93l27.98 16.1Zm120.29-87.28a9.53 9.53 0 0 1-3.21-.64c-.97-.65-1.61-1.3-1.61-2.26 0-.96.64-1.6 1.6-2.25l10.62-6.12c2.25-1.29 6.11-1.29 8.37 0 1.28.64 1.92 1.61 1.92 2.9 0 .96-.64 2.25-1.92 2.9l-6.76 3.86-.64-1.29 6.75-3.86c.97-.65 1.29-1.29 1.29-1.93 0-.65-.32-1.3-1.29-1.61a9 9 0 0 0-7.07 0l-10.94 6.11c-.64.33-.97.65-.97.97 0 .32.33.65.97.97 1.29.96 3.86.96 5.15 0l9.65-5.48.64 1.29-9.65 5.48c-.64.64-1.93.96-2.9.96Z"/>
  <path fill="#F6A01D" d="M277.88 124.6v-9.66h-4.18l-3.54 9.99h-1.28l-3.54 4.83-15.76 6.12-21.87 1.93-15.76-2.58L197.47 123c0-.32.32-.96.32-1.28l-4.18-8.06v.33h-4.18v12.23c.65 6.12 4.83 12.24 12.55 16.75 17.37 10.3 45.35 10.63 63.04.97 8.04-4.51 12.54-10.3 13.19-16.43v-.32c-.33-1.29-.33-1.61-.33-2.58Z"/>
  <path fill="#177C1B" d="M234.14 152.3c-11.9 0-24.12-2.58-33.13-8.05-8.04-4.83-12.86-10.95-13.19-17.71v-.97l.33-12.88h4.82l.64-.97.97 1.29 4.5 8.37v.65l13.83 11.6 15.44 2.57 21.55-1.94 15.12-6.11 3.86-5.16h1.28l3.86-11.27.97 1.29h4.82v13.85c-.64 6.76-5.79 12.88-13.83 17.39-9.33 5.47-20.58 8.05-31.84 8.05Zm-44.06-37.36v10.96c.64 5.8 4.82 11.6 12.22 16.1 16.72 9.99 44.38 10.63 61.75.97 7.4-4.19 11.9-9.66 12.55-15.46v-11.27h-2.25l-3.54 9.98h-1.61l-3.22 4.51-16.08 6.44-21.87 2.26-16.4-2.58-15.44-12.88v-.64c0-.33 0-.65.32-.97l-3.54-6.76-2.9-.65Z"/>
  <path fill="#177C1B" d="M192.33 114.94c1.6 2.26 3.54 4.83 5.14 7.09.97-4.51 4.5-8.7 10.3-11.92 14.15-8.05 36.98-7.73 51.14.64 5.79 3.55 9 7.73 9.97 11.92l4.82-7.73a8.55 8.55 0 0 0-1.6-1.93 9.5 9.5 0 0 1 1.92.97c-1.28-1.3-12.54-17.72-12.54-17.72l-25.73-6.44-24.12 3.22-15.76 12.56-.97 4.83-1.6.65c-.97 1.93 0 2.57-.97 3.86Z"/>
  <path fill="#177C1B" d="m268.56 126.21-.65-2.9c-.96-4.18-4.18-8.05-9.65-11.27-13.5-8.05-36.02-8.37-49.85-.64-5.47 2.9-8.69 6.76-9.97 11.27l-.32 2.26-1.61-1.94c-1.6-2.25-3.54-4.83-5.15-7.08l-.64-.65.64-.64c.32-.32.32-.32.32-.64 0-.65 0-1.62 1.3-2.58l.31-.32.97-.33.96-4.83 16.4-13.2 24.45-3.22 26.37 6.44.33.32c4.18 6.12 11.58 16.43 12.54 17.4l.64.64-.64.96-6.75 10.95Zm-35.7-22.86c9.64 0 19.61 2.25 27.01 6.76 4.83 2.9 8.04 6.44 9.65 10.3l2.9-4.82-.97-.97-3.86-4.19 3.22 1.3c-3.22-4.52-8.37-11.6-9.65-13.54l-25.09-6.11-23.48 2.9-15.12 12.23-1.28 5.16-2.25.64c-.33.32-.33.32-.33.64 0 .33 0 .97-.32 1.3.97 1.6 2.25 3.21 3.54 4.82 1.6-3.86 5.15-7.4 10.3-10.3 7.39-4.19 16.4-6.12 25.72-6.12Z"/>
  <path fill="#F6A01D" d="m271.13 149.72 6.75-11.59-7.72-5.15c-.96-.65-1.93-.32-3.21.32-2.58 1.61-4.83 5.15-4.83 8.05 0 1.29.32 2.26.97 2.9l.32.32 7.72 5.16Z"/>
  <path fill="#FDEDCC" d="M202.3 95.62c-17.37 9.66-17.7 26.08-.65 36.4 17.37 10.3 45.36 10.62 63.05.96 17.36-9.66 17.69-26.09.64-36.4-17.37-10.3-45.35-10.95-63.04-.96Zm56.6 33.81c-14.15 7.73-36.98 7.41-51.13-.96-13.83-8.38-13.83-21.58.32-29.63s36.99-7.73 51.14.64c13.83 8.7 13.83 21.9-.32 29.95Z"/>
  <path fill="#177C1B" d="M234.14 141.03c-11.9 0-24.12-2.58-33.13-8.05-8.68-5.16-13.5-12.24-13.19-19.33 0-7.4 5.15-14.17 13.84-19 17.69-9.98 46.63-9.66 64 .97 8.69 5.15 13.51 12.24 13.19 19.32 0 7.4-5.15 14.17-13.83 19-8.37 4.83-19.62 7.09-30.88 7.09Zm-1.29-51.53c-10.93 0-21.55 2.25-29.9 7.08-8.05 4.51-12.55 10.63-12.55 17.07 0 6.44 4.18 12.56 12.22 17.4 16.72 9.98 44.39 10.62 61.75.96 8.05-4.5 12.55-10.63 12.55-17.07 0-6.44-4.18-12.56-12.22-17.39-8.69-5.15-20.27-8.05-31.85-8.05Zm1.29 46.7c-9.65 0-19.62-2.26-27.02-6.76-7.07-4.2-10.93-9.99-10.93-16.1 0-6.13 4.18-11.6 11.25-15.47 14.48-8.05 37.96-7.73 52.11.65 7.08 4.18 10.94 9.98 10.94 16.1 0 6.12-4.19 11.6-11.26 15.46-6.76 4.19-16.08 6.12-25.09 6.12Zm-1.29-41.87c-8.68 0-17.36 1.93-24.12 5.47-6.43 3.55-9.97 8.38-10.3 13.53 0 5.15 3.55 9.98 9.66 13.85 13.5 8.05 36.02 8.37 49.85.64 6.43-3.54 9.97-8.37 10.3-13.52 0-5.16-3.54-9.99-9.66-13.85-7.07-3.87-16.4-6.12-25.73-6.12Z"/>
  <path fill="#FDEDCC" d="m263.4 136.84 7.4 4.51 6.12-3.86-8.36-5.16-5.15 4.51Z"/>
  <path fill="#177C1B" d="m271.45 151.66-9-6.12s-.33-.32-.65-.32a5.33 5.33 0 0 1-1.6-3.87c0-3.54 2.57-7.4 5.46-9.34a4.57 4.57 0 0 1 4.5-.32h.32l8.69 5.8-7.72 14.17Zm-2.9-17.72c-.32 0-.96 0-1.6.32-2.25 1.3-4.18 4.51-4.18 7.1 0 .96.32 1.6.64 1.92l.32.32 6.75 4.51 5.47-9.66-6.43-4.5h-.96Z"/>
  <path fill="#F6A01D" d="M277.88 138.13a3.89 3.89 0 0 0-3.21.32c-2.58 1.61-4.83 5.16-4.83 8.38a4.3 4.3 0 0 0 1.29 3.22l14.15 12.23 10.3-16.42-17.7-7.73Z"/>
  <path fill="#FDEDCC" d="m271.45 141.35 16.08 9.02 7.08-5.15-18.34-7.41-4.82 3.54Z"/>
  <path fill="#177C1B" d="m285.6 163.9-15.44-13.2a5.24 5.24 0 0 1-1.93-4.2c0-3.54 2.58-7.4 5.47-9.34a4.57 4.57 0 0 1 4.5-.32l18.98 8.05-11.58 19Zm-9-24.8c-.33 0-.97 0-1.61.32-2.25 1.29-4.18 4.5-4.18 7.08 0 .97.32 1.94.64 1.94l13.5 11.6 8.7-13.86-16.73-7.08h-.32Z"/>
  <path fill="#F6A01D" d="m320.98 163.9-.32-.33-23.8-17.39c-1.29-.96-2.9-.64-5.15.32-3.86 2.26-7.07 7.41-7.07 11.92 0 2.26.64 3.54 1.93 4.5.32 0 .32.33.64.33l26.05 13.2s.32.33.65.33l9 4.5 6.76-11.59-8.69-5.8Z"/>
  <path fill="#FDEDCC" d="m287.53 150.37 35.38 22.22 5.15-3.86-32.49-22.87-6.75 2.9-1.29 1.6Z"/>
  <path fill="#177C1B" d="m323.23 182.9-36.66-18.36c-.32 0-.65-.32-.97-.32-1.6-.97-2.25-2.9-2.25-5.48 0-4.83 3.54-10.63 7.72-12.88 2.25-1.29 4.5-1.29 6.11-.32l33.77 23.83-7.72 13.53Zm-28.62-36.07c-.65 0-1.61.32-2.57.64-3.54 1.93-6.44 7.09-6.44 10.95 0 1.61.32 2.9 1.29 3.54l.32.32 34.74 17.4 5.47-9.67-31.85-22.54c0-.32-.32-.64-.96-.64Z"/>
  <path fill="#F6A01D" d="m337.06 174.52-7.71-4.83c-.97-.64-1.94-.32-3.22.32-2.57 1.62-4.83 5.16-4.83 8.06 0 1.6.65 2.9 1.61 3.22l7.72 5.15 6.43-11.92Z"/>
  <path fill="#FDEDCC" d="m323.23 172.6 8.04 5.47 4.83-4.2-8.36-4.5-4.5 3.22Z"/>
  <path fill="#177C1B" d="m330.31 187.4-8.04-5.15c-1.29-.64-2.25-2.25-2.25-4.18 0-3.55 2.57-7.41 5.47-9.34a4.57 4.57 0 0 1 4.5-.32h.32l8.36 5.47-8.36 13.53Zm-2.25-17.06c-.32 0-.97 0-1.61.32-2.25 1.29-4.18 4.5-4.18 7.09 0 .96.32 1.93.96 2.25l6.76 4.5 5.47-9.65-6.76-4.51h-.64Z"/>
  <path fill="#177C1B" d="M338.03 173.88a4.57 4.57 0 0 0-4.5.32c-2.9 1.61-5.47 5.8-5.47 9.34 0 1.93.64 3.54 1.93 4.19.64.32 1.28.64 1.93.64.96 0 1.6-.32 2.57-.64 2.9-1.61 5.47-5.8 5.47-9.34 0-2.58-.64-3.87-1.93-4.51Zm-102.6-34.14v11.27l14.47-1.6 13.19-4.84-1.29-3.86 2.9-8.06-13.2 6.12-12.53.97h-3.54Zm31.52-8.37 7.72 4.18 2.57-5.8v-9.01l-6.43 7.73-3.86 2.9Z"/>
</svg>
