<svg xmlns="http://www.w3.org/2000/svg" fill="none" viewBox="0 0 380 220">
  <path fill="#177C1B" d="M191.4 165.6c.57.34.57.9 0 1.23-.56.34-1.56.34-2.13 0-.56-.34-.56-.9 0-1.23a2.38 2.38 0 0 1 2.13 0Zm5.61-3.25c.56.33.56.9 0 1.23-.56.34-1.57.34-2.13 0-.56-.34-.56-.9 0-1.23a2.37 2.37 0 0 1 2.13 0Zm5.61-3.15c.56.34.56.9 0 1.24-.56.34-1.57.34-2.13 0-.56-.34-.56-.9 0-1.23a2.37 2.37 0 0 1 2.13 0Zm-16.72 3.15c.57.33.57.9 0 1.23-.55.34-1.56.34-2.12 0s-.56-.9 0-1.23a2.37 2.37 0 0 1 2.13 0Zm5.62-3.15c.56.34.56.9 0 1.24-.56.34-1.57.34-2.13 0-.56-.34-.56-.9 0-1.23a2.37 2.37 0 0 1 2.13 0Zm5.49-3.25c.56.34.56.9 0 1.24-.56.33-1.57.33-2.13 0-.56-.34-.56-.9 0-1.24a2.38 2.38 0 0 1 2.13 0Zm-22.31 6.4c.55.33.55.9 0 1.23-.57.34-1.58.34-2.14 0s-.56-.9 0-1.23a2.37 2.37 0 0 1 2.13 0Zm5.6-3.25c.56.33.56.9 0 1.23-.56.33-1.57.33-2.13 0-.56-.34-.56-.9 0-1.24a2.37 2.37 0 0 1 2.13 0Zm5.6-3.15c.57.34.57.9 0 1.24a2.4 2.4 0 0 1-2.12 0c-.56-.34-.56-.9 0-1.24a2.38 2.38 0 0 1 2.13 0Zm5.62-3.14c.56.34.56.9 0 1.24-.56.33-1.57.33-2.13 0-.56-.34-.56-.9 0-1.24a2.38 2.38 0 0 1 2.13 0Zm-22.32 6.29c.56.33.56.9 0 1.23-.56.33-1.57.33-2.13 0-.57-.34-.57-.9 0-1.24a2.37 2.37 0 0 1 2.13 0Zm5.6-3.15c.57.34.57.9 0 1.24-.56.33-1.57.33-2.13 0-.56-.34-.56-.9 0-1.24a2.38 2.38 0 0 1 2.14 0Zm5.61-3.14c.56.34.56.9 0 1.24-.56.33-1.57.33-2.13 0-.56-.34-.56-.9 0-1.24a2.38 2.38 0 0 1 2.13 0Zm5.49-3.25c.57.34.57.9 0 1.23-.55.34-1.56.34-2.12 0-.56-.33-.56-.9 0-1.23a2.37 2.37 0 0 1 2.13 0Zm-22.2 6.39c.56.34.56.9 0 1.24-.56.33-1.57.33-2.13 0-.56-.34-.56-.9 0-1.24a2.38 2.38 0 0 1 2.13 0Zm5.5-3.25c.56.34.56.9 0 1.24-.56.33-1.57.33-2.13 0-.57-.34-.57-.9 0-1.24a2.38 2.38 0 0 1 2.13 0Zm5.6-3.14c.57.34.57.9 0 1.23-.56.34-1.57.34-2.13 0-.56-.33-.56-.9 0-1.23a2.37 2.37 0 0 1 2.14 0Zm5.61-3.14c.56.34.56.9 0 1.23-.56.34-1.57.34-2.13 0-.56-.33-.56-.9 0-1.23a2.37 2.37 0 0 1 2.13 0Zm-22.31 6.28c.55.34.55.9 0 1.24-.57.33-1.58.33-2.14 0-.56-.34-.56-.9 0-1.24a2.38 2.38 0 0 1 2.13 0Zm5.6-3.14c.56.34.56.9 0 1.23-.56.34-1.57.34-2.13 0-.56-.33-.56-.9 0-1.23a2.37 2.37 0 0 1 2.13 0Zm5.6-3.26c.57.34.57.9 0 1.24-.55.34-1.56.34-2.12 0-.56-.33-.56-.9 0-1.23a2.38 2.38 0 0 1 2.13 0Zm5.5-3.13c.57.34.57.9 0 1.23-.56.34-1.57.34-2.13 0-.56-.33-.56-.9 0-1.23a2.38 2.38 0 0 1 2.14 0Zm-89.28 44.41c.56.34.56.9 0 1.23-.56.34-1.57.34-2.13 0-.56-.33-.56-.9 0-1.23a2.38 2.38 0 0 1 2.13 0Zm5.61-3.14c.56.34.56.9 0 1.23-.56.34-1.57.34-2.13 0-.56-.33-.56-.9 0-1.23a2.38 2.38 0 0 1 2.13 0Zm5.5-3.25c.56.33.56.9 0 1.23-.57.34-1.58.34-2.14 0s-.56-.9 0-1.23a2.37 2.37 0 0 1 2.14 0Zm5.6-3.14c.56.33.56.9 0 1.23-.56.34-1.57.34-2.13 0-.56-.34-.56-.9 0-1.23a2.37 2.37 0 0 1 2.13 0Zm5.61-3.15c.56.34.56.9 0 1.24-.56.34-1.57.34-2.13 0-.56-.34-.56-.9 0-1.23a2.37 2.37 0 0 1 2.13 0Zm5.61-3.13c.56.33.56.9 0 1.23-.56.34-1.57.34-2.13 0-.56-.34-.56-.9 0-1.23a2.38 2.38 0 0 1 2.13 0Zm5.61-3.26c.56.34.56.9 0 1.24-.56.33-1.57.33-2.13 0-.56-.34-.56-.9 0-1.24a2.38 2.38 0 0 1 2.13 0Zm5.61-3.14c.56.34.56.9 0 1.24-.56.33-1.57.33-2.14 0-.56-.34-.56-.9 0-1.24a2.37 2.37 0 0 1 2.14 0Zm5.49-3.14c.56.34.56.9 0 1.24-.56.33-1.57.33-2.13 0-.56-.34-.56-.9 0-1.24a2.37 2.37 0 0 1 2.13 0Zm5.61-3.25c.56.34.56.9 0 1.24-.56.33-1.57.33-2.13 0-.56-.34-.56-.9 0-1.24a2.38 2.38 0 0 1 2.13 0Zm5.61-3.14c.56.34.56.9 0 1.23-.56.34-1.57.34-2.13 0-.56-.33-.56-.9 0-1.23a2.38 2.38 0 0 1 2.13 0Zm5.61-3.14c.56.34.56.9 0 1.24-.56.33-1.57.33-2.13 0-.57-.34-.57-.9 0-1.24a2.38 2.38 0 0 1 2.13 0Zm5.61-3.14c.56.34.56.9 0 1.23-.56.34-1.57.34-2.13 0-.57-.33-.57-.9 0-1.23a2.37 2.37 0 0 1 2.13 0Zm5.5-3.26c.55.34.55.9 0 1.24-.57.34-1.58.34-2.14 0-.56-.33-.56-.9 0-1.23a2.38 2.38 0 0 1 2.13 0Zm5.6-3.13c.56.34.56.9 0 1.23-.56.34-1.57.34-2.13 0-.56-.33-.56-.9 0-1.23a2.38 2.38 0 0 1 2.13 0Zm5.6-3.14c.57.34.57.9 0 1.23-.55.34-1.56.34-2.12 0-.56-.33-.56-.9 0-1.23a2.38 2.38 0 0 1 2.13 0Zm-94.88 47.55c.56.34.56.9 0 1.23-.56.34-1.57.34-2.14 0-.56-.33-.56-.9 0-1.23a2.38 2.38 0 0 1 2.14 0Zm5.49-3.25c.56.33.56.9 0 1.23-.56.34-1.57.34-2.13 0-.56-.34-.56-.9 0-1.23a2.38 2.38 0 0 1 2.13 0Zm5.61-3.14c.56.33.56.9 0 1.23-.56.34-1.57.34-2.13 0-.56-.34-.56-.9 0-1.23a2.37 2.37 0 0 1 2.13 0Zm5.61-3.14c.56.33.56.9 0 1.23-.56.34-1.57.34-2.13 0-.56-.34-.56-.9 0-1.23a2.37 2.37 0 0 1 2.13 0Zm5.61-3.15c.56.34.56.9 0 1.24-.56.34-1.57.34-2.13 0-.56-.34-.56-.9 0-1.23a2.37 2.37 0 0 1 2.13 0Zm5.61-3.25c.56.34.56.9 0 1.24-.56.33-1.57.33-2.13 0-.57-.34-.57-.9 0-1.24a2.38 2.38 0 0 1 2.13 0Zm5.49-3.14c.56.34.56.9 0 1.24-.56.33-1.57.33-2.13 0-.56-.34-.56-.9 0-1.24a2.38 2.38 0 0 1 2.13 0Zm5.61-3.14c.56.34.56.9 0 1.24-.56.33-1.57.33-2.13 0-.56-.34-.56-.9 0-1.24a2.37 2.37 0 0 1 2.13 0Zm5.61-3.25c.56.34.56.9 0 1.23-.56.34-1.57.34-2.13 0-.56-.33-.56-.9 0-1.23a2.38 2.38 0 0 1 2.13 0Zm5.61-3.14c.56.34.56.9 0 1.24-.56.33-1.57.33-2.14 0-.56-.34-.56-.9 0-1.24a2.38 2.38 0 0 1 2.14 0Zm5.6-3.14c.56.34.56.9 0 1.23-.56.34-1.57.34-2.13 0-.56-.33-.56-.9 0-1.23a2.38 2.38 0 0 1 2.13 0Zm5.61-3.14c.56.34.56.9 0 1.24-.56.33-1.57.33-2.13 0-.56-.34-.56-.9 0-1.24a2.38 2.38 0 0 1 2.13 0Zm5.5-3.25c.56.34.56.9 0 1.23-.56.34-1.57.34-2.13 0-.56-.33-.56-.9 0-1.23a2.37 2.37 0 0 1 2.13 0Zm5.61-3.15c.56.34.56.9 0 1.24-.56.34-1.57.34-2.13 0-.57-.33-.57-.9 0-1.23a2.38 2.38 0 0 1 2.13 0Zm5.61-3.13c.56.34.56.9 0 1.23-.56.34-1.57.34-2.13 0-.57-.33-.57-.9 0-1.23a2.38 2.38 0 0 1 2.13 0Zm5.6-3.25c.56.33.56.9 0 1.23-.56.34-1.57.34-2.13 0-.56-.34-.56-.9 0-1.23a2.37 2.37 0 0 1 2.13 0Zm5.61-3.14c.56.33.56.9 0 1.23-.56.34-1.57.34-2.13 0-.56-.34-.56-.9 0-1.23a2.37 2.37 0 0 1 2.13 0ZM63.2 187.47c.56.33.56.9 0 1.23-.56.34-1.57.34-2.13 0-.56-.33-.56-.9 0-1.23a2.38 2.38 0 0 1 2.13 0Zm5.6-3.14c.57.33.57.9 0 1.23-.55.34-1.56.34-2.12 0s-.56-.9 0-1.23a2.38 2.38 0 0 1 2.13 0Zm5.62-3.14c.56.33.56.9 0 1.23-.56.34-1.57.34-2.14 0-.56-.34-.56-.9 0-1.23a2.37 2.37 0 0 1 2.14 0Zm5.6-3.14c.57.33.57.9 0 1.23-.56.34-1.57.34-2.13 0-.56-.34-.56-.9 0-1.23a2.37 2.37 0 0 1 2.13 0Zm5.61-3.25c.56.33.56.9 0 1.23-.56.34-1.57.34-2.13 0-.56-.34-.56-.9 0-1.24a2.37 2.37 0 0 1 2.13 0Zm5.5-3.15c.56.34.56.9 0 1.24-.56.33-1.57.33-2.13 0-.56-.34-.56-.9 0-1.24a2.38 2.38 0 0 1 2.13 0Zm5.61-3.14c.56.34.56.9 0 1.24-.56.33-1.57.33-2.13 0-.56-.34-.56-.9 0-1.24a2.38 2.38 0 0 1 2.13 0Zm5.61-3.25c.56.34.56.9 0 1.24-.56.33-1.57.33-2.13 0-.57-.34-.57-.9 0-1.24a2.37 2.37 0 0 1 2.13 0Zm5.6-3.14c.56.34.56.9 0 1.23-.56.34-1.57.34-2.13 0-.56-.33-.56-.9 0-1.23a2.38 2.38 0 0 1 2.13 0Zm5.61-3.14c.56.34.56.9 0 1.24-.56.33-1.57.33-2.13 0-.56-.34-.56-.9 0-1.24a2.38 2.38 0 0 1 2.13 0Zm5.5-3.14c.56.34.56.9 0 1.23-.56.34-1.57.34-2.13 0-.56-.33-.56-.9 0-1.23a2.38 2.38 0 0 1 2.13 0Zm5.61-3.25c.56.34.56.9 0 1.23-.56.34-1.57.34-2.14 0-.56-.33-.56-.9 0-1.23a2.37 2.37 0 0 1 2.14 0Zm5.6-3.14c.56.34.56.9 0 1.23-.56.34-1.57.34-2.13 0-.56-.33-.56-.9 0-1.23a2.37 2.37 0 0 1 2.13 0Zm5.61-3.15c.56.34.56.9 0 1.24-.56.34-1.57.34-2.13 0-.56-.33-.56-.9 0-1.23a2.38 2.38 0 0 1 2.13 0Zm5.62-3.24c.55.33.55.9 0 1.23-.57.34-1.58.34-2.14 0s-.56-.9 0-1.23a2.38 2.38 0 0 1 2.13 0Zm5.49-3.14c.56.33.56.9 0 1.23-.56.34-1.57.34-2.13 0-.57-.34-.57-.9 0-1.23a2.37 2.37 0 0 1 2.13 0Zm5.61-3.14c.56.33.56.9 0 1.23-.56.34-1.57.34-2.13 0-.57-.34-.57-.9 0-1.23a2.37 2.37 0 0 1 2.13 0Zm5.6-3.14c.56.33.56.9 0 1.23-.56.34-1.57.34-2.13 0-.56-.34-.56-.9 0-1.23a2.37 2.37 0 0 1 2.13 0Z"/>
  <path fill="#177C1B" d="M61.07 187.47a2.38 2.38 0 0 1 2.13 0c.56.33.56.9 0 1.23-.56.34-1.57.34-2.13 0-.56-.33-.56-.9 0-1.23Zm-3.37-3.14c.56.33.56.9 0 1.23-.56.34-1.57.34-2.13 0-.56-.34-.56-.9 0-1.23a2.38 2.38 0 0 1 2.13 0Zm5.61-3.14c.56.33.56.9 0 1.23-.56.34-1.57.34-2.13 0-.56-.34-.56-.9 0-1.23a2.37 2.37 0 0 1 2.13 0Zm5.49-3.25c.57.33.57.9 0 1.23-.55.34-1.56.34-2.12 0s-.56-.9 0-1.23a2.37 2.37 0 0 1 2.13 0Zm5.62-3.14c.56.33.56.9 0 1.23-.56.34-1.57.34-2.14 0-.56-.34-.56-.9 0-1.24a2.37 2.37 0 0 1 2.14 0Zm5.6-3.15c.57.34.57.9 0 1.24-.56.33-1.57.33-2.13 0-.56-.34-.56-.9 0-1.24a2.38 2.38 0 0 1 2.13 0Zm5.61-3.25c.56.34.56.9 0 1.24-.56.33-1.57.33-2.13 0-.56-.34-.56-.9 0-1.24a2.38 2.38 0 0 1 2.13 0Zm11.22-6.28c.56.34.56.9 0 1.23-.56.34-1.57.34-2.13 0-.56-.33-.56-.9 0-1.23a2.38 2.38 0 0 1 2.13 0Zm5.5-3.14c.56.34.56.9 0 1.24-.56.33-1.57.33-2.13 0-.57-.34-.57-.9 0-1.24a2.38 2.38 0 0 1 2.13 0Zm5.6-3.25c.56.34.56.9 0 1.23-.56.34-1.57.34-2.13 0-.56-.33-.56-.9 0-1.23a2.38 2.38 0 0 1 2.13 0Zm5.61-3.14c.56.34.56.9 0 1.23-.56.34-1.57.34-2.13 0-.56-.33-.56-.9 0-1.23a2.37 2.37 0 0 1 2.13 0Zm5.61-3.14c.56.34.56.9 0 1.23-.56.34-1.57.34-2.13 0-.56-.33-.56-.9 0-1.23a2.37 2.37 0 0 1 2.13 0Zm5.61-3.25c.56.33.56.9 0 1.23-.56.34-1.57.34-2.13 0-.56-.34-.56-.9 0-1.23a2.38 2.38 0 0 1 2.13 0Zm5.49-3.14c.56.33.56.9 0 1.23-.56.34-1.57.34-2.13 0-.56-.34-.56-.9 0-1.23a2.38 2.38 0 0 1 2.13 0Zm5.61-3.14c.56.33.56.9 0 1.23-.56.34-1.57.34-2.13 0-.56-.34-.56-.9 0-1.23a2.37 2.37 0 0 1 2.13 0Zm5.62-3.14c.55.33.55.9 0 1.23-.57.34-1.58.34-2.14 0s-.56-.9 0-1.23a2.37 2.37 0 0 1 2.13 0Zm5.6-3.26c.56.34.56.9 0 1.24-.56.33-1.57.33-2.13 0-.56-.34-.56-.9 0-1.24a2.38 2.38 0 0 1 2.13 0Zm5.6-3.14c.57.34.57.9 0 1.24a2.4 2.4 0 0 1-2.12 0c-.56-.34-.56-.9 0-1.24a2.38 2.38 0 0 1 2.13 0Z"/>
  <path fill="#177C1B" d="M55.57 184.33a2.38 2.38 0 0 1 2.13 0c.56.33.56.9 0 1.23-.56.34-1.57.34-2.13 0-.56-.34-.56-.9 0-1.23Zm-3.47-3.26c.56.34.56.9 0 1.24-.57.34-1.58.34-2.14 0s-.56-.9 0-1.24a2.37 2.37 0 0 1 2.13 0Zm5.6-3.13c.56.33.56.9 0 1.23-.56.34-1.57.34-2.13 0-.56-.34-.56-.9 0-1.23a2.37 2.37 0 0 1 2.13 0Zm5.61-3.14c.56.33.56.9 0 1.23-.56.34-1.57.34-2.13 0-.56-.34-.56-.9 0-1.24a2.37 2.37 0 0 1 2.13 0Zm5.61-3.26c.56.34.56.9 0 1.24-.56.33-1.57.33-2.13 0-.56-.34-.56-.9 0-1.24a2.38 2.38 0 0 1 2.13 0Zm5.61-3.14c.56.34.56.9 0 1.24-.56.33-1.57.33-2.13 0-.56-.34-.56-.9 0-1.24a2.38 2.38 0 0 1 2.13 0Zm5.49-3.14c.57.34.57.9 0 1.24-.56.33-1.57.33-2.13 0-.56-.34-.56-.9 0-1.24a2.37 2.37 0 0 1 2.13 0Zm5.61-3.14c.56.34.56.9 0 1.23-.56.34-1.57.34-2.13 0-.56-.33-.56-.9 0-1.23a2.38 2.38 0 0 1 2.13 0Zm5.61-3.25c.56.34.56.9 0 1.23-.56.34-1.57.34-2.13 0-.56-.33-.56-.9 0-1.23a2.38 2.38 0 0 1 2.13 0Zm5.61-3.14c.56.34.56.9 0 1.23-.56.34-1.57.34-2.13 0-.56-.33-.56-.9 0-1.23a2.38 2.38 0 0 1 2.13 0Zm5.61-3.14c.56.34.56.9 0 1.23-.56.34-1.57.34-2.13 0-.56-.33-.56-.9 0-1.23a2.37 2.37 0 0 1 2.13 0Zm5.49-3.25c.56.33.56.9 0 1.23-.56.34-1.57.34-2.13 0-.56-.34-.56-.9 0-1.23a2.37 2.37 0 0 1 2.13 0Zm5.61-3.14c.56.33.56.9 0 1.23-.56.34-1.57.34-2.13 0-.56-.34-.56-.9 0-1.23a2.38 2.38 0 0 1 2.13 0Zm5.61-3.14c.56.33.56.9 0 1.23-.56.34-1.57.34-2.13 0-.56-.34-.56-.9 0-1.23a2.38 2.38 0 0 1 2.13 0Zm5.61-3.14c.56.33.56.9 0 1.23-.56.34-1.57.34-2.13 0-.56-.34-.56-.9 0-1.23a2.37 2.37 0 0 1 2.13 0Zm5.61-3.26c.56.34.56.9 0 1.24-.56.33-1.57.33-2.13 0-.56-.34-.56-.9 0-1.24a2.37 2.37 0 0 1 2.13 0Zm5.61-3.14c.56.34.56.9 0 1.24-.57.33-1.57.33-2.14 0-.56-.34-.56-.9 0-1.24a2.38 2.38 0 0 1 2.13 0Zm5.5-3.14c.55.34.55.9 0 1.24-.57.33-1.58.33-2.14 0-.56-.34-.56-.9 0-1.24a2.38 2.38 0 0 1 2.13 0Zm5.6-3.25c.56.34.56.9 0 1.24-.56.33-1.57.33-2.13 0-.56-.34-.56-.9 0-1.24a2.38 2.38 0 0 1 2.13 0Z"/>
  <path fill="#177C1B" d="M49.96 181.07a2.37 2.37 0 0 1 2.13 0c.57.34.57.9 0 1.24-.56.34-1.57.34-2.13 0-.56-.34-.56-.9 0-1.24Zm-3.36-3.13c.56.33.56.9 0 1.23-.56.34-1.57.34-2.13 0-.56-.34-.56-.9 0-1.23a2.37 2.37 0 0 1 2.13 0Zm5.6-3.26c.57.34.57.9 0 1.24a2.4 2.4 0 0 1-2.12 0c-.56-.34-.56-.9 0-1.24a2.38 2.38 0 0 1 2.13 0Zm5.62-3.14c.56.34.56.9 0 1.24-.57.33-1.57.33-2.14 0-.56-.34-.56-.9 0-1.24a2.38 2.38 0 0 1 2.14 0Zm5.49-3.14c.56.34.56.9 0 1.24-.56.33-1.57.33-2.13 0-.56-.34-.56-.9 0-1.24a2.38 2.38 0 0 1 2.13 0Zm5.61-3.14c.56.34.56.9 0 1.24-.56.33-1.57.33-2.13 0-.56-.34-.56-.9 0-1.24a2.37 2.37 0 0 1 2.13 0Zm5.61-3.26c.56.35.56.9 0 1.24-.56.34-1.57.34-2.13 0-.56-.33-.56-.9 0-1.23a2.38 2.38 0 0 1 2.13 0Zm5.61-3.13c.56.34.56.9 0 1.23-.56.34-1.57.34-2.13 0-.57-.33-.57-.9 0-1.23a2.38 2.38 0 0 1 2.13 0Zm5.61-3.14c.56.34.56.9 0 1.23-.57.34-1.58.34-2.14 0-.56-.33-.56-.9 0-1.23a2.38 2.38 0 0 1 2.14 0Zm5.49-3.25c.56.33.56.9 0 1.23-.56.34-1.57.34-2.13 0-.56-.34-.56-.9 0-1.23a2.37 2.37 0 0 1 2.13 0Zm5.61-3.14c.56.33.56.9 0 1.23-.56.34-1.57.34-2.13 0-.56-.34-.56-.9 0-1.23a2.37 2.37 0 0 1 2.13 0Zm5.61-3.14c.56.33.56.9 0 1.23-.56.34-1.57.34-2.13 0-.56-.34-.56-.9 0-1.23a2.38 2.38 0 0 1 2.13 0Zm5.6-3.14c.57.33.57.9 0 1.23-.56.34-1.56.34-2.13 0-.56-.34-.56-.9 0-1.23a2.38 2.38 0 0 1 2.13 0Zm5.61-3.26c.56.34.56.9 0 1.24-.56.33-1.57.33-2.13 0-.56-.34-.56-.9 0-1.24a2.37 2.37 0 0 1 2.13 0Zm5.5-3.14c.56.34.56.9 0 1.24-.56.33-1.57.33-2.13 0-.56-.34-.56-.9 0-1.24a2.37 2.37 0 0 1 2.13 0Zm5.61-3.14c.56.34.56.9 0 1.24-.56.33-1.57.33-2.13 0-.56-.34-.56-.9 0-1.24a2.38 2.38 0 0 1 2.13 0Zm5.61-3.25c.56.34.56.9 0 1.23-.56.34-1.57.34-2.13 0-.56-.33-.56-.9 0-1.23a2.38 2.38 0 0 1 2.13 0Zm5.61-3.14c.56.34.56.9 0 1.24-.57.33-1.57.33-2.14 0-.56-.34-.56-.9 0-1.24a2.38 2.38 0 0 1 2.13 0Zm5.6-3.13c.56.33.56.89 0 1.22-.56.34-1.57.34-2.13 0-.56-.33-.56-.9 0-1.23a2.37 2.37 0 0 1 2.13 0Z"/>
  <path fill="#177C1B" d="M44.47 177.94a2.37 2.37 0 0 1 2.13 0c.56.33.56.9 0 1.23-.56.34-1.57.34-2.13 0-.56-.34-.56-.9 0-1.23Zm-3.48-3.26c.56.34.56.9 0 1.24-.56.33-1.57.33-2.13 0-.56-.34-.56-.9 0-1.24a2.38 2.38 0 0 1 2.13 0Zm5.61-3.14c.56.34.56.9 0 1.24-.56.33-1.57.33-2.13 0-.56-.34-.56-.9 0-1.24a2.38 2.38 0 0 1 2.13 0Zm5.6-3.14c.57.34.57.9 0 1.24a2.4 2.4 0 0 1-2.12 0c-.56-.34-.56-.9 0-1.24a2.38 2.38 0 0 1 2.13 0Zm5.62-3.25c.56.34.56.9 0 1.23-.57.34-1.57.34-2.14 0-.56-.33-.56-.9 0-1.23a2.37 2.37 0 0 1 2.14 0Zm5.6-3.15c.56.35.56.9 0 1.24-.56.34-1.57.34-2.13 0-.56-.33-.56-.9 0-1.23a2.38 2.38 0 0 1 2.13 0Zm5.61-3.13c.56.34.56.9 0 1.23-.56.34-1.57.34-2.13 0-.56-.33-.56-.9 0-1.23a2.38 2.38 0 0 1 2.13 0Zm5.5-3.25c.56.33.56.9 0 1.23-.56.34-1.57.34-2.13 0-.56-.34-.56-.9 0-1.23a2.37 2.37 0 0 1 2.13 0Zm5.61-3.14c.56.33.56.9 0 1.23-.56.34-1.57.34-2.13 0-.57-.34-.57-.9 0-1.23a2.37 2.37 0 0 1 2.13 0Zm5.61-3.14c.56.33.56.9 0 1.23-.57.34-1.58.34-2.14 0s-.56-.9 0-1.23a2.37 2.37 0 0 1 2.14 0Zm5.6-3.14c.56.33.56.9 0 1.23-.56.34-1.57.34-2.13 0-.56-.34-.56-.9 0-1.23a2.38 2.38 0 0 1 2.13 0Zm5.61-3.26c.56.34.56.9 0 1.24-.56.33-1.57.33-2.13 0-.56-.34-.56-.9 0-1.24a2.38 2.38 0 0 1 2.13 0Zm5.5-3.14c.56.34.56.9 0 1.24-.56.33-1.57.33-2.13 0-.56-.34-.56-.9 0-1.24a2.37 2.37 0 0 1 2.13 0Zm5.6-3.14c.57.34.57.9 0 1.24-.56.33-1.56.33-2.13 0-.56-.34-.56-.9 0-1.24a2.37 2.37 0 0 1 2.13 0Zm5.61-3.25c.56.34.56.9 0 1.24-.56.33-1.57.33-2.13 0-.56-.34-.56-.9 0-1.24a2.38 2.38 0 0 1 2.13 0Zm5.61-3.14c.56.34.56.9 0 1.23-.56.34-1.57.34-2.13 0-.56-.33-.56-.9 0-1.23a2.38 2.38 0 0 1 2.13 0Zm5.62-3.14c.55.34.55.9 0 1.24-.57.33-1.58.33-2.14 0-.56-.34-.56-.9 0-1.24a2.38 2.38 0 0 1 2.13 0Zm5.49-3.13c.56.33.56.89 0 1.22-.56.34-1.57.34-2.13 0-.56-.33-.56-.9 0-1.23a2.37 2.37 0 0 1 2.13 0Zm5.61-3.26c.56.34.56.9 0 1.23-.57.34-1.57.34-2.14 0-.56-.33-.56-.9 0-1.23a2.38 2.38 0 0 1 2.13 0Z"/>
  <path fill="#177C1B" d="M38.86 174.68a2.38 2.38 0 0 1 2.13 0c.56.34.56.9 0 1.24-.56.33-1.57.33-2.13 0-.56-.34-.56-.9 0-1.24Zm-3.36-3.14c.55.34.55.9 0 1.24-.57.33-1.58.33-2.14 0-.56-.34-.56-.9 0-1.24a2.38 2.38 0 0 1 2.13 0Zm5.6-3.25c.56.34.56.9 0 1.23-.56.34-1.57.34-2.13 0-.56-.33-.56-.9 0-1.23a2.37 2.37 0 0 1 2.13 0Zm5.61-3.14c.56.34.56.9 0 1.23-.56.34-1.57.34-2.13 0-.56-.33-.56-.9 0-1.23a2.37 2.37 0 0 1 2.13 0ZM52.2 162c.57.35.57.9 0 1.24-.55.34-1.56.34-2.12 0-.56-.33-.56-.9 0-1.23a2.38 2.38 0 0 1 2.13 0Zm5.62-3.13c.56.34.56.9 0 1.23-.57.34-1.57.34-2.14 0-.56-.33-.56-.9 0-1.23.68-.45 1.57-.45 2.14 0Zm5.6-3.25c.56.33.56.9 0 1.23-.56.34-1.57.34-2.13 0-.56-.34-.56-.9 0-1.23a2.37 2.37 0 0 1 2.13 0Zm5.61-3.14c.56.33.56.9 0 1.23-.56.34-1.57.34-2.13 0-.56-.34-.56-.9 0-1.23a2.37 2.37 0 0 1 2.13 0Zm5.61-3.14c.56.33.56.9 0 1.23-.56.34-1.57.34-2.13 0-.56-.34-.56-.9 0-1.23a2.37 2.37 0 0 1 2.13 0Zm5.5-3.26c.56.34.56.9 0 1.24-.56.33-1.57.33-2.13 0-.57-.34-.57-.9 0-1.24a2.38 2.38 0 0 1 2.13 0Zm5.61-3.14c.56.34.56.9 0 1.24-.57.33-1.58.33-2.14 0-.56-.34-.56-.9 0-1.24a2.38 2.38 0 0 1 2.14 0Zm5.6-3.14c.56.34.56.9 0 1.24-.56.33-1.57.33-2.13 0-.56-.34-.56-.9 0-1.24a2.37 2.37 0 0 1 2.13 0Zm5.61-3.25c.56.34.56.9 0 1.23-.56.34-1.57.34-2.13 0-.56-.33-.56-.9 0-1.23a2.38 2.38 0 0 1 2.13 0Zm5.61-3.14c.56.34.56.9 0 1.24-.56.33-1.57.33-2.13 0-.56-.34-.56-.9 0-1.24a2.38 2.38 0 0 1 2.13 0Zm5.61-3.14c.56.34.56.9 0 1.23-.56.34-1.57.34-2.13 0-.56-.33-.56-.9 0-1.23a2.38 2.38 0 0 1 2.13 0Zm5.49-3.14c.56.34.56.9 0 1.24-.56.33-1.57.33-2.13 0-.56-.34-.56-.9 0-1.24a2.38 2.38 0 0 1 2.13 0Zm5.61-3.25c.56.34.56.9 0 1.23-.56.34-1.57.34-2.13 0-.56-.33-.56-.9 0-1.23a2.37 2.37 0 0 1 2.13 0Zm5.62-3.14c.55.34.55.9 0 1.23-.57.34-1.58.34-2.14 0-.56-.33-.56-.9 0-1.23a2.38 2.38 0 0 1 2.13 0Zm5.6-3.14c.56.34.56.9 0 1.23-.56.34-1.57.34-2.13 0-.56-.33-.56-.9 0-1.23a2.38 2.38 0 0 1 2.13 0Z"/>
  <path fill="#177C1B" d="M33.36 171.54a2.38 2.38 0 0 1 2.13 0c.56.34.56.9 0 1.24-.56.33-1.57.33-2.13 0-.56-.34-.56-.9 0-1.24ZM30 168.29c.56.34.56.9 0 1.23-.56.34-1.57.34-2.13 0-.56-.33-.56-.9 0-1.23a2.37 2.37 0 0 1 2.13 0Zm5.5-3.14c.55.34.55.9 0 1.23-.57.34-1.58.34-2.14 0-.56-.33-.56-.9 0-1.23a2.37 2.37 0 0 1 2.13 0Zm5.6-3.15c.56.35.56.9 0 1.24-.56.34-1.57.34-2.13 0-.56-.33-.56-.9 0-1.23a2.38 2.38 0 0 1 2.13 0Zm5.61-3.24c.56.33.56.9 0 1.23-.56.34-1.57.34-2.13 0-.56-.34-.56-.9 0-1.23a2.38 2.38 0 0 1 2.13 0Zm5.61-3.14c.56.33.56.9 0 1.23-.56.34-1.57.34-2.13 0-.56-.34-.56-.9 0-1.23a2.37 2.37 0 0 1 2.13 0Zm5.61-3.14c.56.33.56.9 0 1.23-.56.34-1.57.34-2.13 0-.56-.34-.56-.9 0-1.23a2.37 2.37 0 0 1 2.13 0Zm5.49-3.26c.56.34.56.9 0 1.24-.56.33-1.57.33-2.13 0-.56-.34-.56-.9 0-1.24a2.38 2.38 0 0 1 2.13 0Zm5.61-3.14c.56.34.56.9 0 1.24-.56.33-1.57.33-2.13 0-.56-.34-.56-.9 0-1.24a2.38 2.38 0 0 1 2.13 0Zm5.61-3.14c.56.34.56.9 0 1.24-.56.33-1.57.33-2.13 0-.56-.34-.56-.9 0-1.24a2.38 2.38 0 0 1 2.13 0Zm5.61-3.14c.56.34.56.9 0 1.24-.56.33-1.57.33-2.13 0-.56-.34-.56-.9 0-1.24a1.85 1.85 0 0 1 2.13 0Zm5.61-3.25c.56.34.56.9 0 1.23-.56.34-1.57.34-2.13 0-.57-.33-.57-.9 0-1.23a2.38 2.38 0 0 1 2.13 0Zm5.49-3.14c.56.34.56.9 0 1.24-.56.33-1.57.33-2.13 0-.56-.34-.56-.9 0-1.24a2.38 2.38 0 0 1 2.13 0Zm5.61-3.14c.56.34.56.9 0 1.23-.56.34-1.57.34-2.13 0-.56-.33-.56-.9 0-1.23a2.38 2.38 0 0 1 2.13 0Zm5.61-3.25c.56.34.56.9 0 1.23-.56.34-1.57.34-2.13 0-.56-.33-.56-.9 0-1.23a2.37 2.37 0 0 1 2.13 0Zm5.61-3.14c.56.34.56.9 0 1.23-.56.34-1.57.34-2.13 0-.56-.33-.56-.9 0-1.23a2.37 2.37 0 0 1 2.13 0Zm5.61-3.14c.56.34.56.9 0 1.23-.57.34-1.57.34-2.14 0-.56-.33-.56-.9 0-1.23a2.38 2.38 0 0 1 2.14 0Zm5.61-3.14c.55.34.55.9 0 1.23-.57.34-1.58.34-2.14 0-.56-.33-.56-.9 0-1.23.56-.45 1.46-.45 2.13 0Zm5.5-3.25c.55.33.55.9 0 1.23-.57.34-1.58.34-2.14 0s-.56-.9 0-1.23a2.37 2.37 0 0 1 2.13 0Z"/>
  <path fill="#177C1B" d="M27.87 168.29a2.37 2.37 0 0 1 2.13 0c.56.34.56.9 0 1.23-.56.34-1.57.34-2.13 0-.68-.33-.68-.9 0-1.23Zm-3.48-3.14c.56.34.56.9 0 1.23-.56.34-1.57.34-2.13 0-.56-.33-.56-.9 0-1.23a2.37 2.37 0 0 1 2.13 0ZM30 161.9c.56.33.56.9 0 1.23-.56.34-1.57.34-2.13 0-.56-.34-.56-.9 0-1.23a2.38 2.38 0 0 1 2.13 0Zm5.6-3.14c.57.33.57.9 0 1.23-.55.34-1.56.34-2.12 0-.57-.34-.57-.9 0-1.23a2.38 2.38 0 0 1 2.13 0Zm5.5-3.14c.56.33.56.9 0 1.23-.56.34-1.57.34-2.13 0-.56-.34-.56-.9 0-1.23a2.37 2.37 0 0 1 2.13 0Zm5.61-3.25c.56.33.56.9 0 1.23-.56.34-1.57.34-2.13 0-.56-.34-.56-.9 0-1.23a2.37 2.37 0 0 1 2.13 0Zm5.61-3.15c.56.34.56.9 0 1.24-.56.33-1.57.33-2.13 0-.56-.34-.56-.9 0-1.24a2.38 2.38 0 0 1 2.13 0Zm5.61-3.14c.56.34.56.9 0 1.24-.56.33-1.57.33-2.13 0-.56-.34-.56-.9 0-1.24a2.38 2.38 0 0 1 2.13 0Zm5.61-3.14c.56.34.56.9 0 1.24-.56.33-1.57.33-2.13 0-.57-.34-.57-.9 0-1.24a2.38 2.38 0 0 1 2.13 0Zm5.6-3.24c.57.33.57.89 0 1.23-.56.33-1.57.33-2.13 0-.56-.34-.56-.9 0-1.24a2.37 2.37 0 0 1 2.13 0Zm5.5-3.15c.56.34.56.9 0 1.23-.56.34-1.57.34-2.13 0-.56-.33-.56-.9 0-1.23a2.38 2.38 0 0 1 2.13 0Zm5.61-3.14c.56.34.56.9 0 1.24-.56.33-1.57.33-2.13 0-.56-.34-.56-.9 0-1.24a2.38 2.38 0 0 1 2.13 0Zm5.61-3.25c.56.34.56.9 0 1.23-.56.34-1.57.34-2.13 0-.57-.33-.57-.9 0-1.23a2.37 2.37 0 0 1 2.13 0Zm5.6-3.14c.57.34.57.9 0 1.23-.56.34-1.57.34-2.13 0-.56-.33-.56-.9 0-1.23a2.37 2.37 0 0 1 2.13 0Zm5.61-3.14c.56.34.56.9 0 1.23-.56.34-1.57.34-2.13 0-.56-.33-.56-.9 0-1.23a2.37 2.37 0 0 1 2.13 0Zm5.5-3.14c.56.34.56.9 0 1.23-.56.34-1.57.34-2.13 0-.56-.33-.56-.9 0-1.23a2.38 2.38 0 0 1 2.13 0Zm5.61-3.25c.56.33.56.9 0 1.23-.56.34-1.57.34-2.13 0-.56-.34-.56-.9 0-1.23a2.38 2.38 0 0 1 2.13 0Zm5.61-3.14c.56.33.56.9 0 1.23-.57.34-1.57.34-2.14 0-.56-.34-.56-.9 0-1.23a2.37 2.37 0 0 1 2.14 0Zm5.61-3.15c.55.34.55.9 0 1.24-.57.34-1.58.34-2.14 0s-.56-.9 0-1.23a2.37 2.37 0 0 1 2.13 0Z"/>
  <path fill="#177C1B" d="M22.26 165.15a2.37 2.37 0 0 1 2.13 0c.56.34.56.9 0 1.23-.56.34-1.57.34-2.13 0-.56-.44-.56-.9 0-1.23Zm2.13-6.39c.56.33.56.9 0 1.23-.56.34-1.57.34-2.13 0-.56-.34-.56-.9 0-1.23a2.38 2.38 0 0 1 2.13 0ZM30 155.5c.56.34.56.9 0 1.24-.56.33-1.57.33-2.13 0-.56-.34-.56-.9 0-1.24a2.37 2.37 0 0 1 2.13 0Zm5.6-3.13c.57.33.57.9 0 1.23-.55.34-1.56.34-2.12 0-.57-.34-.57-.9 0-1.23a2.37 2.37 0 0 1 2.13 0Zm5.61-3.15c.57.34.57.9 0 1.24-.56.33-1.57.33-2.13 0-.56-.34-.56-.9 0-1.24a2.38 2.38 0 0 1 2.13 0Zm5.61-3.14c.56.34.56.9 0 1.24-.56.33-1.57.33-2.13 0-.56-.34-.56-.9 0-1.24a2.38 2.38 0 0 1 2.13 0Zm5.5-3.25c.56.34.56.9 0 1.24-.56.33-1.57.33-2.13 0-.56-.34-.56-.9 0-1.24a2.37 2.37 0 0 1 2.13 0Zm5.61-3.13c.56.33.56.89 0 1.23-.56.33-1.57.33-2.13 0-.56-.34-.56-.9 0-1.24a2.37 2.37 0 0 1 2.13 0Zm5.61-3.15c.56.34.56.9 0 1.23-.56.34-1.57.34-2.13 0-.57-.33-.57-.9 0-1.23a2.38 2.38 0 0 1 2.13 0Zm5.6-3.25c.57.34.57.9 0 1.23-.56.34-1.57.34-2.13 0-.56-.33-.56-.9 0-1.23a2.38 2.38 0 0 1 2.13 0Zm5.61-3.14c.56.34.56.9 0 1.23-.56.34-1.57.34-2.13 0-.56-.33-.56-.9 0-1.23a2.37 2.37 0 0 1 2.13 0Zm5.61-3.14c.56.34.56.9 0 1.23-.56.34-1.57.34-2.13 0-.56-.33-.56-.9 0-1.23a2.37 2.37 0 0 1 2.13 0Zm5.5-3.14c.56.34.56.9 0 1.23-.56.34-1.57.34-2.13 0-.57-.33-.57-.9 0-1.23a2.37 2.37 0 0 1 2.13 0Zm5.6-3.25c.57.33.57.9 0 1.23-.56.34-1.57.34-2.13 0-.56-.34-.56-.9 0-1.23a2.38 2.38 0 0 1 2.13 0Zm5.61-3.14c.56.33.56.9 0 1.23-.56.34-1.57.34-2.13 0-.56-.34-.56-.9 0-1.23a2.38 2.38 0 0 1 2.13 0Zm5.61-3.14c.56.33.56.9 0 1.23-.56.34-1.57.34-2.13 0-.56-.34-.56-.9 0-1.23a2.37 2.37 0 0 1 2.13 0Zm5.61-3.25c.56.33.56.9 0 1.23-.56.33-1.57.33-2.13 0-.56-.34-.56-.9 0-1.24a2.38 2.38 0 0 1 2.13 0Zm5.5-3.15c.56.34.56.9 0 1.24-.57.33-1.57.33-2.14 0-.56-.34-.56-.9 0-1.24a2.38 2.38 0 0 1 2.14 0ZM24.5 152.37c.56.33.56.9 0 1.23-.56.34-1.57.34-2.13 0-.56-.34-.56-.9 0-1.23a2.37 2.37 0 0 1 2.13 0Zm5.61-3.15c.56.34.56.9 0 1.24-.56.33-1.57.33-2.13 0-.56-.34-.56-.9 0-1.24a2.38 2.38 0 0 1 2.13 0Zm5.49-3.25c.57.34.57.9 0 1.24a2.4 2.4 0 0 1-2.12 0c-.57-.34-.57-.9 0-1.24a2.38 2.38 0 0 1 2.13 0Zm5.61-3.14c.57.34.57.9 0 1.24-.56.33-1.57.33-2.13 0-.56-.34-.56-.9 0-1.24a2.37 2.37 0 0 1 2.13 0Zm5.61-3.13c.56.33.56.89 0 1.23-.56.33-1.57.33-2.13 0-.56-.34-.56-.9 0-1.24a2.37 2.37 0 0 1 2.13 0Zm5.61-3.26c.56.34.56.9 0 1.23-.56.34-1.57.34-2.13 0-.56-.33-.56-.9 0-1.23a2.38 2.38 0 0 1 2.13 0Zm5.61-3.14c.56.34.56.9 0 1.23-.56.34-1.57.34-2.13 0-.56-.33-.56-.9 0-1.23a2.38 2.38 0 0 1 2.13 0Zm5.5-3.14c.56.34.56.9 0 1.23-.56.34-1.57.34-2.13 0-.57-.33-.57-.9 0-1.23a2.37 2.37 0 0 1 2.13 0Zm5.6-3.14c.57.34.57.9 0 1.23-.56.34-1.57.34-2.13 0-.56-.33-.56-.9 0-1.23a2.37 2.37 0 0 1 2.13 0Zm5.61-3.25c.56.33.56.9 0 1.23-.56.34-1.57.34-2.13 0-.56-.34-.56-.9 0-1.23a2.38 2.38 0 0 1 2.13 0Zm5.61-3.14c.56.33.56.9 0 1.23-.56.34-1.57.34-2.13 0-.56-.34-.56-.9 0-1.23a2.38 2.38 0 0 1 2.13 0Zm5.61-3.14c.56.33.56.9 0 1.23-.56.34-1.57.34-2.13 0-.56-.34-.56-.9 0-1.23a2.38 2.38 0 0 1 2.13 0Zm5.61-3.26c.56.34.56.9 0 1.24-.56.33-1.57.33-2.13 0-.56-.34-.56-.9 0-1.24a2.37 2.37 0 0 1 2.13 0Zm5.49-3.13c.56.33.56.9 0 1.23-.56.33-1.57.33-2.13 0-.56-.34-.56-.9 0-1.24a2.38 2.38 0 0 1 2.13 0Zm5.61-3.15c.56.34.56.9 0 1.24-.56.33-1.57.33-2.13 0-.56-.34-.56-.9 0-1.24a2.38 2.38 0 0 1 2.13 0Zm5.61-3.14c.56.34.56.9 0 1.24-.56.33-1.57.33-2.13 0-.56-.34-.56-.9 0-1.24a2.38 2.38 0 0 1 2.13 0ZM46.82 133.3c.56.34.56.9 0 1.23-.56.34-1.57.34-2.13 0-.56-.33-.56-.9 0-1.23a2.38 2.38 0 0 1 2.13 0Zm5.61-3.14c.56.34.56.9 0 1.23-.56.34-1.57.34-2.13 0-.56-.33-.56-.9 0-1.23a2.37 2.37 0 0 1 2.13 0Zm5.61-3.26c.56.34.56.9 0 1.24-.56.34-1.57.34-2.13 0-.56-.34-.56-.9 0-1.23a2.37 2.37 0 0 1 2.13 0Zm5.61-3.13c.56.33.56.9 0 1.23-.56.34-1.57.34-2.13 0-.56-.34-.56-.9 0-1.23a2.38 2.38 0 0 1 2.13 0Zm5.61-3.14c.56.33.56.9 0 1.23-.56.34-1.57.34-2.14 0-.56-.34-.56-.9 0-1.23a2.38 2.38 0 0 1 2.14 0Zm5.49-3.26c.56.34.56.9 0 1.24-.56.33-1.57.33-2.13 0-.56-.34-.56-.9 0-1.24a2.37 2.37 0 0 1 2.13 0Zm5.61-3.14c.56.34.56.9 0 1.24-.56.33-1.57.33-2.13 0-.56-.34-.56-.9 0-1.24a2.37 2.37 0 0 1 2.13 0Zm5.61-3.13c.56.33.56.9 0 1.23-.56.33-1.57.33-2.13 0-.56-.34-.56-.9 0-1.24a2.38 2.38 0 0 1 2.13 0Zm5.61-3.15c.56.34.56.9 0 1.24-.56.33-1.57.33-2.13 0-.56-.34-.56-.9 0-1.24a2.38 2.38 0 0 1 2.13 0Zm5.61-3.25c.56.34.56.9 0 1.23-.57.34-1.57.34-2.14 0-.56-.33-.56-.9 0-1.23a2.38 2.38 0 0 1 2.14 0Zm5.61-3.14c.56.34.56.9 0 1.23-.57.34-1.58.34-2.14 0-.56-.33-.56-.9 0-1.23a2.37 2.37 0 0 1 2.13 0ZM46.94 126.9c.56.34.56.9 0 1.24-.57.34-1.57.34-2.14 0-.56-.34-.56-.9 0-1.23a2.37 2.37 0 0 1 2.14 0Zm5.6-3.13c.56.33.56.9 0 1.23-.56.34-1.57.34-2.13 0-.56-.34-.56-.9 0-1.23a2.38 2.38 0 0 1 2.13 0Zm5.5-3.26c.56.34.56.9 0 1.24-.56.33-1.57.33-2.13 0-.56-.34-.56-.9 0-1.24a2.38 2.38 0 0 1 2.13 0Zm5.61-3.14c.56.34.56.9 0 1.24-.56.33-1.57.33-2.13 0-.56-.34-.56-.9 0-1.24a2.37 2.37 0 0 1 2.13 0Zm5.61-3.14c.56.34.56.9 0 1.24-.56.33-1.57.33-2.14 0-.56-.34-.56-.9 0-1.24a2.37 2.37 0 0 1 2.14 0Zm5.6-3.13c.57.33.57.9 0 1.23-.56.33-1.57.33-2.13 0-.56-.34-.56-.9 0-1.24a2.38 2.38 0 0 1 2.13 0Zm5.61-3.26c.56.34.56.9 0 1.23-.56.34-1.57.34-2.13 0-.56-.33-.56-.9 0-1.23a2.38 2.38 0 0 1 2.13 0Zm5.5-3.14c.56.34.56.9 0 1.23-.56.34-1.57.34-2.13 0-.56-.33-.56-.9 0-1.23a2.38 2.38 0 0 1 2.13 0Zm5.61-3.14c.56.34.56.9 0 1.23-.56.34-1.57.34-2.13 0-.56-.33-.56-.9 0-1.23a2.37 2.37 0 0 1 2.13 0Zm5.61-3.26c.56.34.56.9 0 1.24-.57.34-1.57.34-2.14 0-.56-.33-.56-.9 0-1.23a2.38 2.38 0 0 1 2.14 0Zm-55.86 25.35c.56.34.56.9 0 1.24-.56.33-1.57.33-2.13 0-.56-.34-.56-.9 0-1.24a2.38 2.38 0 0 1 2.13 0Zm5.61-3.14c.56.34.56.9 0 1.24-.57.33-1.57.33-2.14 0-.56-.34-.56-.9 0-1.24a2.38 2.38 0 0 1 2.14 0Zm5.6-3.14c.56.34.56.9 0 1.24-.56.33-1.57.33-2.13 0-.56-.34-.56-.9 0-1.24a2.37 2.37 0 0 1 2.13 0Zm5.61-3.14c.56.34.56.9 0 1.24-.56.33-1.57.33-2.13 0-.56-.34-.56-.9 0-1.24a2.37 2.37 0 0 1 2.13 0Zm5.61-3.25c.56.34.56.9 0 1.23-.56.34-1.57.34-2.13 0-.56-.33-.56-.9 0-1.23a2.38 2.38 0 0 1 2.13 0Zm5.5-3.14c.56.34.56.9 0 1.23-.56.34-1.57.34-2.14 0-.56-.33-.56-.9 0-1.23a2.38 2.38 0 0 1 2.14 0Zm5.6-3.14c.57.34.57.9 0 1.23-.56.34-1.57.34-2.13 0-.56-.33-.56-.9 0-1.23a2.38 2.38 0 0 1 2.13 0Zm5.61-3.25c.56.33.56.9 0 1.23-.56.34-1.57.34-2.13 0-.56-.33-.56-.9 0-1.23a2.37 2.37 0 0 1 2.13 0Zm5.61-3.15c.56.34.56.9 0 1.24-.56.34-1.57.34-2.13 0-.56-.33-.56-.9 0-1.23a2.38 2.38 0 0 1 2.13 0Zm5.61-3.13c.56.33.56.9 0 1.23-.56.34-1.57.34-2.13 0-.56-.33-.56-.9 0-1.23a2.37 2.37 0 0 1 2.13 0Zm-50.25 22.2c.56.34.56.9 0 1.24-.56.33-1.57.33-2.13 0-.56-.34-.56-.9 0-1.24a2.37 2.37 0 0 1 2.13 0Zm5.5-3.25c.56.34.56.9 0 1.23-.57.34-1.57.34-2.14 0-.56-.33-.56-.9 0-1.23a2.38 2.38 0 0 1 2.14 0Zm5.6-3.14c.56.34.56.9 0 1.23-.56.34-1.57.34-2.13 0-.56-.33-.56-.9 0-1.23a2.38 2.38 0 0 1 2.13 0Zm5.61-3.14c.56.34.56.9 0 1.23-.56.34-1.57.34-2.13 0-.56-.33-.56-.9 0-1.23a2.38 2.38 0 0 1 2.13 0Zm5.61-3.25c.56.33.56.9 0 1.23-.56.34-1.57.34-2.13 0-.56-.33-.56-.9 0-1.23a2.37 2.37 0 0 1 2.13 0Zm5.61-3.14c.56.33.56.9 0 1.23-.56.34-1.57.34-2.13 0-.56-.33-.56-.9 0-1.23a2.37 2.37 0 0 1 2.13 0Zm5.61-3.15c.56.34.56.9 0 1.24-.56.34-1.57.34-2.13 0-.57-.33-.57-.9 0-1.23a2.37 2.37 0 0 1 2.13 0Zm5.49-3.13c.56.33.56.9 0 1.23-.56.34-1.57.34-2.13 0-.56-.33-.56-.9 0-1.23a2.37 2.37 0 0 1 2.13 0Zm5.61-3.25c.56.33.56.9 0 1.23-.56.34-1.57.34-2.13 0-.56-.34-.56-.9 0-1.23a2.38 2.38 0 0 1 2.13 0Zm-44.64 19.06c.56.34.56.9 0 1.23-.56.34-1.57.34-2.13 0-.56-.33-.56-.9 0-1.23a2.38 2.38 0 0 1 2.13 0Zm5.61-3.14c.56.34.56.9 0 1.23-.56.34-1.57.34-2.13 0-.57-.33-.57-.9 0-1.23a1.85 1.85 0 0 1 2.13 0Zm5.61-3.25c.56.33.56.9 0 1.23-.57.34-1.57.34-2.14 0-.56-.33-.56-.9 0-1.23a2.37 2.37 0 0 1 2.14 0Zm5.49-3.14c.56.33.56.9 0 1.23-.56.34-1.57.34-2.13 0-.56-.33-.56-.9 0-1.23a2.37 2.37 0 0 1 2.13 0Zm5.61-3.15c.56.34.56.9 0 1.24-.56.34-1.57.34-2.13 0-.56-.33-.56-.9 0-1.23a2.37 2.37 0 0 1 2.13 0Zm5.61-3.24c.56.33.56.9 0 1.23-.56.34-1.57.34-2.13 0-.56-.34-.56-.9 0-1.23a2.38 2.38 0 0 1 2.13 0Zm5.61-3.14c.56.33.56.9 0 1.23-.56.34-1.57.34-2.13 0-.57-.34-.57-.9 0-1.23a2.38 2.38 0 0 1 2.13 0Zm5.6-3.14c.57.33.57.9 0 1.23-.56.34-1.57.34-2.13 0-.56-.34-.56-.9 0-1.23a2.37 2.37 0 0 1 2.13 0Zm122.04 70.42c.56.34.56.9 0 1.24-.56.34-1.57.34-2.13 0-.56-.34-.56-.9 0-1.23a2.37 2.37 0 0 1 2.13 0Zm5.61-3.14c.56.34.56.9 0 1.24-.56.33-1.57.33-2.13 0-.56-.34-.56-.9 0-1.24a2.38 2.38 0 0 1 2.13 0Zm5.5-3.25c.56.34.56.9 0 1.24-.56.33-1.57.33-2.13 0-.56-.34-.56-.9 0-1.24a2.38 2.38 0 0 1 2.13 0Zm5.61-3.14c.56.34.56.9 0 1.24-.57.33-1.58.33-2.14 0-.56-.34-.56-.9 0-1.24a2.38 2.38 0 0 1 2.14 0Z"/>
  <path fill="#177C1B" d="M200.5 159.2a2.37 2.37 0 0 1 2.12 0c.56.34.56.9 0 1.24-.56.34-1.57.34-2.13 0-.56-.34-.56-.9 0-1.23Zm-3.49-3.25c.56.34.56.9 0 1.24-.56.33-1.57.33-2.13 0-.56-.34-.56-.9 0-1.24a2.38 2.38 0 0 1 2.13 0Zm5.61-3.14c.56.34.56.9 0 1.24-.56.33-1.57.33-2.13 0-.56-.34-.56-.9 0-1.24a2.38 2.38 0 0 1 2.13 0Zm5.61-3.14c.56.34.56.9 0 1.24-.56.33-1.57.33-2.13 0-.56-.34-.56-.9 0-1.24a2.38 2.38 0 0 1 2.13 0Zm5.61-3.14c.56.34.56.9 0 1.24-.56.33-1.57.33-2.13 0-.56-.34-.56-.9 0-1.24a2.37 2.37 0 0 1 2.13 0Zm5.61-3.25c.56.34.56.9 0 1.23-.56.34-1.57.34-2.13 0-.56-.33-.56-.9 0-1.23a2.38 2.38 0 0 1 2.13 0Z"/>
  <path fill="#177C1B" d="M194.88 155.95a2.38 2.38 0 0 1 2.13 0c.56.34.56.9 0 1.24-.56.33-1.57.33-2.13 0-.56-.34-.56-.9 0-1.24Zm-3.36-3.14c.56.34.56.9 0 1.24-.56.33-1.57.33-2.13 0-.56-.34-.56-.9 0-1.24a2.38 2.38 0 0 1 2.13 0Zm5.61-3.14c.56.34.56.9 0 1.24-.56.33-1.57.33-2.13 0-.57-.34-.57-.9 0-1.24a2.38 2.38 0 0 1 2.13 0Zm5.6-3.25c.56.34.56.9 0 1.23-.56.34-1.57.34-2.13 0-.56-.33-.56-.9 0-1.23a2.37 2.37 0 0 1 2.13 0Zm5.5-3.14c.56.34.56.9 0 1.23-.56.34-1.57.34-2.13 0-.56-.33-.56-.9 0-1.23a2.38 2.38 0 0 1 2.13 0Z"/>
  <path fill="#177C1B" d="M189.39 152.81a2.38 2.38 0 0 1 2.13 0c.56.34.56.9 0 1.24-.56.33-1.57.33-2.13 0-.56-.34-.56-.9 0-1.24Zm-3.49-3.25c.57.34.57.9 0 1.23-.55.34-1.56.34-2.12 0-.56-.33-.56-.9 0-1.23a2.37 2.37 0 0 1 2.13 0Zm5.62-3.14c.56.34.56.9 0 1.23-.56.34-1.57.34-2.13 0-.56-.33-.56-.9 0-1.23a2.37 2.37 0 0 1 2.13 0Zm5.61-3.14c.56.34.56.9 0 1.23-.56.34-1.57.34-2.13 0-.57-.33-.57-.9 0-1.23a2.38 2.38 0 0 1 2.13 0Zm5.6-3.25c.56.33.56.9 0 1.23-.56.34-1.57.34-2.13 0-.56-.33-.56-.9 0-1.23a2.38 2.38 0 0 1 2.13 0Zm5.61-3.14c.56.33.56.9 0 1.23-.56.34-1.57.34-2.13 0-.56-.34-.56-.9 0-1.23a2.37 2.37 0 0 1 2.13 0Z"/>
  <path fill="#177C1B" d="M183.78 149.56a2.37 2.37 0 0 1 2.13 0c.56.34.56.9 0 1.23-.56.34-1.57.34-2.13 0-.56-.33-.56-.9 0-1.23Zm-3.37-3.14c.56.34.56.9 0 1.23-.56.34-1.57.34-2.13 0-.56-.33-.56-.9 0-1.23a2.37 2.37 0 0 1 2.13 0Zm5.61-3.25c.56.34.56.9 0 1.23-.56.34-1.57.34-2.13 0-.56-.33-.56-.9 0-1.23a2.38 2.38 0 0 1 2.13 0Zm5.61-3.14c.56.33.56.9 0 1.23-.56.34-1.57.34-2.13 0-.56-.33-.56-.9 0-1.23a2.38 2.38 0 0 1 2.13 0Zm5.5-3.14c.56.33.56.9 0 1.23-.56.34-1.57.34-2.13 0-.57-.34-.57-.9 0-1.23a2.37 2.37 0 0 1 2.13 0Zm5.6-3.14c.56.33.56.9 0 1.23-.56.34-1.57.34-2.13 0-.56-.33-.56-.9 0-1.23a2.37 2.37 0 0 1 2.13 0Zm5.61-3.25c.56.33.56.9 0 1.23-.56.34-1.57.34-2.13 0-.56-.34-.56-.9 0-1.23a2.38 2.38 0 0 1 2.13 0Z"/>
  <path fill="#177C1B" d="M178.28 146.42a2.37 2.37 0 0 1 2.13 0c.56.34.56.9 0 1.23-.56.34-1.57.34-2.13 0-.56-.33-.56-.9 0-1.23Zm-3.48-3.25c.57.34.57.9 0 1.23-.56.34-1.57.34-2.13 0-.56-.33-.56-.9 0-1.23a2.38 2.38 0 0 1 2.14 0Zm5.61-3.14c.56.33.56.9 0 1.23-.56.34-1.57.34-2.13 0-.56-.33-.56-.9 0-1.23a2.38 2.38 0 0 1 2.13 0Zm5.61-3.14c.56.33.56.9 0 1.23-.56.34-1.57.34-2.13 0-.56-.34-.56-.9 0-1.23a2.37 2.37 0 0 1 2.13 0Zm5.61-3.25c.56.33.56.9 0 1.23-.56.34-1.57.34-2.13 0-.56-.34-.56-.9 0-1.23a2.37 2.37 0 0 1 2.13 0Zm5.61-3.14c.56.33.56.9 0 1.23-.56.34-1.57.34-2.13 0-.56-.34-.56-.9 0-1.23a2.38 2.38 0 0 1 2.13 0Zm5.61-3.14c.56.33.56.9 0 1.23-.56.34-1.57.34-2.13 0-.56-.34-.56-.9 0-1.23a2.38 2.38 0 0 1 2.13 0Z"/>
  <path fill="#177C1B" d="M172.79 143.17a2.38 2.38 0 0 1 2.13 0c.56.34.56.9 0 1.23-.56.34-1.57.34-2.13 0-.68-.33-.68-.9 0-1.23Zm-3.49-3.14c.57.33.57.9 0 1.23-.55.34-1.56.34-2.12 0-.56-.33-.56-.9 0-1.23a2.38 2.38 0 0 1 2.13 0Zm5.62-3.25c.56.33.56.9 0 1.23-.56.34-1.57.34-2.13 0-.56-.34-.56-.9 0-1.23a2.37 2.37 0 0 1 2.13 0Zm5.61-3.14c.56.33.56.9 0 1.23-.56.34-1.57.34-2.14 0-.56-.34-.56-.9 0-1.23a2.37 2.37 0 0 1 2.14 0Zm5.49-3.14c.56.33.56.9 0 1.23-.56.34-1.57.34-2.13 0-.56-.34-.56-.9 0-1.23a2.38 2.38 0 0 1 2.13 0Zm5.61-3.14c.56.33.56.9 0 1.23-.56.34-1.57.34-2.13 0-.56-.34-.56-.9 0-1.23.67-.45 1.57-.45 2.13 0Zm5.61-3.26c.56.34.56.9 0 1.24-.56.33-1.57.33-2.13 0-.56-.34-.56-.9 0-1.24a2.37 2.37 0 0 1 2.13 0Z"/>
  <path fill="#177C1B" d="M167.18 140.03a2.38 2.38 0 0 1 2.13 0c.56.33.56.9 0 1.23-.56.34-1.57.34-2.13 0-.56-.33-.56-.9 0-1.23Zm-3.37-3.25c.56.33.56.9 0 1.23-.56.34-1.57.34-2.13 0-.56-.34-.56-.9 0-1.23a2.37 2.37 0 0 1 2.13 0Zm5.49-3.14c.57.33.57.9 0 1.23-.55.34-1.56.34-2.12 0s-.56-.9 0-1.23a2.37 2.37 0 0 1 2.13 0Zm5.62-3.14c.56.33.56.9 0 1.23-.56.34-1.57.34-2.13 0-.56-.34-.56-.9 0-1.23a2.38 2.38 0 0 1 2.13 0Zm5.61-3.26c.56.34.56.9 0 1.24-.56.33-1.57.33-2.14 0-.56-.34-.56-.9 0-1.24a2.38 2.38 0 0 1 2.14 0Zm5.6-3.14c.56.34.56.9 0 1.24-.56.33-1.57.33-2.13 0-.56-.34-.56-.9 0-1.24a2.37 2.37 0 0 1 2.13 0Zm5.61-3.14c.56.34.56.9 0 1.24-.56.33-1.57.33-2.13 0-.56-.34-.56-.9 0-1.24a2.37 2.37 0 0 1 2.13 0Z"/>
  <path fill="#177C1B" d="M161.68 136.78a2.37 2.37 0 0 1 2.13 0c.56.33.56.9 0 1.23-.56.34-1.57.34-2.13 0-.67-.34-.67-.9 0-1.23Zm-3.48-3.14c.56.33.56.9 0 1.23-.56.34-1.57.34-2.13 0-.56-.34-.56-.9 0-1.23a2.37 2.37 0 0 1 2.13 0Zm5.61-3.26c.56.34.56.9 0 1.24-.56.33-1.57.33-2.13 0-.56-.34-.56-.9 0-1.24a2.38 2.38 0 0 1 2.13 0Zm5.61-3.14c.56.34.56.9 0 1.24-.56.33-1.57.33-2.13 0-.56-.34-.56-.9 0-1.24a2.38 2.38 0 0 1 2.13 0Zm5.61-3.14c.56.34.56.9 0 1.24-.56.33-1.57.33-2.13 0-.56-.34-.56-.9 0-1.24a2.37 2.37 0 0 1 2.13 0Zm5.5-3.25c.56.34.56.9 0 1.23-.56.34-1.57.34-2.14 0-.56-.33-.56-.9 0-1.23a2.38 2.38 0 0 1 2.14 0Zm5.6-3.14c.56.34.56.9 0 1.23-.56.34-1.57.34-2.13 0-.56-.33-.56-.9 0-1.23a2.38 2.38 0 0 1 2.13 0Zm5.61-3.14c.56.34.56.9 0 1.23-.56.34-1.57.34-2.13 0-.56-.33-.56-.9 0-1.23a2.38 2.38 0 0 1 2.13 0Z"/>
  <path fill="#177C1B" d="M156.07 133.64a2.37 2.37 0 0 1 2.13 0c.56.33.56.9 0 1.23-.56.34-1.57.34-2.13 0-.56-.45-.56-.9 0-1.23Zm-3.37-3.26c.57.34.57.9 0 1.24a2.4 2.4 0 0 1-2.12 0c-.56-.34-.56-.9 0-1.24a2.38 2.38 0 0 1 2.13 0Zm5.5-3.14c.56.34.56.9 0 1.24-.56.33-1.57.33-2.13 0-.56-.34-.56-.9 0-1.24a2.38 2.38 0 0 1 2.13 0Zm5.61-3.24c.56.33.56.89 0 1.22-.56.34-1.57.34-2.13 0-.56-.33-.56-.9 0-1.23a2.37 2.37 0 0 1 2.13 0Zm5.61-3.15c.56.34.56.9 0 1.23-.56.34-1.57.34-2.13 0-.56-.33-.56-.9 0-1.23a2.38 2.38 0 0 1 2.13 0Zm5.61-3.14c.56.34.56.9 0 1.23-.56.34-1.57.34-2.13 0-.56-.33-.56-.9 0-1.23a2.38 2.38 0 0 1 2.13 0Zm5.61-3.14c.56.34.56.9 0 1.23-.56.34-1.57.34-2.13 0-.56-.33-.56-.9 0-1.23a2.38 2.38 0 0 1 2.13 0Zm5.61-3.25c.56.33.56.9 0 1.23-.56.34-1.57.34-2.13 0-.57-.33-.57-.9 0-1.23a2.37 2.37 0 0 1 2.13 0Z"/>
  <path fill="#177C1B" d="M150.58 130.38a2.38 2.38 0 0 1 2.13 0c.56.34.56.9 0 1.24-.56.33-1.57.33-2.13 0-.56-.34-.56-.9 0-1.24Zm-3.48-3.25c.56.34.56.9 0 1.23-.56.34-1.57.34-2.13 0-.56-.33-.56-.9 0-1.23a2.37 2.37 0 0 1 2.13 0Zm5.6-3.13c.57.33.57.89 0 1.22-.55.34-1.56.34-2.12 0-.56-.33-.56-.9 0-1.23a2.37 2.37 0 0 1 2.13 0Zm5.62-3.15c.56.34.56.9 0 1.23-.56.34-1.57.34-2.13 0-.57-.33-.57-.9 0-1.23a2.38 2.38 0 0 1 2.13 0Zm5.61-3.14c.56.34.56.9 0 1.23-.57.34-1.58.34-2.14 0-.56-.33-.56-.9 0-1.23a2.38 2.38 0 0 1 2.14 0Zm5.49-3.25c.56.33.56.9 0 1.23-.56.34-1.57.34-2.13 0-.56-.33-.56-.9 0-1.23a2.37 2.37 0 0 1 2.13 0Zm5.61-3.14c.56.33.56.9 0 1.23-.56.34-1.57.34-2.13 0-.56-.33-.56-.9 0-1.23a2.37 2.37 0 0 1 2.13 0Zm5.61-3.14c.56.33.56.9 0 1.23-.56.34-1.57.34-2.13 0-.56-.33-.56-.9 0-1.23a2.37 2.37 0 0 1 2.13 0Z"/>
  <path fill="#177C1B" d="M144.97 127.13a2.37 2.37 0 0 1 2.13 0c.56.34.56.9 0 1.23-.56.34-1.57.34-2.13 0-.56-.33-.56-.9 0-1.23ZM141.6 124c.56.33.56.89 0 1.22-.56.34-1.57.34-2.13 0-.56-.33-.56-.9 0-1.23a2.37 2.37 0 0 1 2.13 0Zm5.61-3.15c.56.34.56.9 0 1.23-.56.34-1.57.34-2.13 0-.56-.33-.56-.9 0-1.23a2.38 2.38 0 0 1 2.13 0Zm5.49-3.25c.57.33.57.9 0 1.23-.55.34-1.56.34-2.12 0-.56-.33-.56-.9 0-1.23a2.38 2.38 0 0 1 2.13 0Zm5.62-3.14c.56.33.56.9 0 1.23-.56.34-1.57.34-2.13 0-.57-.33-.57-.9 0-1.23a2.37 2.37 0 0 1 2.13 0Zm5.61-3.14c.56.33.56.9 0 1.23-.57.34-1.58.34-2.14 0-.56-.33-.56-.9 0-1.23a2.37 2.37 0 0 1 2.14 0Zm5.6-3.26c.56.34.56.9 0 1.24-.56.34-1.57.34-2.13 0-.56-.34-.56-.9 0-1.23a2.38 2.38 0 0 1 2.13 0Zm5.61-3.14c.56.34.56.9 0 1.24-.56.34-1.57.34-2.13 0-.56-.34-.56-.9 0-1.23a2.38 2.38 0 0 1 2.13 0Z"/>
  <path fill="#177C1B" d="M139.47 124a2.37 2.37 0 0 1 2.13 0c.56.33.56.89 0 1.22-.56.34-1.57.34-2.13 0-.56-.33-.56-.9 0-1.23Zm-3.47-3.26c.56.34.56.9 0 1.23-.57.34-1.57.34-2.14 0-.56-.33-.56-.9 0-1.23a2.38 2.38 0 0 1 2.13 0Zm5.6-3.14c.56.33.56.9 0 1.23-.56.34-1.57.34-2.13 0-.56-.33-.56-.9 0-1.23a2.38 2.38 0 0 1 2.13 0Zm5.61-3.14c.56.33.56.9 0 1.23-.56.34-1.57.34-2.13 0-.56-.33-.56-.9 0-1.23a2.37 2.37 0 0 1 2.13 0Zm5.61-3.26c.56.34.56.9 0 1.24-.56.34-1.57.34-2.13 0-.56-.34-.56-.9 0-1.23a2.37 2.37 0 0 1 2.13 0Zm5.61-3.14c.56.34.56.9 0 1.24-.56.34-1.57.34-2.13 0-.56-.34-.56-.9 0-1.23a2.38 2.38 0 0 1 2.13 0Zm5.5-3.14c.56.34.56.9 0 1.24-.57.34-1.58.34-2.14 0s-.56-.9 0-1.23a2.38 2.38 0 0 1 2.14 0Z"/>
  <path fill="#177C1B" d="M133.86 120.74a2.38 2.38 0 0 1 2.13 0c.57.34.57.9 0 1.23-.56.34-1.56.34-2.13 0-.56-.33-.56-.9 0-1.23Zm-3.36-3.14c.56.33.56.9 0 1.23-.56.34-1.57.34-2.13 0-.56-.33-.56-.9 0-1.23a2.38 2.38 0 0 1 2.13 0Zm5.6-3.25c.57.33.57.9 0 1.23-.55.34-1.56.34-2.12 0s-.56-.9 0-1.23a2.37 2.37 0 0 1 2.13 0Zm5.5-3.15c.56.34.56.9 0 1.24-.56.34-1.57.34-2.13 0-.56-.34-.56-.9 0-1.23a2.37 2.37 0 0 1 2.13 0Zm5.61-3.14c.56.34.56.9 0 1.24-.56.34-1.57.34-2.13 0-.56-.34-.56-.9 0-1.23a2.38 2.38 0 0 1 2.13 0Zm5.61-3.14c.56.34.56.9 0 1.24-.56.34-1.57.34-2.13 0-.56-.34-.56-.9 0-1.23a2.38 2.38 0 0 1 2.13 0Z"/>
  <path fill="#177C1B" d="M128.37 117.6a2.38 2.38 0 0 1 2.13 0c.56.33.56.9 0 1.23-.56.34-1.57.34-2.13 0-.56-.33-.56-.9 0-1.23Zm-3.47-3.25c.55.33.55.9 0 1.23-.57.34-1.58.34-2.14 0s-.56-.9 0-1.23a2.37 2.37 0 0 1 2.13 0Zm5.6-3.15c.56.34.56.9 0 1.24-.56.34-1.57.34-2.13 0-.56-.34-.56-.9 0-1.23a2.37 2.37 0 0 1 2.13 0Zm5.6-3.14c.57.34.57.9 0 1.24-.55.34-1.56.34-2.12 0s-.56-.9 0-1.23a2.38 2.38 0 0 1 2.13 0Zm5.62-3.25c.56.34.56.9 0 1.24-.56.33-1.57.33-2.13 0-.57-.34-.57-.9 0-1.24a2.38 2.38 0 0 1 2.13 0Z"/>
  <path fill="#177C1B" d="M122.76 114.35a2.37 2.37 0 0 1 2.13 0c.56.33.56.9 0 1.23-.56.34-1.57.34-2.13 0-.56-.34-.56-.9 0-1.23Zm-3.36-3.15c.55.34.55.9 0 1.24-.57.34-1.58.34-2.14 0s-.56-.9 0-1.23a2.37 2.37 0 0 1 2.13 0Zm5.6-3.25c.56.34.56.9 0 1.24-.56.33-1.57.33-2.13 0-.56-.34-.56-.9 0-1.24a2.38 2.38 0 0 1 2.13 0Zm5.61-3.14c.56.34.56.9 0 1.24-.56.33-1.57.33-2.13 0-.56-.34-.56-.9 0-1.24a2.38 2.38 0 0 1 2.13 0Zm5.49-3.14c.57.34.57.9 0 1.24a2.4 2.4 0 0 1-2.12 0c-.56-.34-.56-.9 0-1.24a2.38 2.38 0 0 1 2.13 0Zm5.62-3.14c.56.34.56.9 0 1.24-.56.33-1.57.33-2.13 0-.57-.34-.57-.9 0-1.24a1.86 1.86 0 0 1 2.13 0Z"/>
  <path fill="#177C1B" d="M117.26 111.2a2.37 2.37 0 0 1 2.13 0c.56.34.56.9 0 1.24-.56.34-1.57.34-2.13 0-.56-.34-.56-.9 0-1.23Zm-3.47-3.25c.56.34.56.9 0 1.24-.57.33-1.57.33-2.14 0-.56-.34-.56-.9 0-1.24a2.38 2.38 0 0 1 2.14 0Zm5.61-3.14c.55.34.55.9 0 1.24-.57.33-1.58.33-2.14 0-.56-.34-.56-.9 0-1.24a2.38 2.38 0 0 1 2.13 0Zm5.6-3.14c.56.34.56.9 0 1.24-.56.33-1.57.33-2.13 0-.56-.34-.56-.9 0-1.24a2.38 2.38 0 0 1 2.13 0Zm5.61-3.25c.56.34.56.9 0 1.23-.56.34-1.57.34-2.13 0-.56-.33-.56-.9 0-1.23a2.38 2.38 0 0 1 2.13 0Zm5.61-3.14c.56.34.56.9 0 1.23-.56.34-1.57.34-2.13 0-.56-.33-.56-.9 0-1.23a2.37 2.37 0 0 1 2.13 0Zm5.61-3.14c.56.34.56.9 0 1.23-.56.34-1.57.34-2.13 0-.56-.33-.56-.9 0-1.23a2.37 2.37 0 0 1 2.13 0Z"/>
  <path fill="#177C1B" d="M111.77 107.95a2.38 2.38 0 0 1 2.13 0c.56.34.56.9 0 1.24-.56.33-1.57.33-2.13 0-.68-.34-.68-.9 0-1.24Zm-3.48-3.14c.56.34.56.9 0 1.24-.56.33-1.57.33-2.13 0-.56-.34-.56-.9 0-1.24a2.38 2.38 0 0 1 2.13 0Zm5.61-3.25c.56.34.56.9 0 1.23-.56.34-1.57.34-2.13 0-.56-.33-.56-.9 0-1.23a2.37 2.37 0 0 1 2.13 0Zm5.6-3.14c.57.34.57.9 0 1.23-.55.34-1.56.34-2.12 0-.56-.33-.56-.9 0-1.23a2.37 2.37 0 0 1 2.13 0Zm5.5-3.14c.56.34.56.9 0 1.23-.56.34-1.57.34-2.13 0-.56-.33-.56-.9 0-1.23a2.37 2.37 0 0 1 2.13 0Zm5.61-3.25c.56.33.56.9 0 1.23-.56.34-1.57.34-2.13 0-.56-.33-.56-.9 0-1.23a2.37 2.37 0 0 1 2.13 0Zm5.61-3.14c.56.33.56.9 0 1.23-.56.34-1.57.34-2.13 0-.56-.34-.56-.9 0-1.23a2.38 2.38 0 0 1 2.13 0Zm5.61-3.14c.56.33.56.9 0 1.23-.56.34-1.57.34-2.13 0-.56-.34-.56-.9 0-1.23a2.38 2.38 0 0 1 2.13 0Z"/>
  <path fill="#177C1B" d="M106.16 104.81a2.38 2.38 0 0 1 2.13 0c.56.34.56.9 0 1.24-.56.33-1.57.33-2.13 0-.56-.45-.56-.9 0-1.24Zm-3.36-3.25c.56.34.56.9 0 1.23-.57.34-1.58.34-2.14 0-.56-.33-.56-.9 0-1.23a2.37 2.37 0 0 1 2.13 0Zm5.49-3.14c.56.34.56.9 0 1.23-.56.34-1.57.34-2.13 0-.56-.33-.56-.9 0-1.23a2.37 2.37 0 0 1 2.13 0Zm5.61-3.25c.56.33.56.9 0 1.23-.56.34-1.57.34-2.13 0-.56-.33-.56-.9 0-1.23a2.38 2.38 0 0 1 2.13 0Zm5.6-3.14c.57.33.57.9 0 1.23-.55.34-1.56.34-2.12 0-.56-.33-.56-.9 0-1.23a2.38 2.38 0 0 1 2.13 0Zm5.61-3.14c.57.33.57.9 0 1.23-.56.34-1.56.34-2.13 0-.56-.34-.56-.9 0-1.23a2.38 2.38 0 0 1 2.13 0Zm5.61-3.14c.56.33.56.9 0 1.23-.56.34-1.57.34-2.13 0-.56-.34-.56-.9 0-1.23a2.37 2.37 0 0 1 2.13 0Zm5.5-3.25c.56.33.56.9 0 1.23-.56.34-1.57.34-2.13 0-.56-.34-.56-.9 0-1.23a2.37 2.37 0 0 1 2.13 0Zm5.61-3.14c.56.33.56.9 0 1.23-.56.34-1.57.34-2.13 0-.56-.34-.56-.9 0-1.23a2.37 2.37 0 0 1 2.13 0Z"/>
  <path fill="#177C1B" d="M100.66 101.56a2.37 2.37 0 0 1 2.13 0c.56.34.56.9 0 1.23-.56.34-1.57.34-2.13 0-.67-.33-.67-.9 0-1.23Zm-3.47-3.26c.56.34.56.9 0 1.24-.57.34-1.57.34-2.14 0-.56-.33-.56-.9 0-1.23a2.38 2.38 0 0 1 2.14 0Zm5.61-3.13c.56.33.56.9 0 1.23-.57.34-1.58.34-2.14 0-.56-.33-.56-.9 0-1.23a2.38 2.38 0 0 1 2.13 0Zm5.6-3.14c.56.33.56.9 0 1.23-.56.34-1.57.34-2.13 0-.56-.33-.56-.9 0-1.23a2.37 2.37 0 0 1 2.13 0Zm5.61-3.14c.56.33.56.9 0 1.23-.56.34-1.57.34-2.13 0-.56-.34-.56-.9 0-1.23a2.37 2.37 0 0 1 2.13 0Zm5.49-3.25c.57.33.57.9 0 1.23-.55.34-1.56.34-2.12 0s-.56-.9 0-1.23a2.37 2.37 0 0 1 2.13 0Zm5.61-3.14c.57.33.57.9 0 1.23-.56.34-1.56.34-2.13 0-.56-.34-.56-.9 0-1.23a2.38 2.38 0 0 1 2.13 0Zm5.61-3.14c.56.33.56.9 0 1.23-.56.34-1.57.34-2.13 0-.56-.34-.56-.9 0-1.23a2.38 2.38 0 0 1 2.13 0Zm5.61-3.26c.56.34.56.9 0 1.24-.56.33-1.57.33-2.13 0-.56-.34-.56-.9 0-1.24a2.38 2.38 0 0 1 2.13 0Z"/>
  <path fill="#177C1B" d="M95.05 98.3a2.38 2.38 0 0 1 2.14 0c.56.34.56.9 0 1.24-.57.34-1.57.34-2.14 0-.56-.33-.56-.9 0-1.23Zm-3.36-3.13c.56.33.56.9 0 1.23-.56.34-1.57.34-2.13 0-.56-.33-.56-.9 0-1.23a2.37 2.37 0 0 1 2.13 0Zm5.5-3.14c.56.33.56.9 0 1.23-.57.34-1.57.34-2.14 0-.56-.33-.56-.9 0-1.23a2.37 2.37 0 0 1 2.14 0Zm5.61-3.25c.56.33.56.9 0 1.23-.57.34-1.58.34-2.14 0s-.56-.9 0-1.23a2.37 2.37 0 0 1 2.13 0Zm5.6-3.14c.56.33.56.9 0 1.23-.56.34-1.57.34-2.13 0-.56-.34-.56-.9 0-1.23a2.38 2.38 0 0 1 2.13 0Zm5.61-3.14c.56.33.56.9 0 1.23-.56.34-1.57.34-2.13 0-.56-.34-.56-.9 0-1.23a2.38 2.38 0 0 1 2.13 0Zm5.61-3.26c.56.34.56.9 0 1.24-.56.33-1.57.33-2.13 0-.56-.34-.56-.9 0-1.24a2.37 2.37 0 0 1 2.13 0Zm5.49-3.14c.57.34.57.9 0 1.24-.56.33-1.56.33-2.13 0-.56-.34-.56-.9 0-1.24a2.37 2.37 0 0 1 2.13 0Zm5.61-3.14c.56.34.56.9 0 1.24-.56.33-1.57.33-2.13 0-.56-.34-.56-.9 0-1.24a2.37 2.37 0 0 1 2.13 0Z"/>
  <path fill="#177C1B" d="M89.56 95.17a2.38 2.38 0 0 1 2.13 0c.56.33.56.9 0 1.23-.56.34-1.57.34-2.13 0-.67-.33-.67-.9 0-1.23Zm-3.48-3.25c.56.33.56.9 0 1.23-.56.34-1.57.34-2.13 0-.56-.34-.56-.9 0-1.23a2.38 2.38 0 0 1 2.13 0Zm5.61-3.14c.56.33.56.9 0 1.23-.56.34-1.57.34-2.13 0-.56-.34-.56-.9 0-1.23a2.38 2.38 0 0 1 2.13 0Zm5.61-3.14c.56.33.56.9 0 1.23-.56.34-1.57.34-2.13 0-.56-.34-.56-.9 0-1.23a2.38 2.38 0 0 1 2.13 0Zm5.6-3.26c.57.34.57.9 0 1.24-.56.33-1.56.33-2.13 0-.56-.34-.56-.9 0-1.24a2.37 2.37 0 0 1 2.14 0Zm5.5-3.14c.56.34.56.9 0 1.24-.56.33-1.57.33-2.13 0-.56-.34-.56-.9 0-1.24a2.37 2.37 0 0 1 2.13 0Zm5.61-3.14c.56.34.56.9 0 1.24-.56.33-1.57.33-2.13 0-.56-.34-.56-.9 0-1.24a2.37 2.37 0 0 1 2.13 0Zm5.61-3.14c.56.34.56.9 0 1.24-.56.33-1.57.33-2.13 0-.56-.34-.56-.9 0-1.24a2.38 2.38 0 0 1 2.13 0Zm5.61-3.25c.56.34.56.9 0 1.23-.56.34-1.57.34-2.13 0-.56-.33-.56-.9 0-1.23a2.38 2.38 0 0 1 2.13 0Zm5.61-3.14c.56.34.56.9 0 1.23-.56.34-1.57.34-2.13 0-.57-.33-.57-.9 0-1.23a2.37 2.37 0 0 1 2.13 0Z"/>
  <path fill="#177C1B" d="M83.95 91.92a2.38 2.38 0 0 1 2.13 0c.56.33.56.9 0 1.23-.56.34-1.57.34-2.13 0-.56-.34-.56-.9 0-1.23Zm-3.37-3.14c.57.33.57.9 0 1.23-.56.34-1.57.34-2.13 0-.56-.34-.56-.9 0-1.23a2.37 2.37 0 0 1 2.13 0Zm5.5-3.26c.56.34.56.9 0 1.24-.56.33-1.57.33-2.13 0-.56-.34-.56-.9 0-1.24a2.37 2.37 0 0 1 2.13 0Zm5.61-3.14c.56.34.56.9 0 1.24-.56.33-1.57.33-2.13 0-.56-.34-.56-.9 0-1.24a2.37 2.37 0 0 1 2.13 0Zm5.61-3.14c.56.34.56.9 0 1.24-.56.33-1.57.33-2.13 0-.56-.34-.56-.9 0-1.24a2.38 2.38 0 0 1 2.13 0Zm5.6-3.14c.57.34.57.9 0 1.24-.56.33-1.56.33-2.13 0-.56-.34-.56-.9 0-1.24a2.38 2.38 0 0 1 2.14 0Zm5.62-3.25c.56.34.56.9 0 1.23-.57.34-1.58.34-2.14 0-.56-.33-.56-.9 0-1.23a2.38 2.38 0 0 1 2.14 0Zm5.6-3.14c.56.34.56.9 0 1.23-.56.34-1.57.34-2.13 0-.56-.33-.56-.9 0-1.23a2.37 2.37 0 0 1 2.13 0Zm5.5-3.14c.56.34.56.9 0 1.23-.56.34-1.57.34-2.13 0-.56-.33-.56-.9 0-1.23a2.37 2.37 0 0 1 2.13 0Zm5.61-3.25c.56.33.56.9 0 1.23-.56.34-1.57.34-2.13 0-.56-.33-.56-.9 0-1.23a2.38 2.38 0 0 1 2.13 0Z"/>
  <path fill="#177C1B" d="M78.45 88.78a2.38 2.38 0 0 1 2.13 0c.57.33.57.9 0 1.23-.56.34-1.57.34-2.13 0-.56-.34-.56-.9 0-1.23ZM200.5 159.2a2.37 2.37 0 0 1 2.12 0c.56.34.56.9 0 1.24-.56.34-1.57.34-2.13 0-.56-.34-.56-.9 0-1.23Zm-5.62-3.25a2.38 2.38 0 0 1 2.13 0c.56.34.56.9 0 1.24-.56.33-1.57.33-2.13 0-.56-.34-.56-.9 0-1.24Zm-5.49-3.14a2.38 2.38 0 0 1 2.13 0c.56.34.56.9 0 1.24-.56.33-1.57.33-2.13 0-.56-.34-.56-.9 0-1.24Zm-5.61-3.25a2.37 2.37 0 0 1 2.13 0c.56.34.56.9 0 1.23-.56.34-1.57.34-2.13 0-.56-.33-.56-.9 0-1.23Zm-5.5-3.26a2.38 2.38 0 0 1 2.13 0c.56.34.56.9 0 1.24-.56.34-1.57.34-2.13 0-.67-.33-.67-.9 0-1.23Zm-5.61-3.13a2.38 2.38 0 0 1 2.14 0c.56.34.56.9 0 1.23-.57.34-1.58.34-2.14 0-.56-.33-.56-.9 0-1.23Zm-5.49-3.25a2.37 2.37 0 0 1 2.13 0c.56.33.56.9 0 1.23-.56.34-1.57.34-2.13 0-.68-.34-.68-.9 0-1.23Z"/>
  <path fill="#177C1B" d="M162.35 55.92a1.45 1.45 0 0 0-.67-.23l-41.84-24.22-1.23-.68c-2.36-1.23-3.48-1.9-5.72-.67L36.28 74.76c-1.24.67-2.13 2.13-2.58 3.59l-5.16 28.26-12.45 13.12-.11.11s0 .11-.12.11a6.65 6.65 0 0 0-1.34 3.93l-.11 26.58 45.98 26.58.9.56.45-.23 6.4-3.36a6.02 6.02 0 0 0 2.01 3.03l6.4 3.47c.33.23.67.45 1.12.56.45.12 1 .23 1.46.23 1.57 0 3.14-.67 4.7-2.02 3.7-3.25 6.06-9.76 5.62-14.8l1 .56s.12 0 .12.11l.45.45c.56.34 1.23.34 1.8 0l38.13-22.2v.1l6.17 3.37h.1c.34.22.8.45 1.24.67.45.11 1.01.23 1.46.23 1.57 0 3.14-.68 4.71-2.02 4.04-3.6 6.5-10.77 5.38-16.04 0-.11-.1-.22-.1-.34l.33.12c.11.22.34.33.56.44.56.23 1.12.23 1.8-.22l8.18-4.71a5.34 5.34 0 0 0 2.58-4.37v-62.8c0-.9-.33-1.58-1-1.91Z"/>
  <path fill="#177C1B" fill-rule="evenodd" d="m118.53 30.33.25.13 1.25.68 41.76 24.18c.27.03.52.16.7.25l.03.01c.84.42 1.22 1.25 1.22 2.24v62.8c0 .93-.3 1.89-.8 2.72a5.34 5.34 0 0 1-1.97 1.99l-8.18 4.7a2.4 2.4 0 0 1-1.1.42c-.37.03-.7-.04-1.03-.17h-.01l-.02-.01-.03-.01-.11-.06c.42 2.59.05 5.53-.88 8.28a17.9 17.9 0 0 1-4.73 7.55c-1.62 1.39-3.28 2.11-4.96 2.11-.5 0-1.1-.12-1.55-.23l-.04-.01-.05-.03c-.4-.2-.82-.41-1.16-.63h-.1l-6.17-3.36L93 165.92c-.68.4-1.5.4-2.18 0l-.04-.02-.16-.17h-.01v-.01l-.01-.01h-.01v-.02h-.01l-.01-.01-.1-.1-.13-.13-.11-.11-.37-.2c.1 2.41-.39 5.08-1.31 7.54a17.3 17.3 0 0 1-4.47 6.88c-1.62 1.39-3.27 2.11-4.95 2.11-.5 0-1.1-.12-1.55-.23a3.8 3.8 0 0 1-1.23-.6l-6.4-3.49-.02-.01a6.16 6.16 0 0 1-2-2.8l-6.01 3.17h-.01l-.64.32-1.06-.67h-.01l-46.17-26.69.11-26.8c0-1.42.48-2.85 1.42-4.14l.11-.15h.04l.11-.11 12.37-13.04 5.14-28.17.01-.02c.46-1.5 1.4-3.07 2.75-3.8l76.62-44.65a4.33 4.33 0 0 1 3.07-.63c.85.17 1.71.62 2.75 1.17Zm12.8 112.95 5.88 3.21h.13l.1.07c.3.2.71.4 1.15.63.44.1.94.2 1.33.2 1.46 0 2.94-.62 4.47-1.92a17.15 17.15 0 0 0 4.51-7.23c.97-2.86 1.3-5.9.75-8.45l-.01-.04v-.01l-.02-.03a.96.96 0 0 1-.05-.12.6.6 0 0 1-.04-.22v-.52l.98.33.06.14c.05.09.15.15.38.27.24.1.45.13.67.11.22-.02.47-.1.77-.3l8.22-4.73a4.58 4.58 0 0 0 1.69-1.71c.43-.74.69-1.57.69-2.33v-62.8c0-.8-.3-1.32-.8-1.58-.25-.12-.4-.18-.5-.18h-.11L119.66 31.8l-1.22-.67-.22-.11a10.34 10.34 0 0 0-2.59-1.12c-.74-.15-1.5-.04-2.56.55L36.46 75.09c-1.1.6-1.96 1.94-2.4 3.35l-5.17 28.34L16.35 120l-.04.05-.01.02a.48.48 0 0 1-.2.21 6.24 6.24 0 0 0-1.2 3.6v.01l-.12 26.36 45.81 26.48.72.45.26-.13 6.78-3.57.14.42a5.68 5.68 0 0 0 1.87 2.83l6.38 3.47.01.01c.35.23.63.42 1 .51.45.11.98.21 1.38.21 1.45 0 2.94-.62 4.46-1.92a16.57 16.57 0 0 0 4.26-6.58 18.63 18.63 0 0 0 1.22-7.91l-.06-.7 1.57.87c.03 0 .06.02.1.04a.47.47 0 0 1 .22.24l.06.06h.01v.01H91v.02l.02.02.09.09v.01l.14.13c.43.24.94.23 1.37-.02l38.7-22.54v.54Z" clip-rule="evenodd"/>
  <path fill="#F6A01D" d="m151.03 129.04-19.3-11 21.54-10.76-1.12 14.58-1.13 7.18Z"/>
  <path fill="#177C1B" d="m150.58 129.49-20.3-11.44 23.77-11.9-1.23 15.71-1.01 7.18c-.11.45-.67.78-1.23.45Zm-17.39-11.33 17.39 9.87.9-6.28 1.12-13.35-19.4 9.76Z"/>
  <path fill="#F6A01D" d="M140.26 121.75c-1.69-.67-3.7-.23-5.84 1.57-3.92 3.47-6.16 10.32-5.16 15.47.45 2.14 1.35 3.48 2.58 4.27l6.73 3.59 8.53-21.2-6.84-3.7Z"/>
  <path fill="#177C1B" d="M139.58 145.86a1.73 1.73 0 0 1-2.35.9l-6.17-3.37v-.11c-1.24-.9-2.02-2.47-2.36-4.37-1.12-5.27 1.35-12.45 5.39-16.04 1.9-1.68 4.04-2.36 5.83-1.9v-.12l.67.34 6.5 3.47c.46.23.68.79.46 1.24l-7.97 19.96Zm-6.95-3.14 5.6 3.03 7.97-19.97-6.17-3.36c-1.46-.67-3.25-.11-5.04 1.46-3.7 3.25-5.95 9.87-4.94 14.8.34 1.8 1.12 3.14 2.24 3.81l.34.23Z"/>
  <path fill="#177C1B" d="M150.13 129.49c-.56-2.7-1.91-4.6-3.82-5.16-1.9-.68-4.15 0-6.17 1.8-4.03 3.58-6.5 10.76-5.38 16.03.56 2.69 1.9 4.6 3.81 5.16a6.7 6.7 0 0 0 1.46.22c1.57 0 3.14-.67 4.71-2.02 4.04-3.47 6.4-10.65 5.39-16.03Z"/>
  <path fill="#F6A01D" d="m91.58 164.81-19.3-10.88 21.54-10.87-1.12 14.57-1.12 7.18Z"/>
  <path fill="#177C1B" d="m90.46 165.04-19.63-11.1 23.78-11.9-1.24 15.7-.9 6.4c-.22.79-1.23 1.35-2.01.9Zm-16.83-11.1 17.39 9.86.9-6.28 1.12-13.34-19.41 9.75Z"/>
  <path fill="#F6A01D" d="M79.46 155.5c-1.68-.67-3.7-.22-5.83 1.57-3.93 3.48-6.17 10.32-5.16 15.48.45 2.13 1.35 3.48 2.58 4.26l6.73 3.6 8.41-21.32-6.73-3.59Z"/>
  <path fill="#177C1B" d="M78.68 179.73c-.34.78-1.35 1.23-2.13.78l-6.4-3.47c-1.23-.9-2.02-2.58-2.35-4.49-1.12-5.27 1.34-12.45 5.38-16.04 1.9-1.68 4.04-2.35 5.83-1.9v-.12l.68.34 6.05 3.25c.68.34 1.01 1.24.68 2.02l-7.74 19.63Zm-6.96-3.37 5.61 3.03 7.97-19.96-6.17-3.37c-1.46-.67-3.26-.1-5.05 1.46-3.7 3.26-5.95 9.87-4.94 14.8.34 1.8 1.13 3.15 2.25 3.82l.33.22Z"/>
  <path fill="#177C1B" d="M89.22 163.24c-.56-2.69-1.9-4.6-3.81-5.16-1.9-.67-4.15 0-6.17 1.8-4.04 3.59-6.5 10.77-5.39 16.04.57 2.69 1.91 4.6 3.82 5.16.45.1 1 .22 1.46.22 1.57 0 3.14-.67 4.7-2.02 4.05-3.59 6.51-10.77 5.4-16.04Z"/>
  <path fill="#F6A01D" d="m113.11 99.54 48.35-43.18-42.07-24.22-1.23-.67c-2.24-1.24-3.14-1.69-4.94-.68l-76.5 44.64c-1 .56-1.9 1.8-2.12 3.03l-5.16 28.6-12.9 13.34c-.9 1.12 1.12 3.03 1.12 4.26l1.23 14.13 1.24 4.72-1.57 1.45.22 2.02 6.06-2.13.11-4.15c.45-3.25 1.57-9.42 6.4-12.45 8.74-5.5 9.2 7.97 9.42 10.66.1.78.67 1.12 1.45.67l10.1-5.6 1.12 1.34 21.87-1.57 34.66-31.3 3.14-1.79v-1.12Z"/>
  <path fill="#FDEDCC" d="m113.34 102.57 46.32-42.06-41.95-24.33-1.23-.68c-2.25-1.23-3.14-1.68-4.94-.67L40.1 76.66a5.05 5.05 0 0 0-2.13 3.03l-5.16 28.6-16.04 15.03c-.9 1.12 1.12 3.03 1.12 4.26l1.35 14.24 1.23 4.71L18.9 148l.23 2.02 6.05-2.13.12-4.15c.44-3.25 1.57-9.42 6.39-12.45 8.75-5.5 9.2 7.96 9.42 10.65.11.79.67 1.13 1.46.68l10.1-5.61 1.12 1.35 21.76-1.69 34.66-31.29 3.14-1.8v-1Z"/>
  <path fill="#177C1B" d="m18.1 148-.33-3.37 1.57-1.46-1.12-4.26-1.35-14.36c0-.33-.33-.9-.56-1.34-.56-1.01-1.23-2.36-.45-3.37l12.68-13.12 5.16-28.37a5.43 5.43 0 0 1 2.58-3.6l76.6-44.74c2.14-1.12 3.37-.56 5.73.67l1.23.68 42.96 24.9-48.79 43.62v1.23l-3.59 2.02-34.77 31.29-22.55 1.68-1-1.12-9.54 5.38c-.56.34-1.23.45-1.8.12-.44-.23-.78-.79-.9-1.46l-.1-.67c-.23-2.47-.68-8.86-3.6-10.32-1.12-.56-2.69-.34-4.6.9-4.25 2.69-5.49 7.73-6.05 11.88v4.6l-7.4 2.58Zm1.24-2.81.11.67 4.6-1.57v-3.59c.34-2.7 1.35-9.76 6.73-13.12 2.36-1.46 4.38-1.8 6.06-.9 3.7 1.9 4.26 8.64 4.49 11.55v.68c0 .1.1.22.1.22s.12 0 .23-.11l10.66-5.95 1.34 1.46 21.32-1.57 34.43-31.06 2.92-1.69v-1l47.78-42.62-42.29-24.45c-2.13-1.23-2.69-1.46-4.15-.67L37.07 76.1a4.36 4.36 0 0 0-1.8 2.58L30 107.5l-12.9 13.46c-.23.23.22 1.01.56 1.69.34.67.67 1.34.67 2.01l1.35 14.13 1.34 4.94-1.68 1.46Z"/>
  <path fill="#F6A01D" d="m15.2 150 46.1 26.59 14.24-43.07-11.22-6.39-34.77-20.19-12.9 13.24a6.18 6.18 0 0 0-1.46 3.7V150Z"/>
  <path fill="#FDEDCC" d="m17.43 151.58 43.64 25.12 12-40.82-43.63-25.12-10.55 11.1a6.17 6.17 0 0 0-1.46 3.7v26.02Z"/>
  <path fill="#177C1B" d="m60.73 177.15-46.32-26.7.1-26.57c0-1.35.57-2.92 1.58-4.15l13.23-13.8 35.34 20.53 11.77 6.61-15.7 44.08Zm-44.87-27.59 44.87 25.9 13.8-41.6-10.66-6.06-34.32-19.85-12.34 12.79a5.8 5.8 0 0 0-1.23 3.14l-.12 25.68Z"/>
  <path fill="#F6A01D" d="M75.54 90.46 54.23 78.12c-1.13-.67-1.01-1.8.33-2.47l7.74-4.48a5.04 5.04 0 0 1 4.38-.23l21.3 12.34c1.13.67 1.02 1.8-.33 2.47l-7.74 4.48a5.03 5.03 0 0 1-4.37.23Z"/>
  <path fill="#177C1B" d="M77.44 91.58c-.9 0-1.68-.22-2.24-.56L53.9 78.68c-.67-.45-1.12-1-1.12-1.8 0-.78.56-1.56 1.46-2.12l7.74-4.49c1.57-.9 3.8-1 5.15-.22l21.32 12.33c.67.45 1.12 1.01 1.12 1.8 0 .78-.56 1.57-1.46 2.13l-7.74 4.48c-.9.57-1.9.79-2.92.79ZM76 89.78c.9.45 2.58.45 3.59-.22l7.73-4.49c.45-.22.68-.56.68-.78 0-.22-.23-.34-.34-.45L66.34 71.5c-.9-.56-2.58-.44-3.59.23l-7.74 4.48c-.45.34-.67.57-.67.79 0 .22.22.34.33.45L76 89.78Z"/>
  <path fill="#FDEDCC" d="m69.93 84.74-5.05-2.92c-.22-.11-.22-.45.11-.56l1.8-1c.33-.23.78-.23 1 0l5.05 2.9c.23.12.23.46-.1.57l-1.8 1c-.34.12-.79.12-1.01 0Z"/>
  <path fill="#177C1B" d="M69.6 83.73a1.6 1.6 0 0 1-.8-.23l-5.04-2.91c-.34-.23-.56-.45-.56-.79 0-.33.22-.67.56-.9l1.8-1c.55-.34 1.23-.34 1.68 0l5.04 2.91c.34.23.56.45.56.79 0 .33-.22.67-.56.9l-1.8 1c-.22.12-.55.23-.89.23Zm-.12-1.35h.34l1.34-.78-4.48-2.58h-.34l-1.35.78 4.49 2.58Z"/>
  <path fill="#F6A01D" d="m56.8 153.37-3.47-2.02c-.34-.1-.56-.22-.79 0-.22.12-.45.45-.45.9v6.5c0 .68.45 1.47.9 1.8l3.48 2.02c.11.11.33.11.45.11.1 0 .22 0 .33-.11.23-.11.45-.45.45-.9v-6.5c0-.79-.45-1.57-.9-1.8Z"/>
  <path fill="#177C1B" d="M56.92 163.24c-.23 0-.56-.1-.79-.22L52.65 161c-.78-.45-1.23-1.46-1.23-2.35v-6.51c0-.67.23-1.23.79-1.46a1.67 1.67 0 0 1 1.45 0l3.48 2.02c.79.45 1.24 1.46 1.24 2.36v6.5c0 .67-.23 1.23-.79 1.46-.22.22-.45.22-.67.22Zm-3.93-11.32c-.11 0-.11.1-.11.22v6.5c0 .45.34 1.01.56 1.24l3.48 2.02c.1 0 .22-.12.22-.23v-6.5c0-.45-.34-1.01-.56-1.24L53 151.92Z"/>
  <path fill="#F6A01D" d="M57.14 166.16 53 163.8c-.22-.1-.45-.1-.56 0a.62.62 0 0 0-.34.56v.79c0 .45.23.9.56 1.12l4.15 2.36c.12.1.23.1.34.1.11 0 .23 0 .23-.1a.62.62 0 0 0 .33-.56v-.79c0-.45-.22-.9-.56-1.12Z"/>
  <path fill="#177C1B" d="M57.14 169.41a1.6 1.6 0 0 1-.67-.22l-4.15-2.36a1.98 1.98 0 0 1-.9-1.68v-.79c0-.56.23-1 .67-1.23.34-.22.79-.22 1.24 0l4.15 2.36c.56.33.9 1 .9 1.68v.78c0 .56-.23 1.01-.68 1.24-.11.22-.33.22-.56.22Zm-4.49-5.05.12.79c0 .22.1.45.22.56l4.15 2.35-.11-.78a.86.86 0 0 0-.23-.56l-4.15-2.36Z"/>
  <path fill="#F6A01D" d="M22.48 133.86 19 131.84c-.33-.11-.56-.22-.78 0-.23.11-.45.45-.45.9v6.5c0 .68.45 1.46.9 1.8l3.47 2.02c.12.1.34.1.45.1.12 0 .23 0 .34-.1.22-.12.45-.45.45-.9v-6.62c.11-.67-.34-1.46-.9-1.68Z"/>
  <path fill="#177C1B" d="M22.7 143.73c-.22 0-.55-.11-.78-.22l-3.48-2.02c-.78-.45-1.23-1.46-1.23-2.36v-6.5c0-.68.22-1.24.79-1.46.44-.23 1-.23 1.45 0l3.48 2.02c.79.45 1.23 1.46 1.23 2.35v6.5c0 .68-.22 1.24-.78 1.47-.23.22-.45.22-.67.22Zm-4.03-11.33c-.11 0-.11.11-.11.23v6.5c0 .45.33 1.01.56 1.24l3.47 2.01c.12 0 .23-.1.23-.22v-6.62c0-.45-.34-1-.56-1.23l-3.6-1.9c.12 0 0 0 0 0Z"/>
  <path fill="#F6A01D" d="m22.82 146.65-4.15-2.36c-.23-.11-.45-.11-.56 0a.62.62 0 0 0-.34.56v.78c0 .45.22.9.56 1.13l4.15 2.35c.11.11.23.11.34.11.11 0 .22 0 .22-.1a.62.62 0 0 0 .34-.57v-.78c.11-.45-.23-1.01-.56-1.13Z"/>
  <path fill="#177C1B" d="M22.93 149.9c-.22 0-.45-.12-.67-.23l-4.15-2.35a1.98 1.98 0 0 1-.9-1.69v-.78c0-.56.22-1 .67-1.23.34-.23.79-.23 1.24 0l4.15 2.35c.56.34.9 1.01.9 1.68v.79c0 .56-.23 1-.68 1.23-.22.12-.34.23-.56.23Zm-4.49-5.05.12.78c0 .23.1.45.22.57l4.15 2.35-.11-.78a.85.85 0 0 0-.23-.56l-4.15-2.36Z"/>
  <path fill="#F6A01D" d="m48.28 148-20.53-11.9a1.12 1.12 0 0 0-1-.1c-.34.22-.57.66-.57 1.11V149c0 .9.56 1.9 1.24 2.35l20.41 11.78c.23.11.45.22.56.22.11 0 .34 0 .45-.1.34-.23.56-.68.56-1.13v-11.77c.11-1.01-.45-2.02-1.12-2.36Z"/>
  <path fill="#FDEDCC" d="m41.1 153.6-4.71-2.7h-.22c-.12 0-.12.12-.12.23v2.7c0 .22.12.44.34.55l4.71 2.7h.23c.1 0 .1-.12.1-.23v-2.7a2.1 2.1 0 0 0-.33-.55Z"/>
  <path fill="#177C1B" d="M39.87 155.62c-.11 0-.34 0-.45-.12l-4.71-2.69c-.34-.22-.67-.67-.67-1.12V149c0-.34.1-.67.44-.9.34-.1.68-.1.9 0l4.71 2.7c.34.22.68.67.68 1.12v2.69c0 .33-.23.67-.45.9l-.12.1h-.33Zm-4.49-5.95v2.02l3.93 2.24v-1.9l-3.93-2.36Z"/>
  <path fill="#177C1B" d="M48.5 163.92a2.1 2.1 0 0 1-.9-.23l-20.4-11.77a3.66 3.66 0 0 1-1.58-2.92v-11.78c0-.78.34-1.45.9-1.68.56-.33 1.12-.22 1.68 0l20.42 11.78c.9.56 1.57 1.8 1.57 2.91v11.78c0 .78-.34 1.46-.9 1.68-.22.23-.56.23-.78.23Zm-21.3-27.26h-.12a.86.86 0 0 0-.22.56V149c0 .67.45 1.46.9 1.8l20.4 11.77c.12.11.23.11.23.11a.62.62 0 0 0 .34-.56v-11.77c0-.68-.45-1.46-.9-1.8l-20.41-11.77c0-.12-.11-.12-.23-.12Zm135.15-80.74a2.3 2.3 0 0 0-2.24.1l-77.62 45.32c-1.23.67-2.13 2.13-2.58 3.58l-5.16 28.38-12.67 13.12a6.84 6.84 0 0 0-1.57 4.15l-.12 26.47.9.56.45-.23 9.76-5.04a2.13 2.13 0 0 0 1.12-1.8l.45-3.03c.45-3.14 2.47-9.2 7.07-12.1 2.35-1.47 4.48-1.8 6.17-.8 2.8 1.69 4.15 6.74 4.03 8.98v.34a1.8 1.8 0 0 0 2.7 1.57l39.48-22.88c.45-.34.78-.79.9-1.35l.1-2.13v-1.12c-.1-4.6 1.35-13.35 7.3-16.71 2.35-1.35 4.26-1.68 5.6-1.01 2.47 1.23 3.15 5.38 3.48 7.4.12.34.12.67.12.9.1.56.44 1 .9 1.23.55.23 1.12.23 1.79-.22l8.19-4.71a5.34 5.34 0 0 0 2.57-4.38V57.82c-.1-.9-.44-1.57-1.12-1.9Z"/>
  <path fill="#F6A01D" d="m53.55 94.27-14.24-8.19c-.45-.22-.9-.22-1.35-.1-.45.22-.78.55-.78 1l-2.7 14.7c-.22 1 .34 2.01 1.24 2.57l13.68 7.97c.23.1.56.22.79.22.22 0 .45 0 .67-.11.45-.23.79-.68.9-1.12l2.91-14.58a2.34 2.34 0 0 0-1.12-2.36Z"/>
  <path fill="#177C1B" d="M50.19 113.11a1.9 1.9 0 0 1-1.12-.33l-13.69-7.97c-1.12-.67-1.8-2.02-1.46-3.25l2.7-14.7c.1-.66.56-1.22 1.23-1.56a1.92 1.92 0 0 1 1.9.11L54 93.6a2.94 2.94 0 0 1 1.46 3.03l-2.92 14.58c-.11.78-.67 1.34-1.34 1.68-.45.22-.79.22-1.01.22ZM38.63 86.53c-.1 0-.22 0-.33.11-.23.12-.45.34-.45.57l-2.7 14.69a1.9 1.9 0 0 0 .9 1.9l13.69 7.97c.22.1.56.22.9 0 .22-.12.44-.34.56-.68l2.91-14.58a1.67 1.67 0 0 0-.78-1.68l-14.25-8.19c-.22-.1-.33-.1-.45-.1Z"/>
  <path fill="#F6A01D" d="m74.53 106.5-14.25-8.2c-.45-.22-.9-.22-1.34-.1-.45.22-.79.56-.79 1l-2.69 14.7c-.22 1 .34 2.02 1.23 2.58l13.69 7.96c.22.11.56.22.78.22.23 0 .45 0 .68-.1.44-.23.78-.68.9-1.13l2.91-14.58c.11-.9-.34-1.9-1.12-2.35Z"/>
  <path fill="#177C1B" d="M71.16 125.34a1.9 1.9 0 0 1-1.12-.34l-13.68-7.96c-1.13-.68-1.8-2.02-1.46-3.26l2.69-14.69c.11-.67.56-1.23 1.23-1.57a1.92 1.92 0 0 1 1.91.12l14.25 8.18a2.94 2.94 0 0 1 1.45 3.03l-2.91 14.58a2.07 2.07 0 0 1-1.35 1.68c-.33.23-.67.23-1 .23ZM59.61 98.76c-.11 0-.22 0-.34.1-.22.12-.45.35-.45.57l-2.69 14.7a1.9 1.9 0 0 0 .9 1.9l13.68 7.96c.23.11.56.23.9 0 .34-.11.45-.34.56-.67l2.92-14.58a1.67 1.67 0 0 0-.79-1.68l-14.24-8.2c-.23 0-.34-.1-.45-.1Z"/>
  <path fill="#F6A01D" d="M82.83 130.83c-.34 0-.68-.11-1.01-.34-.67-.56-.9-1.56-.56-2.69l3.7-19.29a5.74 5.74 0 0 1 2.47-3.47l2.58-1.57c.67-.34 1.34-.45 1.9-.11.56.33.79.9.79 1.68v16.93a6.67 6.67 0 0 1-3.14 5.39l-5.61 3.14c-.34.22-.79.33-1.12.33Zm3.36-22.1-3.7 19.3c-.22.78-.11 1.23.11 1.34.12.12.45.12.79-.1l5.5-3.26a5.48 5.48 0 0 0 2.46-4.26v-16.83c0-.22-.11-.44-.11-.44-.11 0-.22 0-.45.1l-2.58 1.58a3.89 3.89 0 0 0-2.02 2.58Zm11.89 46.21a2.31 2.31 0 0 1-2.24-2.24v-49.68c0-1.23.67-2.36 1.8-3.03l11.55-6.5a1.72 1.72 0 0 1 1.8 0c.55.33.89.9.89 1.57v50.24c0 1.34-.67 2.47-1.8 3.14l-10.88 6.28c-.33.11-.67.22-1.12.22Zm12-60.44c-.1 0-.1 0-.22.1l-11.55 6.51a2.13 2.13 0 0 0-1.13 1.8v49.8c0 .33.12.66.45.78.34.1.68.1.9 0l10.88-6.28a2.36 2.36 0 0 0 1.12-2.02V95.06c0-.23-.22-.45-.22-.45s-.11-.11-.23-.11Z"/>
  <path fill="#F6A01D" d="M99.77 132.06c-.23 0-.45 0-.57-.1-.44-.23-.67-.68-.67-1.35v-1.8c0-.9.56-1.9 1.24-2.35l4.7-2.8c.45-.23.9-.23 1.24 0 .45.22.67.78.67 1.34v1.8c0 .9-.56 1.9-1.23 2.35l-4.71 2.8c-.11 0-.45.12-.67.12Zm5.38-7.28-4.71 2.69c-.23.1-.56.67-.56 1.23v2.02l4.7-2.8c.23-.12.57-.68.57-1.24v-1.9c.11.1.11.1 0 0Zm-24.9 51.81c-.34 0-.68 0-.9-.11-1.23-.45-2.02-1.57-2.36-3.14-.67-3.14.79-7.3 3.15-9.42 1.23-1.13 2.58-1.46 3.8-1.13 1.24.45 2.03 1.57 2.36 3.15.68 3.13-.78 7.28-3.14 9.41a5 5 0 0 1-2.91 1.24Zm2.69-12.79c-.56 0-1.35.34-2.02.9-2.02 1.8-3.25 5.5-2.8 8.19.22 1.12.78 1.9 1.45 2.13.79.22 1.57 0 2.47-.79 2.02-1.8 3.25-5.5 2.8-8.18-.22-1.13-.78-1.91-1.45-2.25-.11.12-.23 0-.45 0Zm58.22-20.86c-.34 0-.68 0-.9-.1-1.24-.46-2.02-1.58-2.36-3.15-.67-3.14.79-7.29 3.14-9.42 1.24-1.12 2.58-1.46 3.82-1.12 1.23.45 2.01 1.57 2.35 3.14.67 3.14-.78 7.29-3.14 9.42a5 5 0 0 1-2.91 1.23Zm2.69-12.78c-.56 0-1.35.34-2.02.9-2.02 1.79-3.26 5.5-2.8 8.18.22 1.12.78 1.9 1.45 2.25.79.22 1.57 0 2.47-.79 2.02-1.8 3.25-5.5 2.8-8.19-.22-1.12-.78-1.9-1.46-2.24 0 0-.22-.11-.44-.11Z"/>
  <path fill="#FDEDCC" d="m213.05 108.06-28.6-16.6-28.6 16.6v32.98l28.6 16.48v-32.86l28.6-16.6Z"/>
  <path fill="#F6A01D" d="m155.85 140.93 28.6 16.48v-32.86l-28.6-16.6v32.98Z"/>
  <path fill="#177C1B" d="M213.62 107.73 184.44 90.9l-29.05 16.82h-.11v33.64l28.6 16.49.56.34.56-.34 28.27-16.37.34-.12v-33.64Zm-29.17-15.59 13.46 7.74-27.48 15.81-13.46-7.74 27.48-15.81Zm-.56 64.37-27.48-15.8v-31.75l27.48 15.82v31.73Zm12.23-39.36-11.67 6.73-13.46-7.74 27.48-15.81 13.46 7.73-15.81 9.09Z"/>
  <path fill="#177C1B" fill-rule="evenodd" d="m184.45 90.76 29.29 16.9v33.8l-.41.14-28.25 16.37-.63.37-.62-.37-28.67-16.52V107.6h.2l29.1-16.84Zm0 .3-29.02 16.8h-.02v33.44l28.55 16.45.5.3.49-.3 28.28-16.38.26-.09V107.8l-29.04-16.75Zm0 .94 13.71 7.88-27.73 15.96-13.71-7.89L184.45 92Zm0 .28-27.23 15.67 13.21 7.6 27.23-15.67-13.2-7.6Zm14.02 7.9 13.71 7.88-16 9.2-11.73 6.76-13.7-7.88 27.72-15.96Zm0 .3-27.23 15.66 13.21 7.6 11.6-6.7 15.63-8.98-13.2-7.59Zm-42.19 8.27 27.74 15.95v32.03l-27.74-15.96v-32.02Zm.25.43v31.45l27.24 15.67v-31.45l-27.24-15.67Z" clip-rule="evenodd"/>
  <path fill="#177C1B" d="m173.12 124.55-5.27-3.03a1.81 1.81 0 0 0-1.68-.1c-.56.33-.9 1-.9 1.9 0 1.46.9 3.03 2.02 3.7l5.27 3.03c.34.22.67.22 1.01.22.22 0 .45-.11.67-.22.56-.34.9-1.01.9-1.91-.11-1.35-.9-2.92-2.02-3.59Zm.45 4.6c-.11.11-.45 0-.56-.11l-5.27-3.03c-.79-.45-1.35-1.68-1.35-2.7 0-.55.11-.78.34-.89.11-.11.45 0 .56.11l.34.23c.1 1.23.9 2.58 1.8 3.02l4.48 2.58c0 .45-.12.68-.34.79Z"/>
</svg>
