<svg xmlns="http://www.w3.org/2000/svg" fill="none" viewBox="0 0 380 220">
  <path fill="#177C1B" d="M161.1 187.54c.56.34.56.9 0 1.24-.57.33-1.58.33-2.14 0-.56-.34-.56-.9 0-1.24a2.37 2.37 0 0 1 2.13 0Zm5.6-3.26c.57.33.57.9 0 1.23-.55.34-1.56.34-2.13 0-.56-.33-.56-.9 0-1.23a2.37 2.37 0 0 1 2.14 0Zm-16.72 3.15c.56.33.56.9 0 1.23-.56.34-1.57.34-2.13 0-.56-.34-.56-.9 0-1.23a2.37 2.37 0 0 1 2.13 0Zm5.62-3.15c.56.33.56.9 0 1.23-.57.34-1.58.34-2.14 0-.56-.33-.56-.9 0-1.23a2.37 2.37 0 0 1 2.13 0Zm5.5-3.15c.56.33.56.9 0 1.23-.57.34-1.58.34-2.14 0-.56-.33-.56-.9 0-1.23a2.37 2.37 0 0 1 2.13 0Zm5.6-3.15c.57.34.57.9 0 1.24-.55.33-1.56.33-2.13 0-.56-.34-.56-.9 0-1.24.68-.45 1.58-.45 2.14 0Z"/>
  <path fill="#177C1B" d="M147.85 187.43a2.37 2.37 0 0 1 2.13 0c.56.33.56.9 0 1.23-.56.34-1.57.34-2.13 0-.56-.34-.56-.9 0-1.23Zm-3.48-3.15c.56.33.56.9 0 1.23-.56.34-1.57.34-2.13 0-.56-.33-.56-.9 0-1.23a2.37 2.37 0 0 1 2.13 0Zm5.61-3.15c.56.33.56.9 0 1.23-.56.34-1.57.34-2.13 0-.56-.33-.56-.9 0-1.23a2.37 2.37 0 0 1 2.13 0Zm5.62-3.26c.56.33.56.9 0 1.23-.57.34-1.58.34-2.14 0s-.56-.9 0-1.23a2.37 2.37 0 0 1 2.13 0Zm5.6-3.15c.57.33.57.9 0 1.23-.55.34-1.56.34-2.13 0-.56-.33-.56-.9 0-1.23a2.37 2.37 0 0 1 2.14 0Zm5.62-3.15c.56.33.56.9 0 1.23-.56.34-1.57.34-2.13 0-.56-.33-.56-.9 0-1.23a2.36 2.36 0 0 1 2.13 0Z"/>
  <path fill="#177C1B" d="M142.24 184.28a2.37 2.37 0 0 1 2.13 0c.56.33.56.9 0 1.23-.56.34-1.57.34-2.13 0-.56-.33-.56-.9 0-1.23Zm-3.37-3.27c.56.34.56.9 0 1.24-.56.34-1.57.34-2.13 0-.56-.34-.56-.9 0-1.24a2.37 2.37 0 0 1 2.13 0Zm5.61-3.14c.56.33.56.9 0 1.23-.56.34-1.57.34-2.13 0-.56-.34-.56-.9 0-1.23a2.38 2.38 0 0 1 2.13 0Zm5.62-3.15c.56.33.56.9 0 1.23-.57.34-1.58.34-2.14 0-.56-.33-.56-.9 0-1.23a2.37 2.37 0 0 1 2.14 0Zm5.5-3.27c.56.34.56.9 0 1.24-.57.34-1.58.34-2.14 0s-.56-.9 0-1.24a2.37 2.37 0 0 1 2.13 0Zm5.6-3.15c.57.34.57.9 0 1.24-.55.34-1.56.34-2.13 0-.56-.33-.56-.9 0-1.23a2.37 2.37 0 0 1 2.14 0Zm5.62-3.14c.56.33.56.9 0 1.23-.56.34-1.57.34-2.13 0-.56-.33-.56-.9 0-1.23a2.37 2.37 0 0 1 2.13 0Z"/>
  <path fill="#177C1B" d="M136.74 181.01a2.37 2.37 0 0 1 2.13 0c.56.34.56.9 0 1.24-.56.34-1.57.34-2.13 0-.56-.34-.56-.9 0-1.24Zm-3.48-3.14c.56.33.56.9 0 1.23-.56.34-1.57.34-2.13 0-.56-.34-.56-.9 0-1.23a2.37 2.37 0 0 1 2.13 0Zm5.61-3.27c.56.34.56.9 0 1.24-.56.34-1.57.34-2.13 0-.56-.34-.56-.9 0-1.24a2.37 2.37 0 0 1 2.13 0Zm5.61-3.15c.56.34.56.9 0 1.24-.56.34-1.57.34-2.13 0-.56-.34-.56-.9 0-1.24a2.38 2.38 0 0 1 2.13 0Zm5.62-3.15c.56.34.56.9 0 1.24-.57.34-1.58.34-2.14 0-.56-.33-.56-.9 0-1.23a2.38 2.38 0 0 1 2.14 0Zm5.6-3.14c.57.33.57.9 0 1.23-.55.34-1.56.34-2.13 0-.56-.33-.56-.9 0-1.23a2.38 2.38 0 0 1 2.14 0Zm5.62-3.26c.56.33.56.9 0 1.23-.56.34-1.57.34-2.13 0-.56-.34-.56-.9 0-1.24a2.37 2.37 0 0 1 2.13 0Z"/>
  <path fill="#177C1B" d="M131.24 177.87a2.38 2.38 0 0 1 2.13 0c.56.33.56.9 0 1.23-.56.34-1.57.34-2.13 0-.67-.34-.67-.9 0-1.23Zm-3.48-3.27c.56.34.56.9 0 1.24-.56.34-1.57.34-2.13 0-.56-.34-.56-.9 0-1.24a2.37 2.37 0 0 1 2.13 0Zm5.61-3.15c.56.34.56.9 0 1.24-.56.34-1.57.34-2.13 0-.56-.34-.56-.9 0-1.24a2.38 2.38 0 0 1 2.13 0Zm5.61-3.15c.56.34.56.9 0 1.24-.56.34-1.57.34-2.13 0-.56-.33-.56-.9 0-1.23a2.37 2.37 0 0 1 2.13 0Zm5.5-3.26c.56.34.56.9 0 1.24-.56.34-1.57.34-2.13 0-.56-.34-.56-.9 0-1.24a2.37 2.37 0 0 1 2.13 0Zm5.62-3.14c.56.33.56.9 0 1.23-.57.34-1.58.34-2.14 0s-.56-.9 0-1.24a2.37 2.37 0 0 1 2.14 0Zm5.6-3.15c.57.33.57.9 0 1.23-.55.34-1.56.34-2.13 0-.56-.33-.56-.9 0-1.23a2.38 2.38 0 0 1 2.14 0Zm5.62-3.27c.56.34.56.9 0 1.24-.56.34-1.57.34-2.13 0-.56-.34-.56-.9 0-1.24a2.37 2.37 0 0 1 2.13 0Z"/>
  <path fill="#177C1B" d="M125.63 174.6a2.37 2.37 0 0 1 2.13 0c.56.34.56.9 0 1.24-.56.34-1.57.34-2.13 0-.56-.34-.56-.9 0-1.24Zm-3.37-3.15c.56.34.56.9 0 1.24-.56.34-1.57.34-2.13 0-.56-.34-.56-.9 0-1.24a2.37 2.37 0 0 1 2.13 0Zm5.5-3.25c.56.33.56.9 0 1.23-.56.34-1.57.34-2.13 0-.56-.34-.56-.9 0-1.24a2.37 2.37 0 0 1 2.13 0Zm5.61-3.16c.56.34.56.9 0 1.24-.56.34-1.57.34-2.13 0-.56-.34-.56-.9 0-1.24a2.37 2.37 0 0 1 2.13 0Zm5.61-3.14c.56.33.56.9 0 1.23-.56.34-1.57.34-2.13 0-.56-.34-.56-.9 0-1.24a2.38 2.38 0 0 1 2.13 0Zm5.62-3.27c.56.34.56.9 0 1.24-.56.34-1.58.34-2.14 0s-.56-.9 0-1.24a2.37 2.37 0 0 1 2.14 0Zm5.6-3.15c.57.34.57.9 0 1.24-.55.34-1.56.34-2.13 0-.56-.34-.56-.9 0-1.24a2.37 2.37 0 0 1 2.14 0Zm5.5-3.15c.57.34.57.9 0 1.24-.55.34-1.56.34-2.13 0-.56-.34-.56-.9 0-1.24a2.37 2.37 0 0 1 2.14 0Zm5.62-3.14c.56.33.56.9 0 1.23-.56.34-1.57.34-2.13 0-.56-.33-.56-.9 0-1.23a2.37 2.37 0 0 1 2.13 0Zm5.61-3.27c.56.34.56.9 0 1.24-.56.34-1.57.34-2.13 0-.56-.34-.56-.9 0-1.24a2.38 2.38 0 0 1 2.13 0Zm5.61-3.15c.56.34.56.9 0 1.24-.56.34-1.57.34-2.13 0-.56-.34-.56-.9 0-1.24a2.38 2.38 0 0 1 2.13 0Zm5.62-3.14c.56.33.56.9 0 1.23-.56.34-1.58.34-2.14 0s-.56-.9 0-1.24a2.37 2.37 0 0 1 2.14 0Zm5.61-3.27c.56.34.56.9 0 1.24-.56.34-1.57.34-2.14 0-.56-.34-.56-.9 0-1.24a2.37 2.37 0 0 1 2.14 0Zm5.5-3.15c.56.34.56.9 0 1.24-.56.34-1.57.34-2.14 0-.56-.34-.56-.9 0-1.24a2.37 2.37 0 0 1 2.14 0Zm5.61-3.15c.56.34.56.9 0 1.24-.56.34-1.57.34-2.13 0-.56-.34-.56-.9 0-1.24a2.38 2.38 0 0 1 2.13 0Zm5.62-3.14c.55.33.55.9 0 1.23-.57.34-1.58.34-2.14 0-.56-.33-.56-.9 0-1.23a2.37 2.37 0 0 1 2.13 0Zm5.6-3.27c.56.34.56.9 0 1.24-.56.34-1.57.34-2.13 0-.56-.34-.56-.9 0-1.24a2.38 2.38 0 0 1 2.13 0Zm5.62-3.15c.56.34.56.9 0 1.24-.57.34-1.58.34-2.14 0-.56-.33-.56-.9 0-1.23a2.37 2.37 0 0 1 2.14 0Z"/>
  <path fill="#177C1B" d="M120.13 171.45a2.38 2.38 0 0 1 2.13 0c.56.34.56.9 0 1.24-.56.34-1.57.34-2.13 0-.68-.34-.68-.9 0-1.24Zm-3.48-3.25c.56.33.56.9 0 1.23-.56.34-1.57.34-2.14 0-.56-.34-.56-.9 0-1.24a2.37 2.37 0 0 1 2.14 0Zm5.61-3.16c.56.34.56.9 0 1.24-.56.34-1.57.34-2.13 0-.56-.34-.56-.9 0-1.24a2.37 2.37 0 0 1 2.13 0Zm5.61-3.26c.56.34.56.9 0 1.24-.56.34-1.57.34-2.13 0-.56-.34-.56-.9 0-1.24a2.38 2.38 0 0 1 2.13 0Zm5.61-3.15c.56.34.56.9 0 1.24-.56.34-1.57.34-2.13 0-.56-.34-.56-.9 0-1.24a2.37 2.37 0 0 1 2.13 0Zm5.5-3.15c.56.34.56.9 0 1.24-.56.34-1.57.34-2.13 0-.56-.34-.56-.9 0-1.24a2.37 2.37 0 0 1 2.13 0Zm5.62-3.15c.56.34.56.9 0 1.24-.56.34-1.58.34-2.14 0s-.56-.9 0-1.24a2.38 2.38 0 0 1 2.14 0Zm5.6-3.26c.57.34.57.9 0 1.24-.55.34-1.56.34-2.13 0-.56-.34-.56-.9 0-1.24a2.37 2.37 0 0 1 2.14 0Zm5.62-3.15c.56.34.56.9 0 1.24-.56.34-1.57.34-2.13 0-.56-.34-.56-.9 0-1.24a2.38 2.38 0 0 1 2.13 0Zm5.61-3.15c.56.34.56.9 0 1.24-.56.34-1.57.34-2.13 0-.56-.34-.56-.9 0-1.24a2.37 2.37 0 0 1 2.13 0Zm5.5-3.26c.56.34.56.9 0 1.24-.56.34-1.57.34-2.13 0-.56-.34-.56-.9 0-1.24a2.37 2.37 0 0 1 2.13 0Zm5.61-3.15c.56.34.56.9 0 1.24-.56.34-1.57.34-2.13 0-.56-.34-.56-.9 0-1.24a2.37 2.37 0 0 1 2.13 0Zm5.62-3.15c.56.34.56.9 0 1.24-.56.34-1.58.34-2.14 0s-.56-.9 0-1.24a2.38 2.38 0 0 1 2.14 0Zm5.61-3.15c.56.34.56.9 0 1.24-.56.34-1.57.34-2.14 0-.56-.34-.56-.9 0-1.24a2.38 2.38 0 0 1 2.14 0Zm5.61-3.26c.56.34.56.9 0 1.24-.56.34-1.57.34-2.13 0-.56-.34-.56-.9 0-1.24a2.37 2.37 0 0 1 2.13 0Zm5.5-3.15c.56.34.56.9 0 1.24-.56.34-1.57.34-2.13 0-.56-.34-.56-.9 0-1.24a2.37 2.37 0 0 1 2.13 0Zm5.62-3.15c.55.34.55.9 0 1.24-.57.34-1.58.34-2.14 0-.56-.33-.56-.9 0-1.23a2.37 2.37 0 0 1 2.13 0Zm5.6-3.26c.56.34.56.9 0 1.24-.56.34-1.57.34-2.13 0-.56-.34-.56-.9 0-1.24a2.38 2.38 0 0 1 2.13 0Zm5.62-3.14c.56.33.56.9 0 1.23-.57.34-1.58.34-2.14 0s-.56-.9 0-1.24a2.38 2.38 0 0 1 2.14 0Z"/>
  <path fill="#177C1B" d="M114.52 168.2a2.37 2.37 0 0 1 2.13 0c.56.33.56.9 0 1.23-.56.34-1.57.34-2.14 0-.56-.34-.56-.9 0-1.24Zm-3.37-3.27c.56.34.56.9 0 1.24-.56.34-1.57.34-2.13 0-.57-.34-.57-.9 0-1.24a2.37 2.37 0 0 1 2.13 0Zm5.5-3.15c.56.34.56.9 0 1.24-.56.34-1.57.34-2.14 0-.56-.34-.56-.9 0-1.24a2.37 2.37 0 0 1 2.14 0Zm5.61-3.15c.56.34.56.9 0 1.24-.56.34-1.57.34-2.13 0-.56-.34-.56-.9 0-1.24a2.37 2.37 0 0 1 2.13 0Zm5.61-3.15c.56.34.56.9 0 1.24-.56.34-1.57.34-2.13 0-.56-.34-.56-.9 0-1.24a2.37 2.37 0 0 1 2.13 0Zm5.61-3.26c.56.34.56.9 0 1.24-.56.34-1.57.34-2.13 0-.56-.34-.56-.9 0-1.24a2.38 2.38 0 0 1 2.13 0Zm5.62-3.15c.56.34.56.9 0 1.24-.56.34-1.57.34-2.14 0-.56-.34-.56-.9 0-1.24a2.36 2.36 0 0 1 2.14 0Zm5.6-3.15c.57.34.57.9 0 1.24-.55.34-1.56.34-2.12 0-.57-.34-.57-.9 0-1.24a2.37 2.37 0 0 1 2.13 0Zm5.5-3.26c.57.34.57.9 0 1.24-.55.34-1.56.34-2.13 0-.56-.34-.56-.9 0-1.24a2.37 2.37 0 0 1 2.14 0Zm5.62-3.15c.56.34.56.9 0 1.24-.56.34-1.57.34-2.13 0-.56-.34-.56-.9 0-1.24a2.37 2.37 0 0 1 2.13 0Zm5.61-3.15c.56.34.56.9 0 1.24-.56.34-1.57.34-2.13 0-.56-.34-.56-.9 0-1.24a2.38 2.38 0 0 1 2.13 0Zm5.61-3.15c.56.34.56.9 0 1.24-.56.34-1.57.34-2.13 0-.56-.34-.56-.9 0-1.24a2.38 2.38 0 0 1 2.13 0Zm5.62-3.26c.56.34.56.9 0 1.24-.56.34-1.57.34-2.14 0-.56-.34-.56-.9 0-1.24a2.37 2.37 0 0 1 2.14 0Zm5.5-3.15c.56.34.56.9 0 1.24-.56.34-1.58.34-2.14 0s-.56-.9 0-1.24a2.37 2.37 0 0 1 2.14 0Zm5.61-3.15c.56.34.56.9 0 1.24-.56.34-1.57.34-2.14 0-.56-.34-.56-.9 0-1.24a2.37 2.37 0 0 1 2.14 0Zm5.61-3.25c.56.33.56.9 0 1.23-.56.34-1.57.34-2.13 0-.56-.34-.56-.9 0-1.24a2.38 2.38 0 0 1 2.13 0Zm5.62-3.16c.55.34.55.9 0 1.24-.57.34-1.58.34-2.14 0s-.56-.9 0-1.24a2.38 2.38 0 0 1 2.13 0Zm5.6-3.14c.56.33.56.9 0 1.23-.56.34-1.57.34-2.13 0-.56-.34-.56-.9 0-1.24a2.37 2.37 0 0 1 2.13 0Zm5.5-3.16c.56.34.56.9 0 1.24-.56.34-1.57.34-2.13 0-.56-.34-.56-.9 0-1.24a2.37 2.37 0 0 1 2.13 0Z"/>
  <path fill="#177C1B" d="M109.02 164.93a2.37 2.37 0 0 1 2.13 0c.56.34.56.9 0 1.24-.56.34-1.57.34-2.13 0-.57-.34-.68-.79 0-1.24Zm-3.48-3.15c.56.34.56.9 0 1.24-.57.34-1.58.34-2.14 0s-.56-.9 0-1.24a2.37 2.37 0 0 1 2.14 0Zm5.61-3.15c.56.34.56.9 0 1.24-.56.34-1.57.34-2.13 0-.57-.34-.57-.9 0-1.24a2.37 2.37 0 0 1 2.13 0Zm5.61-3.26c.56.34.56.9 0 1.24-.56.34-1.57.34-2.13 0-.56-.34-.56-.9 0-1.24a2.37 2.37 0 0 1 2.13 0Zm5.61-3.15c.56.34.56.9 0 1.24-.56.34-1.57.34-2.13 0-.56-.34-.56-.9 0-1.24a2.37 2.37 0 0 1 2.13 0Zm5.5-3.15c.56.34.56.9 0 1.24-.56.34-1.57.34-2.13 0-.56-.34-.56-.9 0-1.24a2.37 2.37 0 0 1 2.13 0Zm5.61-3.26c.56.34.56.9 0 1.24-.56.34-1.57.34-2.13 0-.56-.34-.56-.9 0-1.24a2.37 2.37 0 0 1 2.13 0Zm5.62-3.15c.56.34.56.9 0 1.24-.56.34-1.57.34-2.14 0-.56-.34-.56-.9 0-1.24a2.37 2.37 0 0 1 2.14 0Zm5.6-3.15c.57.34.57.9 0 1.24-.55.34-1.56.34-2.12 0-.57-.34-.57-.9 0-1.24a2.37 2.37 0 0 1 2.13 0Zm5.62-3.15c.56.34.56.9 0 1.24-.56.34-1.57.34-2.13 0-.56-.34-.56-.9 0-1.24a2.37 2.37 0 0 1 2.13 0Zm5.61-3.26c.56.34.56.9 0 1.24-.56.34-1.57.34-2.13 0-.56-.34-.56-.9 0-1.24a2.36 2.36 0 0 1 2.13 0Zm5.5-3.15c.56.34.56.9 0 1.24-.56.34-1.57.34-2.13 0-.56-.34-.56-.9 0-1.24a2.37 2.37 0 0 1 2.13 0Zm5.61-3.15c.56.34.56.9 0 1.24-.56.34-1.57.34-2.13 0-.56-.34-.56-.9 0-1.24a2.38 2.38 0 0 1 2.13 0Zm5.62-3.26c.56.34.56.9 0 1.24-.56.34-1.57.34-2.14 0-.56-.34-.56-.9 0-1.24a2.37 2.37 0 0 1 2.14 0Zm5.61-3.14c.56.33.56.9 0 1.23-.56.34-1.57.34-2.14 0-.56-.34-.56-.9 0-1.24a2.38 2.38 0 0 1 2.14 0Zm5.61-3.16c.56.34.56.9 0 1.24-.56.34-1.57.34-2.13 0-.56-.34-.56-.9 0-1.24a2.37 2.37 0 0 1 2.13 0Zm5.5-3.14c.56.33.56.9 0 1.23-.56.34-1.57.34-2.13 0-.56-.34-.56-.9 0-1.24a2.37 2.37 0 0 1 2.13 0Zm5.62-3.27c.55.34.55.9 0 1.24-.57.34-1.58.34-2.14 0s-.56-.9 0-1.24a2.37 2.37 0 0 1 2.13 0Zm5.6-3.15c.56.34.56.9 0 1.24-.56.34-1.57.34-2.13 0-.56-.34-.56-.9 0-1.24a2.38 2.38 0 0 1 2.13 0Z"/>
  <path fill="#177C1B" d="M103.4 161.78a2.37 2.37 0 0 1 2.14 0c.56.34.56.9 0 1.24-.57.34-1.58.34-2.14 0s-.56-.9 0-1.24Zm-3.36-3.26c.56.34.56.9 0 1.24-.56.34-1.58.34-2.14 0s-.56-.9 0-1.24a2.37 2.37 0 0 1 2.14 0Zm5.61-3.15c.56.34.56.9 0 1.24-.56.34-1.57.34-2.13 0-.56-.34-.56-.9 0-1.24a2.37 2.37 0 0 1 2.13 0Zm5.5-3.15c.56.34.56.9 0 1.24-.56.34-1.57.34-2.13 0-.57-.34-.57-.9 0-1.24a2.37 2.37 0 0 1 2.13 0Zm5.61-3.15c.56.34.56.9 0 1.24-.56.34-1.57.34-2.13 0-.56-.34-.56-.9 0-1.24a1.85 1.85 0 0 1 2.13 0Zm5.61-3.26c.56.34.56.9 0 1.24-.56.34-1.57.34-2.13 0-.56-.34-.56-.9 0-1.24a2.37 2.37 0 0 1 2.13 0Zm5.61-3.15c.56.34.56.9 0 1.24-.56.34-1.57.34-2.13 0-.56-.34-.56-.9 0-1.24a2.37 2.37 0 0 1 2.13 0Zm5.62-3.15c.56.34.56.9 0 1.24-.56.34-1.57.34-2.14 0-.56-.34-.56-.9 0-1.24a2.36 2.36 0 0 1 2.14 0Zm5.5-3.26c.56.34.56.9 0 1.24-.56.34-1.57.34-2.14 0-.56-.34-.56-.9 0-1.24a2.37 2.37 0 0 1 2.14 0Zm5.6-3.15c.57.34.57.9 0 1.24-.55.34-1.56.34-2.12 0-.57-.34-.57-.9 0-1.24a2.36 2.36 0 0 1 2.13 0Zm5.62-3.15c.56.34.56.9 0 1.24-.56.34-1.57.34-2.13 0-.56-.34-.56-.9 0-1.24a2.37 2.37 0 0 1 2.13 0Zm5.61-3.25c.56.33.56.9 0 1.23-.56.34-1.57.34-2.13 0-.56-.34-.56-.9 0-1.24a2.37 2.37 0 0 1 2.13 0Zm5.61-3.16c.56.34.56.9 0 1.24-.56.34-1.57.34-2.13 0-.56-.34-.56-.9 0-1.24a2.36 2.36 0 0 1 2.13 0Zm5.5-3.14c.56.33.56.9 0 1.23-.56.34-1.57.34-2.13 0-.56-.34-.56-.9 0-1.24a2.37 2.37 0 0 1 2.13 0Zm5.62-3.16c.56.34.56.9 0 1.24-.56.34-1.57.34-2.14 0-.56-.34-.56-.9 0-1.24a2.37 2.37 0 0 1 2.14 0Zm5.61-3.26c.56.34.56.9 0 1.24-.56.34-1.57.34-2.14 0-.56-.34-.56-.9 0-1.24a2.37 2.37 0 0 1 2.14 0Zm5.61-3.15c.56.34.56.9 0 1.24-.56.34-1.57.34-2.13 0-.56-.34-.56-.9 0-1.24a2.38 2.38 0 0 1 2.13 0Zm5.62-3.15c.55.34.55.9 0 1.24-.57.34-1.58.34-2.14 0s-.56-.9 0-1.24a2.38 2.38 0 0 1 2.13 0Zm5.6-3.26c.56.34.56.9 0 1.24-.56.34-1.57.34-2.13 0-.56-.34-.56-.9 0-1.24a2.37 2.37 0 0 1 2.13 0Z"/>
  <path fill="#177C1B" d="M97.9 158.52a2.37 2.37 0 0 1 2.14 0c.56.34.56.9 0 1.24-.56.34-1.58.34-2.14 0s-.56-.9 0-1.24Zm-3.48-3.15c.57.34.57.9 0 1.24-.56.34-1.57.34-2.13 0-.56-.34-.56-.9 0-1.24a2.37 2.37 0 0 1 2.13 0Zm5.62-3.15c.56.34.56.9 0 1.24-.56.34-1.58.34-2.14 0s-.56-.9 0-1.24a2.37 2.37 0 0 1 2.14 0Zm5.61-3.26c.56.34.56.9 0 1.24-.56.34-1.57.34-2.13 0-.56-.34-.56-.9 0-1.24a2.37 2.37 0 0 1 2.13 0Zm5.61-3.15c.56.34.56.9 0 1.24-.56.34-1.57.34-2.13 0-.56-.34-.56-.9 0-1.24a2.37 2.37 0 0 1 2.13 0Zm5.61-3.15c.56.34.56.9 0 1.24-.56.34-1.57.34-2.13 0-.56-.34-.56-.9 0-1.24a2.36 2.36 0 0 1 2.13 0Zm5.5-3.26c.56.34.56.9 0 1.24-.56.34-1.57.34-2.13 0-.56-.34-.56-.9 0-1.24a2.37 2.37 0 0 1 2.13 0Zm5.61-3.15c.56.34.56.9 0 1.24-.56.34-1.57.34-2.13 0-.56-.34-.56-.9 0-1.24a2.37 2.37 0 0 1 2.13 0Zm5.62-3.15c.56.34.56.9 0 1.24-.56.34-1.57.34-2.14 0-.56-.34-.56-.9 0-1.24a2.37 2.37 0 0 1 2.14 0Zm16.72-9.56c.56.34.56.9 0 1.24-.56.34-1.57.34-2.13 0-.56-.34-.56-.9 0-1.24a2.36 2.36 0 0 1 2.13 0Zm5.61-3.14c.56.33.56.9 0 1.23-.56.34-1.57.34-2.13 0-.56-.34-.56-.9 0-1.24a2.37 2.37 0 0 1 2.13 0Zm5.61-3.27c.56.34.56.9 0 1.24-.56.33-1.57.33-2.13 0-.56-.34-.56-.9 0-1.24a2.37 2.37 0 0 1 2.13 0Zm5.62-3.15c.56.34.56.9 0 1.24-.56.34-1.57.34-2.14 0-.56-.34-.56-.9 0-1.24a2.37 2.37 0 0 1 2.14 0Zm5.61-3.15c.56.34.56.9 0 1.24-.56.34-1.57.34-2.13 0-.57-.34-.57-.9 0-1.24a2.37 2.37 0 0 1 2.13 0Zm5.5-3.15c.56.34.56.9 0 1.24-.56.34-1.57.34-2.14 0-.56-.34-.56-.9 0-1.24.68-.45 1.58-.45 2.14 0Zm5.61-3.26c.56.34.56.9 0 1.24-.56.34-1.57.34-2.13 0-.56-.34-.56-.9 0-1.24a2.37 2.37 0 0 1 2.13 0Zm5.62-3.15c.55.34.55.9 0 1.24-.57.34-1.58.34-2.14 0s-.56-.9 0-1.24a2.38 2.38 0 0 1 2.13 0Z"/>
  <path fill="#177C1B" d="M92.3 155.37a2.38 2.38 0 0 1 2.12 0c.57.34.57.9 0 1.24-.56.34-1.57.34-2.13 0-.56-.34-.56-.9 0-1.24Zm-3.38-3.27c.57.35.57.9 0 1.25-.56.33-1.57.33-2.13 0-.56-.34-.56-.9 0-1.24a2.38 2.38 0 0 1 2.13 0Zm5.62-3.14c.56.34.56.9 0 1.24-.56.34-1.57.34-2.14 0-.56-.34-.56-.9 0-1.24a2.37 2.37 0 0 1 2.14 0Zm5.5-3.15c.56.34.56.9 0 1.24-.56.34-1.58.34-2.14 0s-.56-.9 0-1.24a2.37 2.37 0 0 1 2.14 0Zm5.61-3.26c.56.34.56.9 0 1.24-.56.33-1.57.33-2.13 0-.56-.34-.56-.9 0-1.24a2.37 2.37 0 0 1 2.13 0Zm5.61-3.15c.56.34.56.9 0 1.24-.56.34-1.57.34-2.13 0-.56-.34-.56-.9 0-1.24a2.37 2.37 0 0 1 2.13 0Zm5.61-3.15c.56.34.56.9 0 1.24-.56.34-1.57.34-2.13 0-.56-.34-.56-.9 0-1.24a2.37 2.37 0 0 1 2.13 0Zm5.61-3.15c.57.34.57.9 0 1.24-.56.34-1.57.34-2.13 0-.56-.34-.56-.9 0-1.24a2.36 2.36 0 0 1 2.13 0Zm5.62-3.26c.56.34.56.9 0 1.24-.56.33-1.57.33-2.14 0-.56-.34-.56-.9 0-1.24a2.37 2.37 0 0 1 2.14 0Zm11.1-6.3c.57.34.57.9 0 1.24-.55.34-1.56.34-2.12 0-.57-.34-.57-.9 0-1.24a2.37 2.37 0 0 1 2.13 0Zm5.62-3.26c.56.34.56.9 0 1.24-.56.34-1.57.34-2.13 0-.56-.34-.56-.9 0-1.24a2.37 2.37 0 0 1 2.13 0Zm5.61-3.15c.56.34.56.9 0 1.24-.56.33-1.57.33-2.13 0-.56-.34-.56-.9 0-1.24a2.37 2.37 0 0 1 2.13 0Zm5.61-3.15c.57.34.57.9 0 1.24-.56.34-1.57.34-2.13 0-.56-.34-.56-.9 0-1.24a2.36 2.36 0 0 1 2.13 0Zm5.5-3.15c.56.34.56.9 0 1.24-.56.34-1.57.34-2.13 0-.56-.34-.56-.9 0-1.24a2.37 2.37 0 0 1 2.13 0Zm5.62-3.26c.56.34.56.9 0 1.24-.56.33-1.57.33-2.14 0-.56-.34-.56-.9 0-1.24a2.36 2.36 0 0 1 2.14 0Zm5.61-3.15c.56.34.56.9 0 1.24-.56.34-1.57.34-2.13 0-.57-.34-.57-.9 0-1.24a2.37 2.37 0 0 1 2.13 0Zm5.61-3.15c.56.34.56.9 0 1.24-.56.34-1.57.34-2.13 0-.56-.34-.56-.9 0-1.24a2.37 2.37 0 0 1 2.13 0Zm5.62-3.26c.55.34.55.9 0 1.24-.57.34-1.58.34-2.14 0s-.56-.9 0-1.24a2.37 2.37 0 0 1 2.13 0Z"/>
  <path fill="#177C1B" d="M86.8 152.1a2.38 2.38 0 0 1 2.12 0c.57.35.57.9 0 1.25-.56.33-1.57.33-2.13 0-.56-.34-.56-.9 0-1.24Zm-3.49-3.14c.56.34.56.9 0 1.24-.56.34-1.57.34-2.13 0-.56-.34-.56-.9 0-1.24a2.37 2.37 0 0 1 2.13 0Zm5.61-3.26c.57.34.57.9 0 1.24-.56.33-1.57.33-2.13 0-.56-.34-.56-.9 0-1.24a2.37 2.37 0 0 1 2.13 0Zm5.62-3.15c.56.34.56.9 0 1.24-.56.33-1.57.33-2.14 0-.56-.34-.56-.9 0-1.24a2.38 2.38 0 0 1 2.14 0Zm5.61-3.15c.56.34.56.9 0 1.24-.56.34-1.57.34-2.13 0-.57-.34-.57-.9 0-1.24a2.38 2.38 0 0 1 2.13 0Zm5.61-3.15c.56.34.56.9 0 1.24-.56.34-1.57.34-2.13 0-.56-.34-.56-.9 0-1.24a2.37 2.37 0 0 1 2.13 0Zm5.5-3.26c.56.34.56.9 0 1.24-.56.33-1.57.33-2.13 0-.56-.34-.56-.9 0-1.24a2.37 2.37 0 0 1 2.13 0Zm5.61-3.15c.56.34.56.9 0 1.24-.56.33-1.57.33-2.13 0-.56-.34-.56-.9 0-1.24a2.37 2.37 0 0 1 2.13 0Zm5.61-3.14c.57.33.57.9 0 1.23-.56.34-1.57.34-2.13 0-.56-.34-.56-.9 0-1.24a2.37 2.37 0 0 1 2.13 0Zm5.62-3.27c.56.34.56.9 0 1.24-.56.33-1.57.33-2.14 0-.56-.34-.56-.9 0-1.24a2.38 2.38 0 0 1 2.14 0Zm5.6-3.15c.57.34.57.9 0 1.24-.55.34-1.56.34-2.12 0-.57-.34-.57-.9 0-1.24a2.37 2.37 0 0 1 2.13 0Zm5.5-3.15c.57.34.57.9 0 1.24a2.4 2.4 0 0 1-2.12 0c-.57-.34-.57-.9 0-1.24a2.36 2.36 0 0 1 2.13 0Zm5.62-3.15c.56.34.56.9 0 1.24-.56.34-1.57.34-2.13 0-.56-.34-.56-.9 0-1.24a2.36 2.36 0 0 1 2.13 0Zm5.61-3.26c.56.34.56.9 0 1.24-.56.34-1.57.34-2.13 0-.56-.34-.56-.9 0-1.24a2.37 2.37 0 0 1 2.13 0Zm5.61-3.15c.57.34.57.9 0 1.24-.56.33-1.57.33-2.13 0-.56-.34-.56-.9 0-1.24a2.37 2.37 0 0 1 2.13 0Zm5.62-3.15c.56.34.56.9 0 1.24-.56.34-1.57.34-2.14 0-.56-.34-.56-.9 0-1.24a2.37 2.37 0 0 1 2.14 0Zm5.61-3.26c.56.34.56.9 0 1.24-.56.33-1.57.33-2.13 0-.56-.34-.56-.9 0-1.24a2.37 2.37 0 0 1 2.13 0Zm5.5-3.15c.56.34.56.9 0 1.24-.56.34-1.57.34-2.13 0-.57-.34-.57-.9 0-1.24a2.37 2.37 0 0 1 2.13 0Zm5.61-3.15c.56.34.56.9 0 1.24-.56.34-1.57.34-2.13 0-.56-.34-.56-.9 0-1.24a2.37 2.37 0 0 1 2.13 0Z"/>
  <path fill="#177C1B" d="M81.18 148.96a2.38 2.38 0 0 1 2.13 0c.56.34.56.9 0 1.24-.56.34-1.57.34-2.13 0-.56-.34-.56-.9 0-1.24Zm-3.37-3.26c.56.34.56.9 0 1.24-.56.33-1.57.33-2.13 0-.56-.34-.56-.9 0-1.24a2.37 2.37 0 0 1 2.13 0Zm5.61-3.15c.57.34.57.9 0 1.24-.56.33-1.57.33-2.13 0-.56-.34-.56-.9 0-1.24a2.37 2.37 0 0 1 2.13 0Zm5.62-3.15c.56.34.56.9 0 1.24-.56.34-1.57.34-2.14 0-.56-.34-.56-.9 0-1.24a2.37 2.37 0 0 1 2.14 0Zm5.5-3.26c.56.34.56.9 0 1.24-.56.33-1.57.33-2.14 0-.56-.34-.56-.9 0-1.24a2.37 2.37 0 0 1 2.14 0Zm5.61-3.15c.56.34.56.9 0 1.24-.56.33-1.57.33-2.13 0-.57-.34-.57-.9 0-1.24a2.38 2.38 0 0 1 2.13 0Zm5.61-3.15c.56.34.56.9 0 1.24-.56.33-1.57.33-2.13 0-.56-.34-.56-.9 0-1.24a2.38 2.38 0 0 1 2.13 0Zm5.61-3.26c.56.34.56.9 0 1.24-.56.33-1.57.33-2.13 0-.56-.34-.56-.9 0-1.24a2.38 2.38 0 0 1 2.13 0Zm5.61-3.15c.57.34.57.9 0 1.24-.56.33-1.57.33-2.13 0-.56-.34-.56-.9 0-1.24a2.37 2.37 0 0 1 2.14 0Zm5.5-3.15c.57.34.57.9 0 1.24-.56.34-1.57.34-2.13 0-.56-.34-.56-.9 0-1.24a2.37 2.37 0 0 1 2.13 0Zm5.62-3.15c.56.34.56.9 0 1.24-.56.33-1.57.33-2.14 0-.56-.34-.56-.9 0-1.24a2.37 2.37 0 0 1 2.14 0Zm5.6-3.26c.57.34.57.9 0 1.24a2.4 2.4 0 0 1-2.12 0c-.57-.34-.57-.9 0-1.24a2.38 2.38 0 0 1 2.13 0Zm5.62-3.15c.56.34.56.9 0 1.24-.56.34-1.57.34-2.13 0-.56-.34-.56-.9 0-1.24a2.38 2.38 0 0 1 2.13 0Zm5.61-3.15c.56.34.56.9 0 1.24-.56.33-1.57.33-2.13 0-.56-.34-.56-.9 0-1.24a2.37 2.37 0 0 1 2.13 0Zm5.5-3.27c.56.35.56.9 0 1.25-.56.33-1.57.33-2.13 0-.56-.34-.56-.9 0-1.24a2.37 2.37 0 0 1 2.13 0Zm5.61-3.14c.57.34.57.9 0 1.24-.56.33-1.57.33-2.13 0-.56-.34-.56-.9 0-1.24a2.37 2.37 0 0 1 2.13 0Zm5.62-3.15c.56.34.56.9 0 1.24-.56.34-1.57.34-2.14 0-.56-.34-.56-.9 0-1.24a2.37 2.37 0 0 1 2.14 0Zm5.61-3.15c.56.34.56.9 0 1.24-.56.34-1.57.34-2.13 0-.56-.34-.56-.9 0-1.24a2.37 2.37 0 0 1 2.13 0Zm5.61-3.26c.56.34.56.9 0 1.24-.56.33-1.57.33-2.13 0-.56-.34-.56-.9 0-1.24a2.37 2.37 0 0 1 2.13 0Z"/>
  <path fill="#177C1B" d="M75.68 145.7a2.37 2.37 0 0 1 2.13 0c.56.34.56.9 0 1.24-.56.33-1.57.33-2.13 0-.56-.34-.56-.9 0-1.24Zm-3.48-3.15c.56.34.56.9 0 1.24-.56.33-1.57.33-2.13 0-.56-.34-.56-.9 0-1.24a2.37 2.37 0 0 1 2.13 0Zm5.61-3.26c.56.34.56.9 0 1.24-.56.33-1.57.33-2.13 0-.56-.34-.56-.9 0-1.24a2.37 2.37 0 0 1 2.13 0Zm5.61-3.15c.57.34.57.9 0 1.24-.56.33-1.57.33-2.13 0-.56-.34-.56-.9 0-1.24a2.38 2.38 0 0 1 2.13 0Zm5.62-3.15c.56.34.56.9 0 1.24-.56.33-1.57.33-2.14 0-.56-.34-.56-.9 0-1.24a2.38 2.38 0 0 1 2.14 0Zm5.61-3.26c.56.34.56.9 0 1.24-.56.33-1.57.33-2.13 0-.56-.34-.56-.9 0-1.24a2.37 2.37 0 0 1 2.13 0Zm5.5-3.15c.56.34.56.9 0 1.24-.56.33-1.57.33-2.13 0-.57-.34-.57-.9 0-1.24a2.37 2.37 0 0 1 2.13 0Zm5.61-3.15c.56.34.56.9 0 1.24-.56.33-1.57.33-2.13 0-.56-.34-.56-.9 0-1.24a2.37 2.37 0 0 1 2.13 0Zm5.61-3.15c.56.34.56.9 0 1.24-.56.34-1.57.34-2.13 0-.56-.34-.56-.9 0-1.24a2.38 2.38 0 0 1 2.13 0Zm5.61-3.26c.57.34.57.9 0 1.24-.56.33-1.57.33-2.13 0-.56-.34-.56-.9 0-1.24a2.38 2.38 0 0 1 2.14 0Zm5.62-3.15c.56.34.56.9 0 1.24-.56.33-1.57.33-2.14 0-.56-.34-.56-.9 0-1.24a2.38 2.38 0 0 1 2.14 0Zm5.6-3.15c.57.34.57.9 0 1.24-.55.34-1.56.34-2.12 0s-.56-.9 0-1.24a2.37 2.37 0 0 1 2.13 0Zm5.5-3.26c.57.34.57.9 0 1.23-.55.34-1.56.34-2.12 0-.57-.33-.57-.9 0-1.23a2.37 2.37 0 0 1 2.13 0Zm5.62-3.16c.56.35.56.9 0 1.25-.56.33-1.57.33-2.13 0-.56-.34-.56-.9 0-1.24a2.38 2.38 0 0 1 2.13 0Zm5.61-3.14c.56.34.56.9 0 1.24-.56.33-1.57.33-2.13 0-.56-.34-.56-.9 0-1.24a2.38 2.38 0 0 1 2.13 0Zm5.61-3.15c.57.34.57.9 0 1.24-.56.34-1.57.34-2.13 0-.56-.34-.56-.9 0-1.24a2.37 2.37 0 0 1 2.13 0Zm5.62-3.26c.56.34.56.9 0 1.24-.56.33-1.57.33-2.14 0-.56-.34-.56-.9 0-1.24a2.37 2.37 0 0 1 2.14 0Zm5.5-3.15c.56.34.56.9 0 1.24-.56.33-1.57.33-2.14 0-.56-.34-.56-.9 0-1.24a2.37 2.37 0 0 1 2.14 0Zm5.61-3.15c.56.34.56.9 0 1.24-.56.34-1.57.34-2.13 0-.56-.34-.56-.9 0-1.24a2.37 2.37 0 0 1 2.13 0Z"/>
  <path fill="#177C1B" d="M70.07 142.55a2.38 2.38 0 0 1 2.13 0c.56.34.56.9 0 1.24-.56.33-1.57.33-2.13 0-.56-.34-.56-.9 0-1.24Zm-3.37-3.26c.56.34.56.9 0 1.24-.56.33-1.57.33-2.13 0-.56-.34-.56-.9 0-1.24a2.37 2.37 0 0 1 2.13 0Zm5.61-3.15c.56.34.56.9 0 1.24-.56.33-1.57.33-2.13 0-.56-.34-.56-.9 0-1.24a2.38 2.38 0 0 1 2.13 0Zm5.62-3.26c.56.33.56.9 0 1.23-.57.34-1.58.34-2.14 0-.56-.33-.56-.9 0-1.23a2.37 2.37 0 0 1 2.14 0Zm5.49-3.15c.57.34.57.9 0 1.24-.56.33-1.57.33-2.13 0-.56-.34-.56-.9 0-1.24a2.37 2.37 0 0 1 2.13 0Zm5.62-3.15c.56.34.56.9 0 1.24-.56.33-1.57.33-2.14 0-.56-.34-.56-.9 0-1.24a2.37 2.37 0 0 1 2.14 0Zm5.61-3.15c.56.34.56.9 0 1.24-.56.33-1.57.33-2.13 0-.56-.34-.56-.9 0-1.24a2.38 2.38 0 0 1 2.13 0Zm5.61-3.26c.56.33.56.9 0 1.23-.56.34-1.57.34-2.13 0-.56-.33-.56-.9 0-1.23a2.37 2.37 0 0 1 2.13 0Zm5.61-3.15c.56.34.56.9 0 1.24-.56.33-1.57.33-2.13 0-.56-.34-.56-.9 0-1.24a2.37 2.37 0 0 1 2.13 0Zm5.5-3.15c.56.34.56.9 0 1.24-.56.33-1.57.33-2.13 0-.56-.34-.56-.9 0-1.24a2.37 2.37 0 0 1 2.13 0Zm5.61-3.27c.57.34.57.9 0 1.25-.56.33-1.57.33-2.13 0-.56-.34-.56-.9 0-1.24a2.37 2.37 0 0 1 2.14 0Zm5.62-3.14c.56.34.56.9 0 1.23-.56.34-1.57.34-2.14 0-.56-.33-.56-.9 0-1.23a2.38 2.38 0 0 1 2.14 0Zm5.6-3.16c.57.35.57.9 0 1.25a2.4 2.4 0 0 1-2.12 0c-.56-.34-.56-.9 0-1.24a2.38 2.38 0 0 1 2.13 0Zm5.62-3.14c.56.34.56.9 0 1.24-.56.33-1.57.33-2.13 0-.56-.34-.56-.9 0-1.24a2.38 2.38 0 0 1 2.13 0Zm5.61-3.26c.56.34.56.9 0 1.24-.56.33-1.57.33-2.13 0-.56-.34-.56-.9 0-1.24a2.37 2.37 0 0 1 2.13 0Zm5.5-3.15c.56.34.56.9 0 1.24-.56.33-1.57.33-2.13 0-.56-.34-.56-.9 0-1.24a2.37 2.37 0 0 1 2.13 0Zm5.61-3.15c.57.34.57.9 0 1.24-.56.33-1.57.33-2.13 0-.56-.34-.56-.9 0-1.24a2.37 2.37 0 0 1 2.13 0Zm5.62-3.26c.56.34.56.9 0 1.24-.56.33-1.57.33-2.14 0-.56-.34-.56-.9 0-1.24a2.37 2.37 0 0 1 2.14 0Zm5.61-3.15c.56.34.56.9 0 1.24-.56.33-1.57.33-2.13 0-.56-.34-.56-.9 0-1.24a2.37 2.37 0 0 1 2.13 0Z"/>
  <path fill="#177C1B" d="M64.57 139.29a2.37 2.37 0 0 1 2.13 0c.56.34.56.9 0 1.24-.56.33-1.57.33-2.13 0-.56-.34-.56-.9 0-1.24Zm-3.37-3.26c.56.33.56.9 0 1.23-.56.34-1.57.34-2.13 0-.56-.33-.56-.9 0-1.23a2.37 2.37 0 0 1 2.13 0Zm5.5-3.15c.56.33.56.9 0 1.23-.56.34-1.57.34-2.13 0-.56-.33-.56-.9 0-1.23a2.37 2.37 0 0 1 2.13 0Zm5.61-3.15c.56.34.56.9 0 1.24-.56.33-1.57.33-2.13 0-.56-.34-.56-.9 0-1.24a2.37 2.37 0 0 1 2.13 0Zm5.62-3.15c.56.34.56.9 0 1.24-.57.33-1.58.33-2.14 0-.56-.34-.56-.9 0-1.24a2.38 2.38 0 0 1 2.14 0Zm5.61-3.26c.56.33.56.9 0 1.23-.56.34-1.57.34-2.14 0-.56-.33-.56-.9 0-1.23a2.37 2.37 0 0 1 2.14 0Zm5.61-3.15c.56.33.56.9 0 1.23-.56.34-1.57.34-2.13 0-.56-.33-.56-.9 0-1.23a2.37 2.37 0 0 1 2.13 0Zm5.5-3.15c.56.34.56.9 0 1.24-.56.33-1.57.33-2.13 0-.56-.34-.56-.9 0-1.24a2.37 2.37 0 0 1 2.13 0Zm5.61-3.26c.56.33.56.9 0 1.23-.56.34-1.57.34-2.13 0-.56-.33-.56-.9 0-1.23a2.37 2.37 0 0 1 2.13 0Zm5.61-3.16c.56.34.56.9 0 1.25-.56.33-1.57.33-2.13 0-.56-.34-.56-.9 0-1.24a2.37 2.37 0 0 1 2.13 0Zm5.61-3.14c.57.34.57.9 0 1.23-.56.34-1.57.34-2.13 0-.56-.33-.56-.9 0-1.23a2.38 2.38 0 0 1 2.14 0Zm5.62-3.16c.56.35.56.9 0 1.25-.56.33-1.57.33-2.14 0-.56-.34-.56-.9 0-1.24a2.37 2.37 0 0 1 2.14 0Zm5.5-3.25c.56.34.56.9 0 1.23-.56.34-1.57.34-2.14 0-.56-.33-.56-.9 0-1.23a2.37 2.37 0 0 1 2.14 0Zm5.6-3.15c.57.34.57.9 0 1.24a2.4 2.4 0 0 1-2.12 0c-.56-.34-.56-.9 0-1.24a2.37 2.37 0 0 1 2.13 0Zm5.62-3.15c.56.34.56.9 0 1.24-.56.33-1.57.33-2.13 0-.56-.34-.56-.9 0-1.24a2.37 2.37 0 0 1 2.13 0Zm5.61-3.26c.56.33.56.9 0 1.23-.56.34-1.57.34-2.13 0-.56-.33-.56-.9 0-1.23a2.37 2.37 0 0 1 2.13 0Zm5.61-3.15c.57.34.57.9 0 1.24-.56.33-1.57.33-2.13 0-.56-.34-.56-.9 0-1.24a2.37 2.37 0 0 1 2.13 0Zm5.62-3.15c.56.34.56.9 0 1.24-.56.33-1.57.33-2.14 0-.56-.34-.56-.9 0-1.24a2.37 2.37 0 0 1 2.14 0Zm5.5-3.15c.56.34.56.9 0 1.24-.56.33-1.57.33-2.14 0-.56-.34-.56-.9 0-1.24a2.37 2.37 0 0 1 2.14 0Z"/>
  <path fill="#177C1B" d="M59.07 136.03a2.38 2.38 0 0 1 2.13 0c.56.33.56.9 0 1.23-.56.34-1.57.34-2.13 0-.67-.33-.67-.78 0-1.23Zm2.13-6.3c.56.34.56.9 0 1.24-.56.33-1.57.33-2.13 0-.56-.34-.56-.9 0-1.24a2.37 2.37 0 0 1 2.13 0Zm5.61-3.26c.56.33.56.9 0 1.23-.56.34-1.57.34-2.13 0-.56-.33-.56-.9 0-1.23a2.37 2.37 0 0 1 2.13 0Zm5.5-3.15c.56.33.56.9 0 1.23-.56.34-1.57.34-2.13 0-.56-.33-.56-.9 0-1.23a2.37 2.37 0 0 1 2.13 0Zm5.62-3.15c.56.33.56.9 0 1.23-.57.34-1.58.34-2.14 0-.56-.33-.56-.9 0-1.23a2.37 2.37 0 0 1 2.14 0Zm5.61-3.27c.56.34.56.9 0 1.24-.56.34-1.57.34-2.14 0-.56-.33-.56-.9 0-1.23a2.37 2.37 0 0 1 2.14 0Zm5.61-3.14c.56.33.56.9 0 1.23-.56.34-1.57.34-2.13 0-.56-.33-.56-.9 0-1.23a2.37 2.37 0 0 1 2.13 0Zm5.61-3.16c.56.34.56.9 0 1.25-.56.33-1.57.33-2.13 0-.56-.34-.56-.9 0-1.24a2.37 2.37 0 0 1 2.13 0Zm5.61-3.14c.56.34.56.9 0 1.23-.56.34-1.57.34-2.13 0-.56-.33-.56-.9 0-1.23a2.37 2.37 0 0 1 2.13 0Zm5.5-3.26c.56.33.56.9 0 1.23-.56.34-1.57.34-2.13 0-.56-.33-.56-.9 0-1.23a2.37 2.37 0 0 1 2.13 0Zm5.61-3.15c.57.34.57.9 0 1.23-.56.34-1.57.34-2.13 0-.56-.33-.56-.9 0-1.23a2.38 2.38 0 0 1 2.14 0Zm5.62-3.15c.56.34.56.9 0 1.24-.56.33-1.57.33-2.14 0-.56-.34-.56-.9 0-1.24a2.37 2.37 0 0 1 2.14 0Zm5.6-3.26c.57.33.57.9 0 1.23-.55.34-1.56.34-2.12 0-.56-.33-.56-.9 0-1.23a2.37 2.37 0 0 1 2.13 0Zm5.62-3.15c.56.33.56.9 0 1.23-.56.34-1.57.34-2.13 0-.56-.33-.56-.9 0-1.23a2.37 2.37 0 0 1 2.13 0Zm5.5-3.15c.56.34.56.9 0 1.24-.56.33-1.57.33-2.13 0-.56-.34-.56-.9 0-1.24a2.37 2.37 0 0 1 2.13 0Zm5.61-3.15c.56.34.56.9 0 1.24-.56.33-1.57.33-2.13 0-.56-.34-.56-.9 0-1.24a2.37 2.37 0 0 1 2.13 0Zm5.61-3.26c.57.33.57.9 0 1.23-.56.34-1.57.34-2.13 0-.56-.33-.56-.9 0-1.23a2.37 2.37 0 0 1 2.13 0Zm5.62-3.15c.56.34.56.9 0 1.24-.56.33-1.57.33-2.14 0-.56-.34-.56-.9 0-1.24a2.37 2.37 0 0 1 2.14 0ZM61.2 123.32c.56.33.56.9 0 1.23-.56.34-1.57.34-2.13 0-.56-.33-.56-.9 0-1.23a2.37 2.37 0 0 1 2.13 0Zm5.61-3.15c.56.33.56.9 0 1.23-.56.34-1.57.34-2.13 0-.56-.33-.56-.9 0-1.23a1.86 1.86 0 0 1 2.13 0Zm5.62-3.27c.56.34.56.9 0 1.24-.57.34-1.58.34-2.14 0-.56-.33-.56-.9 0-1.23a2.37 2.37 0 0 1 2.14 0Zm5.61-3.14c.56.33.56.9 0 1.23-.56.34-1.57.34-2.14 0-.56-.33-.56-.9 0-1.23a2.37 2.37 0 0 1 2.14 0Zm5.5-3.16c.56.34.56.9 0 1.25-.56.33-1.57.33-2.14 0-.56-.34-.56-.9 0-1.24a2.37 2.37 0 0 1 2.14 0Zm5.61-3.25c.56.33.56.9 0 1.23-.56.34-1.57.34-2.13 0-.56-.33-.56-.9 0-1.23a2.37 2.37 0 0 1 2.13 0Zm5.61-3.15c.56.33.56.9 0 1.23-.56.34-1.57.34-2.13 0-.56-.33-.56-.9 0-1.23a2.37 2.37 0 0 1 2.13 0Zm5.61-3.15c.56.34.56.9 0 1.23-.56.34-1.57.34-2.13 0-.56-.33-.56-.9 0-1.23a2.38 2.38 0 0 1 2.13 0Zm5.61-3.15c.57.34.57.9 0 1.24-.56.33-1.57.33-2.13 0-.56-.34-.56-.9 0-1.24a1.85 1.85 0 0 1 2.14 0Zm5.62-3.26c.56.33.56.9 0 1.23-.56.34-1.57.34-2.13 0-.57-.33-.57-.9 0-1.23a2.37 2.37 0 0 1 2.13 0Zm5.5-3.15c.56.33.56.9 0 1.23-.56.34-1.57.34-2.14 0-.56-.33-.56-.9 0-1.23a2.37 2.37 0 0 1 2.14 0Zm5.6-3.15c.57.34.57.9 0 1.24a2.4 2.4 0 0 1-2.12 0c-.56-.34-.56-.9 0-1.24a2.37 2.37 0 0 1 2.13 0Zm5.62-3.26c.56.33.56.9 0 1.23-.56.34-1.57.34-2.13 0-.56-.33-.56-.9 0-1.23a2.37 2.37 0 0 1 2.13 0Zm5.61-3.15c.56.33.56.9 0 1.23-.56.34-1.57.34-2.13 0-.56-.33-.56-.9 0-1.23a2.37 2.37 0 0 1 2.13 0Zm5.61-3.15c.57.34.57.9 0 1.24-.56.33-1.57.33-2.13 0-.56-.34-.56-.9 0-1.24a2.37 2.37 0 0 1 2.13 0Zm5.5-3.26c.57.33.57.9 0 1.23-.56.34-1.57.34-2.13 0-.56-.33-.56-.9 0-1.23a2.37 2.37 0 0 1 2.13 0ZM61.31 116.9c.56.34.56.9 0 1.24-.56.34-1.57.34-2.13 0-.56-.33-.56-.9 0-1.23a2.37 2.37 0 0 1 2.13 0Zm5.5-3.14c.56.33.56.9 0 1.23-.56.34-1.57.34-2.13 0-.56-.33-.56-.9 0-1.23a2.37 2.37 0 0 1 2.13 0Zm5.62-3.26c.56.33.56.9 0 1.23-.57.34-1.58.34-2.14 0s-.56-.9 0-1.23a2.38 2.38 0 0 1 2.14 0Zm5.61-3.15c.56.33.56.9 0 1.23-.56.34-1.57.34-2.14 0-.56-.33-.56-.9 0-1.23a2.37 2.37 0 0 1 2.14 0Zm5.61-3.15c.56.33.56.9 0 1.23-.56.34-1.57.34-2.13 0-.56-.33-.56-.9 0-1.23a2.37 2.37 0 0 1 2.13 0Zm5.61-3.15c.56.34.56.9 0 1.23-.56.34-1.57.34-2.13 0-.56-.33-.56-.9 0-1.23a2.37 2.37 0 0 1 2.13 0Zm5.5-3.26c.56.33.56.9 0 1.23-.56.34-1.57.34-2.13 0-.56-.33-.56-.9 0-1.23a2.37 2.37 0 0 1 2.13 0Zm5.61-3.15c.56.33.56.9 0 1.23-.56.34-1.57.34-2.13 0-.56-.33-.56-.9 0-1.23a2.37 2.37 0 0 1 2.13 0Zm5.61-3.15c.57.33.57.9 0 1.23-.56.34-1.57.34-2.13 0-.56-.33-.56-.9 0-1.23a2.37 2.37 0 0 1 2.14 0Zm5.62-3.26c.56.33.56.9 0 1.23-.56.34-1.57.34-2.13 0-.57-.33-.57-.9 0-1.23a2.37 2.37 0 0 1 2.13 0Zm5.6-3.15c.57.33.57.9 0 1.23-.55.34-1.56.34-2.12 0-.56-.33-.56-.9 0-1.23a2.37 2.37 0 0 1 2.13 0Zm5.62-3.15c.56.33.56.9 0 1.23-.56.34-1.57.34-2.13 0-.56-.33-.56-.9 0-1.23a2.37 2.37 0 0 1 2.13 0Zm5.5-3.15c.56.34.56.9 0 1.24-.56.33-1.57.33-2.13 0-.56-.34-.56-.9 0-1.24.67-.45 1.57-.45 2.13 0Zm5.61-3.26c.56.33.56.9 0 1.23-.56.34-1.57.34-2.13 0-.56-.33-.56-.9 0-1.23a2.37 2.37 0 0 1 2.13 0Zm5.61-3.15c.57.33.57.9 0 1.23-.56.34-1.57.34-2.13 0-.56-.33-.56-.9 0-1.23a2.37 2.37 0 0 1 2.13 0ZM61.31 110.5c.56.33.56.9 0 1.23-.56.34-1.57.34-2.13 0-.56-.34-.56-.9 0-1.23a2.38 2.38 0 0 1 2.13 0Zm5.62-3.15c.56.33.56.9 0 1.23-.57.34-1.58.34-2.14 0-.56-.33-.56-.9 0-1.23a2.37 2.37 0 0 1 2.14 0Zm5.61-3.15c.56.33.56.9 0 1.23-.56.34-1.57.34-2.14 0-.56-.33-.56-.9 0-1.23a2.37 2.37 0 0 1 2.14 0Zm5.5-3.26c.56.33.56.9 0 1.23-.56.34-1.57.34-2.14 0-.56-.34-.56-.9 0-1.23a2.37 2.37 0 0 1 2.14 0Zm5.61-3.15c.56.33.56.9 0 1.23-.56.34-1.57.34-2.13 0-.56-.33-.56-.9 0-1.23a2.37 2.37 0 0 1 2.13 0Zm5.61-3.15c.56.33.56.9 0 1.23-.56.34-1.57.34-2.13 0-.56-.33-.56-.9 0-1.23a2.37 2.37 0 0 1 2.13 0Zm5.61-3.27c.56.34.56.9 0 1.24-.56.34-1.57.34-2.13 0-.56-.34-.56-.9 0-1.24a2.37 2.37 0 0 1 2.13 0Zm5.61-3.14c.57.33.57.9 0 1.23-.56.34-1.57.34-2.13 0-.56-.33-.56-.9 0-1.23a2.37 2.37 0 0 1 2.14 0Zm5.5-3.15c.57.33.57.9 0 1.23-.56.34-1.57.34-2.13 0-.56-.33-.56-.9 0-1.23a2.37 2.37 0 0 1 2.14 0Zm5.62-3.15c.56.33.56.9 0 1.23-.56.34-1.57.34-2.13 0-.57-.33-.57-.9 0-1.23a2.37 2.37 0 0 1 2.13 0Zm5.6-3.26c.57.33.57.9 0 1.23-.55.34-1.56.34-2.12 0-.56-.33-.56-.9 0-1.23a2.37 2.37 0 0 1 2.13 0Zm5.62-3.15c.56.33.56.9 0 1.23-.56.34-1.57.34-2.13 0-.56-.33-.56-.9 0-1.23a2.37 2.37 0 0 1 2.13 0Zm5.61-3.15c.56.33.56.9 0 1.23-.56.34-1.57.34-2.13 0-.56-.33-.56-.9 0-1.23a2.37 2.37 0 0 1 2.13 0Zm5.61-3.27c.57.34.57.9 0 1.24-.56.34-1.57.34-2.13 0-.56-.33-.56-.9 0-1.23a2.37 2.37 0 0 1 2.13 0Zm-72.73 34.98c.56.34.56.9 0 1.24-.56.34-1.57.34-2.13 0-.56-.34-.56-.9 0-1.24a2.37 2.37 0 0 1 2.13 0Zm5.62-3.14c.56.33.56.9 0 1.23-.57.34-1.58.34-2.14 0s-.56-.9 0-1.23a2.38 2.38 0 0 1 2.14 0Zm5.61-3.15c.56.33.56.9 0 1.23-.56.34-1.57.34-2.14 0-.56-.33-.56-.9 0-1.23a2.37 2.37 0 0 1 2.14 0Zm5.61-3.27c.56.34.56.9 0 1.24-.56.34-1.57.34-2.13 0-.56-.34-.56-.9 0-1.24a2.37 2.37 0 0 1 2.13 0Zm5.61-3.15c.56.34.56.9 0 1.24-.56.34-1.57.34-2.13 0-.56-.34-.56-.9 0-1.24a2.37 2.37 0 0 1 2.13 0Zm5.5-3.14c.56.33.56.9 0 1.23-.56.34-1.57.34-2.13 0-.56-.33-.56-.9 0-1.23a2.37 2.37 0 0 1 2.13 0Zm5.61-3.15c.56.33.56.9 0 1.23-.56.34-1.57.34-2.13 0-.56-.33-.56-.9 0-1.23a2.37 2.37 0 0 1 2.13 0Zm5.61-3.27c.57.34.57.9 0 1.24-.56.34-1.57.34-2.13 0-.56-.34-.56-.9 0-1.24a2.37 2.37 0 0 1 2.14 0Zm5.62-3.14c.56.33.56.9 0 1.23-.56.34-1.57.34-2.13 0-.57-.33-.57-.9 0-1.23a2.37 2.37 0 0 1 2.13 0Zm5.6-3.15c.57.33.57.9 0 1.23-.55.34-1.56.34-2.12 0-.56-.33-.56-.9 0-1.23a2.37 2.37 0 0 1 2.13 0Zm5.5-3.27c.57.34.57.9 0 1.24-.55.34-1.56.34-2.12 0s-.56-.9 0-1.24a2.37 2.37 0 0 1 2.13 0Zm5.62-3.15c.56.34.56.9 0 1.24-.56.34-1.57.34-2.13 0-.56-.33-.56-.9 0-1.23a2.37 2.37 0 0 1 2.13 0Zm5.61-3.14c.56.33.56.9 0 1.23-.56.34-1.57.34-2.13 0-.56-.33-.56-.9 0-1.23a2.37 2.37 0 0 1 2.13 0Zm-72.62 34.98c.56.33.56.9 0 1.23-.56.34-1.57.34-2.13 0-.56-.34-.56-.9 0-1.23a2.38 2.38 0 0 1 2.13 0Zm5.62-3.27c.56.34.56.9 0 1.24-.57.34-1.58.34-2.14 0s-.56-.9 0-1.24a2.37 2.37 0 0 1 2.14 0Zm5.5-3.15c.56.34.56.9 0 1.24-.57.34-1.58.34-2.14 0s-.56-.9 0-1.24a2.37 2.37 0 0 1 2.14 0ZM111.7 69.1c.57.34.57.9 0 1.24-.55.34-1.56.34-2.12 0-.56-.33-.56-.9 0-1.23a2.37 2.37 0 0 1 2.13 0Zm5.62-3.14c.56.33.56.9 0 1.23-.56.34-1.57.34-2.13 0-.56-.33-.56-.9 0-1.23a2.37 2.37 0 0 1 2.13 0Zm5.61-3.26c.56.33.56.9 0 1.23-.56.34-1.57.34-2.13 0-.56-.34-.56-.9 0-1.24a2.37 2.37 0 0 1 2.13 0ZM44.7 100.82c.56.34.56.9 0 1.24-.56.34-1.57.34-2.13 0-.56-.34-.56-.9 0-1.24a2.37 2.37 0 0 1 2.13 0Zm5.5-3.15c.56.34.56.9 0 1.24-.56.34-1.57.34-2.13 0-.56-.34-.56-.9 0-1.24a2.37 2.37 0 0 1 2.13 0Zm5.61-3.15c.56.34.56.9 0 1.24-.56.34-1.57.34-2.13 0-.56-.34-.56-.9 0-1.24a2.37 2.37 0 0 1 2.13 0Zm92.04 92.91a2.37 2.37 0 0 1 2.13 0c.56.33.56.9 0 1.23-.56.34-1.57.34-2.13 0-.56-.34-.56-.9 0-1.23Zm-5.61-3.15a2.37 2.37 0 0 1 2.13 0c.56.33.56.9 0 1.23-.56.34-1.57.34-2.13 0-.56-.33-.56-.9 0-1.23Zm-5.5-3.27a2.37 2.37 0 0 1 2.13 0c.56.34.56.9 0 1.24-.56.34-1.57.34-2.13 0-.56-.34-.56-.9 0-1.24Zm-5.5-3.14a2.38 2.38 0 0 1 2.13 0c.56.33.56.9 0 1.23-.56.34-1.57.34-2.13 0-.67-.34-.67-.9 0-1.23Zm-5.61-3.27a2.37 2.37 0 0 1 2.13 0c.56.34.56.9 0 1.24-.56.34-1.57.34-2.13 0-.68-.34-.68-.9 0-1.24Zm-5.61-3.26a2.38 2.38 0 0 1 2.13 0c.56.34.56.9 0 1.24-.56.34-1.57.34-2.14 0-.56-.34-.56-.9 0-1.24Zm-5.5-3.14a2.37 2.37 0 0 1 2.13 0c.56.33.56.9 0 1.23-.56.34-1.57.34-2.14 0-.56-.34-.56-.9 0-1.24Zm-5.62-3.27a2.38 2.38 0 0 1 2.14 0c.56.34.56.9 0 1.24-.57.34-1.58.34-2.14 0s-.56-.9 0-1.24Z"/>
  <path fill="#177C1B" d="M149.98 187.43c.56.33.56.9 0 1.23-.56.34-1.57.34-2.13 0-.56-.34-.56-.9 0-1.23a2.37 2.37 0 0 1 2.13 0Zm-11.11 0c.56.33.56.9 0 1.23-.56.34-1.57.34-2.13 0-.56-.34-.56-.9 0-1.23a2.37 2.37 0 0 1 2.13 0Zm5.5-3.15c.56.33.56.9 0 1.23-.56.34-1.57.34-2.13 0-.56-.33-.56-.9 0-1.23a2.37 2.37 0 0 1 2.13 0Zm-11.11 0c.56.33.56.9 0 1.23-.56.34-1.57.34-2.13 0-.56-.33-.56-.9 0-1.23a2.37 2.37 0 0 1 2.13 0Zm5.61-3.27c.56.34.56.9 0 1.24-.56.34-1.57.34-2.13 0-.56-.34-.56-.9 0-1.24a2.37 2.37 0 0 1 2.13 0Zm-16.72 3.15c.56.34.56.9 0 1.24-.56.34-1.57.34-2.14 0-.56-.34-.56-.9 0-1.24a2.37 2.37 0 0 1 2.14 0Zm5.61-3.15c.56.34.56.9 0 1.24-.56.34-1.57.34-2.13 0-.56-.34-.56-.9 0-1.24a2.37 2.37 0 0 1 2.13 0Zm5.5-3.14c.56.33.56.9 0 1.23-.56.34-1.57.34-2.13 0-.56-.34-.56-.9 0-1.23a2.37 2.37 0 0 1 2.13 0Zm-22.22 6.29c.56.34.56.9 0 1.24-.57.34-1.58.34-2.14 0s-.56-.9 0-1.24a2.37 2.37 0 0 1 2.14 0Zm5.5-3.15c.56.34.56.9 0 1.24-.57.34-1.58.34-2.14 0s-.56-.9 0-1.24a2.37 2.37 0 0 1 2.14 0Zm5.61-3.26c.56.34.56.9 0 1.24-.56.34-1.57.34-2.14 0-.56-.34-.56-.9 0-1.24a2.37 2.37 0 0 1 2.14 0Zm5.61-3.15c.56.34.56.9 0 1.24-.56.34-1.57.34-2.13 0-.56-.34-.56-.9 0-1.24a2.37 2.37 0 0 1 2.13 0Zm-22.34 6.3c.56.34.56.9 0 1.24-.56.34-1.57.34-2.13 0-.56-.34-.56-.9 0-1.24a2.38 2.38 0 0 1 2.13 0Zm5.62-3.15c.56.34.56.9 0 1.24-.57.34-1.58.34-2.14 0s-.56-.9 0-1.24a2.37 2.37 0 0 1 2.14 0Zm5.61-3.15c.56.34.56.9 0 1.24-.56.34-1.57.34-2.14 0-.56-.34-.56-.9 0-1.24a2.37 2.37 0 0 1 2.14 0Zm5.61-3.15c.56.34.56.9 0 1.24-.56.34-1.57.34-2.13 0-.56-.34-.56-.9 0-1.24a2.37 2.37 0 0 1 2.13 0Zm-27.95 9.45c.56.34.56.9 0 1.24-.56.34-1.57.34-2.13 0-.56-.34-.56-.9 0-1.24a2.38 2.38 0 0 1 2.13 0Zm5.61-3.15c.56.34.56.9 0 1.24-.56.34-1.57.34-2.13 0-.56-.34-.56-.9 0-1.24a2.37 2.37 0 0 1 2.13 0Zm5.5-3.15c.56.34.56.9 0 1.24-.56.34-1.57.34-2.13 0-.56-.34-.56-.9 0-1.24a2.37 2.37 0 0 1 2.13 0Zm5.62-3.26c.56.34.56.9 0 1.24-.57.34-1.58.34-2.14 0s-.56-.9 0-1.24a2.37 2.37 0 0 1 2.14 0Zm5.61-3.14c.56.33.56.9 0 1.23-.56.34-1.57.34-2.14 0-.56-.34-.56-.9 0-1.24a2.37 2.37 0 0 1 2.14 0ZM83.2 180.9c.56.34.56.9 0 1.24-.56.34-1.57.34-2.13 0-.56-.34-.56-.9 0-1.24a2.37 2.37 0 0 1 2.13 0Zm5.5-3.15c.56.34.56.9 0 1.24-.56.34-1.57.34-2.13 0-.56-.34-.56-.9 0-1.24a2.37 2.37 0 0 1 2.13 0Zm5.61-3.25c.56.33.56.9 0 1.23-.56.34-1.57.34-2.13 0-.56-.34-.56-.9 0-1.24a2.37 2.37 0 0 1 2.13 0Zm5.61-3.16c.56.34.56.9 0 1.24-.56.34-1.57.34-2.13 0-.56-.34-.56-.9 0-1.24a2.38 2.38 0 0 1 2.13 0Zm5.62-3.14c.56.33.56.9 0 1.23-.57.34-1.58.34-2.14 0s-.56-.9 0-1.24a2.37 2.37 0 0 1 2.14 0Zm5.61-3.27c.56.34.56.9 0 1.24-.56.34-1.57.34-2.14 0-.56-.34-.56-.9 0-1.24a2.37 2.37 0 0 1 2.14 0Zm-33.56 12.71c.56.34.56.9 0 1.24-.56.34-1.57.34-2.13 0-.57-.34-.57-.9 0-1.24a2.38 2.38 0 0 1 2.13 0Zm5.61-3.14c.56.33.56.9 0 1.23-.56.34-1.57.34-2.13 0-.56-.34-.56-.9 0-1.24a2.38 2.38 0 0 1 2.13 0Zm5.61-3.16c.56.34.56.9 0 1.24-.56.34-1.57.34-2.13 0-.56-.34-.56-.9 0-1.24a2.38 2.38 0 0 1 2.13 0Zm5.61-3.14c.57.33.57.9 0 1.23-.56.34-1.57.34-2.13 0-.56-.34-.56-.9 0-1.24.56-.45 1.46-.45 2.13 0Zm5.5-3.27c.56.34.56.9 0 1.24-.56.34-1.57.34-2.13 0-.56-.34-.56-.9 0-1.24a2.37 2.37 0 0 1 2.13 0Zm5.62-3.15c.56.34.56.9 0 1.24-.57.34-1.58.34-2.14 0s-.56-.9 0-1.24a2.37 2.37 0 0 1 2.14 0Zm-39.06 15.86c.56.34.56.9 0 1.24-.56.34-1.58.34-2.14 0s-.56-.9 0-1.24a2.38 2.38 0 0 1 2.14 0Zm5.61-3.14c.56.33.56.9 0 1.23-.56.34-1.57.34-2.13 0-.57-.34-.57-.9 0-1.24a2.37 2.37 0 0 1 2.13 0Zm5.5-3.16c.56.34.56.9 0 1.24-.56.34-1.57.34-2.13 0-.57-.34-.57-.9 0-1.24a2.37 2.37 0 0 1 2.13 0Zm5.61-3.26c.56.34.56.9 0 1.24-.56.34-1.57.34-2.13 0-.56-.34-.56-.9 0-1.24a2.37 2.37 0 0 1 2.13 0Zm5.61-3.15c.56.34.56.9 0 1.24-.56.34-1.57.34-2.13 0-.56-.34-.56-.9 0-1.24a2.38 2.38 0 0 1 2.13 0Zm5.61-3.15c.57.34.57.9 0 1.24-.56.34-1.57.34-2.13 0-.56-.34-.56-.9 0-1.24a2.37 2.37 0 0 1 2.13 0Zm5.62-3.26c.56.34.56.9 0 1.24-.56.34-1.58.34-2.14 0s-.56-.9 0-1.24a2.37 2.37 0 0 1 2.14 0Zm-44.68 19.12c.57.34.57.9 0 1.24-.56.34-1.57.34-2.13 0-.56-.34-.56-.9 0-1.24a2.37 2.37 0 0 1 2.13 0Zm5.5-3.14c.57.33.57.9 0 1.23-.56.34-1.57.34-2.13 0-.56-.34-.56-.9 0-1.24a2.37 2.37 0 0 1 2.13 0Zm5.62-3.27c.56.34.56.9 0 1.24-.56.33-1.58.33-2.14 0-.56-.34-.56-.9 0-1.24a2.37 2.37 0 0 1 2.14 0Zm5.61-3.15c.56.34.56.9 0 1.24-.56.34-1.57.34-2.13 0-.57-.34-.57-.9 0-1.24a2.38 2.38 0 0 1 2.13 0Zm5.61-3.15c.56.34.56.9 0 1.24-.56.34-1.57.34-2.13 0-.56-.34-.56-.9 0-1.24a2.38 2.38 0 0 1 2.13 0Zm5.61-3.26c.56.34.56.9 0 1.24-.56.33-1.57.33-2.13 0-.56-.34-.56-.9 0-1.24a2.37 2.37 0 0 1 2.13 0Zm5.5-3.15c.56.34.56.9 0 1.24-.56.34-1.57.34-2.13 0-.56-.34-.56-.9 0-1.24a2.37 2.37 0 0 1 2.13 0Zm5.61-3.15c.57.34.57.9 0 1.24-.56.34-1.57.34-2.13 0-.56-.34-.56-.9 0-1.24a2.37 2.37 0 0 1 2.13 0Zm-44.67 19.01c.56.34.56.9 0 1.24-.56.33-1.57.33-2.13 0-.56-.34-.56-.9 0-1.24a2.37 2.37 0 0 1 2.13 0Zm5.61-3.15c.57.34.57.9 0 1.24-.56.33-1.57.33-2.13 0-.56-.34-.56-.9 0-1.24a2.37 2.37 0 0 1 2.13 0Zm5.62-3.15c.56.34.56.9 0 1.24-.56.34-1.57.34-2.14 0-.56-.34-.56-.9 0-1.24a2.38 2.38 0 0 1 2.14 0Zm5.61-3.26c.56.34.56.9 0 1.24-.56.33-1.57.33-2.13 0-.57-.34-.57-.9 0-1.24a2.37 2.37 0 0 1 2.13 0Zm5.5-3.15c.56.34.56.9 0 1.24-.56.33-1.57.33-2.13 0-.57-.34-.57-.9 0-1.24a2.37 2.37 0 0 1 2.13 0Zm5.61-3.15c.56.34.56.9 0 1.24-.56.34-1.57.34-2.13 0-.56-.34-.56-.9 0-1.24a2.38 2.38 0 0 1 2.13 0Zm5.61-3.15c.56.34.56.9 0 1.24-.56.34-1.57.34-2.13 0-.56-.34-.56-.9 0-1.24a2.38 2.38 0 0 1 2.13 0Zm5.61-3.27c.57.35.57.9 0 1.25-.56.33-1.57.33-2.13 0-.56-.34-.56-.9 0-1.24a2.38 2.38 0 0 1 2.13 0Zm-50.28 22.28c.56.34.56.9 0 1.24-.56.33-1.57.33-2.13 0-.56-.34-.56-.9 0-1.24a2.37 2.37 0 0 1 2.13 0Zm5.61-3.15c.56.34.56.9 0 1.24-.56.33-1.57.33-2.13 0-.56-.34-.56-.9 0-1.24a2.37 2.37 0 0 1 2.13 0Zm5.5-3.26c.56.34.56.9 0 1.24-.56.33-1.57.33-2.13 0-.56-.34-.56-.9 0-1.24a2.37 2.37 0 0 1 2.13 0Zm5.61-3.15c.57.34.57.9 0 1.24-.56.33-1.57.33-2.13 0-.56-.34-.56-.9 0-1.24a2.37 2.37 0 0 1 2.13 0Zm5.62-3.15c.56.34.56.9 0 1.24-.56.33-1.57.33-2.14 0-.56-.34-.56-.9 0-1.24a2.38 2.38 0 0 1 2.14 0Zm5.61-3.15c.56.34.56.9 0 1.24-.56.34-1.57.34-2.13 0-.57-.34-.57-.9 0-1.24a2.38 2.38 0 0 1 2.13 0Zm5.61-3.26c.56.34.56.9 0 1.24-.56.33-1.57.33-2.13 0-.56-.34-.56-.9 0-1.24a2.37 2.37 0 0 1 2.13 0Zm5.61-3.16c.56.35.56.9 0 1.25-.56.33-1.57.33-2.13 0-.56-.34-.56-.9 0-1.24a2.37 2.37 0 0 1 2.13 0Zm5.5-3.14c.56.34.56.9 0 1.24-.56.34-1.57.34-2.13 0-.56-.34-.56-.9 0-1.24a2.37 2.37 0 0 1 2.13 0Zm-55.78 25.42c.56.34.56.9 0 1.24-.56.33-1.57.33-2.13 0-.56-.34-.56-.9 0-1.24a2.37 2.37 0 0 1 2.13 0Zm5.5-3.26c.56.33.56.9 0 1.23-.56.34-1.57.34-2.13 0-.56-.33-.56-.9 0-1.23a2.37 2.37 0 0 1 2.13 0Zm5.61-3.15c.56.34.56.9 0 1.24-.56.33-1.57.33-2.13 0-.56-.34-.56-.9 0-1.24a2.37 2.37 0 0 1 2.13 0Zm5.61-3.15c.56.34.56.9 0 1.24-.56.33-1.57.33-2.13 0-.56-.34-.56-.9 0-1.24a2.37 2.37 0 0 1 2.13 0Zm5.61-3.15c.57.34.57.9 0 1.24-.56.33-1.57.33-2.13 0-.56-.34-.56-.9 0-1.24a2.38 2.38 0 0 1 2.13 0Zm11.12-6.41c.56.34.56.9 0 1.24-.56.33-1.57.33-2.14 0-.56-.34-.56-.9 0-1.24a2.37 2.37 0 0 1 2.14 0Zm5.61-3.16c.56.35.56.9 0 1.25-.56.33-1.57.33-2.13 0-.57-.34-.57-.9 0-1.24a2.37 2.37 0 0 1 2.13 0Zm5.61-3.25c.56.34.56.9 0 1.24-.56.33-1.57.33-2.13 0-.56-.34-.56-.9 0-1.24a2.37 2.37 0 0 1 2.13 0Zm5.61-3.15c.56.34.56.9 0 1.24-.56.33-1.57.33-2.13 0-.56-.34-.56-.9 0-1.24a2.37 2.37 0 0 1 2.13 0Zm-55.89 25.42c.56.33.56.9 0 1.23-.56.34-1.57.34-2.14 0-.56-.33-.56-.9 0-1.23a2.38 2.38 0 0 1 2.14 0Zm5.61-3.15c.56.34.56.9 0 1.24-.56.33-1.57.33-2.13 0-.56-.34-.56-.9 0-1.24a2.37 2.37 0 0 1 2.13 0Zm5.61-3.15c.56.34.56.9 0 1.24-.56.33-1.57.33-2.13 0-.56-.34-.56-.9 0-1.24a2.37 2.37 0 0 1 2.13 0Zm5.61-3.26c.56.33.56.9 0 1.23-.56.34-1.57.34-2.13 0-.56-.33-.56-.9 0-1.23a2.37 2.37 0 0 1 2.13 0Zm22.34-12.71c.56.34.56.9 0 1.24-.56.33-1.57.33-2.13 0-.56-.34-.56-.9 0-1.24a2.37 2.37 0 0 1 2.13 0Zm5.61-3.15c.56.34.56.9 0 1.24-.56.33-1.57.33-2.13 0-.56-.34-.56-.9 0-1.24a2.37 2.37 0 0 1 2.13 0Zm5.5-3.15c.56.34.56.9 0 1.24-.56.33-1.57.33-2.13 0-.56-.34-.56-.9 0-1.24a2.37 2.37 0 0 1 2.13 0Zm-61.4 28.57c.57.33.57.9 0 1.23-.56.34-1.57.34-2.13 0-.56-.33-.56-.9 0-1.23a2.38 2.38 0 0 1 2.14 0Zm5.62-3.15c.56.34.56.9 0 1.24-.56.33-1.57.33-2.14 0-.56-.34-.56-.9 0-1.24a2.37 2.37 0 0 1 2.14 0Zm5.5-3.27c.56.34.56.9 0 1.24-.56.34-1.57.34-2.14 0-.56-.33-.56-.9 0-1.23a2.37 2.37 0 0 1 2.14 0Zm5.61-3.14c.56.33.56.9 0 1.23-.56.34-1.57.34-2.13 0-.56-.33-.56-.9 0-1.23a2.37 2.37 0 0 1 2.13 0Zm33.56-19.12c.56.33.56.9 0 1.23-.56.34-1.57.34-2.13 0-.56-.33-.56-.9 0-1.23a2.37 2.37 0 0 1 2.13 0Zm5.61-3.15c.56.34.56.9 0 1.24-.56.33-1.57.33-2.13 0-.56-.34-.56-.9 0-1.24a2.37 2.37 0 0 1 2.13 0ZM5.2 167.85c.55.34.55.9 0 1.24-.57.34-1.58.34-2.14 0s-.56-.9 0-1.24a2.37 2.37 0 0 1 2.13 0Zm5.6-3.15c.57.34.57.9 0 1.24-.56.34-1.57.34-2.13 0-.56-.33-.56-.9 0-1.23a2.38 2.38 0 0 1 2.14 0Zm5.62-3.14c.56.33.56.9 0 1.23-.56.34-1.57.34-2.14 0-.56-.33-.56-.9 0-1.23a2.38 2.38 0 0 1 2.14 0Zm44.78-25.53c.56.33.56.9 0 1.23-.56.34-1.57.34-2.13 0-.56-.33-.56-.9 0-1.23a2.37 2.37 0 0 1 2.13 0ZM5.3 161.56c.57.33.57.9 0 1.23-.56.34-1.57.34-2.13 0-.56-.33-.56-.9 0-1.23a2.37 2.37 0 0 1 2.14 0Z"/>
  <path fill="#177C1B" d="M179.17 157.84a6 6 0 0 0-1.8-1.46l-13.92-7.98-97.42-56.58a9.2 9.2 0 0 0-2.92-1.12 13.78 13.78 0 0 0-6.06 0 9.24 9.24 0 0 0-2.92 1.12L34.6 103.18a6 6 0 0 0-1.8 1.47c-.56.78-.9 1.57-.9 2.36 0 .79.34 1.68.9 2.36a5.97 5.97 0 0 0 1.8 1.46h-.79a12.8 12.8 0 0 0-3.7.9c-1 .45-1.8.9-2.47 1.58l-13.8 13.94a4.4 4.4 0 0 0-1.13 1.8 4.83 4.83 0 0 0 0 1.8c.12.56.34 1.02.79 1.58.34.45.9.9 1.46 1.35.56.33 1.23.67 2.02 1h-.23a8.57 8.57 0 0 0-3.59 1.36 5.79 5.79 0 0 0-2.13 2.25l-7.18 15.4a3.3 3.3 0 0 0 .11 3.15 6.5 6.5 0 0 0 1.46 1.7 7 7 0 0 0 2.24 1.12c.79.22 1.57.45 2.36.56l20.54 3.15 7.52 1.12 20.54 3.15 7.52 1.13 28.17 4.38L162 183.71c.68.12 1.35.12 2.14.12.9 0 1.8-.12 2.58-.23a8.56 8.56 0 0 0 3.59-1.35 5.8 5.8 0 0 0 2.13-2.25l7.19-15.4c.1-.23.1-.46.22-.57.11-.45.11-.9.11-1.35 0-.11 0-.22-.11-.45.11-.22.11-.56.11-.78 0-.34 0-.57-.11-.9.11-.23.11-.57.11-.8.11-.33-.22-1.23-.78-1.9Z"/>
  <path fill="#177C1B" d="M57 90.46c2.05-.46 4.1-.46 6.16 0a9.5 9.5 0 0 1 3 1.15l97.42 56.57 13.91 7.99c.8.46 1.4.93 1.87 1.52a4.46 4.46 0 0 1 .84 1.68c.03.14.04.29 0 .42l-.01.39c-.02.12-.04.25-.09.38.1.33.1.57.1.88l-.01.42c-.01.12-.04.24-.08.37a.7.7 0 0 1 .07.22c.02.1.02.17.02.23v.01c0 .45 0 .92-.12 1.4l-.02.07-.04.05-.02.03a.84.84 0 0 0-.03.1c-.03.09-.06.22-.13.36l-7.18 15.4v.01a6.04 6.04 0 0 1-2.22 2.35 8.81 8.81 0 0 1-3.7 1.39c-.78.11-1.7.23-2.61.23h-.02c-.77 0-1.46 0-2.16-.12L94.27 173.5l-28.17-4.38-7.52-1.13-20.54-3.15-7.52-1.12-20.54-3.15c-.8-.12-1.6-.35-2.38-.57a7.09 7.09 0 0 1-2.3-1.15l-.03-.02h-.01a6.78 6.78 0 0 1-1.52-1.76 3.55 3.55 0 0 1-.12-3.38l7.19-15.41a6.04 6.04 0 0 1 2.21-2.35 8.54 8.54 0 0 1 3.06-1.27c-.46-.22-.88-.45-1.25-.67h-.02l-.03-.03a8.73 8.73 0 0 1-1.48-1.38 3.72 3.72 0 0 1-.83-1.68 5.09 5.09 0 0 1 0-1.89v-.04c.24-.7.6-1.3 1.19-1.9l13.8-13.94c.7-.7 1.53-1.17 2.55-1.63 1.14-.45 2.38-.8 3.74-.91a5.5 5.5 0 0 1-1.14-1.06 4.12 4.12 0 0 1-.95-2.52c0-.86.36-1.7.94-2.5v-.02a6.24 6.24 0 0 1 1.88-1.52L54 91.6a9.5 9.5 0 0 1 3-1.15ZM209.02 49.2c-.11-.11-.22-.11-.34-.11-.1-.12-.22-.12-.22-.23l-9.65-5.85c-.11-.11-.23-.22-.45-.22a4.85 4.85 0 0 0-4.6.33l-33.23 19.35-24.46-14.17c-5.28-3.04-13.14-3.38-17.74-.68L79.16 70.34c-1.9 1.13-3.03 2.7-3.26 4.39l.12 12.6.1.9c.46 1.9 2.03 3.7 4.39 5.17l37.6 21.7c2.8 1.7 6.5 2.48 9.99 2.48 2.91 0 5.72-.56 7.74-1.8l8.98-5.17v15.74c0 2.7 1.01 4.73 2.7 5.63l10.2 6.18s.12 0 .12.12l.79.44.1-.1a5.62 5.62 0 0 0 3.93-.68l42.88-24.97c3.37-2.03 6.06-7.09 6.06-11.58V54.7c0-2.59-.9-4.61-2.58-5.51Z"/>
  <path fill="#177C1B" fill-rule="evenodd" d="M198.42 42.54c.28.02.44.17.54.27l9.75 5.91v.07l.03.02.04.03c.1 0 .25.03.39.15 1.78.97 2.68 3.1 2.68 5.72v46.68c0 2.3-.68 4.72-1.8 6.83a12.64 12.64 0 0 1-4.38 4.96l-42.88 24.97a5.86 5.86 0 0 1-2.93.82h-.02c-.38 0-.7 0-1.03-.08l-.14.15-1.08-.62v-.05l-10.2-6.18c-1.79-.95-2.82-3.09-2.82-5.84v-15.31l-8.6 4.95c-2.07 1.28-4.93 1.84-7.87 1.84-3.51 0-7.27-.8-10.12-2.5L80.38 93.6c-2.39-1.48-4.02-3.32-4.5-5.33v-.01l-.11-.93-.12-12.63v-.01c.24-1.78 1.42-3.42 3.38-4.57L118.2 47.4c2.36-1.38 5.53-1.98 8.76-1.85 3.23.13 6.55.98 9.23 2.52l24.34 14.1 33.1-19.27a5.1 5.1 0 0 1 4.8-.37Zm-4.54.8-33.35 19.42-24.59-14.25a20.01 20.01 0 0 0-9-2.45c-3.17-.13-6.23.46-8.48 1.78L79.29 70.56c-1.85 1.09-2.92 2.6-3.14 4.18l.12 12.57.1.87c.44 1.82 1.94 3.56 4.27 5l37.6 21.71c2.75 1.66 6.4 2.44 9.86 2.44 2.89 0 5.64-.56 7.61-1.76l9.36-5.4v16.18c0 2.65.99 4.56 2.56 5.4l.01.01 10.18 6.16.08.03a.35.35 0 0 1 .15.16l.53.3.1-.08.14.05a5.36 5.36 0 0 0 3.73-.66l42.86-24.97a12.15 12.15 0 0 0 4.2-4.76 14.57 14.57 0 0 0 1.74-6.6V54.7c0-2.54-.88-4.45-2.45-5.3h-.03l-.03-.04a.1.1 0 0 0-.05-.03h-.2l-.08-.08-.06-.04-.06-.04a.45.45 0 0 1-.14-.16l-9.6-5.81-.02-.02a.75.75 0 0 0-.13-.12.25.25 0 0 0-.14-.03h-.06l-.05-.03c-1.26-.63-2.85-.53-4.37.33Z" clip-rule="evenodd"/>
  <path fill="#FDEDCC" d="M179.5 163.13c0 .34 0 .68-.1 1.01 0 .23-.12.34-.12.45L172.09 180a4.2 4.2 0 0 1-1.8 1.91 8.67 8.67 0 0 1-3.36 1.24 14.7 14.7 0 0 1-4.49.11l-18.97-2.92 1.69-3.6 8.75 2.92a12.63 12.63 0 0 0 8.3-.22 6.4 6.4 0 0 0 2.36-1.46l13.81-13.84c.22-.22.34-.45.56-.67.11-.23.34-.56.34-.79.22.11.22.34.22.45Z"/>
  <path fill="#177C1B" d="m145.27 176.74-1.68 3.6-20.66-3.15 3.26-6.86 10.77 3.6 8.31 2.81Z"/>
  <path fill="#FDEDCC" d="m126.19 170.33-3.26 6.86-7.52-1.24 3.7-7.98 7.08 2.36Z"/>
  <path fill="#177C1B" d="m119.12 167.97-3.7 7.98-20.66-3.15 5.28-11.24 11.67 3.93 6.85 2.25.56.23Z"/>
  <path fill="#FDEDCC" d="m100.04 161.56-5.28 11.24-7.52-1.12 5.73-12.49.33.12 6.74 2.25Z"/>
  <path fill="#177C1B" d="m92.97 159.2-5.73 12.48-20.54-3.26 7.19-15.52 12.57 4.16 6.5 2.13Z"/>
  <path fill="#FDEDCC" d="m73.89 152.9-7.19 15.52-7.63-1.13 7.74-16.75 1.24.33 5.84 2.03Z"/>
  <path fill="#177C1B" d="m66.81 150.53-7.74 16.76-20.54-3.26 9.2-19.9 13.47 4.5 5.61 1.9Z"/>
  <path fill="#FDEDCC" d="m47.73 144.12-9.2 19.91-7.52-1.12 9.76-21.15 2.02.68 4.94 1.68Z"/>
  <path fill="#177C1B" d="m40.77 141.76-9.76 21.15-20.65-3.15 11.22-24.3.67.12 13.81 4.6 4.71 1.58Z"/>
  <path fill="#FDEDCC" d="m21.8 135.46-11.22 24.19c-.78-.12-1.46-.34-2.13-.57a8.5 8.5 0 0 1-2.02-1.01 3.57 3.57 0 0 1-1.24-1.35 3.12 3.12 0 0 1-.1-2.59l7.06-15.4a4.9 4.9 0 0 1 1.8-1.92 8.7 8.7 0 0 1 3.37-1.23c1.45-.23 3.03-.34 4.49-.12Z"/>
  <path fill="#177C1B" fill-rule="evenodd" d="M24.62 133.73v.04l-.01.03c-.05.21-.05.41 0 .63l.13.46.04.08.07.07.06.09c.19.24.45.45.9.8.51.33.93.5 1.52.7h.01l11.9 4.05 6.62 2.36 17.94 5.84 6.62 2.14 17.96 5.85L95 159l17.96 5.84 6.62 2.14 17.96 5.85 16.67 5.42.06.02c1.04.44 2.34.55 3.79.45 1.12-.1 2.17-.3 3.1-.66a7.3 7.3 0 0 0 1.86-1.22l13.31-15.92 2.3 1.93-13.4 16.02-.04.05a10.1 10.1 0 0 1-2.75 1.85l-.06.03-.05.02c-1.31.53-2.7.77-4.02.9h-.03c-1.66.11-3.48.01-5.11-.66l-16.56-5.38-17.96-5.85-6.62-2.13-17.95-5.85-6.63-2.14-17.95-5.85-6.63-2.13-17.98-5.86-6.63-2.36-11.88-4.05a8.81 8.81 0 0 1-2.27-1.07l-.03-.03-.03-.02-.05-.04c-.4-.3-.97-.72-1.43-1.3a3.9 3.9 0 0 1-.86-1.79l-.01-.07a4.25 4.25 0 0 1 1.29-4.23l2.12 2.12a2.79 2.79 0 0 0-.45.6.78.78 0 0 0-.03.07v.02Z" clip-rule="evenodd"/>
  <path fill="#FDEDCC" d="M179.4 161c.1.22.1.56.1.78 0 .23 0 .56-.1.79-.12.22-.23.56-.35.79-.1.22-.33.45-.56.67l-13.8 13.84a6.4 6.4 0 0 1-2.36 1.46 12.76 12.76 0 0 1-8.3.22l-8.76-2.92-8.3-2.81 3.03-3.04 6.62 3.82c.78.45 1.68.8 2.7 1.02a12.3 12.3 0 0 0 8.4-1.02l19.54-11.24a5.92 5.92 0 0 0 1.57-1.35c.22-.23.45-.56.56-1.01Z"/>
  <path fill="#F6A01D" d="m126.19 170.33-7.07-2.36-.56-.23 5.83-5.85 8.3 4.84 7.3 4.16-3.03 3.04-10.77-3.6Z"/>
  <path fill="#FDEDCC" d="m124.4 161.9-5.84 5.84-6.85-2.25 6.96-6.97 5.72 3.37Z"/>
  <path fill="#F6A01D" d="m117.66 157.96 1 .56-6.95 6.97-11.67-3.93-6.74-2.25 9.77-9.79 9.09 5.29 5.5 3.15Z"/>
  <path fill="#FDEDCC" d="m97.34 146.15 5.73 3.37-9.77 9.79-.33-.12-6.51-2.13 10.88-10.91Z"/>
  <path fill="#F6A01D" d="m73.89 152.9-5.84-2.03 13.7-13.72 9.76 5.74 5.5 3.15.33.1-10.88 10.92-12.57-4.16Z"/>
  <path fill="#FDEDCC" d="m76.47 134.11 5.27 3.04-13.7 13.72-1.23-.34-5.6-1.9L76 133.88l.46.22Z"/>
  <path fill="#F6A01D" d="M76.02 133.89 61.2 148.62l-13.47-4.5-4.94-1.68 17.63-17.66 10.55 6.19 5.05 2.92Z"/>
  <path fill="#FDEDCC" d="m60.42 124.78-17.63 17.66-2.02-.68-4.71-1.57 18.63-18.67 1.12.67 4.6 2.59Z"/>
  <path fill="#F6A01D" d="m22.25 136.03-4.71-1.58 21.55-21.6 11.22 6.53 4.38 2.48-18.63 18.78-13.8-4.61Z"/>
  <path fill="#FDEDCC" d="m38.42 112.18.67.34L17.54 134a9.97 9.97 0 0 1-1.9-.9c-.46-.34-1.02-.67-1.35-1.12a1.8 1.8 0 0 1-.57-1.24c-.1-.45-.1-.9 0-1.35.12-.56.57-1.01.9-1.46l13.92-13.95a7 7 0 0 1 2.24-1.46 12.2 12.2 0 0 1 3.37-.79c1.46-.11 2.92 0 4.27.45Z"/>
  <path fill="#177C1B" fill-rule="evenodd" d="M39.2 109.22c.3-.36.7-.68 1.11-.93l-1.54-2.57a7.4 7.4 0 0 0-1.97 1.7l-.07.08-.05.09a5.37 5.37 0 0 0-.89 2.68c0 1 .34 2.02 1 2.85l.06.06.06.06a9.96 9.96 0 0 0 1.86 1.47h.02l13.25 7.43 5.37 3.15 14.7 8.43h.02l5.38 3.15 14.7 8.44 5.39 3.15 14.7 8.43h.01l5.38 3.15 14.71 8.44 13.58 7.76c.93.53 1.96.92 2.97 1.17l.05.01.05.01a15 15 0 0 0 6.14-.11 8.86 8.86 0 0 0 3.06-1.19l.06-.03 20.03-13.99-1.72-2.46-19.92 13.9a5.7 5.7 0 0 1-1.96.8l-.08.01-.08.02c-1.67.4-3.24.4-4.96.1a8.72 8.72 0 0 1-2.15-.84l-13.58-7.76-14.69-8.43-5.39-3.15-14.7-8.43-.01-.01-5.38-3.14-14.7-8.44H79l-5.38-3.15-14.7-8.43-5.4-3.16-13.24-7.42a7 7 0 0 1-1.2-.93c-.2-.28-.3-.6-.3-.92 0-.22.12-.55.41-1.05Z" clip-rule="evenodd"/>
  <path fill="#F6A01D" d="M179.5 160.2c0 .23-.1.57-.1.8-.12.33-.35.78-.57 1.12-.45.56-1.01.9-1.57 1.35l-19.53 11.25a12.3 12.3 0 0 1-11.11 0l-6.63-3.83-7.3-4.16 30.65-17.77 13.92 8.1a5.9 5.9 0 0 1 1.57 1.35c.45.45.67 1.12.67 1.8Zm-4.94.57c.12-.23.23-.68.12-.9-.12-.34-.34-.56-.56-.79a3.6 3.6 0 0 0-2.7-.68 3.1 3.1 0 0 0-1.46.34c-.45.12-.78.34-1 .8-.12.22-.23.67-.12.9.11.33.34.56.56.67.34.22.67.45 1.12.56.45.11 1.01.22 1.57.11.57 0 1.01-.11 1.58-.34.1 0 .22-.1.33-.1.12 0 .34-.23.56-.57Z"/>
  <path fill="#FDEDCC" d="M174.68 159.87c.1.34 0 .67-.12.9-.1.22-.44.45-.67.67-.11 0-.22.12-.34.12-.45.22-1 .33-1.57.33-.56 0-1 0-1.57-.1a2.15 2.15 0 0 1-1.12-.57c-.22-.22-.45-.45-.56-.68-.11-.33 0-.67.11-.9.22-.33.56-.56 1.01-.78a3.45 3.45 0 0 1 1.46-.34c.56 0 1.01 0 1.57.11.45.12.79.23 1.12.56.34.12.56.46.68.68Z"/>
  <path fill="#F6A01D" d="m118.44 158.75-1-.57 30.64-17.66 15.04 8.66-30.65 17.78-8.3-4.84-5.73-3.38Z"/>
  <path fill="#F6A01D" d="m148.3 140.53-30.64 17.65-5.5-3.15 30.64-17.77 5.5 3.27Zm-5.84-3.27-30.64 17.77-8.98-5.28-5.72-3.26-.34-.23 30.64-17.66 15.04 8.66Z"/>
  <path fill="#F6A01D" d="M127.65 128.6 97 146.26l-5.5-3.15 30.64-17.77 5.5 3.26Z"/>
  <path fill="#F6A01D" d="m81.52 137.71-5.28-3.15 30.53-17.65 15.15 8.66-30.64 17.77-9.76-5.63Zm25.58-21.03-30.63 17.66-.45-.23-5.05-2.92 30.53-17.77 5.6 3.26Z"/>
  <path fill="#F6A01D" d="m101.27 113.64-30.64 17.77-10.44-6.07-4.6-2.7 30.64-17.66 15.04 8.66Zm-46.57 8.1-4.39-2.47 30.65-17.77 5.5 3.26-30.65 17.66-1.12-.68Z"/>
  <path fill="#F6A01D" d="m38.2 112.63-3.26-1.91 30.64-17.66 15.04 8.66-30.53 17.77-11.34-6.52-.56-.34Zm27.38-20.02-30.64 17.66a5.9 5.9 0 0 1-1.57-1.35 3.06 3.06 0 0 1-.68-1.91c0-.68.34-1.35.68-1.91.45-.57 1-.9 1.57-1.02l19.53-11.24a4.96 4.96 0 0 1 2.7-1.24 12.3 12.3 0 0 1 5.72 0c1 .11 1.9.45 2.69 1.01Z"/>
  <path fill="#FDEDCC" d="m146.95 142.55-28.06 16.2 15.04 8.66L162 151.2l-15.04-8.66Zm-20.65-11.47-28.06 16.2 15.04 8.77 28.06-16.31-15.04-8.66Zm-5.27-3.48-15.04-8.67-28.06 16.2 15.15 8.66 27.95-16.2Zm-20.66-11.93L85.33 107l-28.06 16.2 15.16 8.66 27.94-16.2Zm-20.54-11.92-15.15-8.66-28.06 16.2 15.15 8.77 28.06-16.31Z"/>
  <path fill="#177C1B" fill-rule="evenodd" d="m172.65 157.8.14.03h.02l.02.01c.56.14.99.43 1.31.64l.03.02.06.04.04.05.03.02c.2.21.52.53.7 1 .12.3.09.64.06.82-.04.22-.1.44-.19.6-.21.6-.75.92-1 1.04l-.15.07a1.01 1.01 0 0 1-.34.1c-.56.22-1.06.34-1.67.35-.63.12-1.16 0-1.63-.1l-.14-.02h-.03c-.57-.15-1-.43-1.32-.65l-.03-.02-.05-.04-.05-.05-.03-.02c-.2-.2-.52-.52-.69-1-.13-.3-.1-.63-.07-.82.04-.23.12-.47.2-.65l.03-.04.02-.03a2.83 2.83 0 0 1 1.35-1.06 4.66 4.66 0 0 1 1.75-.38c.63-.11 1.16 0 1.63.1Zm1.2 4.25c.01 0 .01 0 0 0Zm-1.44-2.87c-.53-.1-.82-.16-1.19-.09l-.06.02h-.07c-.45 0-.81.08-1.32.28l-.02.01h-.01a1.52 1.52 0 0 0-.62.47l-.03.08a1.2 1.2 0 0 0-.05.23l.02.03c.04.15.14.26.34.47.3.2.54.34.83.42l.1.02c.52.1.8.16 1.18.09l.07-.02h.07c.44 0 .8-.08 1.3-.28l.13-.05h.05l.02-.01c.04-.03.1-.05.16-.07l.16-.11c.07-.06.09-.1.1-.12v-.05l.03-.04.04-.1a1.05 1.05 0 0 0 .05-.24l-.01-.03c-.05-.15-.15-.26-.35-.46a2.7 2.7 0 0 0-.83-.43l-.1-.02Zm1.28.92Zm-4.64.1Zm-93.16-26.7 30.53-17.76.7 1.2-30.53 17.78-.7-1.21Z" clip-rule="evenodd"/>
  <path fill="#177C1B" fill-rule="evenodd" d="m90.93 143.5-15.04-8.78.7-1.21 15.04 8.77-.7 1.21Z" clip-rule="evenodd"/>
  <path fill="#177C1B" fill-rule="evenodd" d="M122.28 125.72 91.63 143.5l-.7-1.2 30.64-17.78.7 1.21Z" clip-rule="evenodd"/>
  <path fill="#177C1B" fill-rule="evenodd" d="m107.12 115.74 15.16 8.77-.7 1.21-15.16-8.77.7-1.21Zm-72.53-12.49L54.23 91.9l.7 1.22-19.64 11.36-.7-1.22Z" clip-rule="evenodd"/>
  <path fill="#177C1B" fill-rule="evenodd" d="M32.82 104.77a6.61 6.61 0 0 1 1.76-1.51l.72 1.2c-.5.3-1 .7-1.39 1.19-.34.43-.52.95-.52 1.47 0 .46.23.97.55 1.51.38.47.87.86 1.36 1.15l-.72 1.2a6.6 6.6 0 0 1-1.76-1.51l-.03-.04-.02-.04a4.6 4.6 0 0 1-.78-2.27c0-.83.28-1.66.83-2.35Z" clip-rule="evenodd"/>
  <path fill="#177C1B" fill-rule="evenodd" d="m49.74 119.65-15.15-8.77.7-1.22 15.15 8.78-.7 1.2Z" clip-rule="evenodd"/>
  <path fill="#177C1B" fill-rule="evenodd" d="m55.24 122.8-5.5-3.15.7-1.22 5.5 3.15-.7 1.22Zm15.04 8.77-15.04-8.77.7-1.21 15.04 8.77-.7 1.2Z" clip-rule="evenodd"/>
  <path fill="#177C1B" fill-rule="evenodd" d="m75.9 134.72-5.61-3.15.68-1.22 5.61 3.15-.68 1.22Zm20.53 11.92-5.5-3.15.7-1.21 5.5 3.15-.7 1.21Z" clip-rule="evenodd"/>
  <path fill="#177C1B" fill-rule="evenodd" d="m111.58 155.41-15.15-8.77.7-1.21 15.16 8.77-.7 1.22Zm5.51 3.15-5.5-3.14.7-1.22 5.5 3.15-.7 1.22Z" clip-rule="evenodd"/>
  <path fill="#177C1B" fill-rule="evenodd" d="m132.12 167.34-15.04-8.78.7-1.2 15.05 8.77-.7 1.2Z" clip-rule="evenodd"/>
  <path fill="#177C1B" fill-rule="evenodd" d="m146.04 175.32-13.91-7.98.7-1.22 13.91 7.99-.7 1.21Zm8.93 1.09a11.8 11.8 0 0 0 2.85-1.07l-.63-1.25c-.87.44-1.6.75-2.53.95h-.01c-1.8.43-3.6.43-5.4 0h-.01a8.9 8.9 0 0 1-2.5-.93l-.7 1.21c.86.5 1.82.85 2.89 1.1 2.01.46 4.03.46 6.04 0Z" clip-rule="evenodd"/>
  <path fill="#177C1B" fill-rule="evenodd" d="m177.39 163.96-19.53 11.36-.7-1.2 19.52-11.37.7 1.21Z" clip-rule="evenodd"/>
  <path fill="#177C1B" fill-rule="evenodd" d="M177.4 156.23a6.7 6.7 0 0 1 1.75 1.52l.03.03.03.04c.34.57.77 1.4.77 2.28 0 .83-.28 1.66-.83 2.34a6.6 6.6 0 0 1-1.75 1.52l-.73-1.2c.5-.3 1-.7 1.39-1.19.35-.44.52-.96.52-1.47 0-.46-.23-.98-.55-1.52a5.23 5.23 0 0 0-1.36-1.15l.73-1.2Z" clip-rule="evenodd"/>
  <path fill="#177C1B" fill-rule="evenodd" d="m163.47 148.35 13.92 8.1-.7 1.21-13.93-8.1.7-1.2Z" clip-rule="evenodd"/>
  <path fill="#177C1B" fill-rule="evenodd" d="m148.43 139.58 15.04 8.78-.7 1.2-15.05-8.77.7-1.2Z" clip-rule="evenodd"/>
  <path fill="#177C1B" fill-rule="evenodd" d="m142.8 136.43 5.62 3.15-.69 1.22-5.6-3.15.68-1.22Z" clip-rule="evenodd"/>
  <path fill="#177C1B" fill-rule="evenodd" d="m127.78 127.66 15.04 8.77-.7 1.21-15.05-8.77.7-1.2Zm-5.51-3.16 5.5 3.16-.7 1.21-5.5-3.15.7-1.21Zm-20.65-11.91 5.5 3.15-.7 1.21-5.5-3.15.7-1.21Zm-15.04-8.77 15.04 8.77-.7 1.2-15.04-8.76.7-1.21Zm-5.5-3.15 5.5 3.14-.7 1.22-5.5-3.15.7-1.21ZM65.93 91.9l15.15 8.77-.7 1.2-15.15-8.76.7-1.22Z" clip-rule="evenodd"/>
  <path fill="#177C1B" fill-rule="evenodd" d="M63.04 90.8c1.07.24 2.03.6 2.89 1.1l-.7 1.2a11.6 11.6 0 0 0-7.91-.94v.01a9.9 9.9 0 0 0-2.54.96l-.63-1.26a13 13 0 0 1 8.89-1.07Zm54.04 66.55 30.64-17.77.7 1.21-30.63 17.77-.7-1.2Zm46.39-7.78-30.64 17.77-.7-1.22 30.63-17.77.7 1.22Zm-67.04-4.14 30.64-17.77.7 1.21-30.64 17.77-.7-1.21Zm46.39-7.79-30.53 17.77-.7-1.2 30.52-17.78.7 1.21Zm-87.58-16.05 30.64-17.77.7 1.2-30.64 17.78-.7-1.21Zm46.38-7.79-30.64 17.77-.7-1.21 30.64-17.77.7 1.21Z" clip-rule="evenodd"/>
  <path fill="#177C1B" fill-rule="evenodd" d="m34.59 109.67 30.64-17.78.7 1.21-30.64 17.78-.7-1.21Zm46.49-7.79-30.64 17.77-.7-1.21 30.64-17.77.7 1.2ZM16.82 133.5l21.55-21.48.99 1-21.55 21.48-.99-1Z" clip-rule="evenodd"/>
  <path fill="#177C1B" fill-rule="evenodd" d="m35.5 140.85-18.4-6.19.44-1.32 18.4 6.18-.44 1.33Z" clip-rule="evenodd"/>
  <path fill="#177C1B" fill-rule="evenodd" d="m54.96 122.01-18.74 18.67-1-.99 18.75-18.67 1 1Zm-41.06 5.31 13.8-13.83 1 .99-13.8 13.83-1-.99Zm-1.08 1.8a3.6 3.6 0 0 1 1.08-1.8l1 .99c-.42.42-.64.75-.71 1.1v.02l-.01.02c-.09.34-.09.67 0 1a2 2 0 0 0 .49.92l.03.03.03.04c.3.4.66.74 1.05.9l.05.02.05.03a9.2 9.2 0 0 0 1.77.84l-.44 1.32c-.72-.24-1.42-.59-2-.93-.7-.3-1.2-.82-1.57-1.3a3.45 3.45 0 0 1-.82-3.2Z" clip-rule="evenodd"/>
  <path fill="#177C1B" fill-rule="evenodd" d="m42.35 143.1-6.85-2.25.44-1.33 6.85 2.25-.44 1.33Z" clip-rule="evenodd"/>
  <path fill="#177C1B" fill-rule="evenodd" d="m60.75 149.29-18.4-6.19.44-1.33 18.41 6.19-.45 1.33Z" clip-rule="evenodd"/>
  <path fill="#177C1B" fill-rule="evenodd" d="m67.6 151.54-6.84-2.25.44-1.33 6.84 2.25-.43 1.33Z" clip-rule="evenodd"/>
  <path fill="#177C1B" fill-rule="evenodd" d="m86 157.72-18.4-6.18.45-1.33 18.4 6.19-.44 1.32Z" clip-rule="evenodd"/>
  <path fill="#177C1B" fill-rule="evenodd" d="m92.74 159.97-6.73-2.25.44-1.33 6.74 2.25-.45 1.33Zm18.52 6.19-18.52-6.19.45-1.33 18.52 6.19-.45 1.33Zm6.74 2.24-6.74-2.24.45-1.33 6.73 2.25-.44 1.33Z" clip-rule="evenodd"/>
  <path fill="#177C1B" fill-rule="evenodd" d="M136.52 174.6 118 168.4l.44-1.32 18.52 6.18-.44 1.33Z" clip-rule="evenodd"/>
  <path fill="#177C1B" fill-rule="evenodd" d="m153.46 180.33-16.95-5.74.45-1.32 16.95 5.73-.45 1.33Z" clip-rule="evenodd"/>
  <path fill="#177C1B" fill-rule="evenodd" d="M164.85 178.47a7.1 7.1 0 0 1-2.61 1.63c-1.31.47-2.61.7-3.89.82h-.01c-1.67.13-3.33-.11-4.86-.59l.41-1.33a11.94 11.94 0 0 0 7.86-.22 5.69 5.69 0 0 0 2.1-1.3l1 1Zm13.91-13.83-13.8 13.83-1-.99 13.81-13.83 1 .99Z" clip-rule="evenodd"/>
  <path fill="#177C1B" fill-rule="evenodd" d="M179.98 161.84v.05a3.3 3.3 0 0 1-.59 2l-.03.04-.04.03-.21.27c-.09.11-.2.26-.35.4l-.99-.98.22-.26v-.01l.3-.36c.2-.28.29-.66.29-1.13l-.01-.35a.3.3 0 0 0-.03-.12l1.25-.63c.19.38.19.76.19 1.05ZM33.87 111.15c1.54-.12 3.07 0 4.6.35l-.32 1.36a13.7 13.7 0 0 0-4.16-.32c-1.08.11-2.24.32-3.27.74a6.3 6.3 0 0 0-2.02 1.3l-1-.98a7.7 7.7 0 0 1 2.47-1.61h.01c1.21-.5 2.52-.73 3.68-.84h.01Zm83.86 56.09 5.95-5.84.98 1-5.95 5.84-.98-1Zm22.54 4.15-3.03 3.03-1-.99 3.03-3.03 1 .99Zm-47.8-12.58 9.88-9.78.99.99-9.88 9.78-.99-.99Zm26.47.2-6.96 6.98-.99-1 6.96-6.96.99.98Zm-51.61-8.63 13.7-13.72.98.99-13.7 13.72-.98-1Zm30.28-3.74-10.88 10.91-1-.99 10.9-10.9.98.98Zm-55.54-4.7 17.63-17.66.99 1-17.62 17.65-1-.99Zm34.22-7.56-14.82 14.74-.99-1L75.3 133.4l.99 1Zm-38.62 29.36 9.2-19.91 1.27.59-9.2 19.9-1.27-.58Z" clip-rule="evenodd"/>
  <path fill="#177C1B" fill-rule="evenodd" d="m58.73 167.98-20.53-3.26.21-1.38 20.54 3.26-.22 1.38Z" clip-rule="evenodd"/>
  <path fill="#177C1B" fill-rule="evenodd" d="m67.22 150.83-7.74 16.76-1.27-.6 7.74-16.75 1.27.59ZM4 153.84l7.07-15.4 1.27.58-7.07 15.4-1.27-.58Z" clip-rule="evenodd"/>
  <path fill="#177C1B" fill-rule="evenodd" d="M3.96 153.93v-.02l1.34.44c-.12.34-.2.58-.2.9 0 .35.1.8.26 1.13.28.46.65.84 1.04 1.13l.02.01c.48.39 1.06.69 1.77.89h.03c.66.23 1.4.44 2.03.55l-.23 1.38c-.72-.13-1.54-.36-2.23-.59a6.39 6.39 0 0 1-3.65-2.67v-.02l-.02-.03a4.17 4.17 0 0 1-.41-1.77c0-.56.14-1 .25-1.33Z" clip-rule="evenodd"/>
  <path fill="#177C1B" fill-rule="evenodd" d="m30.57 163.6-20.54-3.15.2-1.38 20.55 3.15-.21 1.38Z" clip-rule="evenodd"/>
  <path fill="#177C1B" fill-rule="evenodd" d="m38.2 164.72-7.63-1.12.2-1.39 7.64 1.13-.2 1.38Zm28.06 4.39-7.52-1.13.2-1.38 7.53 1.13-.2 1.38Z" clip-rule="evenodd"/>
  <path fill="#177C1B" fill-rule="evenodd" d="m86.9 172.37-20.64-3.26.21-1.38 20.66 3.26-.22 1.38Z" clip-rule="evenodd"/>
  <path fill="#177C1B" fill-rule="evenodd" d="m94.43 173.5-7.52-1.13.21-1.38 7.52 1.12-.2 1.39Z" clip-rule="evenodd"/>
  <path fill="#177C1B" fill-rule="evenodd" d="m115.08 176.65-20.65-3.15.21-1.39 20.66 3.15-.22 1.39Z" clip-rule="evenodd"/>
  <path fill="#177C1B" fill-rule="evenodd" d="m122.6 177.88-7.52-1.24.22-1.38 7.52 1.24-.22 1.38Z" clip-rule="evenodd"/>
  <path fill="#177C1B" fill-rule="evenodd" d="m143.14 181.03-20.54-3.15.22-1.38 20.54 3.15-.22 1.38Z" clip-rule="evenodd"/>
  <path fill="#177C1B" fill-rule="evenodd" d="m162.22 183.96-19.08-2.93.22-1.38 19.08 2.92-.22 1.39Z" clip-rule="evenodd"/>
  <path fill="#177C1B" fill-rule="evenodd" d="M170.54 182.52a4.91 4.91 0 0 0 2.09-2.24l-1.3-.55a3.51 3.51 0 0 1-1.5 1.58 9.52 9.52 0 0 1-3.15 1.16h-.02c-1.35.31-2.83.32-4.22.1l-.22 1.39a13.1 13.1 0 0 0 8.32-1.44Z" clip-rule="evenodd"/>
  <path fill="#177C1B" fill-rule="evenodd" d="m179.69 164.89-7.18 15.52-1.27-.59 7.18-15.52 1.27.59Z" clip-rule="evenodd"/>
  <path fill="#177C1B" fill-rule="evenodd" d="M179.99 162.6c.04.11.1.3.1.53v.03c0 .32 0 .76-.15 1.2l-.05.16-.05.06v.01h-.01l-.07.2c-.04.07-.1.19-.21.3l-1-1a.36.36 0 0 0-.07.11l.02-.05a1.56 1.56 0 0 1 .14-.32c.05-.19.05-.4.05-.69v-.02l-.01-.02-.01-.02-.03-.08a.95.95 0 0 1-.06-.32h1.4c0-.08-.02-.14-.02-.14a.17.17 0 0 0 0 .02l.03.04ZM21.53 134.78l.9.23-.35 1.36-.9-.23.35-1.35Z" clip-rule="evenodd"/>
  <path fill="#177C1B" fill-rule="evenodd" d="M16.72 134.9c1.56-.37 3.22-.36 4.74-.13l-.21 1.38a11.36 11.36 0 0 0-4.23.1v.01H17a9.54 9.54 0 0 0-3.14 1.15l-.01.01a3.5 3.5 0 0 0-1.5 1.58l-1.29-.55a4.9 4.9 0 0 1 2.09-2.24c1.2-.73 2.4-1.08 3.57-1.32Zm105.35 42 3.15-6.86 1.27.58-3.14 6.86-1.28-.58Zm23.6.15-1.8 3.6-1.25-.62 1.8-3.6 1.25.62Zm-51.77-4.54 5.16-11.25 1.28.59-5.17 11.25-1.27-.59Zm25.63-4.25-3.7 7.99-1.28-.6 3.7-7.98 1.28.6Zm-53.8-.14 7.3-15.52 1.26.6-7.3 15.52-1.26-.6Zm27.65-8.63-5.73 12.48-1.27-.58 5.73-12.49 1.27.59Z" clip-rule="evenodd"/>
  <path fill="#177C1B" fill-rule="evenodd" d="m9.5 159.46 11.22-24.29 1.27.59-11.22 24.3-1.27-.6Zm31.57-17.4-9.76 21.14-1.27-.59 9.76-21.14 1.27.59Zm131.58 15.74.14.03h.02l.02.01c.56.14.99.43 1.31.64l.03.02.06.04.04.05.03.02c.2.21.52.53.7 1 .12.3.09.64.06.82-.04.22-.1.44-.19.6-.21.6-.75.92-1 1.04l-.15.07a1.01 1.01 0 0 1-.34.1c-.56.22-1.06.34-1.67.35-.63.12-1.16 0-1.63-.1l-.14-.02h-.03c-.57-.15-1-.43-1.32-.65l-.03-.02-.05-.04-.05-.05-.03-.02c-.2-.2-.52-.52-.69-1-.13-.3-.1-.63-.07-.82.04-.23.12-.47.2-.65l.03-.04.02-.03a2.83 2.83 0 0 1 1.35-1.06 4.66 4.66 0 0 1 1.75-.38c.63-.11 1.16 0 1.63.1Zm1.2 4.25c.01 0 .01 0 0 0Zm-1.44-2.87c-.53-.1-.82-.16-1.19-.09l-.06.02h-.07c-.45 0-.81.08-1.32.28l-.02.01h-.01a1.52 1.52 0 0 0-.62.47l-.03.08a1.2 1.2 0 0 0-.05.23l.02.03c.04.15.14.26.34.47.3.2.54.34.83.42l.1.02c.52.1.8.16 1.18.09l.07-.02h.07c.44 0 .8-.08 1.3-.28l.13-.05h.05l.02-.01c.04-.03.1-.05.16-.07l.16-.11c.07-.06.09-.1.1-.12v-.05l.03-.04.04-.1a1.05 1.05 0 0 0 .05-.24l-.01-.03c-.05-.15-.15-.26-.35-.46a2.7 2.7 0 0 0-.83-.43l-.1-.02Zm1.28.92Zm-4.64.1Z" clip-rule="evenodd"/>
  <path fill="#177C1B" d="m178.27 87.66-.11-11.36c0 .9-.34 1.8-.79 2.7v2.25c.11.45.11.9 0 1.35l.11 5.18c.23 1.8-.67 3.48-2.91 4.83l-39.18 22.72c-4.38 2.48-11.9 2.25-16.95-.67L80.96 92.72c-2.47-1.46-3.93-3.26-4.16-5.06 0-.33-.1 0 0-.33l-.1-9.34a5.74 5.74 0 0 1-.8-2.59l.12 11.93.11.9c.45 1.9 2.02 3.7 4.38 5.17l37.6 21.7c2.8 1.7 6.5 2.48 9.99 2.48 2.91 0 5.72-.56 7.74-1.8l39.17-22.72c2.36-1.24 3.6-3.26 3.26-5.4Z"/>
  <path fill="#177C1B" d="M176.8 87.66c.23 1.58-.66 3.04-2.46 4.05l-39.28 22.83c-4.16 2.37-11.34 2.03-16.17-.67L81.3 92.05c-2.24-1.24-3.48-2.81-3.7-4.5V79a4.04 4.04 0 0 1-.79-1.12l.12 9.33v.34c.22 1.8 1.57 3.6 4.15 5.06l37.6 21.7c5.05 2.93 12.57 3.27 16.95.68l39.17-22.72c2.13-1.23 3.14-3.03 2.92-4.83l-.12-5.18a4.2 4.2 0 0 1-.78 1.8v3.6Zm.68-6.41V79c-.1.23-.33.45-.56.68.23.45.45 1.01.56 1.57Z"/>
  <path fill="#F6A01D" d="m176.8 87.78-.1-3.5a7.17 7.17 0 0 1-2.14 1.92l-39.17 22.72c-4.38 2.47-11.9 2.25-16.95-.67l-37.6-21.82a9 9 0 0 1-3.36-3.04v4.16c.22 1.58 1.57 3.15 3.7 4.5l37.6 21.7c4.83 2.82 12.01 3.04 16.16.68l39.18-22.72c2.02-.9 2.8-2.36 2.69-3.93ZM78.26 77.65a7 7 0 0 1 1.35-1l.78-.46 1.35-.79 1.12-.67 36.03-20.8c4.38-2.48 11.9-2.26 16.95.67l35.92 20.8 1.34.8.34.22a8.96 8.96 0 0 1 2.47 1.9c.34-.44.56-.9.68-1.45 0-.23.1-.45.1-.68 0-.22 0-.56-.1-.79-.34-1.46-1.69-2.92-3.6-4.05l-37.71-21.7c-2.58-1.58-6.06-2.25-9.2-2.25-2.58 0-5.17.56-6.96 1.57L79.95 71.7a4.54 4.54 0 0 0-2.47 3.04v.79c0 .22.1.56.1.78.12.45.35.9.68 1.35Z"/>
  <path fill="#FDEDCC" d="M177.48 81.25c-.1-.56-.33-1.01-.56-1.57l-.22.22c-.45.45-1.01.9-1.8 1.35l-39.17 22.6c-2.02 1.25-4.83 1.8-7.74 1.8-3.48 0-7.19-.78-10-2.47l-37.6-21.7a10.34 10.34 0 0 1-2.91-2.36v4.27a9 9 0 0 0 3.36 3.04l37.6 21.7c5.06 2.93 12.57 3.27 16.95.68l39.17-22.72a7.17 7.17 0 0 0 2.14-1.91 3.7 3.7 0 0 0 .78-1.8v-1.13Z"/>
  <path fill="#FDEDCC" d="m81.18 80.13 37.6 21.7c4.83 2.82 12.01 3.04 16.16.68l39.18-22.72a6 6 0 0 0 1.8-1.46 11.04 11.04 0 0 0-2.48-1.91l-.34-.23-1.34-.79-35.92-20.8c-5.05-2.93-12.57-3.26-16.95-.68L82.86 74.84l-1.12.68-1.35.78-.78.45a7 7 0 0 0-1.35 1.02 10.7 10.7 0 0 0 2.92 2.36Z"/>
  <path fill="#177C1B" d="M75.8 75.3v.1-.1c.1-.12 0-.12 0 0Zm3.8-4.28 39.18-22.72c4.38-2.48 11.9-2.25 16.95.67l37.6 21.71c2.7 1.57 4.15 3.6 4.15 5.51h.79c0-2.25-1.69-4.5-4.5-6.18l-37.7-21.71c-5.28-3.04-13.14-3.38-17.74-.68L79.16 70.34c-1.9 1.13-3.03 2.7-3.25 4.39h.78c.23-1.46 1.12-2.7 2.92-3.71Zm-2.12 7.53c.1-.1.22-.22.22-.33-.11-.12-.22-.34-.34-.45V79l.12-.45Zm99.11.79v-.56c-.12.11-.12.22-.23.34.11 0 .22.1.22.22Z"/>
  <path fill="#177C1B" d="M76.58 75.52v-.8h-.79v.68c0 .9.34 1.8.79 2.6v-2.48Zm100.79 1.46v1.91a4.5 4.5 0 0 0 .79-2.7h-.79v.79Zm-99.89.79a4.92 4.92 0 0 1-.79-2.37v2.48c.23.34.45.79.79 1.12v-1.23Zm99.11.9v.56c.1.11.1.22.22.34.22-.23.34-.45.56-.68v-1.91a2.96 2.96 0 0 1-.78 1.69Z"/>
  <path fill="#177C1B" d="m79.95 71.7 39.17-22.73c1.9-1.12 4.38-1.57 6.96-1.57 3.14 0 6.62.79 9.2 2.25l37.6 21.7c2.02 1.13 3.26 2.6 3.6 4.05h.78v.8h.11c0-1.92-1.35-3.95-4.15-5.52l-37.5-21.7c-5.04-2.93-12.56-3.27-16.94-.68L79.61 71.02c-1.8 1.01-2.7 2.36-2.92 3.7h.79a4.54 4.54 0 0 1 2.47-3.03Z"/>
  <path fill="#177C1B" d="M177.37 76.3v-.78h-.78c.1.22.1.56.1.78h.68Zm-1.46 2.14c.23.23.34.45.56.56.12-.1.12-.22.23-.33v-1.8a11 11 0 0 1-.79 1.57Zm-97.65-.79c-.33-.45-.56-.9-.67-1.46h-.11v1.58c.1.1.22.33.33.45.12-.12.23-.34.45-.57Zm99.11-.67c0-.23.11-.45.11-.68h-.1v.68ZM77.36 75.3v-.57h-.78v.79h.78v-.23Z"/>
  <path fill="#177C1B" d="M176.7 76.3c0 .23 0 .45-.11.68v1.8c.33-.56.67-1.13.78-1.69v-.67l-.67-.12Zm-99.34 0h.12c-.12-.22-.12-.56-.12-.78h-.67c0 .78.34 1.57.79 2.36l-.12-1.58Zm97.09 4.28-39.17 22.72c-4.38 2.47-11.9 2.25-16.95-.68L80.73 80.8a10.15 10.15 0 0 1-3.03-2.58c-.11.1-.22.22-.22.33v.57c.78.9 1.68 1.68 2.91 2.36l37.6 21.7c2.81 1.7 6.52 2.48 10 2.48 2.91 0 5.72-.56 7.74-1.8l39.17-22.72c.67-.45 1.24-.9 1.8-1.35v-.56c-.11-.11-.11-.23-.23-.34a6.02 6.02 0 0 1-2.02 1.69Z"/>
  <path fill="#177C1B" d="M176.8 79.68c-.1-.11-.1-.23-.22-.34v.56c.12-.11.23-.11.23-.22Zm-2.68.22-39.18 22.72c-4.15 2.36-11.33 2.03-16.16-.67l-37.6-21.82a10.9 10.9 0 0 1-2.92-2.48l-.56.57c.67.9 1.68 1.8 3.03 2.58l37.6 21.7c5.05 2.93 12.57 3.27 16.95.68l39.17-22.72a6.8 6.8 0 0 0 1.91-1.57 1.35 1.35 0 0 0-.56-.56 4.6 4.6 0 0 1-1.68 1.57Z"/>
  <path fill="#177C1B" d="M127.09 105.32v11.59h5.16L175.8 91.6l1.8-2.92V78.67l-42.88 25.53-5.16 1.12h-2.47Z"/>
  <path fill="#FDEDCC" d="M198.25 47.74c-.9-.45-2.14-.45-3.48.33l-42.88 25.08a9.3 9.3 0 0 0-2.7 2.48l7.42 4.5c1.12-2.48 2.8-4.61 4.71-5.74l41.2-24.07-4.05-2.36-.22-.22Z"/>
  <path fill="#F6A01D" d="M198.25 47.74c.1.1.22.1.33.22l4.04 2.36 1.35-.78c.56-.23 1.24-.57 1.8-.57l-8.2-5.06c-.1 0-.1-.11-.22-.11-.79-.45-1.8 0-2.47.34l-42.31 24.52a10.63 10.63 0 0 0-5.06 5.84l.68.45.22.12.79.45a9.3 9.3 0 0 1 2.7-2.48l42.87-24.97c1.34-.67 2.47-.78 3.48-.33Zm6.39 3.6-42.42 24.74c-2.7 1.57-5.05 6.07-5.05 9.78v37.57l.22 11.92a4 4 0 0 0 .45 1.01c.22.34.45.68.79.8h.1a1.9 1.9 0 0 0 1.58 0c.34-.12.56-.23.78-.35l43.9-25.53c2.69-1.57 5.04-6.07 5.04-9.78V54.93c-.22-3.7-2.58-5.06-5.39-3.6Z"/>
  <path fill="#177C1B" d="M209.02 49.2c-.11-.11-.22-.11-.34-.11-.1-.12-.22-.12-.22-.23l-9.65-5.85c-.11-.11-.23-.22-.45-.22a4.85 4.85 0 0 0-4.6.33L150.88 68.1c-3.37 2.03-6.06 7.09-6.06 11.59v46.67c0 2.7 1.01 4.73 2.7 5.63l10.2 6.18s.12 0 .12.12l.79.44.1-.1a5.62 5.62 0 0 0 3.93-.68l42.88-24.97c3.37-2.03 6.06-7.09 6.06-11.58V54.7c0-2.59-.9-4.61-2.58-5.51Zm-56.46 19.57 42.32-24.52c.67-.34 1.57-.79 2.47-.34.11 0 .11.11.22.11l8.2 5.07c-.56 0-1.35.22-1.8.56l-1.35.79-41.19 24.06a12.11 12.11 0 0 0-4.71 5.74l-7.41-4.5-.79-.45-.22-.11-.67-.45a10.5 10.5 0 0 1 4.94-5.96Zm57.25 32.73c0 3.7-2.36 8.2-5.05 9.78l-43.89 25.53c-.22.12-.56.34-.78.34a2.5 2.5 0 0 1-1.58 0h-.1c-.34-.11-.57-.45-.8-.79-.1-.33-.33-.67-.44-1l-.23-11.93V85.86c0-3.7 2.36-8.2 5.05-9.78l42.43-24.74c2.8-1.47 5.16-.12 5.16 3.6v46.56h.23Z"/>
</svg>
