<svg xmlns="http://www.w3.org/2000/svg" fill="none" viewBox="0 0 380 220">
  <path fill="#177C1B" d="M92.63 194.42c.56.33.56.9 0 1.23-.56.33-1.56.33-2.13 0-.56-.34-.56-.9 0-1.23a2.37 2.37 0 0 1 2.13 0Zm55.82-31.66c.56.34.56.9 0 1.23-.56.34-1.57.34-2.13 0-.56-.33-.56-.9 0-1.23a2.37 2.37 0 0 1 2.13 0Zm5.61-3.24c.56.33.56.9 0 1.23-.56.33-1.57.33-2.13 0-.56-.34-.56-.9 0-1.23a2.37 2.37 0 0 1 2.13 0Zm5.49-3.14c.56.34.56.9 0 1.24-.56.33-1.57.33-2.13 0-.56-.34-.56-.9 0-1.24a2.37 2.37 0 0 1 2.13 0Zm-72.52 34.79c.56.34.56.9 0 1.23-.56.34-1.57.34-2.13 0-.56-.33-.56-.9 0-1.23a2.37 2.37 0 0 1 2.13 0Zm50.32-28.52c.56.34.56.9 0 1.23-.56.34-1.56.34-2.13 0-.56-.34-.56-.9 0-1.23a2.38 2.38 0 0 1 2.13 0Zm5.5-3.13c.56.33.56.9 0 1.23-.56.33-1.57.33-2.13 0-.56-.34-.56-.9 0-1.23a2.37 2.37 0 0 1 2.13 0Zm5.6-3.14c.56.34.56.9 0 1.24-.56.33-1.57.33-2.13 0-.56-.34-.56-.9 0-1.24a2.37 2.37 0 0 1 2.13 0Zm5.61-3.13c.56.34.56.9 0 1.23-.56.34-1.57.34-2.13 0-.56-.33-.56-.9 0-1.23a2.37 2.37 0 0 1 2.13 0Zm-72.52 34.68c.56.33.56.9 0 1.23-.56.34-1.57.34-2.13 0-.56-.34-.56-.9 0-1.23a2.38 2.38 0 0 1 2.13 0Zm11.09-6.26c.56.33.56.89 0 1.23-.56.33-1.56.33-2.13 0-.56-.34-.56-.9 0-1.23a2.37 2.37 0 0 1 2.13 0Zm39.12-22.15c.56.33.56.9 0 1.23-.56.33-1.57.33-2.13 0-.56-.34-.56-.9 0-1.23a2.38 2.38 0 0 1 2.13 0Zm5.6-3.14c.56.34.56.9 0 1.24-.56.33-1.56.33-2.13 0-.56-.34-.56-.9 0-1.24a2.38 2.38 0 0 1 2.13 0Zm5.61-3.24c.56.34.56.9 0 1.23-.56.34-1.57.34-2.13 0-.56-.33-.56-.9 0-1.23a2.37 2.37 0 0 1 2.13 0Zm5.6-3.14c.56.34.56.9 0 1.24-.56.33-1.57.33-2.13 0-.56-.34-.56-.9 0-1.23a2.37 2.37 0 0 1 2.13 0Zm-72.63 34.8c.56.33.56.9 0 1.23-.56.33-1.56.33-2.13 0-.56-.34-.56-.9 0-1.23a2.37 2.37 0 0 1 2.13 0Zm50.33-28.53c.56.34.56.9 0 1.23-.56.34-1.57.34-2.13 0-.56-.33-.56-.9 0-1.23a2.38 2.38 0 0 1 2.13 0Zm5.49-3.13c.56.34.56.9 0 1.23-.56.34-1.57.34-2.13 0-.56-.33-.56-.9 0-1.23a2.37 2.37 0 0 1 2.13 0Zm5.6-3.14c.56.34.56.9 0 1.24-.56.33-1.56.33-2.13 0-.56-.34-.56-.9 0-1.23a2.37 2.37 0 0 1 2.13 0Zm5.61-3.24c.56.34.56.9 0 1.24-.56.33-1.57.33-2.13 0-.56-.34-.56-.9 0-1.24a2.37 2.37 0 0 1 2.13 0Zm-72.52 34.79c.56.34.56.9 0 1.23-.56.34-1.57.34-2.13 0-.56-.33-.56-.9 0-1.23a2.38 2.38 0 0 1 2.13 0Zm50.22-28.41c.56.34.56.9 0 1.23-.57.34-1.57.34-2.13 0-.56-.33-.56-.9 0-1.23a2.38 2.38 0 0 1 2.13 0Zm5.6-3.14c.56.34.56.9 0 1.24-.56.33-1.57.33-2.13 0-.56-.34-.56-.9 0-1.23a1.86 1.86 0 0 1 2.13 0Zm5.6-3.24c.56.34.56.9 0 1.24-.56.33-1.57.33-2.13 0-.56-.34-.56-.9 0-1.24a2.38 2.38 0 0 1 2.13 0Zm5.61-3.13c.56.34.56.9 0 1.23-.56.34-1.57.34-2.13 0-.56-.33-.56-.9 0-1.23a2.37 2.37 0 0 1 2.13 0Zm5.49-3.13c.56.34.56.9 0 1.23-.56.34-1.57.34-2.13 0-.56-.33-.56-.9 0-1.23a2.37 2.37 0 0 1 2.13 0Zm-78.12 37.92c.56.34.56.9 0 1.23-.56.34-1.57.34-2.13 0-.56-.33-.56-.9 0-1.23a2.38 2.38 0 0 1 2.13 0Zm11.21-6.37c.56.33.56.89 0 1.23-.56.33-1.57.33-2.13 0-.56-.34-.56-.9 0-1.23a2.38 2.38 0 0 1 2.13 0Zm5.6-3.14c.56.34.56.9 0 1.23-.56.34-1.57.34-2.13 0-.56-.33-.56-.9 0-1.23a2.38 2.38 0 0 1 2.13 0Zm5.6-3.13c.56.34.56.9 0 1.23-.56.34-1.56.34-2.13 0-.56-.33-.56-.9 0-1.23a2.38 2.38 0 0 1 2.13 0Zm5.5-3.24c.56.33.56.9 0 1.23-.56.33-1.57.33-2.13 0-.56-.34-.56-.9 0-1.23a2.38 2.38 0 0 1 2.13 0Zm5.6-3.14c.56.34.56.9 0 1.24-.56.33-1.57.33-2.13 0-.56-.34-.56-.9 0-1.23a2.38 2.38 0 0 1 2.13 0Zm5.6-3.13c.56.34.56.9 0 1.23-.56.34-1.56.34-2.13 0-.55-.33-.55-.9 0-1.23a2.38 2.38 0 0 1 2.14 0Zm5.61-3.13c.56.34.56.9 0 1.23-.56.34-1.57.34-2.13 0-.56-.33-.56-.9 0-1.23a2.38 2.38 0 0 1 2.13 0Zm5.6-3.24c.56.33.56.9 0 1.23-.56.33-1.57.33-2.13 0-.56-.34-.56-.9 0-1.23a2.37 2.37 0 0 1 2.13 0Zm5.61-3.14c.56.34.56.9 0 1.24-.56.33-1.57.33-2.13 0-.56-.34-.56-.9 0-1.24a2.37 2.37 0 0 1 2.13 0Zm5.49-3.13c.56.34.56.9 0 1.23-.56.34-1.57.34-2.13 0-.56-.33-.56-.9 0-1.23a2.37 2.37 0 0 1 2.13 0Zm5.6-3.24c.56.33.56.9 0 1.23-.56.34-1.57.34-2.13 0-.56-.34-.56-.9 0-1.23a2.38 2.38 0 0 1 2.13 0Zm5.61-3.13c.56.33.56.9 0 1.23-.56.33-1.57.33-2.13 0-.56-.34-.56-.9 0-1.23a2.37 2.37 0 0 1 2.13 0Zm5.6-3.13c.56.33.56.89 0 1.22-.56.34-1.57.34-2.13 0-.56-.33-.56-.89 0-1.22a2.37 2.37 0 0 1 2.13 0Zm5.61-3.13c.56.33.56.89 0 1.22-.56.34-1.57.34-2.13 0-.56-.33-.56-.9 0-1.23a2.37 2.37 0 0 1 2.13 0Zm-94.94 47.42c.56.34.56.9 0 1.23-.56.34-1.57.34-2.13 0-.56-.33-.56-.9 0-1.23a2.38 2.38 0 0 1 2.13 0Zm5.61-3.24c.56.33.56.9 0 1.23-.56.33-1.57.33-2.13 0-.56-.34-.56-.9 0-1.23a2.38 2.38 0 0 1 2.13 0Zm11.2-6.27c.56.34.56.9 0 1.23-.56.34-1.56.34-2.13 0-.56-.33-.56-.9 0-1.23a2.38 2.38 0 0 1 2.13 0Zm5.5-3.24c.56.34.56.9 0 1.23-.56.34-1.57.34-2.13 0-.56-.34-.56-.9 0-1.23a2.38 2.38 0 0 1 2.13 0Zm5.6-3.13c.56.33.56.9 0 1.23-.56.33-1.57.33-2.13 0-.56-.34-.56-.9 0-1.23a2.38 2.38 0 0 1 2.13 0Zm5.6-3.14c.56.34.56.9 0 1.24-.56.33-1.56.33-2.13 0-.56-.34-.56-.9 0-1.23a2.38 2.38 0 0 1 2.13 0Zm5.61-3.13c.56.34.56.9 0 1.23-.56.34-1.57.34-2.13 0-.56-.33-.56-.9 0-1.23a2.38 2.38 0 0 1 2.13 0Zm5.6-3.24c.56.34.56.9 0 1.23-.56.34-1.57.34-2.13 0-.56-.34-.56-.9 0-1.23a2.38 2.38 0 0 1 2.13 0Zm5.49-3.13c.56.33.56.9 0 1.23-.56.33-1.56.33-2.13 0-.55-.34-.55-.9 0-1.23a2.37 2.37 0 0 1 2.14 0Zm5.61-3.14c.56.34.56.9 0 1.24-.56.33-1.57.33-2.13 0-.56-.34-.56-.9 0-1.24a2.37 2.37 0 0 1 2.13 0Zm5.6-3.24c.56.34.56.9 0 1.23-.56.34-1.57.34-2.13 0-.56-.33-.56-.9 0-1.23a2.38 2.38 0 0 1 2.13 0Zm5.61-3.13c.56.33.56.9 0 1.23-.56.34-1.57.34-2.13 0-.56-.34-.56-.9 0-1.23a2.38 2.38 0 0 1 2.13 0Zm5.6-3.13c.56.33.56.9 0 1.23-.56.33-1.57.33-2.13 0-.56-.34-.56-.9 0-1.23a2.37 2.37 0 0 1 2.13 0Zm5.49-3.13c.56.33.56.89 0 1.22-.56.34-1.57.34-2.13 0-.56-.33-.56-.89 0-1.22a2.37 2.37 0 0 1 2.13 0Zm5.61-3.25c.56.34.56.9 0 1.23-.56.34-1.57.34-2.13 0-.56-.33-.56-.9 0-1.23a2.37 2.37 0 0 1 2.13 0Zm5.6-3.13c.56.33.56.9 0 1.23-.56.34-1.57.34-2.13 0-.56-.34-.56-.9 0-1.23a2.37 2.37 0 0 1 2.13 0Zm-94.82 47.43c.56.33.56.9 0 1.23-.56.33-1.57.33-2.13 0-.56-.34-.56-.9 0-1.23a2.37 2.37 0 0 1 2.13 0Zm5.49-3.13c.56.33.56.89 0 1.23-.56.33-1.57.33-2.13 0-.56-.34-.56-.9 0-1.23a2.37 2.37 0 0 1 2.13 0Zm5.61-3.25c.56.34.56.9 0 1.23-.56.34-1.57.34-2.13 0-.56-.33-.56-.9 0-1.23a2.38 2.38 0 0 1 2.13 0Zm5.6-3.13c.56.34.56.9 0 1.23-.56.34-1.57.34-2.13 0-.56-.34-.56-.9 0-1.23a2.38 2.38 0 0 1 2.13 0Zm5.6-3.13c.56.33.56.9 0 1.23-.56.33-1.56.33-2.13 0-.56-.34-.56-.9 0-1.23a2.38 2.38 0 0 1 2.13 0Zm5.61-3.14c.56.34.56.9 0 1.24-.56.33-1.57.33-2.13 0-.56-.34-.56-.9 0-1.23a2.38 2.38 0 0 1 2.13 0Zm5.6-3.24c.56.34.56.9 0 1.23-.56.34-1.57.34-2.13 0-.56-.33-.56-.9 0-1.23a2.38 2.38 0 0 1 2.13 0Zm5.49-3.13c.56.34.56.9 0 1.23-.56.34-1.56.34-2.13 0-.56-.34-.56-.9 0-1.23a2.38 2.38 0 0 1 2.13 0Zm5.61-3.13c.56.33.56.9 0 1.23-.56.33-1.57.33-2.13 0-.56-.34-.56-.9 0-1.23a2.38 2.38 0 0 1 2.13 0Zm5.6-3.25c.56.34.56.9 0 1.23-.56.34-1.57.34-2.13 0-.56-.33-.56-.9 0-1.23a2.38 2.38 0 0 1 2.13 0Zm5.61-3.13c.56.34.56.9 0 1.23-.56.34-1.57.34-2.13 0-.56-.33-.56-.9 0-1.23a2.38 2.38 0 0 1 2.13 0Zm5.6-3.13c.56.33.56.9 0 1.23-.56.34-1.57.34-2.13 0-.56-.34-.56-.9 0-1.23a2.37 2.37 0 0 1 2.13 0Zm5.49-3.13c.56.33.56.9 0 1.23-.56.33-1.57.33-2.13 0-.56-.34-.56-.9 0-1.23a2.37 2.37 0 0 1 2.13 0Zm5.61-3.25c.56.34.56.9 0 1.23-.56.34-1.57.34-2.13 0-.56-.33-.56-.9 0-1.23a2.37 2.37 0 0 1 2.13 0Zm5.6-3.13c.56.34.56.9 0 1.23-.56.34-1.57.34-2.13 0-.56-.33-.56-.9 0-1.23a2.38 2.38 0 0 1 2.13 0Zm5.6-3.13c.56.33.56.9 0 1.23-.56.34-1.56.34-2.12 0s-.56-.9 0-1.23a2.37 2.37 0 0 1 2.13 0Zm5.61-3.25c.56.34.56.9 0 1.23-.56.34-1.57.34-2.13 0-.56-.33-.56-.89 0-1.23a2.37 2.37 0 0 1 2.13 0Zm-94.93 47.43c.56.34.56.9 0 1.23-.56.34-1.57.34-2.13 0-.56-.33-.56-.9 0-1.23a2.38 2.38 0 0 1 2.13 0Zm5.6-3.13c.56.34.56.9 0 1.23-.56.34-1.57.34-2.13 0-.56-.33-.56-.9 0-1.23a2.38 2.38 0 0 1 2.13 0Zm5.6-3.13c.56.34.56.9 0 1.23-.56.34-1.56.34-2.13 0-.56-.34-.56-.9 0-1.23a2.38 2.38 0 0 1 2.13 0Zm5.61-3.13c.56.33.56.9 0 1.23-.56.33-1.57.33-2.13 0-.56-.34-.56-.9 0-1.23a2.38 2.38 0 0 1 2.13 0Zm5.49-3.24c.56.33.56.89 0 1.22-.56.34-1.57.34-2.13 0-.56-.33-.56-.9 0-1.23a2.38 2.38 0 0 1 2.13 0Zm5.6-3.14c.56.34.56.9 0 1.23-.56.34-1.56.34-2.13 0-.56-.33-.56-.9 0-1.23a2.38 2.38 0 0 1 2.13 0Zm5.61-3.13c.56.34.56.9 0 1.23-.56.34-1.57.34-2.13 0-.56-.34-.56-.9 0-1.23a2.38 2.38 0 0 1 2.13 0Zm5.6-3.25c.56.34.56.9 0 1.24-.56.33-1.57.33-2.13 0-.56-.34-.56-.9 0-1.24a2.38 2.38 0 0 1 2.13 0Zm5.61-3.13c.56.34.56.9 0 1.23-.56.34-1.57.34-2.13 0-.56-.33-.56-.9 0-1.23a2.37 2.37 0 0 1 2.13 0Zm5.49-3.13c.56.34.56.9 0 1.23-.56.34-1.57.34-2.13 0-.56-.33-.56-.9 0-1.23a2.37 2.37 0 0 1 2.13 0Zm5.6-3.13c.56.33.56.9 0 1.23-.56.34-1.57.34-2.13 0-.56-.34-.56-.9 0-1.23a2.37 2.37 0 0 1 2.13 0Zm5.61-3.24c.56.33.56.89 0 1.22-.56.34-1.57.34-2.13 0-.56-.33-.56-.89 0-1.22a2.38 2.38 0 0 1 2.13 0Zm5.6-3.14c.56.34.56.9 0 1.23-.56.34-1.57.34-2.13 0-.56-.33-.56-.9 0-1.23a2.38 2.38 0 0 1 2.13 0Zm5.61-3.13c.55.34.55.9 0 1.23-.56.34-1.57.34-2.14 0-.56-.33-.56-.9 0-1.23a2.38 2.38 0 0 1 2.14 0Zm5.6-3.24c.56.33.56.9 0 1.23-.56.33-1.57.33-2.13 0-.56-.34-.56-.9 0-1.23a2.37 2.37 0 0 1 2.13 0Zm5.49-3.14c.56.34.56.9 0 1.23-.56.34-1.57.34-2.13 0-.56-.33-.56-.89 0-1.23a2.37 2.37 0 0 1 2.13 0Zm5.6-3.13c.56.34.56.9 0 1.23-.56.34-1.56.34-2.12 0-.56-.33-.56-.9 0-1.23a2.37 2.37 0 0 1 2.13 0ZM37.15 168.8c.56.34.56.9 0 1.23-.56.34-1.56.34-2.13 0-.56-.33-.56-.9 0-1.23a2.38 2.38 0 0 1 2.13 0Zm5.61-3.13c.56.34.56.9 0 1.23-.56.34-1.57.34-2.13 0-.56-.34-.56-.9 0-1.23a2.38 2.38 0 0 1 2.13 0Zm5.49-3.24c.56.33.56.89 0 1.23-.56.33-1.57.33-2.13 0-.56-.34-.56-.9 0-1.23a2.38 2.38 0 0 1 2.13 0Zm5.6-3.13c.56.33.56.89 0 1.22-.56.34-1.56.34-2.13 0-.56-.33-.56-.9 0-1.23a2.38 2.38 0 0 1 2.13 0Zm5.61-3.14c.56.34.56.9 0 1.23-.56.34-1.57.34-2.13 0-.56-.33-.56-.9 0-1.23a2.38 2.38 0 0 1 2.13 0Zm5.6-3.24c.56.33.56.9 0 1.23-.56.33-1.57.33-2.13 0-.56-.34-.56-.9 0-1.23a2.38 2.38 0 0 1 2.13 0Zm5.61-3.14c.56.34.56.9 0 1.24-.56.33-1.57.33-2.13 0-.56-.34-.56-.9 0-1.24a2.38 2.38 0 0 1 2.13 0Zm5.49-3.13c.56.34.56.9 0 1.23-.56.34-1.57.34-2.13 0-.56-.33-.56-.9 0-1.23a2.37 2.37 0 0 1 2.13 0Zm5.6-3.13c.56.34.56.9 0 1.23-.56.34-1.57.34-2.13 0-.56-.33-.56-.9 0-1.23a2.37 2.37 0 0 1 2.13 0Zm5.61-3.24c.56.33.56.9 0 1.23-.56.33-1.57.33-2.13 0-.56-.34-.56-.9 0-1.23a2.38 2.38 0 0 1 2.13 0Zm5.6-3.13c.56.33.56.89 0 1.22-.56.34-1.57.34-2.13 0-.56-.33-.56-.89 0-1.22a2.38 2.38 0 0 1 2.13 0Zm5.6-3.14c.57.34.57.9 0 1.23-.56.34-1.56.34-2.12 0-.57-.33-.57-.9 0-1.23a2.37 2.37 0 0 1 2.12 0Zm5.5-3.24c.56.33.56.9 0 1.23-.56.34-1.57.34-2.13 0-.56-.34-.56-.9 0-1.23a2.37 2.37 0 0 1 2.13 0Zm5.6-3.13c.56.33.56.9 0 1.23-.56.33-1.57.33-2.13 0-.56-.34-.56-.9 0-1.23a2.37 2.37 0 0 1 2.13 0Zm5.61-3.14c.55.34.55.9 0 1.23-.56.34-1.57.34-2.14 0-.56-.33-.56-.89 0-1.23a2.38 2.38 0 0 1 2.14 0Zm5.6-3.13c.56.34.56.9 0 1.23-.56.34-1.57.34-2.13 0-.56-.33-.56-.9 0-1.23a2.38 2.38 0 0 1 2.13 0Zm5.6-3.24c.56.33.56.9 0 1.23-.56.33-1.57.33-2.13 0-.56-.34-.56-.9 0-1.23a2.37 2.37 0 0 1 2.13 0Zm-94.93 47.43c.56.33.56.9 0 1.23-.56.33-1.57.33-2.13 0-.56-.34-.56-.9 0-1.23a2.37 2.37 0 0 1 2.13 0Zm5.6-3.13c.56.33.56.89 0 1.23-.56.33-1.56.33-2.13 0-.56-.34-.56-.9 0-1.23a2.38 2.38 0 0 1 2.13 0Zm5.61-3.13c.56.33.56.89 0 1.22-.56.34-1.57.34-2.13 0-.56-.33-.56-.9 0-1.23a2.38 2.38 0 0 1 2.13 0Zm5.6-3.25c.56.33.56.9 0 1.23-.56.34-1.57.34-2.13 0-.56-.34-.56-.9 0-1.23a2.38 2.38 0 0 1 2.13 0Zm5.61-3.13c.56.33.56.9 0 1.23-.56.33-1.57.33-2.13 0-.56-.34-.56-.9 0-1.23a2.38 2.38 0 0 1 2.13 0Zm5.49-3.14c.56.34.56.9 0 1.24-.56.33-1.57.33-2.13 0-.56-.34-.56-.9 0-1.24a2.38 2.38 0 0 1 2.13 0Zm5.6-3.13c.56.34.56.9 0 1.23-.56.34-1.57.34-2.13 0-.56-.33-.56-.9 0-1.23a2.38 2.38 0 0 1 2.13 0Zm5.61-3.25c.56.34.56.9 0 1.24-.56.34-1.57.34-2.13 0-.56-.34-.56-.9 0-1.23a2.38 2.38 0 0 1 2.13 0Zm5.6-3.12c.56.33.56.9 0 1.23-.56.33-1.57.33-2.13 0-.56-.34-.56-.9 0-1.23a2.38 2.38 0 0 1 2.13 0Zm5.6-3.13c.56.33.56.89 0 1.22-.56.34-1.56.34-2.12 0-.57-.33-.57-.89 0-1.22a2.37 2.37 0 0 1 2.12 0Zm5.5-3.25c.56.34.56.9 0 1.23-.56.34-1.57.34-2.13 0-.56-.33-.56-.9 0-1.23a2.37 2.37 0 0 1 2.13 0Zm5.6-3.13c.56.33.56.9 0 1.23-.56.34-1.57.34-2.13 0-.56-.34-.56-.9 0-1.23a2.37 2.37 0 0 1 2.13 0Zm5.6-3.13c.57.33.57.9 0 1.23a2.4 2.4 0 0 1-2.12 0c-.57-.34-.57-.9 0-1.23a2.38 2.38 0 0 1 2.12 0Zm5.61-3.14c.56.34.56.9 0 1.23-.56.34-1.57.34-2.13 0-.56-.33-.56-.89 0-1.23a2.38 2.38 0 0 1 2.13 0Zm5.6-3.24c.56.34.56.9 0 1.23-.56.34-1.57.34-2.13 0-.56-.33-.56-.9 0-1.23a2.37 2.37 0 0 1 2.13 0Zm5.5-3.13c.55.33.55.9 0 1.23-.56.33-1.57.33-2.14 0-.56-.34-.56-.9 0-1.23a2.37 2.37 0 0 1 2.14 0Zm5.6-3.13c.56.33.56.9 0 1.23-.56.33-1.57.33-2.13 0-.56-.34-.56-.9 0-1.23a2.37 2.37 0 0 1 2.13 0Zm-94.82 47.43c.56.33.56.89 0 1.23-.56.33-1.57.33-2.13 0-.56-.34-.56-.9 0-1.23a2.38 2.38 0 0 1 2.13 0Zm5.6-3.13c.56.33.56.89 0 1.22-.56.34-1.57.34-2.13 0-.56-.33-.56-.9 0-1.23.56-.44 1.46-.44 2.13 0Zm5.49-3.25c.56.33.56.9 0 1.23-.56.34-1.56.34-2.13 0-.56-.34-.56-.9 0-1.23a2.38 2.38 0 0 1 2.13 0Zm5.61-3.13c.56.33.56.9 0 1.23-.56.33-1.57.33-2.13 0-.56-.34-.56-.9 0-1.23a2.38 2.38 0 0 1 2.13 0Zm5.6-3.14c.56.34.56.9 0 1.24-.56.33-1.57.33-2.13 0-.56-.34-.56-.9 0-1.24a2.38 2.38 0 0 1 2.13 0Zm5.61-3.24c.56.34.56.9 0 1.23-.56.34-1.57.34-2.13 0-.56-.33-.56-.9 0-1.23a2.38 2.38 0 0 1 2.13 0Zm5.6-3.14c.56.34.56.9 0 1.24-.56.34-1.57.34-2.13 0-.56-.34-.56-.9 0-1.23a2.38 2.38 0 0 1 2.13 0Zm5.49-3.12c.56.33.56.9 0 1.23-.56.33-1.57.33-2.13 0-.56-.34-.56-.9 0-1.23a2.37 2.37 0 0 1 2.13 0Zm5.61-3.25c.56.34.56.9 0 1.23-.56.34-1.57.34-2.13 0-.56-.33-.56-.9 0-1.23a2.37 2.37 0 0 1 2.13 0Zm5.6-3.13c.56.34.56.9 0 1.23-.56.34-1.57.34-2.13 0-.56-.33-.56-.9 0-1.23a2.38 2.38 0 0 1 2.13 0Zm5.6-3.13c.56.33.56.9 0 1.23-.56.34-1.56.34-2.12 0-.57-.34-.57-.9 0-1.23a2.38 2.38 0 0 1 2.12 0Zm5.61-3.13c.56.33.56.9 0 1.23-.56.33-1.57.33-2.13 0-.56-.34-.56-.9 0-1.23a2.38 2.38 0 0 1 2.13 0Zm5.6-3.24c.56.33.56.89 0 1.22-.56.34-1.57.34-2.13 0-.56-.33-.56-.9 0-1.23a2.37 2.37 0 0 1 2.13 0Zm5.49-3.14c.57.34.57.9 0 1.23-.56.34-1.56.34-2.12 0-.57-.33-.57-.9 0-1.23a2.37 2.37 0 0 1 2.12 0Zm5.61-3.13c.56.33.56.9 0 1.23-.56.33-1.57.33-2.13 0-.56-.34-.56-.9 0-1.23a2.38 2.38 0 0 1 2.13 0Zm5.6-3.24c.56.33.56.89 0 1.22-.56.34-1.57.34-2.13 0-.56-.33-.56-.89 0-1.22a2.38 2.38 0 0 1 2.13 0Zm5.61-3.14c.56.34.56.9 0 1.23-.56.34-1.57.34-2.13 0-.56-.33-.56-.9 0-1.23a2.38 2.38 0 0 1 2.13 0Zm-94.94 47.43c.56.34.56.9 0 1.23-.56.34-1.57.34-2.13 0-.56-.33-.56-.9 0-1.23a2.38 2.38 0 0 1 2.13 0Zm5.61-3.13c.56.33.56.9 0 1.23-.56.34-1.57.34-2.13 0-.56-.34-.56-.9 0-1.23a2.38 2.38 0 0 1 2.13 0Zm5.6-3.13c.56.33.56.9 0 1.23-.56.33-1.57.33-2.13 0-.56-.34-.56-.9 0-1.23a2.38 2.38 0 0 1 2.13 0Zm5.61-3.25c.56.34.56.9 0 1.23-.56.34-1.57.34-2.13 0-.56-.33-.56-.9 0-1.23a2.38 2.38 0 0 1 2.13 0Zm5.6-3.13c.56.34.56.9 0 1.23-.56.34-1.57.34-2.13 0-.56-.33-.56-.9 0-1.23a2.38 2.38 0 0 1 2.13 0Zm5.49-3.14c.56.34.56.9 0 1.24-.56.34-1.57.34-2.13 0-.56-.34-.56-.9 0-1.23a2.38 2.38 0 0 1 2.13 0Zm5.61-3.12c.56.33.56.9 0 1.23-.56.33-1.57.33-2.13 0-.56-.34-.56-.9 0-1.23.67-.45 1.57-.45 2.13 0Zm5.6-3.25c.56.34.56.9 0 1.23-.56.34-1.57.34-2.13 0-.56-.33-.56-.9 0-1.23a2.38 2.38 0 0 1 2.13 0Zm5.6-3.13c.56.34.56.9 0 1.23-.56.34-1.56.34-2.13 0-.56-.33-.56-.9 0-1.23a2.38 2.38 0 0 1 2.13 0Zm5.61-3.13c.56.33.56.9 0 1.23-.56.34-1.57.34-2.13 0-.56-.34-.56-.9 0-1.23a2.37 2.37 0 0 1 2.13 0Zm5.49-3.24c.56.33.56.89 0 1.22-.56.34-1.57.34-2.13 0-.56-.33-.56-.89 0-1.22a2.37 2.37 0 0 1 2.13 0Zm5.6-3.13c.56.33.56.89 0 1.22-.56.34-1.56.34-2.12 0-.57-.33-.57-.9 0-1.23a2.37 2.37 0 0 1 2.12 0Zm5.61-3.14c.56.34.56.9 0 1.23-.56.34-1.57.34-2.13 0-.56-.33-.56-.9 0-1.23a2.38 2.38 0 0 1 2.13 0Zm5.6-3.24c.56.33.56.9 0 1.23-.56.33-1.57.33-2.13 0-.56-.34-.56-.9 0-1.23a2.38 2.38 0 0 1 2.13 0Zm5.61-3.13c.56.33.56.89 0 1.22-.56.34-1.57.34-2.13 0-.56-.33-.56-.89 0-1.22a2.38 2.38 0 0 1 2.13 0Zm5.61-3.14c.55.34.55.9 0 1.23-.57.34-1.58.34-2.14 0-.56-.33-.56-.9 0-1.23a2.37 2.37 0 0 1 2.13 0Zm5.48-3.13c.56.34.56.9 0 1.23-.56.34-1.57.34-2.13 0-.56-.33-.56-.9 0-1.23a2.38 2.38 0 0 1 2.13 0Zm-94.82 47.43c.56.33.56.9 0 1.23-.56.34-1.57.34-2.13 0-.56-.34-.56-.9 0-1.23a2.38 2.38 0 0 1 2.13 0Zm5.61-3.25c.56.34.56.9 0 1.24-.56.33-1.57.33-2.13 0-.56-.34-.56-.9 0-1.23a2.38 2.38 0 0 1 2.13 0Zm5.49-3.13c.56.34.56.9 0 1.23-.56.34-1.57.34-2.13 0-.56-.33-.56-.9 0-1.23a2.38 2.38 0 0 1 2.13 0Zm5.6-3.13c.56.34.56.9 0 1.23-.56.34-1.57.34-2.13 0-.56-.33-.56-.9 0-1.23a2.38 2.38 0 0 1 2.13 0Zm5.61-3.14c.56.34.56.9 0 1.24-.56.34-1.57.34-2.13 0-.56-.34-.56-.9 0-1.23a2.38 2.38 0 0 1 2.13 0Zm5.6-3.24c.56.34.56.9 0 1.24-.56.33-1.57.33-2.13 0-.56-.34-.56-.9 0-1.24a2.38 2.38 0 0 1 2.13 0Zm5.6-3.13c.56.34.56.9 0 1.23-.56.34-1.56.34-2.13 0-.56-.33-.56-.9 0-1.23a2.38 2.38 0 0 1 2.13 0Zm5.61-3.13c.56.34.56.9 0 1.23-.56.34-1.57.34-2.13 0-.56-.33-.56-.9 0-1.23a2.37 2.37 0 0 1 2.13 0Zm5.49-3.24c.56.33.56.9 0 1.23-.56.33-1.57.33-2.13 0-.56-.34-.56-.9 0-1.23a2.38 2.38 0 0 1 2.13 0Zm5.6-3.13c.56.33.56.89 0 1.22-.56.34-1.56.34-2.13 0-.56-.33-.56-.89 0-1.22a2.37 2.37 0 0 1 2.13 0Zm5.61-3.13c.56.33.56.89 0 1.22-.56.34-1.57.34-2.13 0-.56-.33-.56-.9 0-1.23a2.38 2.38 0 0 1 2.13 0Zm5.6-3.14c.56.34.56.9 0 1.23-.56.34-1.57.34-2.13 0-.56-.33-.56-.9 0-1.23a2.38 2.38 0 0 1 2.13 0Zm5.61-3.24c.56.33.56.9 0 1.23-.56.33-1.57.33-2.13 0-.56-.34-.56-.9 0-1.23a2.37 2.37 0 0 1 2.13 0Zm5.49-3.13c.56.33.56.89 0 1.22-.56.34-1.57.34-2.13 0-.56-.33-.56-.89 0-1.22a2.37 2.37 0 0 1 2.13 0Zm5.6-3.14c.56.34.56.9 0 1.23-.56.34-1.57.34-2.13 0-.56-.33-.56-.9 0-1.23a2.37 2.37 0 0 1 2.13 0Zm5.61-3.25c.56.34.56.9 0 1.24-.56.34-1.57.34-2.13 0-.56-.34-.56-.9 0-1.23a2.38 2.38 0 0 1 2.13 0Zm5.61-3.12c.55.33.55.9 0 1.23-.57.33-1.58.33-2.14 0-.56-.34-.56-.9 0-1.23a2.38 2.38 0 0 1 2.13 0Zm-83.73 41.16c.56.34.56.9 0 1.23-.56.34-1.57.34-2.13 0-.56-.33-.56-.9 0-1.23a2.38 2.38 0 0 1 2.13 0Zm5.6-3.24c.56.33.56.9 0 1.23-.56.33-1.57.33-2.13 0-.56-.34-.56-.9 0-1.23a2.38 2.38 0 0 1 2.13 0Zm5.6-3.14c.56.34.56.9 0 1.24-.56.33-1.56.33-2.13 0-.56-.34-.56-.9 0-1.24a2.38 2.38 0 0 1 2.13 0Zm5.5-3.13c.56.34.56.9 0 1.23-.56.34-1.57.34-2.13 0-.56-.33-.56-.9 0-1.23a2.37 2.37 0 0 1 2.13 0Zm5.6-3.24c.56.34.56.9 0 1.23-.56.33-1.57.33-2.13 0-.56-.34-.56-.9 0-1.23a2.38 2.38 0 0 1 2.13 0Zm5.6-3.13c.56.33.56.9 0 1.23-.56.33-1.56.33-2.13 0-.56-.34-.56-.9 0-1.23a2.38 2.38 0 0 1 2.13 0Zm5.61-3.13c.56.33.56.89 0 1.22-.56.34-1.57.34-2.13 0-.56-.33-.56-.89 0-1.22a2.38 2.38 0 0 1 2.13 0Zm5.6-3.13c.56.33.56.89 0 1.22-.56.34-1.57.34-2.13 0-.56-.33-.56-.9 0-1.23a2.38 2.38 0 0 1 2.13 0Zm5.61-3.25c.56.33.56.9 0 1.23-.56.34-1.57.34-2.13 0-.56-.34-.56-.9 0-1.23a2.37 2.37 0 0 1 2.13 0Zm5.49-3.13c.56.33.56.9 0 1.23-.56.33-1.57.33-2.13 0-.56-.34-.56-.9 0-1.23a2.37 2.37 0 0 1 2.13 0Zm5.6-3.13c.56.33.56.89 0 1.22-.56.34-1.57.34-2.13 0-.56-.33-.56-.89 0-1.22a2.38 2.38 0 0 1 2.13 0Zm5.61-3.25c.56.34.56.9 0 1.23-.56.34-1.57.34-2.13 0-.56-.33-.56-.9 0-1.23a2.38 2.38 0 0 1 2.13 0Zm5.61-3.14c.55.34.55.9 0 1.24-.57.34-1.58.34-2.14 0s-.56-.9 0-1.23a2.38 2.38 0 0 1 2.13 0Zm5.6-3.12c.56.33.56.9 0 1.23-.57.33-1.57.33-2.13 0-.57-.34-.57-.9 0-1.23a2.37 2.37 0 0 1 2.12 0Zm5.49-3.14c.56.34.56.9 0 1.23-.56.34-1.57.34-2.13 0-.56-.33-.56-.89 0-1.23a2.38 2.38 0 0 1 2.13 0ZM15.07 143.3c.56.33.56.9 0 1.23-.56.33-1.57.33-2.13 0-.56-.34-.56-.9 0-1.23a2.38 2.38 0 0 1 2.13 0Zm5.5-3.14c.56.34.56.9 0 1.24-.56.33-1.57.33-2.13 0-.56-.34-.56-.9 0-1.24a2.38 2.38 0 0 1 2.13 0Zm5.6-3.24c.56.34.56.9 0 1.23-.56.34-1.57.34-2.13 0-.56-.33-.56-.9 0-1.23a2.38 2.38 0 0 1 2.13 0Zm5.6-3.13c.56.34.56.9 0 1.23-.56.33-1.56.33-2.13 0-.56-.34-.56-.9 0-1.23a2.38 2.38 0 0 1 2.13 0Zm5.61-3.13c.56.33.56.9 0 1.23-.56.33-1.57.33-2.13 0-.56-.34-.56-.9 0-1.23a2.38 2.38 0 0 1 2.13 0Zm5.6-3.13c.56.33.56.89 0 1.22-.56.34-1.57.34-2.13 0-.56-.33-.56-.89 0-1.22a2.37 2.37 0 0 1 2.13 0Zm5.49-3.25c.56.34.56.9 0 1.23-.56.34-1.56.34-2.13 0-.56-.33-.56-.9 0-1.23a2.37 2.37 0 0 1 2.13 0Zm5.61-3.13c.56.33.56.9 0 1.23-.56.34-1.57.34-2.13 0-.56-.34-.56-.9 0-1.23a2.37 2.37 0 0 1 2.13 0Zm5.6-3.13c.56.33.56.9 0 1.23-.56.33-1.57.33-2.13 0-.56-.34-.56-.9 0-1.23a2.38 2.38 0 0 1 2.13 0Zm5.61-3.25c.56.34.56.9 0 1.23-.56.34-1.57.34-2.13 0-.56-.33-.56-.9 0-1.23a2.38 2.38 0 0 1 2.13 0Zm5.61-3.13c.55.34.55.9 0 1.23-.57.34-1.58.34-2.14 0-.56-.33-.56-.9 0-1.23a2.37 2.37 0 0 1 2.13 0Zm5.6-3.14c.56.34.56.9 0 1.24-.57.34-1.57.34-2.13 0-.57-.34-.57-.9 0-1.23a2.37 2.37 0 0 1 2.12 0Zm5.49-3.12c.56.33.56.9 0 1.23-.56.33-1.57.33-2.13 0-.56-.34-.56-.9 0-1.23a2.37 2.37 0 0 1 2.13 0Zm-66.92 31.54c.56.34.56.9 0 1.23-.56.34-1.57.34-2.13 0-.56-.33-.56-.9 0-1.23a2.38 2.38 0 0 1 2.13 0Zm5.61-3.13c.56.34.56.9 0 1.23-.56.33-1.57.33-2.13 0-.56-.34-.56-.9 0-1.23a2.38 2.38 0 0 1 2.13 0Zm5.6-3.13c.56.33.56.9 0 1.23-.56.33-1.57.33-2.13 0-.56-.34-.56-.9 0-1.23a2.38 2.38 0 0 1 2.13 0Zm5.49-3.25c.56.34.56.9 0 1.23-.56.34-1.56.34-2.13 0-.56-.33-.56-.9 0-1.23a2.37 2.37 0 0 1 2.13 0Zm5.61-3.13c.56.34.56.9 0 1.23-.56.34-1.57.34-2.13 0-.56-.33-.56-.9 0-1.23a2.38 2.38 0 0 1 2.13 0Zm5.6-3.13c.56.33.56.9 0 1.23-.56.34-1.57.34-2.13 0-.56-.34-.56-.9 0-1.23a2.38 2.38 0 0 1 2.13 0Zm5.61-3.25c.56.34.56.9 0 1.23-.56.34-1.57.34-2.13 0-.56-.33-.56-.89 0-1.22a2.38 2.38 0 0 1 2.13 0Zm5.6-3.13c.56.34.56.9 0 1.23-.56.34-1.57.34-2.13 0-.56-.33-.56-.9 0-1.23a2.37 2.37 0 0 1 2.13 0Zm5.49-3.13c.56.34.56.9 0 1.23-.56.34-1.57.34-2.13 0-.56-.33-.56-.9 0-1.23a2.37 2.37 0 0 1 2.13 0Zm5.61-3.14c.56.34.56.9 0 1.24-.56.34-1.57.34-2.13 0-.56-.34-.56-.9 0-1.23a2.37 2.37 0 0 1 2.13 0Zm5.61-3.23c.55.33.55.89 0 1.23-.57.33-1.58.33-2.14 0-.56-.34-.56-.9 0-1.23a2.38 2.38 0 0 1 2.13 0Zm-55.83 25.27c.56.34.56.9 0 1.24-.56.33-1.57.33-2.13 0-.56-.34-.56-.9 0-1.24a2.38 2.38 0 0 1 2.13 0Zm5.61-3.13c.56.34.56.9 0 1.23-.56.34-1.57.34-2.13 0-.56-.33-.56-.9 0-1.23a2.38 2.38 0 0 1 2.13 0Zm5.6-3.13c.56.34.56.9 0 1.23-.56.34-1.57.34-2.13 0-.56-.33-.56-.9 0-1.23a2.38 2.38 0 0 1 2.13 0Zm5.61-3.24c.56.33.56.9 0 1.23-.56.33-1.57.33-2.13 0-.56-.34-.56-.9 0-1.23a2.38 2.38 0 0 1 2.13 0Zm5.6-3.14c.56.34.56.9 0 1.23-.56.34-1.57.34-2.13 0-.56-.33-.56-.89 0-1.22a2.37 2.37 0 0 1 2.13 0Zm5.49-3.13c.56.34.56.9 0 1.23-.56.34-1.57.34-2.13 0-.56-.33-.56-.9 0-1.23a2.37 2.37 0 0 1 2.13 0Zm5.61-3.13c.56.34.56.9 0 1.23-.56.34-1.57.34-2.13 0-.56-.33-.56-.9 0-1.23a2.38 2.38 0 0 1 2.13 0Zm5.6-3.24c.56.33.56.9 0 1.23-.56.33-1.57.33-2.13 0-.56-.34-.56-.9 0-1.23a2.38 2.38 0 0 1 2.13 0Zm5.61-3.13c.55.33.55.89 0 1.23-.57.33-1.57.33-2.13 0-.57-.34-.57-.9 0-1.23a2.38 2.38 0 0 1 2.12 0Zm-44.61 18.9c.56.33.56.9 0 1.23-.56.33-1.57.33-2.13 0-.56-.34-.56-.9 0-1.23a2.38 2.38 0 0 1 2.13 0Zm5.49-3.13c.56.33.56.9 0 1.23-.56.33-1.57.33-2.13 0-.56-.34-.56-.9 0-1.23a2.38 2.38 0 0 1 2.13 0Zm5.6-3.14c.56.34.56.9 0 1.23-.56.34-1.57.34-2.13 0-.56-.33-.56-.89 0-1.22a2.37 2.37 0 0 1 2.13 0Zm5.61-3.13c.56.34.56.9 0 1.23-.56.34-1.57.34-2.13 0-.56-.33-.56-.9 0-1.23a2.38 2.38 0 0 1 2.13 0Zm5.6-3.24c.56.33.56.9 0 1.23-.56.33-1.57.33-2.13 0-.56-.34-.56-.9 0-1.23a2.38 2.38 0 0 1 2.13 0Zm5.61-3.13c.55.33.55.9 0 1.23-.57.33-1.57.33-2.14 0-.56-.34-.56-.9 0-1.23a2.37 2.37 0 0 1 2.13 0Zm5.6-3.13c.56.33.56.89 0 1.23-.56.33-1.57.33-2.13 0-.56-.34-.56-.9 0-1.23a2.37 2.37 0 0 1 2.13 0ZM15.19 117.9c.56.34.56.9 0 1.23-.56.34-1.57.34-2.13 0-.56-.33-.56-.89 0-1.22a2.38 2.38 0 0 1 2.13 0Zm5.6-3.24c.56.34.56.9 0 1.23-.56.34-1.57.34-2.13 0-.56-.33-.56-.9 0-1.23a2.38 2.38 0 0 1 2.13 0Zm5.61-3.13c.55.33.55.9 0 1.23-.57.33-1.57.33-2.14 0-.56-.34-.56-.9 0-1.23a2.37 2.37 0 0 1 2.13 0Zm5.49-3.13c.56.33.56.9 0 1.23-.56.33-1.57.33-2.13 0-.56-.34-.56-.9 0-1.23a2.37 2.37 0 0 1 2.13 0Zm5.6-3.25c.56.34.56.9 0 1.23-.56.34-1.57.34-2.13 0-.56-.33-.56-.9 0-1.23a2.37 2.37 0 0 1 2.13 0Zm-22.3 6.38c.56.33.56.9 0 1.23-.56.33-1.57.33-2.13 0-.56-.34-.56-.9 0-1.23a2.37 2.37 0 0 1 2.13 0Zm5.6-3.25c.56.34.56.9 0 1.23-.56.34-1.57.34-2.13 0-.56-.33-.56-.89 0-1.23a2.38 2.38 0 0 1 2.13 0Zm5.61-3.13c.55.34.55.9 0 1.23-.57.34-1.57.34-2.14 0-.56-.33-.56-.9 0-1.23a2.38 2.38 0 0 1 2.13 0Zm5.6-3.13c.56.34.56.9 0 1.23-.56.34-1.57.34-2.13 0-.56-.33-.56-.9 0-1.23a2.38 2.38 0 0 1 2.13 0Z"/>
  <path fill="#F6A01D" d="M151.37 51.24 93.53 17.9c-1.57-.9-2.58-1.12-3.7-.45l-.45.23-6.05 3.8.67 3.7 3.37 6.6v75.39c0 4.47 2.69 9.73 6.16 11.63l51.78 29.87 4.04 7.5 5.71-3.59.45-.33c1.12-.79 1.8-2.47 1.8-4.7V62.98c.22-4.58-2.58-9.73-5.94-11.74Z"/>
  <path fill="#FDEDCC" d="M151.48 54.03 93.64 20.7c-1.57-.9-2.58-1.12-3.7-.45l-.44.22-6.06 3.8.68 3.7 3.36 6.6v75.4c0 4.47 2.69 9.72 6.16 11.63l51.79 29.86 4.59 1.8 3.7.66 1.46-2.12c1.12-.78 2.35.78 2.35-1.46V65.67c0-4.48-2.7-9.74-6.05-11.64Z"/>
  <path fill="#177C1B" d="m149.01 157.73-4.48-8.28-51.56-29.75c-3.7-2.13-6.61-7.72-6.61-12.64V32.1L83 25.4l-.9-4.37 7.28-4.47c1.46-.9 2.92-.45 4.6.56l57.83 33.33c3.7 2.13 6.62 7.72 6.62 12.64v84.57c0 2.57-.79 4.47-2.25 5.6l-7.17 4.47ZM85.12 24.83l3.37 6.72v75.62c0 4.14 2.58 9.06 5.6 10.73l52.12 29.98 3.7 6.83 5.27-3.36c.78-.56 1.34-2.01 1.34-3.8V62.98c0-4.14-2.58-9.06-5.6-10.74L92.97 18.8c-1.57-.9-2.02-.79-2.58-.45l-.56.22-5.38 3.36.67 2.9Z"/>
  <path fill="#F6A01D" d="m144.98 156.16-57.84-33.33c-3.36-1.9-6.16-7.16-6.16-11.64V26.52c0-4.48 2.69-6.6 6.16-4.6l57.84 33.34c3.36 1.9 6.16 7.16 6.16 11.64v84.56c0 4.59-2.8 6.6-6.16 4.7Z"/>
  <path fill="#177C1B" d="M147.44 157.95c-.9 0-1.9-.33-2.91-.9l-57.84-33.33c-3.7-2.12-6.6-7.72-6.6-12.64V26.52c0-2.8 1-4.93 2.68-5.82 1.46-.78 3.25-.67 5.04.33l57.84 33.34c3.7 2.12 6.61 7.72 6.61 12.64v84.56c0 2.8-1 4.93-2.69 5.82-.67.34-1.34.56-2.13.56ZM84.8 22.26c-.34 0-.67.12-1.01.23-1 .56-1.57 2.01-1.57 4.03v84.56c0 4.14 2.58 9.06 5.6 10.74l57.84 33.34c.78.44 1.9.89 2.91.33 1.01-.56 1.57-2.01 1.57-4.03V66.9c0-4.14-2.58-9.06-5.6-10.74L86.69 22.82a3.78 3.78 0 0 0-1.9-.56Z"/>
  <path fill="#FDEDCC" d="M145.09 153.14 91.4 122.27c-1.9-1.12-3.47-4.03-3.47-6.6V40.05c0-2.57 1.57-3.7 3.47-2.57l53.69 30.87c1.9 1.12 3.47 4.03 3.47 6.6v75.62c0 2.57-1.57 3.69-3.47 2.57Z"/>
  <path fill="#177C1B" d="M144.3 150.46c-.56 0-1.12-.23-1.79-.56l-53.69-30.88c-2.13-1.23-3.8-4.47-3.8-7.27V36.14c0-1.68.55-2.91 1.56-3.47.9-.56 2.02-.45 3.03.22l53.68 30.87c2.14 1.24 3.82 4.48 3.82 7.28v75.61c0 1.68-.57 2.91-1.57 3.47-.34.22-.79.34-1.24.34Zm-1-1.9c.44.22 1 .44 1.45.22.45-.34.79-1.12.79-2.13V71.04c0-2.24-1.35-4.93-3.03-5.93L88.82 34.23c-.44-.22-1-.44-1.45-.22-.45.34-.79 1.12-.79 2.13v75.61c0 2.24 1.35 4.92 3.03 5.93l53.68 30.88Z"/>
  <path fill="#F6A01D" d="m98.46 72.49-5.83-11.52c-.78-1.57-.67-3.13.34-3.58 1-.34 2.47.67 3.25 2.24l3.03 6.04 6.72-5.6c.79-.67 2.24 0 3.25 1.46 1.01 1.45 1.12 3.24.34 3.91l-9.42 7.94c-.44.34-1.23-.1-1.68-.89Z"/>
  <path fill="#177C1B" d="M98.91 71.82h-.34c-.67-.11-1.23-.67-1.68-1.46l-5.83-11.52a4.4 4.4 0 0 1-.44-3.47c.22-.55.67-1 1.12-1.23 1.34-.55 3.25.56 4.26 2.58l2.57 5.14 5.95-5.03c.44-.34 1-.56 1.56-.45 1.01.11 2.02.9 2.8 2.02 1.24 1.9 1.35 4.02.23 4.92l-9.41 7.94c-.12.45-.45.56-.79.56Zm-6.28-16.1h-.1s-.12 0-.23.21c-.11.34-.11 1.23.33 2.13l5.83 11.52c.11.34.34.45.45.56l9.3-7.83c.34-.34.34-1.57-.44-2.8-.56-.9-1.35-1.34-1.69-1.34-.22 0-.33 0-.33.11l-7.51 6.27-3.48-6.94c-.67-1.23-1.57-1.9-2.13-1.9Z"/>
  <path fill="#F6A01D" d="m99.36 95.98-5.83-11.52c-.78-1.57-.67-3.13.34-3.58 1-.34 2.46.67 3.25 2.24l3.02 6.04 6.73-5.6c.78-.67 2.24 0 3.25 1.46 1 1.45 1.12 3.24.33 3.91l-9.41 7.95c-.56.33-1.34-.12-1.68-.9Z"/>
  <path fill="#177C1B" d="M99.7 95.3h-.34c-.67-.1-1.23-.66-1.68-1.44l-5.83-11.53a4.4 4.4 0 0 1-.45-3.46c.23-.56.67-1.01 1.12-1.23 1.35-.56 3.25.55 4.26 2.57l2.58 5.14 5.94-5.03a2 2 0 0 1 1.57-.45c1 .11 2.02.9 2.8 2.02 1.23 1.9 1.35 4.02.22 4.92l-9.41 7.94c-.11.45-.45.56-.78.56Zm-.45-2.23c.1.34.33.45.45.56l9.3-7.83c.33-.33.33-1.56-.45-2.8-.56-.89-1.34-1.34-1.68-1.34-.23 0-.34 0-.34.11l-7.5 6.27-3.48-6.94c-.67-1.34-1.8-2.01-2.24-1.79 0 0-.12 0-.23.23-.11.33-.11 1.23.34 2.12l5.83 11.41Z"/>
  <path fill="#F6A01D" d="m139.7 91.5-23.2-13.42c-1-.56-1.9-2.23-1.9-3.58 0-1.34.79-2.01 1.9-1.45l23.2 13.42c1.02.56 1.91 2.24 1.91 3.58 0 1.46-.78 2.13-1.9 1.46Z"/>
  <path fill="#177C1B" d="M139.7 90.05c-.33 0-.78-.11-1.11-.33l-23.2-13.43a5.38 5.38 0 0 1-2.25-4.25c0-1 .34-1.79 1.01-2.24a1.9 1.9 0 0 1 2.02.12l23.2 13.42a5.38 5.38 0 0 1 2.24 4.25c0 1-.33 1.79-1 2.24-.34.22-.57.22-.9.22Zm-.33-1.68c.23.12.34.12.45.12.11 0 .22-.34.22-.79 0-1.12-.67-2.46-1.45-2.9l-23.2-13.43c-.23-.11-.34-.11-.45-.11-.11 0-.23.33-.23.78 0 1.12.68 2.46 1.46 2.91l23.2 13.42Z"/>
  <path fill="#F6A01D" d="m139.7 113.1-23.2-13.43c-1-.56-1.9-2.24-1.9-3.58 0-1.34.79-2.01 1.9-1.45l23.2 13.42c1.02.56 1.91 2.24 1.91 3.58 0 1.34-.78 2.01-1.9 1.45Z"/>
  <path fill="#177C1B" d="M139.7 111.64c-.33 0-.78-.11-1.11-.33l-23.2-13.43a5.38 5.38 0 0 1-2.25-4.25c0-1 .34-1.79 1.01-2.24a1.9 1.9 0 0 1 2.02.12l23.2 13.42a5.38 5.38 0 0 1 2.24 4.25c0 1-.33 1.79-1 2.24-.34.1-.57.22-.9.22Zm-24.76-18.8c-.11.12-.34.34-.34.8 0 1.11.68 2.45 1.46 2.9l23.2 13.42a.8.8 0 0 0 .45.12c.11 0 .22-.34.22-.79 0-1.12-.67-2.46-1.45-2.9l-23.2-13.43c-.12-.11-.23-.11-.34-.11Z"/>
  <path fill="#F6A01D" d="m139.7 134.57-23.2-13.42c-1-.56-1.9-2.24-1.9-3.58 0-1.34.79-2.01 1.9-1.45l23.2 13.42c1.02.56 1.91 2.24 1.91 3.58-.1 1.34-.9 2.01-1.9 1.45Z"/>
  <path fill="#177C1B" d="M139.6 133c-.34 0-.79-.1-1.12-.33l-23.2-13.42a5.38 5.38 0 0 1-2.25-4.25c0-1.01.34-1.8 1.01-2.24a1.9 1.9 0 0 1 2.02.11l23.2 13.42a5.38 5.38 0 0 1 2.24 4.25c0 1.01-.34 1.8-1 2.24-.34.23-.57.23-.9.23Zm-.34-1.67c.22.11.34.11.45.11.11 0 .22-.34.22-.78 0-1.12-.67-2.46-1.45-2.91l-23.2-13.42c-.23-.12-.34-.12-.45-.12-.12 0-.23.34-.23.79 0 1.11.68 2.46 1.46 2.9l23.2 13.43Z"/>
  <path fill="#F6A01D" d="M142.96 50.34c.67-.56 1-1.56 1-2.9 0-2.8-1.67-6.16-3.92-7.39l-37.32-21.48c-.9-.56-2.46-.22-2.46-.22s-.34.22-.45.33l-4.37 3.02a.52.52 0 0 0 0 .9l4.48 3.24a8.32 8.32 0 0 0 2.69 3.14l7.96 4.58 7.96 5.7 17.93 14.66c.33.34.9.34 1.34.11a139.2 139.2 0 0 0 5.16-3.69Z"/>
  <path fill="#FDEDCC" d="M144.2 50.45c0-2.8-1.69-6.15-3.93-7.38l-37.32-21.59c-.9-.56-2.47-.22-2.47-.22s-.34.22-.45.33l-4.37 3.02a.52.52 0 0 0 0 .9l4.48 3.24a8.3 8.3 0 0 0 2.7 3.13l7.95 4.6 26.23 18 7.17-4.03Z"/>
  <path fill="#177C1B" d="M137.24 55.15c-.45 0-1-.22-1.34-.56l-17.94-14.65-7.84-5.6-7.96-4.58a8.53 8.53 0 0 1-3.03-3.25l-4.25-3.13a1.6 1.6 0 0 1-.68-1.34c0-.56.23-1 .68-1.34l4.37-3.02c.1-.11.45-.34.45-.34l.33-.11c.23 0 1.68-.56 3.14.34l37.43 21.59c2.47 1.45 4.38 5.03 4.38 8.27 0 1.57-.45 2.8-1.35 3.58-.11.11-.11.11-4.26 3.02l-.9.56c-.33.45-.78.56-1.23.56Zm-40.57-33 4.15 2.91.1.22a7.03 7.03 0 0 0 2.36 2.69l7.96 4.59 8.07 5.81 17.93 14.77.9-.56c1.57-1.12 3.92-2.8 4.15-2.91.45-.34.67-1.12.67-2.13 0-2.46-1.57-5.48-3.36-6.48l-37.44-21.6c-.33-.22-1-.22-1.46-.1l-.1.1-3.93 2.7Z"/>
  <path fill="#F6A01D" d="m122.34 54.82-12.56-7.28c-3.25-1.9-5.83-6.82-5.83-11.18l24.33 14.1c0 4.24-2.7 6.26-5.94 4.36Z"/>
  <path fill="#FDEDCC" d="m126.6 59.74-12.56-7.27c-3.25-1.9-5.83-6.83-5.83-11.19l24.33 13.98c0 4.37-2.7 6.27-5.94 4.48Z"/>
  <path fill="#177C1B" d="M124.69 56.6c-.9 0-1.9-.33-2.91-.89l-12.56-7.16c-3.58-2.01-6.39-7.38-6.39-12.08v-1.79l26.45 15.21v.56c0 2.69-.9 4.7-2.57 5.6-.56.33-1.24.56-2.02.56Zm-19.5-18.23c.67 3.36 2.69 6.94 5.15 8.28l12.56 7.27c.78.45 1.79.78 2.8.34.78-.45 1.34-1.68 1.45-3.25L105.2 38.37Z"/>
  <path fill="#F6A01D" d="M134.78 54.14 97.34 32.56c-2.13-1.23-3.92-4.6-3.92-7.39 0-2.8 1.68-4.14 3.92-2.9l37.44 21.58c2.13 1.23 3.92 4.59 3.92 7.39 0 2.9-1.8 4.14-3.92 2.9Z"/>
  <path fill="#177C1B" d="M136.35 55.71a5.5 5.5 0 0 1-2.13-.56L96.89 33.56c-2.46-1.45-4.37-5.03-4.37-8.28 0-1.9.67-3.35 1.9-4.02a3.51 3.51 0 0 1 3.6.22l37.43 21.59c2.47 1.45 4.37 5.03 4.37 8.28 0 1.9-.67 3.35-1.9 4.03-.56.22-1.01.33-1.57.33ZM95.88 22.94c-.1 0-.33 0-.44.1-.56.34-.79 1.13-.79 2.24 0 2.47 1.57 5.49 3.36 6.5l37.44 21.58c.34.23 1 .45 1.46.23.56-.34.78-1.12.78-2.24 0-2.46-1.57-5.48-3.36-6.49L96.89 23.27a2.68 2.68 0 0 0-1-.33Z"/>
  <path fill="#177C1B" d="m136.35 45.53 5.71-3.58 2.13 5.15-1.23 3.24-4.6 3.25v-3.7l-2.01-4.36Zm14.79 18.79 6.05-3.91.23 87.8-1.24 3.81-5.71 3.36.45-88.93.22-2.13ZM104.4 181.44 72.57 163.1l10.99-6.27c1.68-1 3.36-2.12 4.7-3.24 1.24-1 2.36-2.13 3.37-3.13.33-.34.56-.68.78-1.01l1.35-.78h.1l5.5-3.25c.45-.33.78-.78.78-1.34v-11.19c0-.55-.33-1.11-.78-1.34l-3.36-1.9a9.3 9.3 0 0 0 .33-2.46v-9.28c0-.45 0-1.01-.1-1.46-.23-2.13-.9-4.25-2.03-6.38a24.9 24.9 0 0 0-5.26-6.37 36.95 36.95 0 0 0-8.19-5.37 56.06 56.06 0 0 0-12.21-4.25 73.78 73.78 0 0 0-32.06 0c-4.48 1-8.52 2.46-12.22 4.25a39.77 39.77 0 0 0-8.18 5.37 24.9 24.9 0 0 0-5.26 6.38 16.93 16.93 0 0 0-2.02 6.37c0 .45-.11 1-.11 1.45v21.03c0 1.8.33 3.7 1 5.37.9 2.35 2.25 4.59 4.26 6.72a33.11 33.11 0 0 0 7.74 6.04l30.37 17.45c.11.1.34.1.45.1.11 0 .22 0 .34-.1l5.6-3.25 38.22 22.04v6.6c0 .33.11.56.45.67.11.11.22.11.45.11.1 0 .22 0 .44-.11l6.06-3.47c.22-.11.45-.44.45-.67v-13.98c.33-.67.1-.9-.12-1Z"/>
  <path fill="#177C1B" fill-rule="evenodd" d="M36.4 93.71a74.16 74.16 0 0 1 32.22 0A56.44 56.44 0 0 1 80.92 98a37.33 37.33 0 0 1 8.26 5.42v.01a25.27 25.27 0 0 1 5.35 6.47v.01a17.97 17.97 0 0 1 2.06 6.49c.12.48.12 1.07.12 1.5v9.3c0 .72-.1 1.53-.28 2.28l3.1 1.75c.59.3.99.99.99 1.67v11.19c0 .73-.44 1.27-.94 1.64l-.01.02-5.6 3.3h-.11l-1.19.69c-.2.31-.44.65-.78 1-1.01 1-2.14 2.13-3.39 3.15a38.83 38.83 0 0 1-4.75 3.27l-10.42 5.95 31.25 18.01c.16.08.37.23.45.53.07.26.02.56-.14.9v13.9c0 .2-.1.42-.2.58-.1.15-.26.32-.44.41l-6.06 3.47c-.14.07-.26.11-.37.14-.1.02-.2.02-.25.02h-.04c-.17 0-.4 0-.6-.16a.96.96 0 0 1-.48-.38 1.2 1.2 0 0 1-.16-.62v-6.38L58.45 171.7l-5.38 3.11a.77.77 0 0 1-.55.18h-.01c-.06 0-.17 0-.29-.02a.8.8 0 0 1-.38-.16L21.5 157.38a33.46 33.46 0 0 1-7.82-6.11 20.3 20.3 0 0 1-4.33-6.83 15.1 15.1 0 0 1-1.04-5.5V117.9c0-.25.03-.52.06-.76v-.01c.03-.26.05-.49.05-.69v-.04a17.3 17.3 0 0 1 2.07-6.52 25.27 25.27 0 0 1 5.34-6.47 40.14 40.14 0 0 1 8.27-5.43 56.45 56.45 0 0 1 12.3-4.28Zm32.05.73a73.41 73.41 0 0 0-31.88 0c-4.46 1-8.47 2.45-12.14 4.23a39.42 39.42 0 0 0-8.1 5.31c-2.22 2-3.98 4.09-5.19 6.28a16.57 16.57 0 0 0-1.97 6.21c0 .24-.03.5-.05.74-.03.27-.06.5-.06.7v21.03c0 1.74.33 3.6.98 5.22v.01c.88 2.3 2.2 4.5 4.19 6.59a32.73 32.73 0 0 0 7.65 5.97l30.41 17.48.02.02h.04l.16.01h.07l.04-.03 5.83-3.38 38.6 22.25v6.82c0 .13.02.19.04.22 0 .02.04.06.15.1l.08.02.06.06h.05a2.5 2.5 0 0 0 .24 0l.17-.06 6.05-3.47a.53.53 0 0 0 .17-.17.55.55 0 0 0 .07-.12.18.18 0 0 0 .01-.05v-14.07l.04-.08c.15-.3.13-.42.13-.45 0 0 0-.02-.07-.05h-.01l-32.41-18.69 11.54-6.58c1.68-1 3.34-2.1 4.66-3.21 1.22-1 2.33-2.1 3.34-3.1.3-.31.51-.62.74-.96l.05-.07 1.5-.88h.11l5.4-3.18c.38-.3.6-.64.6-1.03v-11.19c0-.43-.26-.85-.57-1l-3.63-2.06.08-.28c.21-.75.32-1.6.32-2.36v-9.28c0-.47 0-.97-.1-1.37v-.02l-.01-.03a17.2 17.2 0 0 0-1.98-6.24 24.53 24.53 0 0 0-5.18-6.27c-2.33-2-4.88-3.76-8.1-5.31a55.7 55.7 0 0 0-12.14-4.23Z" clip-rule="evenodd"/>
  <path fill="#FDEDCC" d="m104.07 182.11-6.05 3.47.1 6.82-39.1-22.26-3.15-1.79v-13.98l4.6 2.57 3.14 1.9 7.5 4.26 32.96 19.01Z"/>
  <path fill="#177C1B" d="M98.8 132.78v11.19l-5.6 3.24-9.98 5.7-2.69 1.57V143.3l18.27-10.52Z"/>
  <path fill="#FDEDCC" d="M98.8 132.78 80.53 143.3l-1.57-.9 4.26-2.46a54.25 54.25 0 0 0 4.93-3.35 22.17 22.17 0 0 0 3.25-3.25 17.8 17.8 0 0 0 2.47-3.47l1.34.79 3.59 2.12Z"/>
  <path fill="#F6A01D" d="M95.77 116.23c0 .44.12.9.12 1.34 0 1.68-.34 3.36-.79 4.92a18.51 18.51 0 0 1-4.26 6.71 31.44 31.44 0 0 1-7.5 5.82l-30.38 17.45-30.38-17.45a29.37 29.37 0 0 1-7.5-5.82 21.32 21.32 0 0 1-4.26-6.7 14.6 14.6 0 0 1-.79-4.93c0-.45 0-.9.11-1.34.23-2.13.9-4.14 1.9-6.04a22.12 22.12 0 0 1 5.05-6.16 37.73 37.73 0 0 1 7.96-5.25 50.75 50.75 0 0 1 12-4.14 68.76 68.76 0 0 1 15.9-1.8c5.39 0 10.66.57 15.92 1.8 4.15 1 8.19 2.35 12 4.14a35.07 35.07 0 0 1 7.95 5.25 22.12 22.12 0 0 1 5.05 6.16c1 1.9 1.68 3.91 1.9 6.04Zm-14.12 2.23c.11-1.34 0-2.57-.45-3.8a12.04 12.04 0 0 0-2.13-3.91 19.25 19.25 0 0 0-4.48-4.03 29.53 29.53 0 0 0-6.84-3.25 40.6 40.6 0 0 0-8.85-2 49.3 49.3 0 0 0-18.05 1.22 31.65 31.65 0 0 0-7.06 2.69l-1.34.67a21.8 21.8 0 0 0-3.7 2.57c-1.12 1-2.13 2.13-3.03 3.36a11.14 11.14 0 0 0-1.68 4.13c-.11.79-.11 1.57-.11 2.35.11.68.22 1.46.45 2.13.45 1.45 1.23 2.8 2.13 3.91a19.16 19.16 0 0 0 4.48 4.03 29.52 29.52 0 0 0 6.84 3.25 40.6 40.6 0 0 0 8.85 2c3.03.34 6.05.46 9.08.34 3.03-.22 6.05-.67 8.97-1.45a31.75 31.75 0 0 0 7.06-2.68c1.8-.9 3.47-2.02 5.04-3.36 1.12-1 2.13-2.13 3.03-3.36a11.13 11.13 0 0 0 1.68-4.13c.11-.23.11-.45.11-.68Z"/>
  <path fill="#177C1B" d="m83.22 152.92 9.86-5.7c-.56.89-1.34 1.78-2.01 2.68-1.01 1.12-2.13 2.12-3.25 3.13a30.31 30.31 0 0 1-4.6 3.13v-3.24Zm0 0v3.13l-12.1 7.05-7.51-4.25 15.46-8.95v3.69l1.46.9 2.69-1.57Z"/>
  <path fill="#F6A01D" d="M80.53 143.4v11.2l-1.46-.9v-11.19l1.46.9Zm-1.46 2.7v3.8l-15.46 8.95-3.14-1.9v-.12l18.6-10.74Z"/>
  <path fill="#FDEDCC" d="M95.77 118.35c0 .45.12.9.12 1.34 0 1.68-.34 3.25-.79 4.81-.9 2.47-2.35 4.7-4.15 6.6a30.39 30.39 0 0 1-7.4 5.7l-29.8 17.24-29.82-17.23a33.43 33.43 0 0 1-7.4-5.7 19.35 19.35 0 0 1-4.15-6.6 13.97 13.97 0 0 1-.78-4.82c0-.44 0-.89.11-1.34.23-2.12.9-4.14 1.9-5.93a21.62 21.62 0 0 1 4.94-6.04 32.75 32.75 0 0 1 7.84-5.14c3.7-1.9 7.74-3.13 11.77-4.14a73.01 73.01 0 0 1 31.16 0c4.04.9 8.07 2.24 11.88 4.14 2.8 1.34 5.5 3.02 7.85 5.14 2.02 1.68 3.7 3.7 4.93 6.04.9 1.9 1.57 3.92 1.8 5.93Z"/>
  <path fill="#177C1B" d="M81.2 114.66a11 11 0 0 1 .45 3.8 10.74 10.74 0 0 0-.9-3.24 13.03 13.03 0 0 0-2.69-3.8 18.7 18.7 0 0 0-4.7-3.58 27.84 27.84 0 0 0-6.5-2.8c-3.03-1-6.06-1.57-9.2-1.9a49.51 49.51 0 0 0-18.6 1.79 33.48 33.48 0 0 0-6.5 2.8c-1.68 1-3.36 2.12-4.7 3.58a11.66 11.66 0 0 0-2.7 3.91c-.45 1-.78 2.13-.9 3.36-.1-.79 0-1.57.12-2.35a9.42 9.42 0 0 1 1.68-4.14 14.2 14.2 0 0 1 3.02-3.36c1.13-1 2.36-1.9 3.7-2.57l1.35-.67a38.33 38.33 0 0 1 7.06-2.69 49.3 49.3 0 0 1 18.05-1.23c3.02.34 5.94 1.01 8.85 2.02 2.35.78 4.7 1.9 6.84 3.24a19.25 19.25 0 0 1 4.48 4.03c.56 1 1.34 2.35 1.8 3.8Zm14.69 11.52v.79c0 .89-.12 1.67-.34 2.46-.11.44-.22.78-.34 1.23l-1.34-.79a17.9 17.9 0 0 1-2.47 3.47 43.3 43.3 0 0 1-3.25 3.25 27.17 27.17 0 0 1-4.93 3.35v-4.8a29.37 29.37 0 0 0 7.51-5.82 21.32 21.32 0 0 0 4.26-6.72c.56-1.56.78-3.24.78-4.92.12 2.8.12 5.6.12 8.5Zm-12.67 8.95v4.81l-4.15 2.46v3.7l-18.6 10.73v.11l-4.6-2.57v13.98l3.14 1.8-6.16 3.46v-21.03l30.37-17.45Z"/>
  <path fill="#F6A01D" d="M52.85 152.58v21.03l-30.38-17.56v-20.92l30.38 17.45ZM9.92 138.6v-21.03c0 1.68.34 3.36.78 4.92.9 2.46 2.36 4.81 4.26 6.71a31.44 31.44 0 0 0 7.51 5.82v21.03a32.48 32.48 0 0 1-7.62-5.93 17.1 17.1 0 0 1-4.93-11.52Zm71.62-20.25c0 .23 0 .45-.11.67a9.53 9.53 0 0 1-1.68 4.14 12.3 12.3 0 0 1-3.03 3.36 24.7 24.7 0 0 1-5.04 3.35 38.26 38.26 0 0 1-7.07 2.69 48.38 48.38 0 0 1-8.96 1.45 41.1 41.1 0 0 1-9.08-.33c-3.03-.34-5.94-1-8.85-2.02a31.7 31.7 0 0 1-6.84-3.24 19.27 19.27 0 0 1-4.49-4.03 13.33 13.33 0 0 1-2.12-3.91c-.23-.67-.34-1.46-.45-2.13.1-1.12.45-2.23.9-3.35.67-1.46 1.56-2.8 2.68-3.92a20.94 20.94 0 0 1 4.71-3.58 27.84 27.84 0 0 1 6.5-2.8c3.03-1 6.05-1.56 9.2-1.78a44.1 44.1 0 0 1 9.4 0 42 42 0 0 1 9.2 1.9c2.24.67 4.48 1.68 6.5 2.8a28.4 28.4 0 0 1 4.7 3.57 14.7 14.7 0 0 1 2.7 3.8 6.85 6.85 0 0 1 1.23 3.36Z"/>
  <path fill="#FDEDCC" d="M77.4 120.7c0 .22 0 .34-.12.56a8.97 8.97 0 0 1-1.46 3.58 10.7 10.7 0 0 1-2.57 2.9 22.87 22.87 0 0 1-4.38 2.92c-1.9 1-4.03 1.68-6.05 2.23a44.18 44.18 0 0 1-7.73 1.24c-2.58.1-5.16.1-7.85-.23-2.58-.34-5.15-.9-7.62-1.79a27.95 27.95 0 0 1-5.83-2.8 16.2 16.2 0 0 1-3.8-3.46 12.4 12.4 0 0 1-1.91-3.36 5.05 5.05 0 0 1-.34-1.79c.11-1 .34-1.9.78-2.8a11.4 11.4 0 0 1 2.36-3.35 21.7 21.7 0 0 1 4.03-3.13c1.8-1.01 3.7-1.8 5.6-2.46a38.57 38.57 0 0 1 7.97-1.57c2.68-.22 5.37-.22 8.18 0 2.69.22 5.38.78 7.95 1.57 1.91.67 3.82 1.45 5.6 2.46 1.47.9 2.81 1.9 4.04 3.13.9 1 1.8 2.13 2.36 3.36.45.78.67 1.78.78 2.8Zm-39.12 30.43c-.23 0-.23.1-.23.44v9.74c0 .67.45 1.45.9 1.79l5.15 2.9c.23 0 .34-.1.34-.33v-9.84c0-.68-.45-1.46-.9-1.8l-5.26-2.9c.1 0 0 0 0 0Z"/>
  <path fill="#177C1B" fill-rule="evenodd" d="M55.52 153.77a.7.7 0 0 1 .7 0l4.6 2.57 43.6 25.17a.7.7 0 0 1 .35.6v2.46h-1.4v-2.05l-32.6-18.82-10.65-6.15-3.55-1.98v12.38l2.79 1.59 39 22.48-.7 1.21-39-22.48-3.13-1.79a.7.7 0 0 1-.36-.6v-13.99a.7.7 0 0 1 .35-.6Z" clip-rule="evenodd"/>
  <path fill="#177C1B" d="M104.07 182.11v13.98l-6.05 3.47v-13.98l6.05-3.47Z"/>
  <path fill="#177C1B" fill-rule="evenodd" d="M104.42 181.5a.7.7 0 0 1 .35.61v13.98a.7.7 0 0 1-.35.61l-6.06 3.47a.7.7 0 0 1-1.05-.6v-13.99a.7.7 0 0 1 .36-.6l6.05-3.47a.7.7 0 0 1 .7 0Zm-5.7 4.49v12.36l4.65-2.66v-12.37L98.7 186Zm-45.17-33.41v21.03h-1.4v-21.03h1.4ZM10.62 138.6h-1.4v-.56h1.4v.56Zm80.57 10.14.55-.72 1.12.84-.57.74a52.73 52.73 0 0 0-.6.77 44.41 44.41 0 0 1-3.28 3.17l-.01.01-.02.01a31 31 0 0 1-4.7 3.2l-12.22 6.95-.69-1.22 12.22-6.94a29.61 29.61 0 0 0 4.48-3.05c1.11-1 2.2-1.97 3.17-3.05l.54-.7v-.01Z" clip-rule="evenodd"/>
  <path fill="#177C1B" fill-rule="evenodd" d="M10.62 138.6c0 1.7.32 3.3.86 4.92v.01a16.42 16.42 0 0 0 3.88 6.22c2.2 2.3 4.72 4.27 7.45 5.8h.01l30.08 17.29 5.76-3.3.7 1.21-6.05 3.47a.7.7 0 0 1-.35.1h-.11a.7.7 0 0 1-.35-.1l-30.37-17.45a33.18 33.18 0 0 1-7.79-6.05 17.8 17.8 0 0 1-4.19-6.76 16.72 16.72 0 0 1-.93-5.36h1.4Zm42.23-44.94c-5.34 0-10.66.55-15.76 1.77h-.01c-4.1.89-8.07 2.21-11.82 4.08a37 37 0 0 0-7.81 5.16 21.43 21.43 0 0 0-4.9 5.95 15.86 15.86 0 0 0-1.84 5.89c-.09.35-.1.71-.1 1.17 0 1.62.23 3.21.75 4.68a20.73 20.73 0 0 0 4.12 6.49 28.66 28.66 0 0 0 7.33 5.67h.01l30.03 17.25 30.02-17.24a30.77 30.77 0 0 0 7.37-5.71 17.8 17.8 0 0 0 4.08-6.43c.44-1.53.75-3.13.75-4.7 0-.18-.02-.36-.05-.6-.02-.21-.06-.46-.06-.71a15.87 15.87 0 0 0-1.82-5.75 21.43 21.43 0 0 0-4.9-5.96 34.34 34.34 0 0 0-7.8-5.15 62.6 62.6 0 0 0-11.84-4.09 68.75 68.75 0 0 0-15.75-1.77Zm-16.07.4a69.46 69.46 0 0 1 16.07-1.8c5.43 0 10.75.56 16.07 1.8v.01a63.98 63.98 0 0 1 12.13 4.19h.02a35.76 35.76 0 0 1 8.1 5.36 22.82 22.82 0 0 1 5.2 6.35l-.61.33.61-.33a17.24 17.24 0 0 1 2.04 6.95v.02c.03.21.06.47.06.74a18.76 18.76 0 0 1-.82 5.16 19.21 19.21 0 0 1-4.41 6.96v-.02l-.51-.47.5.5v-.01a32.14 32.14 0 0 1-7.66 5.94l-30.38 17.45a.7.7 0 0 1-.7 0l-30.36-17.45.34-.6-.35.6a30.07 30.07 0 0 1-7.68-5.96 22 22 0 0 1-4.4-6.94 15.3 15.3 0 0 1-.82-5.16v-.03c0-.42 0-.92.12-1.43v.05l.7.07-.69-.17-.01.05c.24-2.21.94-4.3 1.98-6.25l.62.33-.62-.33a22.82 22.82 0 0 1 5.2-6.35l.46.53-.46-.53a38.4 38.4 0 0 1 8.1-5.35 51.44 51.44 0 0 1 12.16-4.2Zm0 0h-.01l.16.69-.15-.68Z" clip-rule="evenodd"/>
  <path fill="#177C1B" fill-rule="evenodd" d="M59.16 102.16a48.56 48.56 0 0 0-17.79 1.2 37.54 37.54 0 0 0-6.93 2.64l-1.34.67a16.15 16.15 0 0 0-3.57 2.5 13.47 13.47 0 0 0-2.9 3.22 8.84 8.84 0 0 0-1.56 3.83c-.11.8-.2 1.47-.11 2.14l.04.25c.1.61.2 1.23.38 1.76v.01a12.6 12.6 0 0 0 2.02 3.7 18.58 18.58 0 0 0 4.3 3.86 31.15 31.15 0 0 0 6.68 3.17h.01c2.87 1 5.73 1.65 8.7 1.98h.03c2.98.45 5.95.56 8.92.34 3-.22 5.98-.67 8.84-1.44a37.61 37.61 0 0 0 6.93-2.63 24 24 0 0 0 4.95-3.3 11.63 11.63 0 0 0 2.87-3.2 8.84 8.84 0 0 0 1.55-3.83.7.7 0 0 1 .07-.2c.03-.06.04-.12.04-.37a12.63 12.63 0 0 0-2.44-7.3 18.58 18.58 0 0 0-4.3-3.85 31.15 31.15 0 0 0-6.68-3.17 39.9 39.9 0 0 0-8.71-1.98Zm-9.06-1.62c3.08-.23 6.15-.11 9.21.23 3.08.34 6.04 1.02 9 2.04 2.41.8 4.81 1.95 6.99 3.32h.01a19.97 19.97 0 0 1 4.65 4.18l.02.02a14 14 0 0 1 2.23 4.15c.35 1.25.6 2.67.48 4.02 0 .19 0 .5-.14.84a10.23 10.23 0 0 1-1.78 4.33 13.02 13.02 0 0 1-3.17 3.51 25.42 25.42 0 0 1-5.16 3.43 38.97 38.97 0 0 1-7.2 2.74 48.1 48.1 0 0 1-9.1 1.47 41.2 41.2 0 0 1-9.21-.34 41.28 41.28 0 0 1-9-2.04 32.6 32.6 0 0 1-6.98-3.32h-.01a19.94 19.94 0 0 1-4.65-4.18l-.01-.02a14 14 0 0 1-2.23-4.12c-.22-.64-.34-1.37-.43-1.97l-.05-.25v-.02c-.12-.88 0-1.75.1-2.5l.02-.05c.23-1.55.83-3.1 1.79-4.43a14.89 14.89 0 0 1 3.15-3.5 17.54 17.54 0 0 1 3.84-2.66l1.35-.67a39.04 39.04 0 0 1 7.19-2.73c2.96-.8 6.04-1.25 9.1-1.48Z" clip-rule="evenodd"/>
  <path fill="#177C1B" d="m93.87 129.87 4.93 2.8v11.19l-5.6 3.24-12.56 7.27-1.57-.9V142.4l4.26-2.46a54.25 54.25 0 0 0 4.93-3.35 23.68 23.68 0 0 0 5.6-6.71Zm0-1.56c-.11 0-.34 0-.45.11-.45.11-.78.34-1 .78a18.8 18.8 0 0 1-2.25 3.25c-.9 1.12-1.9 2.01-3.14 3.02a29.09 29.09 0 0 1-4.7 3.24l-4.27 2.46c-.44.34-.78.79-.78 1.34v11.19c0 .56.34 1.12.78 1.34l1.57.9c.23.1.56.22.79.22.22 0 .56-.11.78-.22l12.56-7.27h.1l5.5-3.25c.45-.33.78-.78.78-1.34v-11.19c0-.55-.33-1.11-.78-1.34l-4.93-2.8c0-.33-.34-.44-.56-.44Z"/>
  <path fill="#177C1B" fill-rule="evenodd" d="M95.19 117.57h1.4v9.28c0 .93-.12 1.76-.35 2.58 0 .15-.04.3-.06.37v.02l-.04.13v.04h-1.4c0-.2.04-.4.07-.5v-.01a2.08 2.08 0 0 0 .07-.36 8 8 0 0 0 .3-2.27v-9.28ZM10.62 138.6h-1.4v-21.03h1.4v21.03Zm69.54 5.3-1.45-.9.73-1.2 1.46.9-.74 1.2Z" clip-rule="evenodd"/>
  <path fill="#177C1B" fill-rule="evenodd" d="m81.23 143.7 17.92-10.31-.7-1.21-18.27 10.51a.7.7 0 0 0-.35.6v11.2h1.4V143.7Zm-45.53 3.58a1 1 0 0 1 .45-.1h.18l5.47 3.14.03.02c.33.25.62.62.82 1 .2.4.36.87.36 1.35v9.74c0 .22-.06.5-.29.74-.23.24-.53.3-.75.3h-.18l-5.35-3.03-.04-.03a3.02 3.02 0 0 1-.82-1c-.2-.4-.36-.87-.36-1.35v-9.98c.01-.08.02-.22.08-.36.07-.17.2-.34.4-.44Zm.92 1.68v9.1c0 .2.07.45.2.7.13.23.27.41.39.5l4.4 2.5v-9.07c0-.19-.07-.44-.2-.7a1.73 1.73 0 0 0-.39-.5l-4.4-2.53Z" clip-rule="evenodd"/>
</svg>
