<svg xmlns="http://www.w3.org/2000/svg" fill="none" viewBox="0 0 380 220">
  <path fill="#177C1B" d="M68.92 177.6c-.67.34-.67.9 0 1.35.67.34 1.68.34 2.24 0 .68-.34.68-.9 0-1.34a2.62 2.62 0 0 0-2.24 0Zm7.06-1.9c.87 0 1.57-.4 1.57-.9 0-.49-.7-.89-1.57-.89-.86 0-1.57.4-1.57.9s.7.9 1.57.9Zm28.36 8.73c-.67.34-.67.9 0 1.35.68.33 1.69.33 2.24 0 .68-.34.68-.9 0-1.35-.67-.44-1.68-.44-2.24 0Zm-4.82-1.9c.87 0 1.57-.4 1.57-.9 0-.49-.7-.89-1.57-.89-.86 0-1.57.4-1.57.9 0 .49.7.9 1.57.9ZM80.8 170.78c-.67.34-.67.9 0 1.34.68.34 1.69.34 2.25 0 .67-.33.67-.9 0-1.34a2.62 2.62 0 0 0-2.25 0Zm35.31 13.65c-.67.34-.67.9 0 1.35.68.33 1.68.33 2.25 0 .67-.34.67-.9 0-1.35-.68-.44-1.69-.44-2.25 0Zm-5.94-3.47c-.67.34-.67.9 0 1.35.67.33 1.68.33 2.24 0 .68-.34.68-.9 0-1.35a2.62 2.62 0 0 0-2.24 0Zm-5.83-3.36c-.67.34-.67.9 0 1.35.68.34 1.69.34 2.24 0 .68-.34.68-.9 0-1.34a2.62 2.62 0 0 0-2.24 0Zm-4.82-1.9c.87 0 1.57-.4 1.57-.9 0-.49-.7-.89-1.57-.89-.86 0-1.57.4-1.57.9s.7.9 1.57.9Zm-5.82-3.35c.86 0 1.56-.4 1.56-.9s-.7-.9-1.57-.9c-.86 0-1.56.4-1.56.9s.7.9 1.56.9Zm-5.95-3.36c.87 0 1.57-.4 1.57-.9s-.7-.9-1.57-.9c-.86 0-1.57.4-1.57.9s.7.9 1.57.9Zm35.31 13.54c.87 0 1.57-.4 1.57-.9 0-.49-.7-.89-1.57-.89-.86 0-1.57.4-1.57.9 0 .49.7.9 1.57.9Zm-6.95-4.93c-.67.34-.67.9 0 1.35a2.6 2.6 0 0 0 2.25 0c.67-.34.67-.9 0-1.34a2.62 2.62 0 0 0-2.25 0Zm-5.94-3.35c-.67.34-.67.9 0 1.34.67.34 1.68.34 2.24 0 .68-.33.68-.9 0-1.34-.56-.45-1.56-.45-2.24 0Zm-5.83-3.47c-.67.34-.67.9 0 1.34.68.34 1.69.34 2.24 0 .68-.33.68-.9 0-1.34a2.62 2.62 0 0 0-2.24 0Zm-5.94-3.36c-.67.34-.67.9 0 1.34.67.34 1.68.34 2.24 0 .68-.33.68-.89 0-1.34a2.62 2.62 0 0 0-2.24 0Zm-5.83-3.36c-.67.34-.67.9 0 1.35.68.33 1.69.33 2.25 0 .67-.34.67-.9 0-1.34-.68-.45-1.69-.45-2.25 0Zm36.43 15c.87 0 1.57-.4 1.57-.9 0-.49-.7-.89-1.57-.89-.86 0-1.57.4-1.57.9 0 .49.7.9 1.57.9Zm-5.83-3.36c.87 0 1.57-.4 1.57-.9 0-.49-.7-.89-1.56-.89-.87 0-1.58.4-1.58.9s.7.9 1.58.9Zm-12.89-8.28c-.67.34-.67.9 0 1.34.68.34 1.69.34 2.25 0 .67-.33.67-.89 0-1.34-.68-.44-1.69-.44-2.25 0Zm-5.94-3.47c-.67.34-.67.9 0 1.35.68.33 1.69.33 2.24 0 .68-.34.68-.9 0-1.35a2.62 2.62 0 0 0-2.24 0Zm-5.83-3.35c-.67.33-.67.9 0 1.34.68.33 1.69.33 2.25 0 .67-.34.67-.9 0-1.34a2.61 2.61 0 0 0-2.25 0Zm35.31 13.54c-.67.33-.67.9 0 1.34.68.34 1.69.34 2.25 0 .67-.34.67-.9 0-1.34a2.62 2.62 0 0 0-2.25 0Zm-4.82-1.79c.87 0 1.57-.4 1.57-.9s-.7-.9-1.57-.9c-.86 0-1.57.4-1.57.9s.7.9 1.57.9Zm-23.54-13.65c.87 0 1.57-.4 1.57-.9s-.7-.9-1.57-.9c-.86 0-1.56.4-1.56.9s.7.9 1.56.9Zm35.31 13.65c.87 0 1.57-.4 1.57-.9s-.7-.9-1.57-.9c-.86 0-1.57.4-1.57.9s.7.9 1.57.9Zm-5.83-3.47c.87 0 1.57-.4 1.57-.9s-.7-.9-1.57-.9c-.86 0-1.56.4-1.56.9s.7.9 1.56.9Zm10.66-1.46c-.68.34-.68.9 0 1.34.67.34 1.67.34 2.24 0 .67-.33.67-.89 0-1.34-.68-.44-1.69-.44-2.25 0Zm-4.83-1.9c.87 0 1.57-.4 1.57-.9 0-.49-.7-.9-1.57-.9-.86 0-1.57.41-1.57.9 0 .5.7.9 1.57.9Zm4.83-4.92c-.68.33-.68.9 0 1.34.67.33 1.67.33 2.24 0 .56-.34.67-.9 0-1.34a2.62 2.62 0 0 0-2.25 0Zm-5.95-3.36c-.67.33-.67.9 0 1.34.67.34 1.68.34 2.24 0 .68-.34.68-.9 0-1.34-.56-.45-1.56-.45-2.24 0Zm-76.67 17.01c-.67.34-.67.9 0 1.34.67.34 1.68.34 2.24 0 .68-.33.68-.9 0-1.34a2.62 2.62 0 0 0-2.24 0Zm-4.71-1.9c.87 0 1.57-.4 1.57-.9s-.7-.9-1.57-.9c-.86 0-1.57.4-1.57.9s.7.9 1.57.9Zm-5.94-3.36c.87 0 1.57-.4 1.57-.9s-.7-.9-1.57-.9c-.86 0-1.57.4-1.57.9s.7.9 1.57.9Zm-5.83-3.36c.87 0 1.57-.4 1.57-.9 0-.49-.7-.89-1.57-.89-.86 0-1.57.4-1.57.9s.7.9 1.57.9Zm-5.94-3.47c.87 0 1.57-.4 1.57-.9 0-.49-.7-.89-1.57-.89-.86 0-1.57.4-1.57.9s.7.9 1.57.9Zm-6.95-4.92c-.67.33-.67.9 0 1.34a2.6 2.6 0 0 0 2.25 0c.67-.34.67-.9 0-1.34a2.62 2.62 0 0 0-2.25 0Zm-5.94-3.36c-.67.34-.67.9 0 1.34.68.34 1.68.34 2.24 0 .68-.33.68-.9 0-1.34a2.62 2.62 0 0 0-2.24 0Zm43.49 17.02a2.62 2.62 0 0 0-2.24 0c-.67.33-.67.89 0 1.34.67.44 1.68.33 2.24 0 .68-.45.68-1.01 0-1.35Zm-8.18-3.48c-.67.34-.67.9 0 1.34.67.34 1.68.34 2.24 0 .68-.33.68-.89 0-1.34a2.62 2.62 0 0 0-2.24 0Zm-10.65-5.26c.87 0 1.57-.4 1.57-.9 0-.49-.7-.89-1.57-.89-.86 0-1.57.4-1.57.9s.7.9 1.57.9Zm-5.83-3.36c.87 0 1.57-.4 1.57-.89 0-.5-.7-.9-1.57-.9-.86 0-1.57.4-1.57.9s.7.9 1.57.9Zm-5.94-3.35c.87 0 1.57-.4 1.57-.9s-.7-.9-1.57-.9c-.86 0-1.57.4-1.57.9s.7.9 1.57.9Zm-5.83-3.47c.87 0 1.57-.4 1.57-.9s-.7-.9-1.57-.9c-.86 0-1.56.4-1.56.9s.7.9 1.56.9Zm42.37 15.44a2.62 2.62 0 0 0-2.24 0c-.67.34-.67.9 0 1.34.68.34 1.68.34 2.24 0 .57-.33.57-1 0-1.34Zm-31.72-16.9c-.67.34-.67.9 0 1.35.68.33 1.68.33 2.24 0 .57-.45-1.68-1.8-2.24-1.35Zm-3.7-3.47a2.62 2.62 0 0 0-2.24 0c-.67.34-.67.9 0 1.35.67.33 1.68.33 2.24 0 .68-.34.68-1.01 0-1.35.68.34-.56-.33 0 0Zm41.25 17.01a2.62 2.62 0 0 0-2.24 0c-.67.34-.67.9 0 1.35.67.33 1.68.33 2.24 0 .68-.45.68-1 0-1.34Zm5.94-3.36a2.62 2.62 0 0 0-2.24 0c-.67.34-.67.9 0 1.35.68.34 1.68.34 2.24 0 .57-.45.57-1 0-1.34Zm4.83-1.9c.86 0 1.56-.4 1.56-.89 0-.5-.7-.9-1.57-.9-.86 0-1.56.4-1.56.9s.7.9 1.56.9Zm6.94-4.92a2.62 2.62 0 0 0-2.24 0c-.67.34-.67.9 0 1.34.67.34 1.68.34 2.24 0 .68-.44.68-1 0-1.34Zm-8.07-3.47c-.67.34-.67.9 0 1.34.68.34 1.69.34 2.25 0 .67-.33.67-.9 0-1.34a2.62 2.62 0 0 0-2.25 0Zm-33.4 26.64a2.62 2.62 0 0 0-2.24 0c-.67.33-.67.9 0 1.34.67.34 1.68.34 2.24 0 .67-.34.67-.9 0-1.34Zm-8.18-3.36c-.68.34-.68.9 0 1.34.67.34 1.68.34 2.24 0 .67-.33.67-.9 0-1.34a2.62 2.62 0 0 0-2.24 0Zm-5.83-3.36c-.67.34-.67.9 0 1.34.67.34 1.68.34 2.24 0 .67-.33.67-.89 0-1.34a2.62 2.62 0 0 0-2.24 0Zm-5.94-3.47c-.67.34-.67.9 0 1.35.67.33 1.68.33 2.24 0 .67-.34.67-.9 0-1.35a2.62 2.62 0 0 0-2.24 0Zm-4.71-1.79c.87 0 1.57-.4 1.57-.9 0-.49-.7-.89-1.57-.89-.87 0-1.57.4-1.57.9s.7.9 1.57.9Zm-5.94-3.35c.87 0 1.57-.4 1.57-.9s-.7-.9-1.57-.9c-.87 0-1.57.4-1.57.9s.7.9 1.57.9Z"/>
  <path fill="#F6A01D" d="M73.07 76.66c-.22-.9.11-1.79.9-2.24l14.34-8.17c.56-.44 1.24-.78 1.91-1.12l.45-.22.22-.11c6.62-3.02 15.47-1.9 25.67 3.91 20.07 11.53 36.32 37.5 36.32 57.98 0 8.72-2.8 14.88-7.73 18.35l-.23.22-.34.23c-.67.44-1.12.78-1.9 1.12l-6.84 3.91v11.64c0 .79-.34 1.34-.78 1.46l-14.46 8.17c-.56.33-1.35 0-1.46-.56l-4.6-13.32-.67-3.92 11.43-2.9-3.92-6.05a43.08 43.08 0 0 1-4.48-2.35c-8.52-4.93-16.37-12.42-22.53-20.93l-10.76-7.94-10.54-37.16Z"/>
  <path fill="#FDEDCC" d="M72.5 82.7c-.21-.9.12-1.79.9-2.23l14.35-8.17c.56-.45 1.24-.79 1.9-1.12l.46-.23.22-.1c6.62-3.03 15.58-1.91 25.67 3.9 20.06 11.54 36.32 37.5 36.32 57.98 0 8.73-31.72 18.47-31.72 18.47a43.18 43.18 0 0 1-4.49-2.35c-8.52-4.93-16.36-12.43-22.53-20.93l-10.76-7.95L72.51 82.7Z"/>
  <path fill="#177C1B" d="M119.03 173.02a2.02 2.02 0 0 1-1.35-1.34l-4.6-13.55-.89-5.03 10.87-2.69-2.8-4.47a51.04 51.04 0 0 1-4.26-2.24c-8.4-4.7-16.25-12.09-22.87-21.04l-10.87-8.06L71.95 77c-.34-1.35.22-2.91 1.46-3.58l14.23-8.17c.56-.34 1.23-.79 2.02-1.12l.78-.45c7.18-3.25 16.6-1.8 26.68 4.03C137.41 79.46 154 105.87 154 126.69c0 8.84-2.8 15.55-8.18 19.25l-.67.56c-.68.44-1.24.78-2.02 1.11l-6.28 3.58v10.97c0 1.23-.56 2.24-1.34 2.47l-14.46 8.16a1.9 1.9 0 0 1-1.13.34c-.33 0-.67 0-.9-.11ZM91.23 65.8l-.56.34c-.56.34-1.23.67-1.8 1l-14.23 8.29c-.34.22-.45.56-.45.9l10.09 36.81 10.42 7.73.23.22c6.39 8.84 14 16 22.08 20.7 1.46.79 2.91 1.57 4.37 2.24l.34.11 5.04 7.61-11.88 3.03.45 2.68 4.37 13.32 14.68-8.28s.12-.11.12-.45v-12.31l7.5-4.37a12.9 12.9 0 0 0 1.8-1l.56-.45c4.82-3.36 7.29-9.18 7.29-17.46 0-20.03-16.03-45.55-35.76-56.96-6.17-3.36-12-5.15-17.15-5.15-2.7 0-5.27.45-7.51 1.46Z"/>
  <path fill="#177C1B" d="m118.7 151.42 9.07 2.24 9.08-5.15v13.65c0 1.23-.56 2.24-1.34 2.47l-15.14 8.61a2.1 2.1 0 0 1-.78.23c-.23 0-.34 0-.56-.12-.45-.1-.79-.56-.9-1l-4.82-14.33-.9-5.03 6.28-1.57Z"/>
  <path fill="#177C1B" d="m115.67 171.45-10.88-16.67a51.06 51.06 0 0 1-4.26-2.24c-20.4-11.64-36.88-38.16-36.88-58.87 0-9.51 3.48-16.67 9.64-20.25 7.29-4.26 17.6-3.14 28.36 3.13 20.3 11.75 36.88 38.16 36.88 58.98 0 12.98-6.5 21.48-17.15 22.6V171c0 1.35-.67 2.24-1.68 2.58-.22.1-.45.1-.67.1-1.24 0-2.47-.77-3.36-2.23ZM74.53 75.32C69.03 78.45 66 84.94 66 93.56c0 20.14 15.92 45.66 35.64 56.96a80.7 80.7 0 0 0 4.38 2.24l.33.11 11.32 17.24c.56.9 1.23 1.12 1.35 1.12 0 0 .1-.11.1-.45V155.9l1.13-.12c10.09-.56 16.03-8.17 16.03-20.37 0-20.03-16.03-45.54-35.76-56.96-6.16-3.47-12.1-5.26-17.26-5.26-3.25 0-6.28.67-8.74 2.13Z"/>
  <path fill="#F6A01D" d="M100.98 78.23c19.62 11.3 35.53 36.7 35.53 56.74 0 12.98-6.72 20.59-16.81 21.15v13.65c0 2.02-2.13 2.02-3.48-.1l-10.87-16.68c-1.45-.68-2.91-1.35-4.37-2.24-19.62-11.2-35.53-36.71-35.53-56.74 0-20.04 15.91-27.09 35.53-15.78Z"/>
  <path fill="#FDEDCC" d="M109.61 123.66c0 3.14 2.13 6.83 4.93 8.4 2.8 1.56 4.94.33 4.94-2.8s-2.13-6.83-4.94-8.4c-2.69-1.56-4.93-.33-4.93 2.8Z"/>
  <path fill="#177C1B" d="M116.11 130.6c-3.02-1.68-5.27-5.7-5.27-9.17 0-1.8.68-3.25 1.91-3.92 1.23-.67 2.69-.56 4.26.33 3.03 1.68 5.27 5.71 5.27 9.18 0 1.8-.67 3.25-1.9 3.92-.57.33-1.13.45-1.69.45-.78 0-1.68-.23-2.58-.79Zm-2.58-11.52c-.67.33-1 1.23-1 2.46 0 2.8 2.01 6.27 4.48 7.72 1 .56 1.9.67 2.58.34.67-.34 1-1.23 1-2.47 0-2.8-2.01-6.26-4.48-7.72a4.13 4.13 0 0 0-1.79-.56c-.34 0-.56 0-.78.23Z"/>
  <path fill="#FDEDCC" d="M93.47 114.26c0 3.14 2.13 6.83 4.93 8.4 2.7 1.56 4.93.33 4.93-2.8s-2.13-6.83-4.93-8.4c-2.8-1.56-4.93-.22-4.93 2.8Z"/>
  <path fill="#177C1B" d="M99.86 121.31c-3.03-1.67-5.27-5.7-5.27-9.17 0-1.8.67-3.25 1.9-3.92 1.24-.67 2.7-.56 4.27.34 3.02 1.67 5.27 5.7 5.27 9.17 0 1.8-.68 3.25-1.91 3.92-.56.33-1.12.45-1.68.45-.79 0-1.68-.34-2.58-.79Zm-2.58-11.64c-.67.34-1 1.24-1 2.47 0 2.8 2.01 6.26 4.48 7.72 1 .56 1.9.67 2.57.33.68-.33 1.01-1.23 1.01-2.46 0-2.8-2.01-6.26-4.48-7.72a4.12 4.12 0 0 0-1.8-.56c-.22 0-.55.11-.78.22Z"/>
  <path fill="#FDEDCC" d="M77.22 104.97c0 3.14 2.13 6.83 4.93 8.4 2.69 1.56 4.93.33 4.93-2.8s-2.13-6.83-4.93-8.4c-2.8-1.56-4.93-.33-4.93 2.8Z"/>
  <path fill="#177C1B" d="M83.6 111.91c-3.02-1.67-5.26-5.7-5.26-9.17 0-1.8.67-3.25 1.9-3.92 1.24-.67 2.7-.56 4.26.34 3.03 1.67 5.27 5.7 5.27 9.17 0 1.8-.67 3.25-1.9 3.92-.56.33-1.13.45-1.69.45-.78 0-1.56-.23-2.57-.79Zm-2.57-11.52c-.67.33-1.01 1.23-1.01 2.46 0 2.8 2.02 6.27 4.48 7.72 1.01.56 1.9.67 2.58.34.67-.34 1.01-1.23 1.01-2.47 0-2.8-2.02-6.26-4.48-7.72a4.12 4.12 0 0 0-1.8-.56c-.22 0-.45 0-.78.23Z"/>
  <path fill="#F6A01D" d="m37.42 111.13 11.21-6.16c4.38-2.46 10.65-1.9 17.6 2.13 13.12 7.5 23.65 24.4 23.65 37.83 0 6.04-1.79 10.07-5.38 12.2l-.33.33-11.44 6.27-1.79-5.93a36.69 36.69 0 0 1-4.82-2.24c-.11-.11-.34-.22-.45-.34l-6.61 4.03c-1.01.67-2.8-1.23-2.8-2.9v-8.62c-8.19-8.51-13.9-20.26-13.9-30v-.67l-4.94-5.93Z"/>
  <path fill="#FDEDCC" d="m37.09 116.5 11.2-6.15c4.38-2.46 10.66-1.9 17.6 2.12 13.12 7.5 23.66 24.51 23.66 37.83 0 6.04-33.63 2.69-33.63 2.69-8.18-8.51-13.9-20.26-13.9-30v-.67l-4.93-5.82Z"/>
  <path fill="#177C1B" d="M70.04 158.58a29.6 29.6 0 0 1-4.26-2.01l-5.94 3.58c-.67.45-1.57.33-2.35-.11a4.51 4.51 0 0 1-2.24-3.92v-8.17c-8.41-8.95-13.9-20.82-13.9-30.44v-.34l-5.83-6.49 12.44-6.94.56-.33c4.82-2.35 11.43-1.46 18.16 2.46C80.13 113.59 91 131.05 91 144.7c0 6.38-2.01 10.86-5.94 13.21l-13.11 7.27-1.9-6.6ZM49.2 105.87l-.56.34-9.41 5.14 4.48 5.04v1.12c0 9.18 5.27 20.6 13.56 29.2l.34.34v9.18c0 .9.9 1.9 1.01 2.02l7.17-4.37 1.01.67c1.57.9 3.14 1.68 4.6 2.24l.56.22 1.46 5.15 9.97-5.48.45-.34c3.25-2.01 4.82-5.6 4.82-11.19 0-12.98-10.42-29.54-23.09-36.82-3.92-2.24-7.73-3.47-10.99-3.47a9.5 9.5 0 0 0-5.38 1.01Z"/>
  <path fill="#177C1B" d="M45.5 166.64a4.51 4.51 0 0 1-2.25-3.92v-8.17c-8.4-8.95-13.9-20.81-13.9-30.44 0-6.38 2.36-11.19 6.5-13.65 4.83-2.8 11.77-2.02 18.95 2.13 13.45 7.72 24.32 25.17 24.32 38.83 0 6.38-2.35 11.19-6.5 13.65-4.82 2.8-11.66 2.02-18.83-2.01l-5.94 3.58a1.8 1.8 0 0 1-1.01.34 3 3 0 0 1-1.34-.34Zm9.3-5.6c6.39 3.7 12.44 4.48 16.59 2.13 3.47-2.01 5.38-6.16 5.38-11.64 0-12.98-10.43-29.54-23.1-36.82-6.38-3.7-12.43-4.47-16.58-2.13-3.48 2.02-5.38 6.16-5.38 11.64 0 9.18 5.27 20.6 13.56 29.21l.34.34v9.18c0 .9.9 1.9 1 2.01l7.18-4.36 1 .44Z"/>
  <path fill="#177C1B" d="m88.76 136.76-11.65 7.05.9 9.85-2.14 8.61 11.77-7.38 2.24-5.37-.22-8.06-.9-4.7Zm61.32-25.86-15.25 9.4 2.58 12.88-1.34 11.41-2.58 7.16 13.22-7.72 4.49-7.16 1.57-8.73-.45-7.83-2.24-9.4Zm-21.86 46.9 7.06-4.14v-2.8l-5.04 3.02-2.02 3.92Z"/>
  <path fill="#F6A01D" d="M31.37 124.56c0-12.87 10.31-17.46 22.98-10.19 12.67 7.28 22.87 23.73 22.87 36.71 0 12.87-10.32 17.46-22.98 10.19a.85.85 0 0 0-.45-.23l-6.39 3.92c-1 .56-2.69-1.23-2.69-2.8v-8.4c-7.85-8.38-13.34-19.69-13.34-29.2Z"/>
  <path fill="#FDEDCC" d="M65.48 150.04c1.29-.74 1.3-3.12.04-5.32-1.27-2.19-3.35-3.37-4.63-2.63-1.29.75-1.3 3.13-.03 5.32 1.27 2.2 3.34 3.37 4.62 2.63Z"/>
  <path fill="#177C1B" d="M64.1 148.84c-2.02-1.23-3.7-4.02-3.7-6.37 0-1.35.45-2.35 1.35-2.8.9-.56 2.02-.45 3.14.22 2.01 1.23 3.7 4.03 3.7 6.38 0 1.34-.45 2.35-1.35 2.8-.34.22-.78.33-1.23.33-.67 0-1.24-.22-1.9-.56Zm-1.45-7.72c-.34.23-.57.67-.57 1.35a6.58 6.58 0 0 0 2.8 4.92c.57.34 1.13.45 1.46.22.34-.22.56-.67.56-1.34a6.55 6.55 0 0 0-2.8-4.92 2.13 2.13 0 0 0-1-.34c-.23 0-.34 0-.45.11Z"/>
  <path fill="#FDEDCC" d="M49.2 137.99a7 7 0 0 0 3.24 5.6c1.8 1 3.26.22 3.26-1.9a7 7 0 0 0-3.26-5.6c-1.79-1.01-3.25-.23-3.25 1.9Z"/>
  <path fill="#177C1B" d="M53.23 142.58c-2.02-1.23-3.7-4.03-3.7-6.38 0-1.34.45-2.35 1.35-2.8.9-.56 2.01-.45 3.13.22 2.02 1.24 3.7 4.03 3.7 6.38 0 1.35-.45 2.35-1.34 2.8-.34.22-.79.34-1.23.34a4.6 4.6 0 0 1-1.91-.56Zm-1.46-7.72c-.33.22-.56.67-.56 1.34a6.58 6.58 0 0 0 2.8 4.92c.56.34 1.13.45 1.46.23.34-.23.56-.67.56-1.35a6.55 6.55 0 0 0-2.8-4.92 2.14 2.14 0 0 0-1-.34c-.12 0-.35 0-.46.12Z"/>
  <path fill="#FDEDCC" d="M43.87 137.62c1.29-.75 1.3-3.13.04-5.32-1.27-2.2-3.35-3.37-4.63-2.63-1.29.74-1.3 3.12-.03 5.32 1.26 2.19 3.34 3.37 4.62 2.63Z"/>
  <path fill="#177C1B" d="M42.47 136.31c-2.02-1.23-3.7-4.03-3.7-6.38 0-1.34.45-2.35 1.34-2.8.9-.56 2.02-.44 3.14.23 2.02 1.23 3.7 4.03 3.7 6.38 0 1.34-.45 2.35-1.34 2.8-.34.22-.79.33-1.24.33a3.1 3.1 0 0 1-1.9-.56ZM41 128.59c-.33.22-.56.67-.56 1.34 0 1.8 1.35 4.03 2.8 4.92.56.34 1.12.45 1.46.23.34-.23.56-.67.56-1.34a6.58 6.58 0 0 0-2.8-4.93 2.13 2.13 0 0 0-1.01-.33c-.22 0-.34.1-.45.1Z"/>
</svg>
