<svg width="380" height="175" viewBox="0 0 380 175" fill="none" xmlns="http://www.w3.org/2000/svg">
<path d="M211.623 97.9572V76.2495H224.015V97.9572H211.623ZM229.363 103.31V70.8961H206.275V120.243H211.623V103.31H215.661L223.956 120.211H230.288L221.993 103.31H229.363Z" fill="#020203"/>
<path d="M139.866 97.9572V76.2495H152.258V97.9572H139.866ZM157.606 103.31V70.8961H134.518V120.243H139.866V103.31H143.904L152.199 120.211H158.531L150.236 103.31H157.606Z" fill="#020203"/>
<path d="M195.76 97.9572H183.368V76.2495H195.76V97.9572ZM178.02 70.8961V120.243H183.368V103.31H201.108V70.8961H178.02Z" fill="#020203"/>
<path d="M282.738 76.2495V70.8961H261.382V120.243H266.731V103.31H279.192V97.9572H266.731V76.2495H282.738Z" fill="#020203"/>
<path d="M239.364 76.2495H251.066V114.89H239.364V76.2495ZM234.016 120.243H256.414V70.8961H234.016V120.243Z" fill="#020203"/>
<path d="M113.211 98.9689L101.76 70.7944H97.2624V120.243H102.611V88.5193L111.382 109.44H115.04L123.811 88.5193V120.243H129.159V70.7944H124.661L113.211 98.9689Z" fill="#020203"/>
<path d="M168.789 114.788H163.393V120.339H168.789V114.788Z" fill="#020203"/>
<path d="M95.6259 66.5921L94.0107 59.0332L190.449 35.5L285.989 58.182L284.422 65.757L190.476 43.4015L95.6259 66.5921Z" fill="#F7A712"/>
<path d="M282.994 127.77H97.0057V135.5H282.994V127.77Z" fill="#F7A712"/>
</svg>
