<svg width="380" height="175" viewBox="0 0 380 175" fill="none" xmlns="http://www.w3.org/2000/svg">
<path d="M200.735 54.3895H195.611V81.3479H200.735V54.3895Z" fill="white"/>
<path d="M176.568 70.6696L169.737 54.3895H164.442V54.6521L176.483 83.0985L188.865 54.6521V54.3895H183.571L176.568 70.6696Z" fill="white"/>
<path d="M225.158 68.1313C223.706 66.6433 221.998 65.5055 220.034 64.8928L217.216 63.8425C215.508 63.1422 214.569 62.3545 214.484 61.3917C214.484 60.6915 214.911 60.0788 215.423 59.6412C216.875 58.6784 218.668 58.5908 220.205 59.291C220.888 59.7287 221.486 60.4289 221.827 61.1291L222.084 61.4792L226.268 59.2035L226.353 59.116L225.926 58.4158C224.304 55.5274 221.23 53.7768 217.985 53.8643C215.764 53.7768 213.544 54.477 211.751 55.965C210.128 57.1904 209.189 59.116 209.189 61.2166C209.189 61.3042 209.189 61.3042 209.189 61.3042C209.189 61.3042 209.189 61.3917 209.189 61.4792C209.189 64.5427 211.239 66.9059 215.252 68.4814L217.985 69.5317C218.582 69.7943 219.18 70.0569 219.693 70.407C220.12 70.6696 220.461 70.9322 220.803 71.2823C221.059 71.5449 221.315 71.895 221.4 72.2451C221.486 72.5952 221.571 72.9453 221.571 73.2954C221.571 74.2582 221.144 75.221 220.461 75.9212C219.607 76.6215 218.582 77.0591 217.472 76.9716C216.106 77.0591 214.825 76.5339 213.971 75.4836C213.459 74.6083 213.117 73.6455 213.032 72.5952L212.946 72.07L207.737 73.1204L207.823 73.3829L207.908 73.8206C208.164 76.0963 209.274 78.197 210.982 79.6849C212.776 81.0854 214.996 81.8731 217.302 81.7856C219.778 81.8731 222.084 80.9978 223.962 79.3348C225.756 77.7593 226.695 75.4836 226.695 73.1204V72.8578C226.866 71.2823 226.268 69.5317 225.158 68.1313Z" fill="white"/>
<path d="M230.879 59.3786H238.223V81.4355H243.603V59.3786H251.203V54.4771H230.879V59.3786Z" fill="white"/>
<path d="M167.773 120.648H185.193V115.834H172.555V109.182H184.852V104.28H172.555V98.6783H185.193V93.7768H167.773V120.648Z" fill="white"/>
<path d="M213.63 110.144L194.672 92.3764V120.648H199.539V104.193L218.497 121.961V93.7768H213.63V110.144Z" fill="white"/>
<path d="M228.147 120.648H245.823V115.834H233.014V109.182H245.482V104.28H233.014V98.6783H245.823V93.7768H228.147V120.648Z" fill="white"/>
<path d="M266.403 105.593H260.17V98.6784H266.574C271.185 98.6784 271.527 100.867 271.527 101.917C271.612 104.368 269.905 105.593 266.403 105.593ZM274.601 107.081C275.711 105.681 276.309 103.93 276.309 102.092V101.829C276.395 99.5536 275.37 97.2779 273.577 95.8775C271.954 94.5646 269.392 93.8644 265.891 93.8644H255.302V120.648H260.084V110.144H265.891L272.039 120.648H277.846L270.929 109.532C272.381 109.094 273.662 108.219 274.601 107.081Z" fill="white"/>
<path d="M330.279 93.7768L323.362 105.768L316.53 93.7768H310.809L320.714 110.757V120.648H326.009V110.757L336 93.7768H330.279Z" fill="white"/>
<path d="M295.523 105.068V109.707H303.892C303.465 111.37 302.525 112.77 301.33 113.908C299.451 115.484 297.145 116.184 294.754 116.009C292.363 115.746 290.229 114.608 288.691 112.683C287.411 111.02 286.642 109.007 286.642 106.906C286.642 106.643 286.642 106.381 286.642 106.118C287.154 101.042 291.595 97.2779 296.548 97.7155C298.341 97.8906 300.049 98.5908 301.415 99.7287L304.489 96.2276L304.319 96.0525C302.269 94.302 299.707 93.2516 296.975 92.9891C289.545 92.2888 282.97 97.8031 282.201 105.33C282.116 105.856 282.116 106.293 282.116 106.818C282.116 109.969 283.141 113.12 285.105 115.571C287.411 118.372 290.656 120.21 294.242 120.56C294.669 120.56 295.096 120.648 295.523 120.648C298.683 120.648 301.757 119.51 304.148 117.497C306.539 115.571 308.161 112.77 308.588 109.619C308.674 109.094 308.759 108.656 308.845 108.219C308.93 107.694 308.93 107.168 308.93 106.731C308.93 105.856 308.845 104.98 308.845 104.98L295.523 105.068Z" fill="white"/>
<path d="M78.1938 89.488V110.407L53.3439 86.5996V65.7681L78.1938 89.488ZM110.388 89.488V110.407L85.5377 86.5996V65.7681L110.388 89.488ZM142.581 89.488V110.407L117.731 86.5996V65.7681L142.581 89.488ZM110.388 48V78.1969L78.1938 48V78.1969L46 48V116.446L53.3439 122.136V97.9781L85.5377 128V97.9781L117.731 128V97.9781L149.925 128V84.5864L110.388 48Z" fill="white"/>
</svg>
