<svg width="380" height="175" viewBox="0 0 380 175" fill="none" xmlns="http://www.w3.org/2000/svg">
<path d="M98.5036 47.9528C98.7953 47.7548 99.0975 47.661 99.4205 47.661C99.5143 47.661 99.6914 47.6923 99.9519 47.7548C100.275 47.8799 100.525 48.0883 100.702 48.3592C100.879 48.6301 100.973 48.9323 100.973 49.2553C100.973 49.4845 100.921 49.6929 100.827 49.8805L87.0105 83.7658C86.7188 84.443 86.2186 84.7869 85.5101 84.7869C85.2183 84.7869 84.9265 84.6931 84.6348 84.516C84.343 84.3389 84.1346 84.0888 83.9992 83.7658L70.1929 49.8909C70.1304 49.6304 70.0991 49.422 70.0991 49.2657C70.0991 48.5571 70.443 48.057 71.1203 47.7652C71.3808 47.7027 71.5683 47.6715 71.7038 47.6715C72.0268 47.6715 72.329 47.7652 72.5999 47.9424C72.8708 48.1195 73.0792 48.3696 73.2042 48.6926L85.5622 78.9414L97.8784 48.6822C98.0034 48.3904 98.2222 48.1508 98.5036 47.9528ZM77.4138 49.2136C77.4138 48.5676 77.7369 48.0883 78.3829 47.7548C78.6434 47.6923 78.8309 47.661 78.9664 47.661C79.3207 47.661 79.6333 47.7548 79.9146 47.932C80.1855 48.1091 80.3939 48.3592 80.519 48.6822L85.5622 60.9463L90.5532 48.6822C90.6783 48.3592 90.8867 48.1091 91.1576 47.932C91.4285 47.7548 91.7307 47.661 92.0537 47.661C92.1787 47.661 92.3767 47.6923 92.6372 47.7548C92.9602 47.9215 93.2103 48.1404 93.3874 48.4113C93.5646 48.6822 93.6584 48.9844 93.6584 49.3074C93.6584 49.4324 93.6271 49.6304 93.5646 49.8909L87.0209 65.8436C86.8959 66.1354 86.6875 66.3646 86.4166 66.5418C86.1457 66.7189 85.8435 66.8127 85.5205 66.8127C85.2287 66.8127 84.937 66.7293 84.6452 66.5418C84.3535 66.3542 84.1451 66.125 84.0096 65.8436L77.5701 49.8909C77.4764 49.6304 77.4243 49.4116 77.4243 49.2136H77.4138ZM107.986 82.8071C107.683 83.1302 107.298 83.2864 106.85 83.2864C106.402 83.2864 106.006 83.1302 105.683 82.828C105.36 82.5258 105.204 82.1403 105.204 81.6922V49.2657C105.204 48.8176 105.37 48.4321 105.683 48.1299C106.006 47.8278 106.391 47.6715 106.85 47.6715C107.308 47.6715 107.683 47.8278 107.986 48.1299C108.288 48.4425 108.444 48.8176 108.444 49.2657V81.6922C108.444 82.109 108.288 82.4841 107.986 82.8071ZM114.477 82.8071C114.165 83.1302 113.789 83.2864 113.341 83.2864C112.893 83.2864 112.497 83.1302 112.174 82.828C111.851 82.5258 111.685 82.1403 111.685 81.6922V49.2657C111.685 48.8176 111.851 48.4321 112.174 48.1299C112.497 47.8278 112.883 47.6715 113.341 47.6715C113.8 47.6715 114.175 47.8278 114.477 48.1299C114.779 48.4425 114.936 48.8176 114.936 49.2657V81.6922C114.936 82.109 114.779 82.4841 114.477 82.8071ZM134.035 60.7484C135.88 61.4882 137.505 62.2801 138.901 63.1032C140.308 63.9264 141.569 65.0934 142.684 66.5939C143.799 68.0943 144.351 69.9282 144.351 72.0955C144.351 74.4921 143.819 76.5344 142.746 78.2537C141.683 79.9625 140.214 81.2754 138.359 82.1819C136.505 83.0885 134.41 83.5365 132.087 83.5365C130.597 83.5365 129.044 83.3385 127.429 82.953C125.553 82.5675 123.74 81.9006 122 80.9628C121.448 80.6711 121.177 80.2334 121.177 79.6499C121.177 79.2019 121.333 78.7955 121.636 78.4412C121.938 78.087 122.323 77.9098 122.771 77.9098C123.032 77.9098 123.292 77.9723 123.542 78.1078C124.897 78.8163 126.314 79.3686 127.783 79.7541C129.253 80.1397 130.67 80.3376 132.024 80.3376C134.671 80.3376 136.859 79.6395 138.568 78.2537C140.277 76.8678 141.142 74.8151 141.142 72.0955C141.142 70.6055 140.746 69.3447 139.954 68.2923C139.162 67.2399 138.214 66.4063 137.119 65.7915C136.025 65.1768 134.66 64.5307 133.045 63.8535C131.399 63.1137 130.357 62.5822 129.94 62.2488C129.357 61.8008 128.909 61.2381 128.606 60.5712C128.31 59.9421 128.153 59.2559 128.148 58.5602C128.148 57.2994 128.627 56.2261 129.576 55.3405C130.524 54.4548 131.93 54.0067 133.764 54.0067C135.598 54.0067 137.745 54.5069 140.162 55.5072C140.808 55.7989 141.131 56.2678 141.131 56.9139C141.131 57.3306 140.985 57.7266 140.693 58.0809C140.402 58.4351 140.027 58.6123 139.579 58.6123C139.381 58.6123 139.162 58.5602 138.901 58.4664C136.828 57.6224 135.119 57.2056 133.764 57.2056C132.952 57.2056 132.337 57.3515 131.92 57.6432C131.503 57.935 131.295 58.2684 131.295 58.6644C131.295 59.0812 131.503 59.4563 131.92 59.7793C132.18 59.9773 132.868 60.3003 134.004 60.7484H134.035ZM122.396 62.9053C121.818 61.5846 121.52 60.1583 121.521 58.7165C121.521 56.8722 121.969 55.1112 122.855 53.4336C123.74 51.756 124.991 50.3702 126.616 49.2865C128.242 48.2029 130.107 47.6089 132.243 47.5152C133.702 47.4526 135.077 47.5152 136.39 47.734C137.703 47.9424 139.214 48.3383 140.923 48.9218C141.277 49.0469 141.548 49.2449 141.725 49.5054C141.902 49.7658 141.996 50.0576 141.996 50.3806C141.996 50.8287 141.84 51.2246 141.537 51.5685C141.225 51.9123 140.85 52.0791 140.402 52.0791C140.277 52.0791 140.079 52.0478 139.818 51.9853C137.328 51.11 135.129 50.6724 133.222 50.6724C130.576 50.6724 128.502 51.4955 127.012 53.1419C126.335 53.8817 125.804 54.7465 125.408 55.7156C125.022 56.6846 124.824 57.6849 124.824 58.7165C124.824 60.8838 125.616 62.6448 127.2 63.9993C127.94 64.6766 128.721 65.2289 129.555 65.6457C130.378 66.0625 131.368 66.5001 132.535 66.9586C133.733 67.4379 134.66 67.8755 135.317 68.2402C135.973 68.6153 136.536 69.1051 136.984 69.7198C137.432 70.3346 137.693 71.1265 137.766 72.0955C137.828 73.4189 137.38 74.5442 136.411 75.4612C135.442 76.3781 134.275 76.8887 132.92 76.9929C131.211 77.0866 129.45 76.8991 127.637 76.4302C125.824 75.9613 124.168 75.1798 122.646 74.0753C122.198 73.7523 121.969 73.3459 121.969 72.8666C121.969 72.4186 122.136 72.0226 122.48 71.6788C122.823 71.3349 123.199 71.1682 123.615 71.1682C124.001 71.1682 124.314 71.262 124.532 71.4599C125.533 72.1685 126.7 72.7416 128.044 73.1584C129.388 73.5752 130.617 73.7836 131.753 73.7836C132.597 73.7836 133.264 73.6585 133.764 73.4189C134.264 73.1792 134.515 72.8249 134.515 72.3769C134.515 71.8246 134.275 71.3974 133.816 71.0952C133.347 70.7931 132.545 70.4075 131.42 69.9595C130.128 69.4802 128.992 68.98 128.002 68.4799C127.012 67.9797 126.022 67.292 125.022 66.4167C123.894 65.4609 122.999 64.2598 122.407 62.9053H122.396ZM147.758 50.4536C147.435 50.1514 147.279 49.7658 147.279 49.3178C147.279 48.8697 147.435 48.4842 147.758 48.182C148.081 47.8799 148.467 47.7236 148.925 47.7236H171.567C172.015 47.7236 172.391 47.8799 172.682 48.182C172.974 48.4842 173.12 48.8697 173.12 49.3178C173.12 49.7658 172.964 50.1514 172.662 50.4536C172.359 50.7557 171.995 50.912 171.567 50.912H148.925C148.477 50.912 148.081 50.7557 147.758 50.4536ZM147.758 56.9034C147.435 56.6013 147.279 56.2366 147.279 55.8094C147.279 55.3613 147.435 54.9653 147.758 54.6423C148.081 54.3193 148.467 54.1526 148.925 54.1526H156.969C157.417 54.1526 157.813 54.3193 158.136 54.6423C158.459 54.9653 158.616 55.3509 158.616 55.8094V81.6505C158.616 82.0986 158.449 82.4945 158.136 82.8176C157.813 83.1406 157.428 83.2969 156.969 83.2969C156.511 83.2969 156.125 83.1301 155.802 82.8176C155.479 82.4945 155.323 82.109 155.323 81.6505V57.3619H148.925C148.477 57.3619 148.081 57.2056 147.758 56.9034ZM172.651 54.6528C172.953 54.9758 173.11 55.3613 173.11 55.8198C173.11 56.2366 172.964 56.6013 172.672 56.9139C172.38 57.2264 172.005 57.3723 171.557 57.3723H165.065V81.661C165.065 82.109 164.899 82.505 164.576 82.828C164.253 83.151 163.867 83.3073 163.409 83.3073C162.95 83.3073 162.575 83.1406 162.273 82.828C161.96 82.505 161.814 82.1194 161.814 81.661V55.8094C161.814 55.3613 161.971 54.9653 162.273 54.6423C162.575 54.3193 162.961 54.1526 163.409 54.1526H171.557C171.974 54.1526 172.339 54.3193 172.651 54.6423V54.6528ZM76.4031 130.03C76.0801 130.301 75.705 130.447 75.2882 130.447C74.8401 130.447 74.4442 130.311 74.1212 130.03C73.7982 129.759 73.6419 129.363 73.6419 128.842V96.5613C73.6419 96.082 73.7982 95.686 74.1003 95.3735C74.4025 95.0713 74.788 94.915 75.2361 94.915H88.0316C90.3553 94.915 92.3559 95.4464 94.0231 96.5196C95.6902 97.5825 96.9406 98.9891 97.7742 100.708C98.6182 102.438 99.035 104.272 99.035 106.21C99.035 108.148 98.6182 110.034 97.7742 111.764C96.9302 113.494 95.6798 114.89 94.0231 115.953C92.3559 117.015 90.3657 117.557 88.0316 117.557H83.374V128.852C83.374 129.373 83.2073 129.769 82.8947 130.04C82.5717 130.311 82.1861 130.457 81.7277 130.457C81.2692 130.457 80.8836 130.322 80.5606 130.04C80.2376 129.769 80.0813 129.373 80.0813 128.852V115.911C80.0813 115.494 80.2376 115.119 80.5606 114.796C80.8836 114.473 81.2692 114.306 81.7277 114.306H88.0316C89.7092 114.306 91.1368 113.931 92.2934 113.171C93.4358 112.434 94.3519 111.395 94.94 110.17C95.5339 108.93 95.8361 107.606 95.8361 106.22C95.8361 104.835 95.5339 103.47 94.94 102.251C94.3461 101.021 93.4604 100.031 92.2934 99.2705C91.1263 98.5098 89.7092 98.1347 88.0316 98.1347H76.8824V128.863C76.8824 129.384 76.7157 129.78 76.3927 130.051L76.4031 130.03ZM86.2186 111.076C85.5517 111.097 85.0203 110.972 84.6139 110.711C84.2076 110.451 84.0096 110.034 84.0096 109.451C84.0096 108.805 84.2076 108.367 84.6139 108.138C85.0203 107.909 85.5622 107.794 86.2394 107.794L87.4481 107.846C87.9691 107.846 88.3755 107.679 88.6881 107.356C88.9903 107.033 89.1466 106.648 89.1466 106.189C89.1466 105.772 88.9903 105.397 88.6881 105.074C88.3859 104.751 87.9691 104.595 87.4481 104.595H81.7277C81.2067 104.595 80.8107 104.428 80.5398 104.116C80.2689 103.793 80.123 103.407 80.123 102.949C80.123 102.532 80.2585 102.157 80.5398 101.834C80.8211 101.511 81.2067 101.344 81.7277 101.344H87.4481C89.0007 101.344 90.199 101.823 91.0638 102.772C91.9182 103.73 92.3455 104.866 92.3455 106.189C92.3455 107.513 91.9182 108.659 91.0638 109.607C90.2094 110.566 89.0007 111.034 87.4481 111.034C87.2814 111.034 86.875 111.034 86.2082 111.055L86.2186 111.076ZM139.704 107.565C139.704 107.95 139.61 108.284 139.412 108.555C139.214 108.825 138.943 109.013 138.589 109.117C138.328 109.18 138.151 109.211 138.057 109.211C137.703 109.211 137.38 109.096 137.088 108.867C136.796 108.638 136.609 108.367 136.505 108.044C135.473 104.876 133.598 102.313 130.878 100.333C129.586 99.3955 128.158 98.6765 126.616 98.1764C125.05 97.6742 123.415 97.421 121.771 97.4262C118.572 97.4262 115.821 98.1347 113.529 99.5622C111.237 100.99 109.507 102.855 108.34 105.189C107.173 107.513 106.6 109.992 106.6 112.608C106.6 115.223 107.183 117.693 108.34 119.996C109.507 122.309 111.237 124.184 113.529 125.622C115.821 127.06 118.572 127.779 121.771 127.779C125.199 127.779 128.231 126.81 130.888 124.872C133.598 122.965 135.473 120.402 136.515 117.161C136.609 116.807 136.807 116.536 137.099 116.338C137.39 116.14 137.734 116.046 138.12 116.046C138.599 116.046 138.995 116.213 139.287 116.536C139.579 116.859 139.724 117.245 139.724 117.703C139.724 117.932 139.704 118.089 139.672 118.182C139.06 120.054 138.16 121.819 137.005 123.413C135.869 125.002 134.478 126.393 132.889 127.529C129.492 129.926 125.793 131.113 121.792 131.113C117.791 131.113 114.54 130.238 111.758 128.498C108.976 126.758 106.881 124.466 105.485 121.642C104.078 118.818 103.38 115.796 103.38 112.597C103.38 109.399 104.078 106.398 105.485 103.584C106.892 100.771 108.986 98.4994 111.758 96.7489C114.54 95.0088 117.884 94.1335 121.792 94.1335C125.699 94.1335 129.565 95.3109 132.889 97.6762C134.473 98.8433 135.848 100.219 137.005 101.823C138.161 103.428 139.058 105.179 139.672 107.085C139.704 107.179 139.724 107.346 139.724 107.575L139.704 107.565ZM111.539 117.651C111.539 117.068 111.81 116.599 112.362 116.244C112.622 116.119 112.893 116.046 113.185 116.046C113.831 116.046 114.3 116.317 114.592 116.87C115.436 118.255 116.467 119.277 117.697 119.923C118.926 120.704 120.281 121.09 121.771 121.09C122.938 121.09 124.022 120.871 125.022 120.433C126.022 119.996 126.898 119.391 127.637 118.61C128.417 117.833 129.034 116.909 129.45 115.89C129.888 114.859 130.107 113.754 130.107 112.597C130.107 111.441 129.888 110.336 129.45 109.305C129.013 108.273 128.408 107.388 127.637 106.637C126.887 105.857 125.987 105.237 124.991 104.814C123.97 104.376 122.896 104.157 121.771 104.157C120.281 104.157 118.926 104.532 117.697 105.272C116.436 106.012 115.405 107.033 114.592 108.325C114.467 108.617 114.258 108.836 113.987 108.982C113.717 109.128 113.425 109.201 113.143 109.201C112.695 109.201 112.31 109.034 112.008 108.711C111.706 108.388 111.549 108.013 111.549 107.596C111.549 107.335 111.633 107.044 111.789 106.721C112.82 104.876 114.227 103.438 116.009 102.407C117.791 101.375 119.708 100.854 121.781 100.854C123.365 100.854 124.866 101.156 126.293 101.75C127.71 102.344 128.971 103.199 130.076 104.293C131.107 105.387 131.93 106.648 132.524 108.075C133.118 109.503 133.42 111.003 133.42 112.587C133.42 114.171 133.118 115.671 132.524 117.099C131.93 118.526 131.107 119.787 130.076 120.881C128.994 121.968 127.718 122.841 126.314 123.455C124.907 124.07 123.397 124.372 121.781 124.372C119.812 124.372 117.884 123.851 116.009 122.819C114.227 121.725 112.831 120.266 111.789 118.453C111.622 118.13 111.549 117.859 111.549 117.63L111.539 117.651ZM143.83 97.645C143.507 97.3428 143.351 96.9573 143.351 96.5092C143.351 96.0612 143.507 95.6756 143.83 95.3735C144.153 95.0713 144.538 94.915 144.997 94.915H167.639C168.087 94.915 168.462 95.0713 168.754 95.3735C169.046 95.6756 169.192 96.0612 169.192 96.5092C169.192 96.9573 169.035 97.3428 168.733 97.645C168.431 97.9471 168.066 98.1034 167.639 98.1034H144.997C144.549 98.1034 144.153 97.9471 143.83 97.645ZM143.83 104.095C143.507 103.793 143.351 103.428 143.351 103.001C143.351 102.553 143.507 102.157 143.83 101.834C144.153 101.511 144.538 101.344 144.997 101.344H153.041C153.489 101.344 153.885 101.511 154.208 101.834C154.531 102.157 154.687 102.542 154.687 103.001V128.842C154.687 129.29 154.521 129.686 154.208 130.009C153.885 130.332 153.499 130.488 153.041 130.488C152.583 130.488 152.197 130.322 151.874 130.009C151.551 129.686 151.395 129.3 151.395 128.842V104.553H144.997C144.549 104.553 144.153 104.397 143.83 104.095ZM168.723 101.844C169.025 102.167 169.181 102.553 169.181 103.011C169.181 103.428 169.035 103.793 168.744 104.105C168.452 104.418 168.077 104.564 167.629 104.564H161.137V128.852C161.137 129.3 160.97 129.696 160.647 130.019C160.324 130.342 159.939 130.499 159.48 130.499C159.022 130.499 158.647 130.332 158.345 130.019C158.032 129.696 157.886 129.311 157.886 128.852V103.011C157.886 102.563 158.042 102.167 158.345 101.844C158.647 101.521 159.032 101.354 159.48 101.354H167.629C168.046 101.354 168.41 101.521 168.723 101.844ZM208.495 107.565C208.495 107.95 208.402 108.284 208.204 108.555C208.006 108.825 207.735 109.013 207.38 109.117C207.12 109.18 206.943 109.211 206.849 109.211C206.495 109.211 206.172 109.096 205.88 108.867C205.588 108.638 205.401 108.367 205.296 108.044C204.265 104.876 202.389 102.313 199.67 100.333C198.378 99.3955 196.95 98.6765 195.408 98.1764C193.842 97.6742 192.207 97.421 190.563 97.4262C187.364 97.4262 184.613 98.1347 182.321 99.5622C180.028 100.99 178.299 102.855 177.132 105.189C175.965 107.513 175.392 109.992 175.392 112.608C175.392 115.223 175.975 117.693 177.132 119.996C178.299 122.309 180.028 124.184 182.321 125.622C184.613 127.06 187.364 127.779 190.563 127.779C193.991 127.779 197.023 126.81 199.68 124.872C202.389 122.965 204.265 120.402 205.307 117.161C205.401 116.807 205.599 116.536 205.89 116.338C206.182 116.14 206.526 116.046 206.912 116.046C207.391 116.046 207.787 116.213 208.079 116.536C208.37 116.859 208.516 117.245 208.516 117.703C208.516 117.932 208.495 118.089 208.464 118.182C207.852 120.054 206.952 121.819 205.797 123.413C204.661 125.002 203.27 126.393 201.681 127.529C198.284 129.926 194.585 131.113 190.584 131.113C186.582 131.113 183.331 130.238 180.549 128.498C177.767 126.758 175.673 124.466 174.277 121.642C172.87 118.818 172.172 115.796 172.172 112.597C172.172 109.399 172.87 106.398 174.277 103.584C175.683 100.771 177.778 98.4994 180.549 96.7489C183.331 95.0088 186.676 94.1335 190.584 94.1335C194.491 94.1335 198.357 95.3109 201.681 97.6762C203.265 98.8433 204.64 100.219 205.797 101.823C206.953 103.428 207.849 105.179 208.464 107.085C208.495 107.179 208.516 107.346 208.516 107.575L208.495 107.565ZM180.331 117.651C180.331 117.068 180.601 116.599 181.154 116.244C181.414 116.119 181.685 116.046 181.977 116.046C182.623 116.046 183.092 116.317 183.384 116.87C184.228 118.255 185.259 119.277 186.489 119.923C187.718 120.704 189.073 121.09 190.563 121.09C191.73 121.09 192.813 120.871 193.814 120.433C194.814 119.996 195.689 119.391 196.429 118.61C197.209 117.833 197.825 116.909 198.242 115.89C198.68 114.859 198.899 113.754 198.899 112.597C198.899 111.441 198.68 110.336 198.242 109.305C197.805 108.273 197.2 107.388 196.429 106.637C195.679 105.857 194.779 105.237 193.783 104.814C192.761 104.376 191.688 104.157 190.563 104.157C189.073 104.157 187.718 104.532 186.489 105.272C185.228 106.012 184.196 107.033 183.384 108.325C183.258 108.617 183.05 108.836 182.779 108.982C182.508 109.128 182.217 109.201 181.935 109.201C181.487 109.201 181.102 109.034 180.799 108.711C180.497 108.388 180.341 108.013 180.341 107.596C180.341 107.335 180.424 107.044 180.581 106.721C181.612 104.876 183.019 103.438 184.801 102.407C186.582 101.375 188.5 100.854 190.573 100.854C192.157 100.854 193.657 101.156 195.085 101.75C196.502 102.344 197.763 103.199 198.867 104.293C199.899 105.387 200.722 106.648 201.316 108.075C201.91 109.503 202.212 111.003 202.212 112.587C202.212 114.171 201.91 115.671 201.316 117.099C200.722 118.526 199.899 119.787 198.867 120.881C197.786 121.968 196.51 122.841 195.106 123.455C193.699 124.07 192.188 124.372 190.573 124.372C188.604 124.372 186.676 123.851 184.801 122.819C183.019 121.725 181.623 120.266 180.581 118.453C180.414 118.13 180.341 117.859 180.341 117.63L180.331 117.651ZM236.681 127.727C236.983 128.05 237.139 128.436 237.139 128.894C237.139 129.353 236.983 129.728 236.681 130.03C236.379 130.332 235.993 130.488 235.545 130.488H216.685C216.237 130.488 215.841 130.332 215.518 130.03C215.195 129.728 215.039 129.342 215.039 128.894V96.4675C215.039 96.0195 215.206 95.6339 215.518 95.3318C215.841 95.0296 216.227 94.8733 216.685 94.8733C217.144 94.8733 217.519 95.0296 217.821 95.3318C218.123 95.6444 218.28 96.0195 218.28 96.4675V127.248H235.535C235.983 127.248 236.368 127.414 236.671 127.727H236.681ZM222.02 95.3214C222.343 95.0192 222.718 94.8629 223.135 94.8629C223.583 94.8629 223.979 95.0192 224.302 95.3214C224.625 95.6339 224.782 96.0091 224.782 96.4571V120.746H235.545C235.993 120.746 236.379 120.912 236.681 121.235C236.983 121.558 237.139 121.944 237.139 122.402C237.139 122.861 236.983 123.236 236.681 123.538C236.379 123.851 235.993 123.997 235.545 123.997H223.135C222.718 123.997 222.343 123.83 222.02 123.517C221.697 123.205 221.531 122.819 221.531 122.402V96.4675C221.531 96.0195 221.697 95.6339 222.02 95.3318V95.3214ZM278.298 107.565C278.298 107.95 278.204 108.284 278.006 108.555C277.808 108.825 277.537 109.013 277.183 109.117C276.922 109.18 276.745 109.211 276.651 109.211C276.297 109.211 275.974 109.096 275.682 108.867C275.391 108.638 275.203 108.367 275.099 108.044C274.067 104.876 272.192 102.313 269.472 100.333C268.18 99.3955 266.753 98.6765 265.21 98.1764C263.645 97.6742 262.01 97.421 260.365 97.4262C257.166 97.4262 254.416 98.1347 252.123 99.5622C249.831 100.99 248.101 102.855 246.934 105.189C245.767 107.513 245.194 109.992 245.194 112.608C245.194 115.223 245.777 117.693 246.934 119.996C248.101 122.309 249.831 124.184 252.123 125.622C254.416 127.06 257.166 127.779 260.365 127.779C263.793 127.779 266.826 126.81 269.483 124.872C272.192 122.965 274.067 120.402 275.109 117.161C275.203 116.807 275.401 116.536 275.693 116.338C275.985 116.14 276.328 116.046 276.714 116.046C277.193 116.046 277.589 116.213 277.881 116.536C278.173 116.859 278.319 117.245 278.319 117.703C278.319 117.932 278.298 118.089 278.267 118.182C277.655 120.054 276.755 121.819 275.599 123.413C274.463 125.002 273.072 126.393 271.483 127.529C268.086 129.926 264.387 131.113 260.386 131.113C256.385 131.113 253.134 130.238 250.352 128.498C247.57 126.758 245.475 124.466 244.079 121.642C242.672 118.818 241.974 115.796 241.974 112.597C241.974 109.399 242.672 106.398 244.079 103.584C245.486 100.771 247.58 98.4994 250.352 96.7489C253.134 95.0088 256.479 94.1335 260.386 94.1335C264.294 94.1335 268.159 95.3109 271.483 97.6762C273.067 98.8433 274.442 100.219 275.599 101.823C276.756 103.428 277.652 105.179 278.267 107.085C278.298 107.179 278.319 107.346 278.319 107.575L278.298 107.565ZM250.133 117.651C250.133 117.068 250.404 116.599 250.956 116.244C251.217 116.119 251.488 116.046 251.779 116.046C252.425 116.046 252.894 116.317 253.186 116.87C254.03 118.255 255.062 119.277 256.291 119.923C257.521 120.704 258.875 121.09 260.365 121.09C261.532 121.09 262.616 120.871 263.616 120.433C264.617 119.996 265.492 119.391 266.232 118.61C267.011 117.833 267.628 116.909 268.045 115.89C268.482 114.859 268.701 113.754 268.701 112.597C268.701 111.441 268.482 110.336 268.045 109.305C267.607 108.273 267.003 107.388 266.232 106.637C265.482 105.857 264.581 105.237 263.585 104.814C262.564 104.376 261.491 104.157 260.365 104.157C258.875 104.157 257.521 104.532 256.291 105.272C255.03 106.012 253.999 107.033 253.186 108.325C253.061 108.617 252.853 108.836 252.582 108.982C252.311 109.128 252.019 109.201 251.738 109.201C251.29 109.201 250.904 109.034 250.602 108.711C250.3 108.388 250.143 108.013 250.143 107.596C250.143 107.335 250.227 107.044 250.383 106.721C251.415 104.876 252.821 103.438 254.603 102.407C256.385 101.375 258.302 100.854 260.376 100.854C261.959 100.854 263.46 101.156 264.887 101.75C266.305 102.344 267.565 103.199 268.67 104.293C269.701 105.387 270.525 106.648 271.119 108.075C271.712 109.503 272.015 111.003 272.015 112.587C272.015 114.171 271.712 115.671 271.119 117.099C270.525 118.526 269.701 119.787 268.67 120.881C267.589 121.968 266.313 122.841 264.908 123.455C263.502 124.07 261.991 124.372 260.376 124.372C258.406 124.372 256.479 123.851 254.603 122.819C252.821 121.725 251.425 120.266 250.383 118.453C250.216 118.13 250.143 117.859 250.143 117.63L250.133 117.651ZM287.603 130.03C287.28 130.332 286.894 130.488 286.436 130.488C286.019 130.488 285.644 130.322 285.321 130.009C284.998 129.696 284.841 129.311 284.841 128.894V96.4675C284.841 96.0195 285.008 95.6339 285.321 95.3318C285.644 95.0296 286.019 94.8733 286.436 94.8733C286.884 94.8733 287.28 95.0296 287.603 95.3318C287.926 95.6444 288.092 96.0195 288.092 96.4675V128.894C288.092 129.342 287.926 129.728 287.603 130.03ZM300.357 94.8629C300.68 94.8629 300.982 94.9567 301.273 95.1546C301.753 95.4776 302.003 95.9153 302.003 96.4675C302.003 96.7906 301.909 97.0927 301.711 97.3845L294.251 108.044C293.959 108.492 293.521 108.721 292.938 108.721C292.615 108.721 292.312 108.627 292.021 108.43C291.573 108.106 291.343 107.638 291.343 107.023V96.4571C291.343 96.0091 291.51 95.6235 291.833 95.3214C292.156 95.0192 292.531 94.8629 292.948 94.8629C293.396 94.8629 293.782 95.0192 294.084 95.3214C294.386 95.6339 294.542 96.0091 294.542 96.4571V101.98L299.054 95.5297C299.408 95.0817 299.846 94.8525 300.367 94.8525L300.357 94.8629ZM302.003 128.842C302.003 129.394 301.763 129.842 301.273 130.197C300.982 130.395 300.68 130.488 300.357 130.488C299.836 130.488 299.398 130.259 299.044 129.811L294.532 123.361V128.884C294.532 129.332 294.376 129.717 294.073 130.019C293.771 130.322 293.386 130.478 292.938 130.478C292.521 130.478 292.146 130.311 291.823 129.999C291.5 129.676 291.333 129.3 291.333 128.884V118.266C291.333 117.776 291.5 117.38 291.844 117.057C292.187 116.734 292.563 116.567 292.979 116.567C293.5 116.567 293.917 116.807 294.24 117.297L301.701 127.915C301.899 128.206 301.992 128.509 301.992 128.832L302.003 128.842ZM308.255 94.8629C308.578 94.8629 308.88 94.9567 309.172 95.1546C309.651 95.4776 309.901 95.9153 309.901 96.4675C309.901 96.7906 309.807 97.0927 309.609 97.3845L298.95 112.65L309.609 127.915C309.807 128.206 309.901 128.509 309.901 128.832C309.901 129.384 309.661 129.832 309.172 130.186C308.88 130.384 308.578 130.478 308.255 130.478C307.734 130.478 307.296 130.249 306.942 129.801L295.647 113.608C295.457 113.34 295.356 113.02 295.355 112.691C295.355 112.337 295.449 112.014 295.647 111.722L306.942 95.5297C307.296 95.0817 307.734 94.8525 308.255 94.8525V94.8629ZM187.145 55.528C186.499 55.528 185.895 55.1216 185.665 54.4756C185.384 53.6629 185.822 52.7668 186.635 52.4854L217.144 41.9718C217.957 41.6905 218.853 42.1281 219.134 42.9409C219.415 43.7536 218.978 44.6497 218.165 44.931L187.666 55.4447C187.499 55.5072 187.322 55.528 187.156 55.528H187.145ZM187.145 64.4474C186.499 64.4474 185.895 64.041 185.665 63.395C185.384 62.5822 185.822 61.6861 186.635 61.4048L217.133 50.8912C217.946 50.6099 218.842 51.0475 219.124 51.8602C219.405 52.673 218.967 53.5691 218.154 53.8504L187.656 64.364C187.489 64.4266 187.312 64.4474 187.145 64.4474ZM187.145 73.3668C186.499 73.3668 185.895 72.9604 185.665 72.3144C185.384 71.5016 185.822 70.6055 186.635 70.3242L217.133 59.8106C217.946 59.5292 218.842 59.9669 219.124 60.7796C219.405 61.5924 218.967 62.4885 218.154 62.7698L187.656 73.2834C187.489 73.3459 187.312 73.3668 187.145 73.3668ZM187.145 82.2966C186.499 82.2966 185.895 81.8902 185.665 81.2442C185.384 80.4314 185.822 79.5353 186.635 79.254L217.133 68.7404C217.946 68.459 218.842 68.8967 219.124 69.7094C219.405 70.5222 218.967 71.4183 218.154 71.6996L187.656 82.2132C187.489 82.2757 187.312 82.2966 187.145 82.2966Z" fill="#A37557"/>
<path d="M216.956 55.528C216.31 55.528 215.706 55.1216 215.477 54.4756C215.195 53.6629 215.633 52.7668 216.446 52.4854L246.955 41.9718C247.768 41.6905 248.664 42.1281 248.945 42.9409C249.226 43.7536 248.789 44.6497 247.976 44.931L217.477 55.4447C217.31 55.5072 217.133 55.528 216.967 55.528H216.956ZM216.956 64.4474C216.31 64.4474 215.706 64.041 215.477 63.395C215.195 62.5822 215.633 61.6861 216.446 61.4048L246.944 50.8912C247.757 50.6099 248.653 51.0475 248.935 51.8602C249.216 52.673 248.778 53.5691 247.966 53.8504L217.467 64.364C217.3 64.4266 217.123 64.4474 216.956 64.4474ZM216.956 73.3668C216.31 73.3668 215.706 72.9604 215.477 72.3144C215.195 71.5016 215.633 70.6055 216.446 70.3242L246.944 59.8106C247.757 59.5292 248.653 59.9669 248.935 60.7796C249.216 61.5924 248.778 62.4885 247.966 62.7698L217.467 73.2834C217.3 73.3459 217.123 73.3668 216.956 73.3668ZM216.956 82.2966C216.31 82.2966 215.706 81.8902 215.477 81.2442C215.195 80.4314 215.633 79.5353 216.446 79.254L246.944 68.7404C247.757 68.459 248.653 68.8967 248.935 69.7094C249.216 70.5222 248.778 71.4183 247.966 71.6996L217.467 82.2132C217.3 82.2757 217.123 82.2966 216.956 82.2966Z" fill="#A37557"/>
<path d="M246.767 55.528C246.121 55.528 245.517 55.1216 245.288 54.4756C245.006 53.6629 245.444 52.7668 246.257 52.4854L276.766 41.9718C277.579 41.6905 278.475 42.1281 278.756 42.9409C279.038 43.7536 278.6 44.6497 277.787 44.931L247.288 55.4447C247.122 55.5072 246.944 55.528 246.778 55.528H246.767ZM246.767 64.4474C246.121 64.4474 245.517 64.041 245.288 63.395C245.006 62.5822 245.444 61.6861 246.257 61.4048L276.756 50.8912C277.568 50.6099 278.464 51.0475 278.746 51.8602C279.027 52.673 278.59 53.5691 277.777 53.8504L247.278 64.364C247.111 64.4266 246.934 64.4474 246.767 64.4474ZM246.767 73.3668C246.121 73.3668 245.517 72.9604 245.288 72.3144C245.006 71.5016 245.444 70.6055 246.257 70.3242L276.756 59.8106C277.568 59.5292 278.464 59.9669 278.746 60.7796C279.027 61.5924 278.59 62.4885 277.777 62.7698L247.278 73.2834C247.111 73.3459 246.934 73.3668 246.767 73.3668ZM246.767 82.2966C246.121 82.2966 245.517 81.8902 245.288 81.2442C245.006 80.4314 245.444 79.5353 246.257 79.254L276.756 68.7404C277.568 68.459 278.464 68.8967 278.746 69.7094C279.027 70.5222 278.59 71.4183 277.777 71.6996L247.278 82.2132C247.111 82.2757 246.934 82.2966 246.767 82.2966Z" fill="#A37557"/>
<path d="M277.172 55.528C276.526 55.528 275.922 55.1216 275.693 54.4756C275.411 53.6629 275.849 52.7668 276.662 52.4854L307.171 41.9718C307.984 41.6905 308.88 42.1281 309.161 42.9409C309.443 43.7536 309.005 44.6497 308.192 44.931L277.693 55.4447C277.527 55.5072 277.35 55.528 277.183 55.528H277.172ZM277.172 64.4474C276.526 64.4474 275.922 64.041 275.693 63.395C275.411 62.5822 275.849 61.6861 276.662 61.4048L307.161 50.8912C307.973 50.6099 308.87 51.0475 309.151 51.8602C309.432 52.673 308.995 53.5691 308.182 53.8504L277.683 64.364C277.516 64.4266 277.339 64.4474 277.172 64.4474ZM277.172 73.3668C276.526 73.3668 275.922 72.9604 275.693 72.3144C275.411 71.5016 275.849 70.6055 276.662 70.3242L307.161 59.8106C307.973 59.5292 308.87 59.9669 309.151 60.7796C309.432 61.5924 308.995 62.4885 308.182 62.7698L277.683 73.2834C277.516 73.3459 277.339 73.3668 277.172 73.3668ZM277.172 82.2966C276.526 82.2966 275.922 81.8902 275.693 81.2442C275.411 80.4314 275.849 79.5353 276.662 79.254L307.161 68.7404C307.973 68.459 308.87 68.8967 309.151 69.7094C309.432 70.5222 308.995 71.4183 308.182 71.6996L277.683 82.2132C277.516 82.2757 277.339 82.2966 277.172 82.2966Z" fill="#A37557"/>
</svg>
